<?xml version="1.0" encoding="UTF-8"?>
<svg xmlns="http://www.w3.org/2000/svg" viewBox="0 0 1849.15 223.24">
  <defs>
    <style>
      .cls-1, .cls-2 {
        fill: #03384a;
      }

      .cls-2 {
        stroke: #03384a;
        stroke-miterlimit: 10;
        stroke-width: .5px;
      }
    </style>
  </defs>
  <g id="Calque_1" data-name="Calque 1">
    <g>
      <path class="cls-1" d="m1351.52,83.66c-1.03-7.4-4.01-13.81-8.86-19.05-6.36-6.88-14.6-11.14-25.19-13.03-.47-.08-.95-.13-1.43-.18-.81-.08-1.64-.16-2.5-.39l-6.64.08c-.81.25-1.59.35-2.35.45-.52.06-1.01.12-1.47.23-8.04,1.83-13.87,5.53-17.81,11.29-2.17,3.17-3.97,6.88-5.5,11.34-2.35,6.86-5.1,12.12-8.66,16.55-1.83,2.28-3.16,4.75-3.95,7.35-.55,1.78-.33,3.73.59,5.35.88,1.55,2.29,2.64,3.97,3.06.87.19,1.28.68,1.47,1.05.28.55.26,1.18-.04,1.86-.45,1.02-.96,2.16-1.39,3.29-.97,2.53-.67,4.78.91,6.89.22.29.82,1.08.69,2.23-.11,1-.01,2.05.12,3.12.48,4.03,2.37,6.75,5.76,8.32,1.04.48,2.2.86,3.65,1.2,1.24.29,2.48.49,3.8.69,1.43.23,2.92.46,4.39.83,1.72.43,4.1,1.36,4.98,4.42l3.18,8.88h31.24c.61,0,1.42-.11,1.85-.6.43-.5.41-1.33.32-1.93-.95-6.39.57-13.26,4.27-19.35,1.31-2.15,2.71-4.27,4.07-6.31.93-1.42,1.87-2.83,2.78-4.27,6.85-10.75,9.38-21.67,7.75-33.37Zm-3.14,9.98c-.28,3.37-.96,6.71-1.99,9.93-1.03,3.23-2.42,6.33-4.14,9.23-.15.25-.31.51-.46.76-1.34,2.14-2.73,4.29-4.09,6.37-1.18,1.81-2.36,3.62-3.51,5.44-3.84,6.11-5.55,12.09-5.25,18.31.04.71-.15,1.29-.56,1.71-.59.61-1.36.6-1.72.59h-.12c-4.11-.01-7.38,0-10.56,0h-14.22l-2.47-6.52c-.56-2.39-1.89-4.15-4.08-5.37-2.1-1.17-4.49-1.63-6.95-2.03-.45-.07-.89-.14-1.33-.21-1.82-.27-3.69-.54-5.53-1.24-2.47-.94-3.99-2.84-4.39-5.5-.23-1.45-.24-2.92-.04-4.38.17-1.23-.15-1.49-.25-1.58-1.51-1.24-2.91-3.41-.99-6.71.21-.36.38-.8.55-1.27l.13-.33c.51-1.32.7-2.39.6-3.37-.33-3.16-1.42-3.52-2.61-3.63-.72-.07-1.32-.34-1.86-.58l-.34-.15c-1.59-.66-2.24-2.06-1.75-3.72.25-.85.62-1.72,1.13-2.65,1.27-2.35,2.83-4.5,4.34-6.58l.88-1.22c1.74-2.42,3.01-4.77,3.9-7.17l.53-1.44c1.12-3.04,2.28-6.18,3.62-9.22,1.48-3.35,3.45-7.16,6.87-10.12,4.59-3.95,10.15-6.05,16.99-6.4,6.88-.36,13.72,1.09,20.35,4.31,8.74,4.23,15.04,11.26,17.76,19.79,1.48,4.66,2,9.69,1.56,14.95Z"/>
      <path class="cls-1" d="m1313.28,64.41c-14.65,0-26.57,11.92-26.57,26.57s11.92,26.57,26.57,26.57,26.57-11.92,26.57-26.57-11.92-26.57-26.57-26.57Zm0,50.02c-12.93,0-23.45-10.52-23.45-23.45s10.52-23.45,23.45-23.45,23.45,10.52,23.45,23.45-10.52,23.45-23.45,23.45Z"/>
      <path class="cls-1" d="m1329.67,90.9c-.3-.3-.78-.45-1.53-.45h-29.73c-.72,0-1.22.15-1.52.45-.29.3-.42.79-.4,1.5.09,3.56,1.25,6.84,3.42,9.74,4.21,5.62,11.79,8.04,18.44,5.88,6.89-2.25,11.49-8.36,11.72-15.58.03-.74-.1-1.23-.4-1.54Zm-2.76,2.86c-.61,5.9-5.87,12-13.63,12s-13.02-6.1-13.63-12l-.02-.23h27.3l-.02.23Z"/>
      <path class="cls-1" d="m1329.73,83.52c-.28.32-.64.51-1.03.53-.42.03-.83-.14-1.18-.46-1.67-1.52-4.07-1.5-5.72.04-.5.48-1.11.56-1.74.22-.59-.3-.87-.82-.76-1.4.06-.39.29-.82.57-1.1,1.32-1.31,3.05-1.92,5.46-1.92,1.3,0,2.89.72,4.14,1.87.72.66.83,1.57.26,2.22Z"/>
      <path class="cls-1" d="m1306.92,83.53c-.27.31-.63.5-1.01.52-.42.02-.85-.14-1.21-.47-.82-.74-1.84-1.12-2.85-1.12-.7,0-1.39.18-2.01.56-.24.15-.47.33-.69.51l-.14.11c-.73.58-1.62.52-2.19-.13-.53-.63-.45-1.53.2-2.14,1.36-1.28,3-1.94,4.87-1.95,1.82.02,3.42.65,4.75,1.86.77.69.87,1.58.28,2.25Z"/>
    </g>
  </g>
  <g id="PHOTODEPROFIL">
    <g>
      <path class="cls-1" d="m952.02,154.09c-.65-2.84-1.44-5.71-2.21-8.49l-.37-1.16.03-.04-3.02-9.66c-.49-1.59-.99-3.18-1.49-4.76l-2.1-6.7c-1.24-3.94-2.47-7.87-3.7-11.83l-.12-.4.71-.38c.18-.09.32-.17.48-.25,5.28-2.65,8.68-7.36,9.32-12.93.62-5.49-1.58-10.76-6.04-14.48-2.82-2.34-6-4.38-9.07-6.36l-.72-.46c-.23-.15-.45-.28-.68-.42-1.31-.8-2.66-1.62-3.15-3.57l-.04-.16c-.2-.82-.38-1.53.2-2.51,2.16-3.58,2.86-7.76,1.92-11.46-.86-3.38-2.98-6.14-6.14-7.99l-.52-.3c-.73-.42-1.49-.85-2.2-1.34-1.64-1.11-3.27-2.25-4.9-3.39l-3.58-2.49h-1.62c-.96.52-1.89,1.18-2.4,2.39-1.62,3.75-2.94,6.61-4.25,9.29l-.4.79c-1.01,2-1.96,3.88-1.96,6.03,0,1.41.2,2.81.41,4.3.09.67.19,1.35.27,2.04l.06.56h-.85c-.25-.01-.58-.02-.91,0-1.27.09-2.55.14-3.83.2-2.71.12-5.53.24-8.22.69-17.6,2.95-31.25,11.23-40.58,24.6-12.22,17.51-13.44,36-3.63,54.95,6.26,12.1,16.72,21.13,31.1,26.87,5.64,2.24,11.75,3.67,18.17,4.24l1.66.13c3.17.24,6.31.19,9.54-.17.71-.08,1.4-.16,2.1-.27l.55-.09c3.59-.59,6.57-1.1,9.61-1.82,5.94-1.39,10.16-3.63,13.28-7.07,1.1-1.2,2.09-2.56,3.05-3.87.44-.6.88-1.2,1.33-1.79l.49-.64.82,1.66c.63,1.23,1.26,2.47,1.89,3.71,1.61,3.16,3.27,6.43,4.97,9.6,1.14,2.13,3.21,3.07,5.39,2.45,2.23-.62,3.5-2.39,3.5-4.84.02-8.8-.66-15.92-2.15-22.41Zm-19.09-74.8c4.3,2.51,7.41,4.8,10.07,7.43,1.68,1.67,2.8,3.85,3.32,6.49,1.17,5.88-2.4,12.5-7.79,14.46l-.49.18-.76-2.4c-.54-1.69-1.08-3.37-1.57-5.07-.18-.58.49-1.25.74-1.43,1.61-1.21,2.13-2.59,1.67-4.48l-.14-.65c-.21-.91-.42-1.85-.77-2.69-.44-1.06-.91-1.75-1.39-2.04-1.28-.78-1.64-1.87-1.9-2.92-.4-1.54-.82-3.08-1.29-4.76l-.76-2.74,1.06.62Zm-12.13,20.85l-.13-.47c-.38-1.35-.73-2.6-1.13-4.08l-.13-.48.48-.13c4.55-1.24,9.02-2.46,13.63-3.72l.48-.13.13.48c.38,1.35.73,2.6,1.14,4.05l.14.49-.49.13c-3.09.85-6.16,1.69-9.25,2.53l-4.87,1.33Zm4.52,15.29c1.01,4.4,1.98,8.58,2.96,12.82l1.57,6.76-3.13-1.78c-2.13-1.22-4.14-2.37-6.12-3.56-.76-.46-1.39-1.15-1.92-1.75-2.46-2.74-2.45-5.73.03-8.2,1.15-1.16,2.48-2.13,3.9-3.16.62-.45,1.26-.92,1.92-1.42l.61-.47.18.76Zm5.91-27.28l.13.48-10.92,2.97-.98-3.62c-.31-1.11-.61-2.22-.9-3.33-.62-2.28-1.25-4.63-1.92-6.93-.14-.48-.26-1.1.04-1.62.3-.53.92-.74,1.36-.85,2.46-.61,4.95-1.31,7.35-1.99.42-.12.95-.21,1.41.05.33.18.55.51.68.99,1.23,4.56,2.46,9.11,3.75,13.85Zm-22.98-30.75c.6-1.18,1.23-2.36,1.85-3.54.69-1.31,1.39-2.63,2.05-3.95.39-.79.68-1.62.97-2.42.11-.32.22-.63.33-.93l.22-.57.52.33c.98.63,1.95,1.27,2.92,1.91,2.03,1.35,4.12,2.75,6.27,3.94,3.04,1.68,4.99,4.1,5.65,6.98.73,3.19-.14,6.82-2.37,9.97-.31.43-.88.82-1.44.99-2.94.83-5.92,1.62-8.7,2.35-.28.08-.65.17-1.01.17-.22,0-.44-.03-.64-.13-4.55-2.07-7.08-5.1-7.74-9.25-.3-1.91.06-3.76,1.12-5.85Zm27.08,102.41c-1.96,6.54-6.3,11.03-12.88,13.34-4.08,1.44-8.41,2.44-13.23,3.07-.07.01-.14.02-.21.03-.23.03-.48.06-.75.08-1.56.12-3.8.16-5.94.16-2.73,0-5.3-.06-6.07-.08-.55-.04-1-.09-1.46-.15-15.96-1.9-29.07-8.65-38.94-20.08-9.53-11.07-13.57-23.78-12-37.8,1.53-13.56,8-25,19.25-34.02,11.71-9.38,25.73-13.85,41.68-13.29,1.64.06,3.35.25,4.66,1.76.33.39.83.74,1.49,1.06,1.51.73,2.85,1.71,2.5,3.87-.02.17.08.45.18.71.07.18.14.35.18.52l.84,3.08c.87,3.24,1.75,6.47,2.6,9.7.08.29.21,1.01-.05,1.6-.99,2.21-.25,6.9,1.32,8.38.48.45,1.18.72,1.92,1.01.27.11.53.21.79.32.18.08.57.04.9.06l.36.03.64,2.73c.38,1.64.76,3.25,1.16,4.86.28,1.13-.4,1.57-1,1.96-.58.39-1.15.74-1.72,1.1-1.67,1.04-3.39,2.12-4.77,3.47-2.03,1.96-3.1,4.22-3.09,6.55.01,2.31,1.07,4.55,3.09,6.47,1.46,1.39,3.26,2.51,5,3.59.65.41,1.3.81,1.94,1.23.74.5,1.5.96,2.26,1.43,1.24.75,2.52,1.53,3.69,2.42.74.55,1.37,1.62,1.7,2.85,1.48,5.49,2.87,11.04,4.04,15.74.17.67.14,1.52-.08,2.24Zm15.09,17.85c-.11.15-.22.31-.3.46l-.26.47-.45-.29c-.13-.09-.28-.16-.42-.23-.4-.21-.85-.44-1.09-.87-3.92-6.66-8.22-14.69-10.39-23.65-2.24-9.25-4.45-18.67-6.58-27.78l-1.87-7.95c-.75-3.18-1.48-6.37-2.22-9.59-.43-1.87-.87-3.76-1.31-5.66l-.11-.47.47-.12c2.05-.55,3.99-1.08,6.02-1.64l.46-.13,11.15,35.55,3.98,12.8c2.48,8.72,3.63,17.78,3.54,27.69-.01.54-.33,1-.62,1.41Z"/>
      <path class="cls-1" d="m874.07,121.31c-.61-1.44-1.49-2.76-2.64-3.9-2.25-2.24-5.22-3.46-8.37-3.46h-.08c-6.61.04-11.96,5.47-11.93,12.1.03,6.57,5.4,11.92,11.98,11.92h.01c3.19,0,6.19-1.25,8.45-3.52,2.28-2.28,3.52-5.31,3.51-8.52,0-1.62-.32-3.18-.93-4.62Zm-2.17,4.68c0,2.37-.93,4.6-2.61,6.28-1.67,1.68-3.89,2.6-6.25,2.6h-.03c-4.87-.02-8.84-3.99-8.86-8.86-.01-2.39.92-4.65,2.63-6.35,1.68-1.69,3.9-2.61,6.25-2.61h.03c4.85,0,8.82,3.99,8.84,8.86v.08Z"/>
      <path class="cls-1" d="m880.37,91.56c-1.97-1.99-4.6-3.08-7.41-3.09h-.01c-5.75,0-10.44,4.67-10.45,10.41-.02,5.76,4.63,10.47,10.36,10.5h.06c5.75,0,10.44-4.62,10.49-10.34.02-2.83-1.06-5.48-3.04-7.48Zm-2.23,12.59c-1.38,1.38-3.24,2.13-5.22,2.13h-.06c-4.09-.03-7.28-3.29-7.27-7.4.02-4.1,3.25-7.31,7.35-7.31h.02c4.04.01,7.34,3.3,7.35,7.34,0,1.99-.77,3.85-2.17,5.24Z"/>
      <path class="cls-1" d="m884.53,143.97c-1.85-1.84-4.39-2.98-7.18-2.98h-.02c-2.72.01-5.27,1.08-7.19,3.01-1.94,1.96-3,4.56-2.98,7.33.02,2.71,1.1,5.24,3.04,7.15,1.95,1.92,4.54,2.95,7.23,2.92,5.69-.07,10.12-4.57,10.1-10.25,0-2.8-1.16-5.34-3-7.18Zm-.1,7.23c0,3.95-3.08,7.07-7.03,7.1h-.06c-1.88,0-3.65-.72-4.98-2.03-1.35-1.33-2.09-3.11-2.1-5.01-.02-3.92,3.14-7.14,7.03-7.17,1.91.02,3.67.72,5.02,2.05,1.36,1.34,2.11,3.12,2.12,5.02v.04Z"/>
      <path class="cls-1" d="m897.17,77.52h-.04c-2.74,0-5.31,1.07-7.25,3.01-1.94,1.93-3,4.5-2.99,7.21.02,5.6,4.61,10.15,10.22,10.15s10.17-4.55,10.19-10.15c.02-5.61-4.52-10.2-10.13-10.22Zm5,15.17c-1.33,1.35-3.11,2.1-5.01,2.1h-.03c-3.91,0-7.11-3.14-7.14-7.02-.02-1.89.71-3.67,2.04-5.02,1.34-1.36,3.12-2.12,5.02-2.13h.05c3.95,0,7.06,3.08,7.1,7.03.02,1.9-.7,3.7-2.03,5.04Z"/>
      <path class="cls-1" d="m911.97,155.33c-.51-1.22-1.27-2.34-2.23-3.29-1.92-1.88-4.47-2.91-7.21-2.91h-.11c-2.71.03-5.25,1.12-7.16,3.07-1.9,1.95-2.94,4.52-2.91,7.22.07,5.6,4.65,10.14,10.31,10.08,2.71-.02,5.26-1.09,7.17-3.03,1.91-1.94,2.95-4.5,2.93-7.22-.01-1.38-.28-2.7-.79-3.92Zm-9.42,11.07h-.02c-1.89,0-3.67-.75-5.01-2.11-1.34-1.36-2.08-3.14-2.07-5.02.03-3.89,3.22-7.04,7.13-7.04h.03c1.91.01,3.69.74,5.01,2.08,1.33,1.34,2.05,3.12,2.04,5.04-.02,3.96-3.14,7.05-7.11,7.05Z"/>
    </g>
    <g>
      <path class="cls-1" d="m726.49,49.18c-.01,2.03-.01,4.06-.01,6.09,0,1.9,0,3.8-.01,5.7-.01.56-.04,1.28-.26,1.79-.4.91-1.09,1.31-2.1,1.2-1.03-.1-1.61-.61-1.83-1.59-.1-.44-.15-.95-.16-1.55v-4.49c.01-2.33.01-4.67-.02-7-.02-1.75.5-2.68,1.78-3.17h.84c1.26.48,1.79,1.4,1.77,3.02Z"/>
      <path class="cls-1" d="m754.71,88.1c-16.49-16.67-43.5-16.91-60.22-.54-8.43,8.27-12.71,18.39-12.72,30.07,0,14.71,6.39,26.75,18.98,35.78l.85.61-.65.82c-3.4,4.32-3.42,8.52-.07,12.85l.48.62-.48.61c-2.78,3.51-3.24,6.95-1.43,10.51,1.73,3.4,4.78,5.05,9.32,5.05h1.07l-.02,1.02c-.1,4.26,1.67,7.33,5.41,9.39,4.77,2.63,9.99,3.03,15.52,1.18,5.36-1.79,8-5.17,8.08-10.34,0-.46.3-.74.4-.85l.32-.39.5.03c3.98.2,7.5-1.79,9.18-5.17,1.7-3.41,1.16-7.31-1.44-10.44l-.46-.56.39-.61c3.36-5.31,3.35-8.08-.07-12.9l-.6-.84.86-.57c10.75-7.17,17.39-18.14,18.68-30.88,1.3-12.74-3.14-25.61-11.88-34.45Zm-24.96,68.39c3.76-.01,7.51-.01,11.27.01,2.27.01,4.22,1.57,4.75,3.78.5,2.08-.65,4.37-2.69,5.31-.87.41-1.8.49-2.43.49-6.19.02-12.38.02-18.56.02-4.71,0-9.42,0-14.13-.01-2.66,0-4.63-1.49-5.15-3.88-.46-2.12.75-4.38,2.8-5.27.68-.29,1.5-.43,2.56-.44,4.11-.02,8.21-.02,12.32-.01h9.26Zm-13.56-28.9h16.22l-6.28,24.47h-3.67l-6.27-24.47Zm16.37,62.64c-1.97,1.73-5.11,2.6-8.26,2.6s-6.29-.87-8.26-2.6c-1.55-1.36-2.09-2.99-1.65-4.97l.17-.79h19.38l.21.72c.56,1.92.03,3.61-1.59,5.04Zm8.15-10.17c-2.31.01-4.62.01-6.93.01h-10.64s-3.67-.01-3.67-.01c-3.97,0-7.93.01-11.9-.01-2.31-.02-4.21-1.54-4.74-3.79-.49-2.11.64-4.34,2.7-5.3.82-.38,1.7-.46,2.29-.47,10.99-.02,21.99-.02,32.98,0,1.48,0,2.81.54,3.76,1.51.88.89,1.35,2.07,1.33,3.33-.04,2.73-2.22,4.71-5.18,4.73Zm2.01-28.73c-.87.47-1.97.75-3.11.8-1.04.04-2.08.05-3.16.05-.68,0-1.37,0-2.08-.01-.76,0-1.54-.01-2.37-.01h-1.25l.28-1.23c.31-1.36.6-2.7.88-4.01.65-3.01,1.26-5.86,2.12-8.68,1.15-3.77,2.71-7.47,4.21-11.04l.19-.44c.46-1.09.49-2.04.07-2.67-.38-.58-1.18-.9-2.25-.9-7.92-.03-15.96-.03-23.89,0-1.14,0-1.98.36-2.36.99-.39.65-.31,1.58.23,2.61,3.75,7.14,5.44,14.96,6.98,23.02.06.33.05.64.03.93,0,.13-.01.26-.01.4v1h-3.02c-2.14.01-4.26.01-6.37,0-.6-.01-1.1-.3-1.51-.53-13.27-7.6-20.04-18.92-20.2-33.67-.2-18.15,12.3-33.57,30.39-37.5,19.58-4.25,39.64,8.14,44.68,27.64,4.45,17.15-3.15,34.94-18.48,43.26Z"/>
      <path class="cls-1" d="m686.22,78.65c-.17.81-.66,1.49-1.35,1.85-.66.34-1.38.33-2.02-.04-.31-.17-.56-.36-.75-.54l-1.96-1.95c-2.34-2.31-4.75-4.7-7.04-7.12-.5-.53-.88-1.43-.86-2.05.01-.69.38-1.28,1.02-1.61.31-.16.65-.24,1-.24.44,0,.88.13,1.26.39.34.23.67.55.97.85l1.79,1.78c2.18,2.16,4.44,4.4,6.61,6.65.38.4.69.93,1.02,1.49.1.18.21.36.31.54Z"/>
      <path class="cls-1" d="m776.46,68.92c.02.64-.3,1.3-.9,1.92-2.73,2.8-5.56,5.6-8.29,8.31l-.78.77c-1.14,1.13-2.08.89-2.68.61-.69-.32-1.15-.83-1.19-2.22.04-.07.08-.15.12-.23.2-.42.46-.93.81-1.29,3.23-3.34,6.48-6.55,8.94-8.98,1.09-1.07,2.35-1.19,3.28-.31.44.41.68.9.69,1.42Z"/>
      <path class="cls-1" d="m669.62,115.9c-.01,1.37-.88,2.09-2.62,2.15h-6.24s-1.96,0-1.96,0c-1.48.01-2.96.02-4.44-.02-1.56-.03-2.51-.81-2.54-2.09-.02-.57.17-1.08.54-1.47.46-.47,1.17-.73,2.01-.74,2.03-.03,4.1-.04,6.24-.04s4.21.01,6.43.04c1.62.01,2.58.83,2.58,2.17Z"/>
      <path class="cls-1" d="m796.78,115.9c.01,1.28-.94,2.09-2.47,2.13-1.47.04-2.93.03-4.4.02-.63,0-1.26-.01-1.89-.01h-2.07c-1.48.02-2.96.03-4.45-.01-1.12-.02-2.48-.4-2.51-2.08-.02-.61.17-1.13.53-1.51.44-.46,1.12-.7,1.97-.71,4.44-.05,8.75-.05,12.82,0,1.48.02,2.47.89,2.47,2.17Z"/>
    </g>
    <path class="cls-1" d="m557.98,194.63h-8.55c-2.72-.37-5.45-.65-8.14-1.13-17.87-3.18-32.89-11.56-44.1-25.82-17.12-21.78-20.88-46-11.6-72.17.25-.72.32-1.5.42-1.98.51-.8.97-1.37,1.27-2.02,4.59-10.05,11.09-18.67,19.57-25.76,11.71-9.79,25.2-15.39,40.37-16.79,14.37-1.32,28.05,1.3,40.71,8.24,20.6,11.29,33.17,28.59,37.62,51.71.53,2.78.78,5.62,1.15,8.44v8.56c-.12,1.03-.23,2.05-.35,3.08-1.74,15.66-7.67,29.5-18.22,41.23-11.8,13.12-26.48,21.02-43.97,23.62-2.05.31-4.12.53-6.18.8Zm-69.37-92.68c-9.33,29.82,3.42,65.68,35.91,81.19,31.36,14.97,66.36,3.19,83.61-20.82-1.51-1.46-3.14-2.87-4.54-4.47-.63-.71-1.09-1.8-1.15-2.74-.16-2.41,0-4.85-.08-7.27-.03-.82-.23-1.7-.58-2.43-1.86-3.84-3.6-7.77-5.77-11.44-2.65-4.49-3.96-9.16-3.4-14.37.07-.61-.15-1.64-.55-1.86-1.87-.98-3.13-3.13-5.57-3.01-.28.01-.55.12-.83.19-2.21.55-4.41,1.14-6.64,1.61-.7.15-1.55.14-2.2-.13-5.51-2.3-11.02-4.64-16.47-7.09-.74-.33-1.58-1.27-1.71-2.04-.9-5.48-1.62-10.99-2.4-16.49-.17-1.17.19-2.12,1.04-2.95,2.17-2.13,4.26-4.35,6.5-6.4.67-.61,1.73-1.09,2.62-1.11,4.56-.11,9.12-.04,13.68-.06,1.16,0,1.99.45,2.62,1.4,1.14,1.75,2.26,3.52,3.5,5.2.37.5,1.06.93,1.68,1.06,2.09.45,4.2.76,6.31,1.09,1.92.3,3.97,1.13,5.73.72,3.95-.92,7.75-2.46,11.9-3.85-2.52-3.36-4.92-6.56-7.35-9.79-1.86,1.24-3.44,2.39-5.12,3.36-.73.42-1.74.83-2.5.67-5.85-1.2-11.79-1.97-17.44-4.09-.93-.35-2.19-.39-3.12-.07-5.21,1.78-10.33,2.23-15.37-.48-.08-.04-.18-.05-.27-.08-1.95-.71-2.53-2.03-1.61-3.92,1.47-3.03,3.01-6.03,4.5-9.05.57-1.15,1.47-1.65,2.75-1.63,2.19.04,4.38-.14,6.55.05,2.49.22,4.24-1.22,6.62-2.26-15.54-6.08-30.85-6.65-46.45-1.61,1.01.68,2.04,1.39,3.17,1.61,4.15.8,8.33,1.42,12.49,2.15,2.26.4,2.98,1.62,2.29,3.78-.66,2.08-1.41,4.13-2.05,6.21-.37,1.2-1.14,1.93-2.3,2.3-1.49.48-2.95,1.05-4.46,1.46-1.05.28-1.68.88-2.21,1.8-1.84,3.16-3.72,6.3-5.66,9.39-.46.73-1.13,1.43-1.86,1.88-3.55,2.2-7.14,4.34-10.75,6.45-.72.42-1.55.74-2.37.87-4.31.68-8.63,1.32-12.97,1.87-1.06.13-1.23.54-1.34,1.51-.25,2.1.44,3.67,2.1,4.91,2.17,1.62,3.31,3.72,2.83,6.51-.04.25.04.53.11,1.25.85-.92,1.44-1.59,2.06-2.21,2.51-2.51,3.92-2.29,5.48.84,1,1.99,2.05,3.97,2.97,5.99.41.91.91,1.24,1.93,1.22,4.51-.06,9.03.01,13.54-.05,1.46-.02,2.4.55,3.12,1.78,1.84,3.16,3.78,6.26,5.61,9.42.45.77.95,1.03,1.82,1.01,2.09-.06,4.18-.02,6.27-.02,2.7.01,3.61,1.11,3.09,3.77-.5,2.56-1.23,5.09-1.51,7.68-.35,3.18-1.7,5.64-4.15,7.61-.85.68-1.47,1.65-2.35,2.28-3.25,2.35-4.62,5.41-3.95,9.4.24,1.45-.5,2.51-1.68,3.37-2.39,1.72-4.7,3.55-7.09,5.27-.69.5-.97,1.03-.95,1.88.05,3.04.04,6.08.01,9.12-.02,2.56-1.39,3.55-3.81,2.77-2.03-.66-4.04-1.37-6.08-2-1.18-.37-1.92-1.1-2.37-2.25-1.38-3.54-2.85-7.04-4.19-10.58-.36-.95-.56-2.02-.56-3.04-.05-6.51-.03-13.02-.03-19.53v-1.61c-3.13-.62-6.14-1.24-9.16-1.8-1.45-.27-2.52-.9-3.15-2.32-.79-1.78-1.61-3.56-2.62-5.21-1.71-2.82-2.21-5.81-2.21-9.09,0-2.83.55-5.12,2.89-6.83.22-.16.37-.41.62-.69-.43-.31-.8-.59-1.19-.85-3.16-2.11-6.29-4.26-9.5-6.3-1.44-.92-2.42-2.02-2.84-3.71-.35-1.41-.92-2.77-1.45-4.32Zm125.44-11.68c-4.2,1.41-8.32,2.82-12.47,4.15-.83.27-1.79.42-2.64.29-4.04-.6-8.04-1.41-12.08-1.94-2.18-.29-3.66-1.19-4.73-3.12-.87-1.57-1.71-3.54-3.12-4.29-1.42-.75-3.52-.23-5.32-.23-2.27,0-4.82-.57-6.75.26-1.99.85-3.39,3.09-5.05,4.72-.03.03-.09.06-.1.1-.17.54-.53,1.11-.47,1.62.54,4.14,1.18,8.27,1.71,12.41.11.84.44,1.22,1.18,1.53,4.33,1.82,8.62,3.72,12.96,5.52.64.27,1.48.31,2.17.16,2.32-.5,4.61-1.1,6.9-1.71,1.33-.36,2.48-.19,3.63.63,1.97,1.4,4,2.73,6.04,4.03,1.12.71,1.61,1.67,1.59,2.97-.02,2.38-.06,4.75.02,7.13.03.91.24,1.88.63,2.7,1.76,3.68,3.41,7.44,5.49,10.93,2.84,4.78,4.27,9.76,3.59,15.3-.03.23-.04.48,0,.71.07.31.14.67.34.89,1.06,1.13,2.15,2.22,3.26,3.34,12.88-19.25,14.85-46.18,3.2-68.09Zm-84.65,86.21c0-2.78.03-5.39-.01-7.99-.02-1.31.47-2.27,1.53-3.02,1.36-.96,2.57-2.17,4.01-2.95,3.44-1.85,4.98-4.48,4.22-8.4-.26-1.32.39-2.34,1.34-3.27,2.59-2.52,5.12-5.1,7.67-7.65.3-.3.75-.59.83-.95.61-2.75,1.15-5.51,1.74-8.44-2.06,0-3.86-.06-5.66.02-1.7.08-2.85-.52-3.71-2.05-1.72-3.06-3.62-6.02-5.37-9.07-.49-.86-1.06-1.13-2.02-1.11-4.46.05-8.93-.03-13.4.05-1.77.03-2.84-.65-3.55-2.23-.87-1.93-1.87-3.79-2.9-5.84-3.03,3.02-5.92,5.89-8.77,8.8-.25.25-.27.78-.31,1.19-.29,3.05.14,5.92,1.88,8.55.7,1.06,1.09,2.33,1.78,3.4.33.52.97,1.04,1.56,1.17,3.05.69,6.14,1.24,9.2,1.88,2.06.43,2.61,1.13,2.61,3.23,0,4.61.26,9.24-.06,13.82-.44,6.37.76,12.28,3.46,18.04.86,1.84,1.97,2.56,3.94,2.82Zm-24.59-64.45c.62-3.02.39-3.86-1.48-5.73-.64-.64-1.42-1.19-1.88-1.94-.57-.92-1.12-1.98-1.23-3.02-.2-1.88-.07-3.79-.05-5.69.02-2.2.69-2.99,2.87-3.32,2.91-.44,5.81-.95,8.74-1.2,4.51-.4,8.74-1.44,12.44-4.24,1.47-1.11,3.19-1.88,4.73-2.91.68-.45,1.32-1.08,1.75-1.77,2.03-3.26,3.92-6.62,5.99-9.85.52-.81,1.45-1.48,2.34-1.88,1.46-.67,3.05-1.04,4.56-1.6.4-.15.87-.44,1.03-.8.4-.89.65-1.84,1-2.89-1.73-.31-3.3-.69-4.9-.84-4.71-.46-9.12-1.63-12.81-4.81-.37-.32-1.27-.37-1.74-.15-15.07,6.8-26.23,17.67-33.69,32.4-.92,1.81-1.26,3.45-.34,5.33.5,1.01.9,2.12,1.09,3.23.65,3.85,2.84,6.41,6.24,8.18,1.86.97,3.54,2.3,5.36,3.51Zm96.23-39.51c-.47-.35-.8-.55-1.07-.8-4.17-3.85-8.74-7.14-13.71-9.9-.84-.47-1.51-.57-2.33-.05-4.78,3.02-9.89,4.71-15.63,3.92-.09-.01-.21-.03-.28,0-.31.16-.75.27-.89.53-.91,1.71-1.75,3.45-2.65,5.26,2.13.87,4.05,1.68,6.35.83,1.9-.7,3.93-1.1,5.93-1.49.89-.17,1.94-.21,2.76.1,5.35,2.05,10.96,3.03,16.54,4.12.5.1,1.14-.03,1.59-.28,1.07-.6,2.06-1.35,3.4-2.25Z"/>
    <g>
      <path d="m1096.81,41.35c-4.85-1.17-9.52-.31-13.88,2.58-.35.23-.75.62-1.14,1.01-.89.88-1.93,1.89-3.26,1.88-1.35-.01-2.33-1-3.2-1.87-.4-.4-.81-.81-1.16-1.03-5.89-3.74-11.77-4.13-17.49-1.16-4.82,2.5-7.27,6.87-7.5,13.34.02.64.06,1.27.12,1.9,1.31.92,2.47,1.89,3.7,2.71-.39-1.52-.61-3.03-.64-4.57v-.07c.15-5.35,2.34-9,6.52-10.84,4.88-2.16,9.71-1.51,14.35,1.91,1.5,1.11,2.71,2.58,3.6,4.38.59,1.17,1.07,1.4,1.72,1.4h.01c.64,0,1.06-.22,1.76-1.46,3.72-6.61,11.69-9.31,18.14-6.16,4.74,2.32,7.08,7.43,6.09,13.34-.71,4.21-2.59,8.25-5.94,12.72-5.48,7.31-12.33,12.85-18.31,17.31-.34.25-.68.42-1.02.52.96.66,1.8,1.42,2.51,2.27,7.07-5.06,12.57-10,17.13-15.43,5.26-6.26,7.99-11.67,8.86-17.56,1.2-8.23-3.31-15.27-10.97-17.13Z"/>
      <path d="m1069.82,86.46c-1.28-.61-1.96-1.49-2.2-2.84-1.34-7.6-5.66-14.25-12.16-18.73-6.51-4.48-14.29-6.14-21.9-4.67-11.98,2.31-21.16,11.54-23.38,23.52-.23,1.25-.89,2.1-2.08,2.67-13.57,6.55-19.91,22.21-14.74,36.42,5.25,14.43,20.86,22.33,35.53,17.98,1.38-.41,2.72-.95,4.14-1.51.68-.28,1.36-.55,2.05-.81l2.03-.77v31.81h3.61v-32.19l2.56,1.22c.23.11.4.19.57.28,5.92,2.95,12.23,3.83,18.74,2.61,12.35-2.33,22.01-12.73,23.51-25.31,1.46-12.38-5.08-24.3-16.28-29.68Zm12.07,32.47c-2.04,8.21-7.88,14.82-15.62,17.7-8.47,3.15-16.61,2.12-24.19-3.07-.94-.65-1.38-1.5-1.38-2.69.03-6.67.03-12.68,0-18.38-.01-1.23.53-2.11,1.62-2.68,3.42-1.77,6.83-3.57,10.24-5.36l2.45-1.29-1.68-3.19-12.57,6.6v-13.92h-3.59v28.62l-12.68-6.65-1.68,3.19,2.23,1.17c3.46,1.82,6.91,3.64,10.38,5.44.45.23,1.82.94,1.7,2.83-.06,1.04-.06,2.18,0,3.59.07,1.5-.75,2.27-1.37,2.72-4.48,3.22-9.62,4.87-14.85,4.87-2.95,0-5.92-.52-8.82-1.58-8.05-2.94-14.12-9.73-16.24-18.15-3.13-12.5,3.85-25.41,16.24-30.03,1.03-.39,1.21-.62,1.34-1.8,1.21-11.07,7.08-18.53,17.45-22.18,6.69-2.36,14.18-1.66,20.55,1.92,6.44,3.61,10.99,9.72,12.49,16.77.39,1.8.58,3.27.62,4.62,0,.09.01.15.02.18.05.03.16.08.36.14,4.44,1.47,8.29,4.01,11.44,7.56,5.52,6.2,7.59,14.82,5.54,23.05Z"/>
    </g>
    <path class="cls-1" d="m1247.07,142.91h-.01c-6.46-6.52-13.6-13.66-21.82-21.81-2.26-2.24-2.6-5.07-.94-7.78,5.5-9,7.33-18.77,5.45-29.04-1.99-10.92-8.23-20.37-17.58-26.62-9.3-6.22-20.33-8.37-31.07-6.06-21.19,4.55-35.36,24.82-32.24,46.15,1.8,12.28,8.96,22.96,19.66,29.31,10.68,6.33,23.44,7.49,35.01,3.2,1.95-.73,3.92-1.69,6.11-2.77,1.07-.53,2.14-1.07,3.24-1.59l2.89-1.33,5.25,5.29c.95.96,1.92,1.94,2.89,2.91l3.76,3.77c4.3,4.31,8.61,8.62,12.92,12.9,1.84,1.82,4.16,2.13,6.07.81,1.2-.84,1.9-1.99,2.02-3.32.13-1.42-.44-2.85-1.61-4.02Zm-57.63-14.74h-.02c-20.05-.02-36.35-16.34-36.35-36.37,0-9.73,3.79-18.87,10.69-25.74,6.87-6.87,16-10.65,25.7-10.65,20.11.05,36.39,16.4,36.36,36.44-.04,20.03-16.36,36.32-36.38,36.32Z"/>
    <g>
      <path class="cls-1" d="m1553.87,89.12v5.34c-1.46,0-2.93.02-4.39.03-4.95.04-10.08.08-15.08-.07-14.52-.41-24.89-7.1-30.84-19.89-5.64-12.14-13.8-20.26-24.95-24.84-5.66-2.32-11.41-3.48-17.2-3.48s-11.22,1.08-16.85,3.25c-.37.14-.65.3-.96.48-.12.07-.27.15-.44.25l-6.73,3.62,7.56,1.05c5.33.75,9.18,2.44,12.13,5.33,5.77,5.67,7.59,12.3,5.42,19.71-2.29,7.78-7.66,12.56-15.96,14.23-1.07.21-2.31.31-3.79.32-16.23.02-32.46.02-48.69.01h-10.54v-5.33h16.52c14.23,0,28.46,0,42.7-.01,7.05-.01,12.94-4.34,14.66-10.79,1.09-4.07.48-8.19-1.71-11.58-2.22-3.43-5.77-5.7-10.01-6.39-4.94-.8-9.93-.11-14.84,2.05l-1.29.57-4.2-6.33c2.72-2.73,5.9-5.6,9.57-7.76,18.32-10.79,36.75-10.76,54.77.1,7.72,4.66,13.72,11.37,18.33,20.52,1.75,3.47,3.56,7.07,6.17,10.14,5.27,6.21,12.48,9.4,21.42,9.46,5.03.04,10.14.03,15.08.02,1.38-.01,2.76-.01,4.14-.01Z"/>
      <path class="cls-1" d="m1553.87,113.52v5.15c-3.24.34-6.34,1.55-9.25,3.61-3.94,2.79-7.86,5.36-12.46,6.13-7.52,1.26-13.91-.01-19.52-3.89-1.04-.72-2.1-1.43-3.15-2.14l-.59-.39c-7.01-4.7-15.71-4.69-22.69.04l-.55.38c-3.93,2.66-7.63,5.18-12.08,5.96-7.63,1.33-14.12.06-19.82-3.9-1.24-.86-2.5-1.7-3.75-2.54-6.88-4.56-15.72-4.54-22.54.05l-1.18.8c-3.44,2.34-6.69,4.55-10.53,5.37-7.83,1.67-14.53.53-20.49-3.47-.28-.19-.56-.38-.85-.56-.55-.36-1.1-.72-1.63-1.12-3.47-2.55-6.77-3.95-10.21-4.33v-5.32c3.99.31,7.63,1.57,11.07,3.81.63.41,1.24.84,1.85,1.26,1.35.94,2.74,1.9,4.27,2.71,7.03,3.66,14.07,3.33,20.92-.98.67-.42,1.34-.86,2.01-1.29,2.48-1.62,4.83-3.15,7.33-4.06,8.01-2.9,15.67-2.02,22.79,2.6.84.55,1.66,1.11,2.48,1.68.45.3.89.6,1.33.9,7.16,4.84,16.02,4.81,23.14-.06l.22-.15c3.89-2.66,7.56-5.18,11.96-5.98,7.65-1.4,14.14-.18,19.83,3.73,1.11.76,2.23,1.51,3.35,2.25l.54.36c7,4.67,15.69,4.65,22.68-.05.49-.34.98-.67,1.47-1.01,3.19-2.18,6.19-4.24,9.73-4.95,1.39-.28,2.82-.44,4.32-.6Z"/>
      <path class="cls-1" d="m1524.4,147.5v5.38c-4.06-.33-7.73-1.59-11.15-3.83-.59-.39-1.17-.79-1.75-1.19-1.43-.99-2.91-2.01-4.54-2.85-6.81-3.51-13.87-3.19-20.44.93-.9.56-1.76,1.15-2.59,1.72-.44.31-.89.62-1.33.92-8.89,5.95-19.92,5.97-28.78.04l-3.57-2.4c-3.55-2.38-7.52-3.57-11.49-3.57s-7.95,1.19-11.48,3.58l-1.13.77c-3.35,2.29-6.52,4.45-10.26,5.21-1.27.26-2.57.44-3.93.63v-5.25c4.62-.53,8.33-3.05,11.66-5.3l.27-.19c9.55-6.46,20.12-6.47,29.76-.01.41.27.82.56,1.23.85.98.68,1.99,1.39,3.11,2.01,7.3,4.01,14.76,3.74,21.6-.8l1.03-.68c3.69-2.47,7.18-4.8,11.32-5.56,7.66-1.4,14.15-.18,19.84,3.73.41.28.83.56,1.24.83l.78.52c4.79,3.23,6.03,3.87,10.6,4.51Z"/>
    </g>
    <g>
      <path class="cls-1" d="m1581.42,121.16c-.74,0-1.56.19-2.2-.06-.57-.22-1.29-.92-1.32-1.44-.03-.53.65-1.52,1.12-1.57,1.59-.2,3.23-.19,4.82,0,.46.06,1.13,1.05,1.1,1.58-.03.52-.75,1.21-1.32,1.43-.64.25-1.46.06-2.2.06Z"/>
      <g>
        <path class="cls-1" d="m1653.52,73.25c3.61,0,6.99-.01,10.38,0,6.55.02,11.09,4.37,11.19,10.92.1,6.82.1,13.65,0,20.47-.1,6.5-4.7,10.88-11.23,10.9-3.38.01-6.76,0-10.34,0,0,.63,0,1.17,0,1.7,0,12.53,0,25.06,0,37.59,0,6.4-3.92,10.3-10.33,10.3-15.41,0-30.81,0-46.22,0-6.32,0-10.24-3.93-10.24-10.25,0-6.59,0-13.18,0-19.77v-1.7c-2.69,0-5.27.04-7.85-.02-1.05-.03-2.17-.1-3.13-.47-2.95-1.13-4.45-3.42-4.5-6.55-.07-4.55-.08-9.1,0-13.64.07-4.25,3.04-7.09,7.3-7.12,2.68-.02,5.36,0,8.19,0v-1.77c0-15.46,0-30.91,0-46.37,0-6.52,3.87-10.39,10.38-10.39,15.36,0,30.72,0,46.08,0,6.43,0,10.33,3.89,10.34,10.29,0,4.73,0,9.47,0,14.2v1.67Zm-63.49,32.37c.66,0,1.16,0,1.66,0,3.9,0,7.8-.02,11.69,0,4.34.02,7.27,2.9,7.31,7.22.04,4.46.01,8.91,0,13.37,0,3.22-1.48,5.49-4.45,6.73-.68.28-.9.62-.89,1.32.04,1.99.1,4-.03,5.98-.05.72-.45,1.77-.99,2-.53.23-1.6-.17-2.13-.63-2.43-2.15-4.89-4.3-7.08-6.69-1.5-1.63-3.13-1.63-5.12-1.39v1.43c0,6.68,0,13.37,0,20.05,0,4.35,2.47,6.83,6.8,6.83,15.54,0,31.09,0,46.63,0,4.25,0,6.75-2.5,6.75-6.74,0-12.67,0-25.34,0-38.01,0-.49,0-.98,0-1.54-3.17,0-6.14-.05-9.1.04-.69.02-1.52.38-2.02.86-2.81,2.7-5.55,5.48-8.29,8.24-.69.69-1.51,1.44-2.39.79-.57-.43-.93-1.45-.97-2.22-.12-2.59-.04-5.18-.04-7.73-6.65-1.75-9.29-6.51-9.07-12.48.22-6.12.04-12.25.05-18.38.02-6.96,4.46-11.4,11.39-11.41,6.31,0,12.62,0,18.93,0,.48,0,.97,0,1.49,0,0-5.9.07-11.56-.03-17.22-.05-2.84-2.46-5.38-5.3-5.56-3-.19-6.01-.04-9-.04-.86,3.76-2.66,5.57-5.76,5.59-6.68.05-13.36.04-20.04,0-2.68-.02-4.76-1.79-5.41-4.38-.1-.39-.16-.78-.25-1.25-2.52,0-4.98,0-7.43,0-4.53,0-6.93,2.42-6.93,6.97,0,15.5,0,31,0,46.5,0,.51,0,1.01,0,1.75Zm40.67,14.15c.26-.06.37-.05.42-.1,1.48-1.47,3.1-2.83,4.41-4.44,1.91-2.37,4.15-3.16,7.22-3.06,7.04.24,14.1.08,21.15.07,4.74,0,7.89-3.07,7.93-7.8.05-6.73.06-13.45,0-20.18-.04-4.68-3.16-7.7-7.85-7.7-11.5-.02-23.01-.02-34.51,0-4.63,0-7.74,2.99-7.79,7.6-.07,6.82-.06,13.64,0,20.46.04,4.32,2.82,7.21,7.11,7.61,1.47.14,1.91.61,1.92,2.14.02,1.76,0,3.52,0,5.39Zm-28.63,17.25c0-1.88,0-3.35,0-4.82,0-1.21.54-1.89,1.76-2.08,2.51-.39,3.54-1.58,3.55-4.12.02-4.27.02-8.54,0-12.81-.01-2.87-1.41-4.27-4.27-4.27-8.07,0-16.14,0-24.21,0-2.94,0-4.37,1.41-4.39,4.34-.02,4.18-.02,8.35,0,12.53.01,2.95,1.4,4.33,4.36,4.34,4.82.01,9.65-.04,14.47.04.79.01,1.73.39,2.33.91,2.1,1.81,4.08,3.76,6.39,5.94Zm5.88-86.57c.15,1.65.86,2.29,2.67,2.31,3.76.02,7.51,0,11.27,0,2.64,0,5.29.03,7.93-.01,1.67-.03,2.41-.76,2.45-2.3h-24.32Z"/>
        <path class="cls-1" d="m1620.11,157.17c-3.25,0-6.5,0-9.74,0-1.53,0-2.28-.57-2.21-1.67.09-1.36,1.05-1.59,2.17-1.59,6.54,0,13.08,0,19.63,0,1.12,0,2.07.27,2.14,1.62.05,1.06-.68,1.63-2.1,1.64-3.29.02-6.59,0-9.88,0Z"/>
        <path class="cls-1" d="m1647.6,86.32c-4.18,0-8.35,0-12.53,0-1.49,0-2.29-.57-2.31-1.62-.02-1.05.79-1.68,2.25-1.68,8.45,0,16.89,0,25.34,0,1.47,0,2.25.62,2.23,1.69-.03,1.07-.79,1.6-2.31,1.61-4.22,0-8.45,0-12.67,0Z"/>
        <path class="cls-1" d="m1647.69,102.69c4.08,0,8.16,0,12.25,0,.46,0,1.04-.12,1.36.1.51.35,1.2.96,1.18,1.44-.03.56-.66,1.17-1.16,1.61-.25.22-.8.12-1.22.12-8.3,0-16.61,0-24.91,0-.41,0-.95.09-1.22-.13-.49-.39-1.18-1.02-1.14-1.49.05-.56.71-1.16,1.25-1.55.31-.23.9-.1,1.36-.1,4.08,0,8.16,0,12.25,0Z"/>
        <path class="cls-1" d="m1649.69,96.11c-3.57,0-7.14-.01-10.71,0-1.15,0-2.06-.28-2.13-1.61-.06-1.05.71-1.68,2.09-1.68,7.18-.02,14.37-.02,21.55,0,1.35,0,2.16.68,2.07,1.71-.11,1.32-1.01,1.59-2.17,1.58-3.57-.03-7.14,0-10.71-.01Z"/>
        <path class="cls-1" d="m1590.81,121.17c-.69,0-1.46.19-2.06-.05-.58-.23-1.38-.91-1.37-1.38,0-.59.68-1.6,1.18-1.66,1.54-.22,3.15-.22,4.68,0,.49.07,1.15,1.09,1.16,1.68,0,.47-.8,1.15-1.38,1.36-.65.24-1.46.05-2.2.05Z"/>
        <path class="cls-1" d="m1600.32,121.18c-.69,0-1.47.2-2.06-.05-.61-.26-1.4-.95-1.42-1.48-.02-.54.74-1.51,1.26-1.59,1.44-.23,2.95-.17,4.42-.07.94.06,1.64.78,1.37,1.71-.18.59-.9,1.19-1.52,1.44-.59.24-1.37.05-2.06.05,0,0,0,0,0,0Z"/>
      </g>
    </g>
    <g>
      <g>
        <g>
          <g>
            <path class="cls-2" d="m86.33,112.33c9.59,0,17.39,7.8,17.39,17.39s-7.8,17.39-17.39,17.39-17.39-7.8-17.39-17.39,7.8-17.39,17.39-17.39m0,37.96c11.34,0,20.57-9.23,20.57-20.57s-9.23-20.57-20.57-20.57-20.57,9.23-20.57,20.57,9.23,20.57,20.57,20.57"/>
            <path class="cls-2" d="m121.4,194.53c-1.02.28-2.23-.06-3.02-.8-.28.13-.61.22-1.1.22h-61.78c-.54,0-1.25-.07-1.58-.4-.33-.33-.39-1.04-.38-1.58.02-1.4,0-2.82,0-4.2-.02-2.61-.04-5.3.11-7.92.26-4.51,1.69-8.71,4.26-12.49,3.3-4.85,7.83-8.23,13.48-10.04,2.4-.77,5.02-1.16,7.77-1.15,1.72,0,3.47,0,5.16-.02,2.88-.03,5.84-.02,8.77.06.14-.29.27-.59.44-.86.52-.87,1.18-1.63,1.94-2.24-.07,0-.15-.02-.22-.02-3.66-.18-7.37-.14-10.95-.11-1.68.02-3.42.03-5.12.02h-.13c-3.04,0-5.94.44-8.62,1.3-6.34,2.04-11.43,5.84-15.14,11.28-2.9,4.27-4.52,9.01-4.81,14.1-.16,2.73-.13,5.47-.11,8.13.01,1.36.02,2.77,0,4.14-.02,1.69.41,2.95,1.3,3.85.89.9,2.15,1.34,3.84,1.34h61.78c2.33,0,3.96-1.04,4.64-2.86-.18.09-.32.21-.52.27Z"/>
          </g>
          <g>
            <path class="cls-2" d="m186.97,118.62c8.88,0,16.1,7.22,16.1,16.1s-7.22,16.1-16.1,16.1-16.1-7.22-16.1-16.1,7.22-16.1,16.1-16.1m0,35.15c10.5,0,19.05-8.54,19.05-19.05s-8.54-19.05-19.05-19.05-19.05,8.54-19.05,19.05,8.54,19.05,19.05,19.05"/>
            <path class="cls-2" d="m220.25,182.96c-.01-2.16-.22-4.1-.62-5.91-1.11-4.96-3.44-9.26-6.91-12.78-4.86-4.93-10.75-7.59-17.5-7.92-3.39-.16-6.82-.13-10.14-.1-1.56.01-3.16.03-4.74.02h-.12c-2.81,0-5.5.41-7.98,1.2-.24.08-.46.17-.69.25.75.69,1.16,1.74,1.11,2.73.16-.06.32-.12.49-.18,2.22-.72,4.65-1.08,7.19-1.06,1.59,0,3.21,0,4.78-.02,3.28-.03,6.66-.06,9.97.1,5.99.29,11.22,2.66,15.55,7.05,3.08,3.13,5.15,6.95,6.14,11.36.36,1.61.54,3.34.55,5.29.02,2.61.01,5.27,0,7.85v1.68c0,1.28-.42,1.69-1.69,1.69h-57.2c-.25,0-.55-.02-.82-.07-.42.52-.98.93-1.6,1.1-.59.16-1.17.13-1.69-.04.16.26.34.5.55.71.82.84,1.99,1.24,3.55,1.24h57.2c2.9,0,4.63-1.73,4.63-4.62v-1.68c0-2.58.01-5.24,0-7.87Z"/>
          </g>
        </g>
        <path class="cls-1" d="m131.99,85.77c12.61,0,22.87,10.26,22.87,22.87s-10.26,22.87-22.87,22.87-22.87-10.26-22.87-22.87,10.26-22.87,22.87-22.87m0,49.93c14.92,0,27.06-12.14,27.06-27.06s-12.14-27.06-27.06-27.06-27.06,12.14-27.06,27.06,12.14,27.06,27.06,27.06"/>
        <path class="cls-1" d="m175.1,188.34v2.38c0,1.81-.59,2.39-2.4,2.39-10.01,0-20.01,0-30.01,0h-51.24c-.71,0-1.65-.09-2.08-.52-.43-.43-.51-1.37-.5-2.08.02-1.85,0-3.71-.01-5.52-.03-3.43-.05-6.97.14-10.42.34-5.93,2.22-11.46,5.61-16.43,4.34-6.38,10.3-10.82,17.73-13.21,3.16-1.01,6.61-1.53,10.22-1.51,2.27,0,4.56-.01,6.79-.03,4.65-.04,9.46-.08,14.16.14,8.51.41,15.94,3.78,22.09,10.01,4.38,4.44,7.31,9.86,8.71,16.14.51,2.28.77,4.74.78,7.51.02,3.71.02,7.49.01,11.15m3.28-19.57c-1.58-7.05-4.88-13.15-9.82-18.16-6.91-7-15.28-10.79-24.87-11.25-4.82-.23-9.69-.19-14.4-.15-2.21.02-4.49.04-6.73.03h-.17c-4,0-7.81.57-11.34,1.71-8.34,2.68-15.04,7.67-19.91,14.84-3.81,5.61-5.94,11.85-6.32,18.54-.2,3.58-.18,7.2-.15,10.69.01,1.79.03,3.64.01,5.45-.02,2.22.54,3.88,1.71,5.06,1.17,1.18,2.83,1.76,5.05,1.76h51.24s10.75,0,10.75,0c6.42,0,12.84,0,19.26,0,4.11,0,6.58-2.46,6.58-6.57v-2.38c.01-3.66.02-7.45,0-11.18-.02-3.07-.31-5.82-.89-8.4"/>
      </g>
      <path class="cls-1" d="m114.59,71.9c-.03-11.4,9.23-20.66,20.66-20.67,11.45-.01,20.66,9.18,20.67,20.62,0,3.41-.83,6.62-2.28,9.45,3.57,1.26,7.06,2.83,10.44,4.7,1.14-2.27,1.99-4.67,2.47-7.21.2-1.05.72-1.25,1.68-1.24,3.17.05,6.34-.03,9.51.05,1.11.03,1.37-.34,1.34-1.39-.07-2.85-.1-5.71.01-8.56.05-1.32-.44-1.55-1.61-1.52-3.1.07-6.21-.02-9.32.05-1.02.02-1.43-.3-1.63-1.3-.72-3.7-2.2-7.12-4.26-10.27-.53-.81-.47-1.25.2-1.9,2.33-2.24,4.57-4.58,6.89-6.83.66-.64.83-1.06.08-1.79-2.2-2.1-4.34-4.26-6.46-6.45-.62-.64-.99-.63-1.62.01-2.25,2.32-4.58,4.56-6.83,6.88-.66.68-1.12.92-2.04.31-3.13-2.09-6.56-3.54-10.27-4.26-1.02-.2-1.28-.67-1.26-1.66.07-3.61.05-7.23.06-10.84h-11.42c-.01,3.61-.06,7.23,0,10.84.02,1.01-.27,1.46-1.27,1.65-3.7.73-7.13,2.18-10.27,4.24-.89.58-1.38.46-2.07-.26-2.2-2.28-4.5-4.47-6.69-6.76-.76-.8-1.2-.75-1.94.02-2.01,2.11-4.08,4.17-6.19,6.18-.76.73-.8,1.15-.01,1.9,2.3,2.18,4.48,4.48,6.76,6.69.68.66.93,1.13.31,2.05-2.11,3.12-3.51,6.57-4.28,10.26-.2.97-.58,1.3-1.6,1.28-3.17-.08-6.34.02-9.51-.05-1.08-.02-1.39.3-1.37,1.37.07,2.91.08,5.83,0,8.75-.03,1.1.33,1.37,1.38,1.35,3.17-.07,6.34.03,9.51-.05,1.04-.03,1.39.34,1.59,1.29.3,1.43.7,2.83,1.19,4.19,3.55-1.56,7.19-2.78,10.86-3.67-.9-2.32-1.42-4.82-1.43-7.46Z"/>
    </g>
    <path class="cls-1" d="m418.01,149.58c-1.43-1.14-3.21-.84-4.54.77-.59.72-1.15,1.46-1.71,2.2-.85,1.11-1.72,2.26-2.69,3.33-.79.87-2.08,1.49-3.13,1.52-2.4.07-4.84.06-7.2.05-2.12,0-4.32,0-6.46.04-1.78.06-2.69-.65-3.19-2.43-2.32-8.11-4.72-16.35-7.05-24.33l-1.26-4.3c-1.41-4.86-2.83-9.72-4.18-14.33l-.6-2.04.38-.34c.56-.51,1.12-.97,1.67-1.42,1.08-.9,2.11-1.74,2.85-2.72,2.25-2.99,2.56-6.4.87-9.84-1.77-3.64-4.71-5.48-8.73-5.48h-.14c-2.04,0-3.06-.8-3.51-2.73-.55-2.37-1.31-4.76-2.05-7.06l-.11-.36c-.53-1.62-1.55-2.41-3.09-2.38-.97.03-1.8.43-2.32,1.13-.61.81-.78,1.93-.46,3.14.39,1.55.86,3.12,1.31,4.63.23.74.45,1.49.66,2.23l.11.37-.22.31c-.12.18-.24.35-.37.52l-.37.49-.57-.23c-.24-.09-.49-.17-.74-.25-.62-.19-1.33-.41-1.89-.88-1.28-1.08-2.49-2.27-3.66-3.41-.45-.44-.89-.87-1.34-1.3-2.86-2.73-5.71-5.46-8.72-8.34l-.71-.68.81-.56c4.78-3.3,7.49-7.47,8.28-12.77.81-5.45-.62-10.35-4.27-14.57-6.23-7.21-17.12-8.24-24.78-2.37-3.77,2.89-6.33,7.54-6.85,12.42-.38,3.59.17,9.03,4.93,14.61l.63.73-4.33,2.52-.89-1.34c-.34-.52-.66-1-1-1.46-2.99-4.05-8.22-5.95-12.99-4.74-6.63,1.69-10.75,8.34-9.39,15.13.16.84.12,1.71-.14,2.4-.24.65-.55,1.27-.84,1.87-.41.82-.79,1.59-1,2.39-.37,1.35-.59,2.79-.8,4.18-.09.63-.19,1.26-.3,1.89-.41,2.45-.85,4.9-1.28,7.35-.98,5.52-1.99,11.22-2.8,16.85-.75,5.27,2.53,9.62,7.99,10.58,2.15.39,4.31.74,6.51,1.1l3.28.54-.05.73c-.09,1.47-.18,2.95-.26,4.43-.23,3.9-.47,7.95-.78,11.92-.11,1.35-.51,2.79-1.15,4.17-2.98,6.35-6.01,12.54-8.32,17.22-1.33,2.68-1.73,5.44-1.24,8.42.1.61.28,1.21.48,1.91.11.38.22.78.34,1.22l.26,1h-1.04c-.28,0-.53.01-.77.02-.5.01-.98.03-1.45-.03-1.88-.22-3.63.3-5.84,1.73-5.07,3.29-10.25,6.6-15.26,9.79-4.28,2.73-8.56,5.46-12.82,8.21-.71.46-1.32,1.12-1.96,1.82-.23.25-.46.5-.7.74v1.75c1.94,2.64,2.99,2.77,5.93.91l6.85-4.37c6.75-4.32,13.74-8.78,20.65-13.11,1.21-.75,2.79-1.2,4.21-1.21,16.04-.06,33.35-.07,54.48-.02h.03c1.79,0,3.17-.56,4.47-1.8,4.32-4.15,8.67-8.28,13.01-12.41,3.53-3.36,7.07-6.71,10.58-10.09,1.13-1.07,2.26-1.53,3.79-1.53h.03c9.77.05,19.53.01,29.29.04h.03c1.81,0,2.98-.52,3.9-1.75,1.07-1.43,2.19-2.86,3.28-4.23.91-1.16,1.82-2.31,2.71-3.48,1.24-1.64,1.12-3.5-.29-4.63Zm-81.98-102.04h.04c3.21.02,6.22,1.29,8.48,3.59,2.25,2.28,3.47,5.29,3.43,8.47-.06,6.5-5.41,11.77-11.93,11.77h-.02c-3.21,0-6.21-1.25-8.44-3.5-2.25-2.26-3.48-5.29-3.46-8.52.05-6.52,5.39-11.81,11.9-11.81Zm-21.22,63.97c.44-2.58.86-5.11,1.29-7.64.27-1.59.55-3.18.83-4.76.6-3.41,1.22-6.94,1.74-10.41.81-5.35,3.6-8.79,8.3-10.23,4.3-1.33,9.85-2.24,14.63,2.45,2.47,2.44,5.04,4.87,7.52,7.22,2.25,2.14,4.59,4.35,6.85,6.56,1.25,1.23,2.56,1.75,4.3,1.72,3.33-.06,6.72-.04,9.99-.02h1.74c3.73.02,4.53,1.91,4.55,3.5.01.99-.29,1.82-.91,2.44-.78.8-2.05,1.21-3.75,1.21h-1.77c-7.67.02-15.61.03-23.42-.04-1,0-2.18-.44-3.08-1.15-1.41-1.11-2.78-2.3-4.1-3.46-.77-.67-1.53-1.34-2.31-2-1.71-1.45-3.54-1.47-4.78-.07-1.26,1.44-1.02,3.15.68,4.7.59.53,1.18,1.04,1.78,1.55.34.29.68.57,1.01.86.93.81,1.86,1.62,3,2.62l.67.58-.64.61c-6,5.75-13.43,8.74-24.09,9.69l-1.03.09,1-6.02Zm-11.88-35.9c1.17-1.16,2.73-1.8,4.4-1.8h.03c1.72.01,3.32.68,4.51,1.89,1.25,1.28,1.92,3.02,1.89,4.9-.03,1.84-.76,3.53-2.05,4.77-1.17,1.13-2.68,1.74-4.27,1.74h-.15c-3.54-.09-6.3-3.04-6.29-6.72,0-1.85.69-3.55,1.93-4.78Zm.44,49.95c-.35,0-.73-.04-1.15-.1-1.9-.31-3.6-.63-5.21-.98-2.52-.53-3.38-1.81-2.96-4.41.59-3.67,1.24-7.4,1.87-11l.73-4.19c.69-3.96,1.38-7.91,2.11-12.09l.14-.8,12.55,2.25-.95,5.68c-.54,3.19-1.06,6.33-1.6,9.47-.74,4.29-1.48,8.58-2.25,12.88-.41,2.27-1.39,3.29-3.28,3.29Zm3.07,57.66c-.31,0-.63-.02-.95-.07-2.18-.33-3.98-1.56-4.94-3.36-.98-1.85-.98-4.11,0-6.19l.72-1.51c2.39-5.06,4.86-10.29,7.49-15.33,1.28-2.47,1.94-5.09,2.08-8.24.07-1.85.2-3.71.32-5.51.05-.82.1-1.65.15-2.47l.06-.94.92.21c2.52.55,5.02,1.1,7.54,1.66l4.76,1.05-.19,2.84c-.23,3.35-.46,6.72-.72,10.07-.03.51-.26.95-.46,1.34l-.11.22-1.57,3.25c-3.04,6.29-6.08,12.57-9.14,18.84-1.29,2.64-3.47,4.14-5.96,4.14Zm53.39-11.92c-.67.64-1.4,1.29-2.16,1.97-1.78,1.59-3.62,3.24-5.2,5.13-2.86,3.41-6.27,4.98-10.92,4.98-.43,0-.86-.02-1.3-.04-4.91-.28-9.77-.22-14.92-.16-2.19.03-4.4.05-6.64.05h-1.22l.48-1.11c.12-.29.22-.55.32-.79.19-.46.35-.86.54-1.26.85-1.75,1.68-3.51,2.5-5.27,1.91-4.07,3.88-8.28,6.12-12.27,2.39-4.27,2.66-8.78,2.95-13.56v-.19c.05-.78.11-1.55.18-2.4l.22-3.07,1.11.63c1.19.67,2.44,1.25,3.64,1.81,3.18,1.48,6.46,3.01,8.7,6.37,2.64,3.98,5.83,7.73,8.91,11.35l.44.52c1.26,1.48,2.69,2.81,4.2,4.22.68.63,1.37,1.27,2.05,1.93l.6.58-.6.58Zm10.99-11.31c-.77,2.09-2.52,3.55-4.82,4.03-.47.09-.93.14-1.38.14-1.99,0-3.78-.94-5.23-2.76l-3.28-4.14c-3.16-4.01-6.43-8.15-9.72-12.17-.64-.79-1.53-1.4-2.47-2.05-.22-.15-.43-.3-.64-.44-.28-.21-.63-.36-1.01-.52-.34-.15-.69-.3-1.03-.5-6.77-4.13-14.48-5.51-21.13-6.32-3.15-.38-6.88-1.4-7.75-5.9-.25-1.28-.17-2.77.21-4.19.27-1.02,1.96-1.48,2.7-1.54,6.44-.46,12.19-1.88,17.59-4.35,1.03-.47,2.05-1.01,3.12-1.58.5-.25,1-.52,1.53-.79l1.43-.74-.27,1.59c-.1.59-.2,1.17-.3,1.72-.17.99-.34,1.93-.47,2.86-.32,2.26.17,3.21,2.2,4.2,1.4.68,2.8,1.35,4.21,2.02,2.36,1.13,4.81,2.3,7.19,3.52,1.36.7,2.57,1.65,3.4,2.68,4.48,5.53,9.15,11.41,14.69,18.49,1.58,2.02,2.04,4.54,1.23,6.74Zm11.23-2.53c-.26,0-.49-.01-.72-.01-.47-.02-.87-.02-1.25.02-.15.01-.29.02-.43.02-1.51,0-2.1-.88-2.48-2.18-.72-2.43-1.64-4.39-2.73-5.83-5.01-6.58-10.28-13.13-15.38-19.47l-.56-.71c-.59-.72-1.45-1.4-2.45-1.91-3.41-1.75-6.93-3.41-9.97-4.83-.87-.4-1.83-1.08-1.48-2.82.25-1.21.45-2.43.66-3.64.25-1.45.5-2.95.82-4.42.19-.87,1.35-1.85,2.21-1.87,6.23-.08,12.73-.08,19.32-.01.81.01,2,.75,2.26,1.6,4.03,13.63,8.08,27.52,11.99,40.94l.92,3.16c.06.21.06.39.06.63,0,.12,0,.27.01.48l.04.85h-.84Z"/>
  </g>
</svg>