<svg xmlns="http://www.w3.org/2000/svg" width="72.793" height="72.444" viewBox="0 0 72.793 72.444">
  <g id="Groupe_80" data-name="Groupe 80" transform="translate(-2546.511 -883.828)">
    <path id="Tracé_212" data-name="Tracé 212" d="M2588.882,947.639h-11.967a6.273,6.273,0,0,0,11.967,0m-5.893-8.473c-2.91,0-5.821-.006-8.731.006-.655,0-1.579-.287-1.891.116-.337.429-.129,1.3-.114,1.974a2.082,2.082,0,0,0,2.094,2.133q8.553.028,17.107,0a2.094,2.094,0,0,0,2.114-2.118c.018-.493-.037-.992.017-1.48.059-.542-.136-.65-.658-.646-3.312.026-6.625.013-9.938.013m-.113-4.242c3.411,0,6.823-.005,10.235.009.414,0,.618-.058.666-.539a16.487,16.487,0,0,1,.593-2.824,24.8,24.8,0,0,1,5.05-8.9,21.062,21.062,0,0,0-1.495-28.364,21,21,0,0,0-13.53-6.087,20.587,20.587,0,0,0-13.158,3.321,21.067,21.067,0,0,0-4.573,31.472,22.024,22.024,0,0,1,5.38,11.38c.067.479.256.537.667.536,3.389-.014,6.777-.009,10.165-.009m-1.388,21.348c-.667-.192-1.35-.342-2-.585a10.635,10.635,0,0,1-6.953-7.767.973.973,0,0,0-.582-.786,6.216,6.216,0,0,1-3.966-5.907c-.039-1.083-.033-2.167,0-3.25a16.957,16.957,0,0,0-4.374-11.966,24.3,24.3,0,0,1-6.256-17.3c.372-9.861,4.962-17.348,13.734-21.935a25.446,25.446,0,0,1,30.7,5.408,24.237,24.237,0,0,1,6.582,14.887,24.8,24.8,0,0,1-5.676,18.327,20.865,20.865,0,0,0-4.082,6.874,16.517,16.517,0,0,0-.778,4.929c0,1.343.036,2.686-.008,4.027a6.216,6.216,0,0,1-3.962,5.91.929.929,0,0,0-.576.714,10.662,10.662,0,0,1-8.39,8.246c-.284.069-.612-.075-.855.178Z" fill="#00374b"/>
    <path id="Tracé_213" data-name="Tracé 213" d="M2546.511,910.891a2.628,2.628,0,0,1,2.857-1.57c1.131.072,2.272.006,3.408.017a2.123,2.123,0,1,1,0,4.238c-1.136.012-2.276-.056-3.408.016a2.627,2.627,0,0,1-2.859-1.57Z" fill="#00374b"/>
    <path id="Tracé_214" data-name="Tracé 214" d="M2552.306,902.347a2.27,2.27,0,0,1-1.606-.69c-.951-.947-1.919-1.879-2.855-2.843a2.116,2.116,0,0,1-.072-3.087,2.142,2.142,0,0,1,3.1.106c1,.966,1.99,1.943,2.949,2.949a1.98,1.98,0,0,1,.376,2.346,2.049,2.049,0,0,1-1.893,1.219" fill="#00374b"/>
    <path id="Tracé_215" data-name="Tracé 215" d="M2616.54,895.11a2.1,2.1,0,0,1,1.908,1.185,1.892,1.892,0,0,1-.205,2.185,34.54,34.54,0,0,1-3.453,3.435,2.066,2.066,0,0,1-2.722-.152,2.034,2.034,0,0,1-.248-2.753,39.355,39.355,0,0,1,3.5-3.493,1.966,1.966,0,0,1,1.223-.407" fill="#00374b"/>
    <path id="Tracé_216" data-name="Tracé 216" d="M2549.295,927.8a2.091,2.091,0,0,1-1.911-1.152,1.877,1.877,0,0,1,.173-2.188,32.657,32.657,0,0,1,3.5-3.486,2.062,2.062,0,0,1,2.719.2,2.019,2.019,0,0,1,.238,2.7,35.405,35.405,0,0,1-3.545,3.543,1.937,1.937,0,0,1-1.176.384" fill="#00374b"/>
    <path id="Tracé_217" data-name="Tracé 217" d="M2618.682,925.682a2.059,2.059,0,0,1-1.158,1.869,1.909,1.909,0,0,1-2.255-.214c-1.178-1.081-2.326-2.2-3.4-3.386a2.016,2.016,0,0,1,.2-2.806,2.049,2.049,0,0,1,2.774-.105c1.164,1.063,2.254,2.207,3.362,3.331a1.95,1.95,0,0,1,.477,1.311" fill="#00374b"/>
    <path id="Tracé_218" data-name="Tracé 218" d="M2615.043,913.576c-.71,0-1.42.018-2.129-.005a2.115,2.115,0,1,1,.035-4.229q2.093-.031,4.186,0a2.115,2.115,0,1,1,.036,4.229c-.709.023-1.419.005-2.128.005" fill="#00374b"/>
    <path id="Tracé_219" data-name="Tracé 219" d="M2583.513,892.377a17.1,17.1,0,0,1,16.116,13.591,16.433,16.433,0,0,1,.335,3.085,2.161,2.161,0,0,1-2.049,2.4,2.133,2.133,0,0,1-2.209-2.246,12.483,12.483,0,0,0-2.405-7.253,12.645,12.645,0,0,0-10.163-5.333,3.018,3.018,0,0,1-.907-.13,2.109,2.109,0,0,1,.571-4.112c.236-.012.473,0,.711,0" fill="#00374b"/>
  </g>
</svg>
