<svg xmlns="http://www.w3.org/2000/svg" width="69.197" height="70.134" viewBox="0 0 69.197 70.134">
  <g id="Groupe_70" data-name="Groupe 70" transform="translate(-1360.815 -884.63)">
    <path id="Tracé_209" data-name="Tracé 209" d="M1360.9,916.785a2.724,2.724,0,0,0,2.73,2.928.267.267,0,0,0,.04,0c2.565-.065,5.133-.014,7.7-.02a2.209,2.209,0,0,0,2.426-2.393,10.831,10.831,0,0,1,10.823-10.743c9.187-.039,18.375-.006,27.562-.023.472,0,.538.161.533.577-.018,1.9,0,3.79-.012,5.685a2.264,2.264,0,0,0,1.329,2.326,2.167,2.167,0,0,0,2.565-.653q6.3-6.4,12.608-12.787a2.207,2.207,0,0,0,0-3.42q-6.3-6.4-12.606-12.789a2.168,2.168,0,0,0-2.565-.651,2.258,2.258,0,0,0-1.332,2.323c.017,1.8-.025,3.608.02,5.41.015.648-.095.863-.812.861q-13.476-.048-26.953-.019a22.489,22.489,0,0,0-8.272,1.4q-10.49,4.119-14.171,13.891a26.367,26.367,0,0,0-1.58,7.568Z" fill="#fff"/>
    <path id="Tracé_210" data-name="Tracé 210" d="M1360.815,938.873a5.965,5.965,0,0,1,1.216-1.6q6.055-6.115,12.087-12.251a2.4,2.4,0,0,1,2.146-.91,2.183,2.183,0,0,1,1.843,2.334c.013,1.942.023,3.882-.009,5.822-.008.5.14.586.6.584,9.12-.014,18.24.006,27.36-.015a10.856,10.856,0,0,0,10.964-10.747,2.208,2.208,0,0,1,2.42-2.4q4.086-.009,8.174,0a2.2,2.2,0,0,1,2.373,2.5,23.965,23.965,0,0,1-8.6,18.227,22.67,22.67,0,0,1-11.861,5.31,29.839,29.839,0,0,1-4.106.263q-13.309,0-26.617-.012c-.536,0-.724.085-.708.684.047,1.756-.026,3.516.03,5.272a2.543,2.543,0,0,1-1.77,2.826h-.946a7.044,7.044,0,0,1-1.854-1.52q-5.734-5.822-11.478-11.634a5.816,5.816,0,0,1-1.261-1.641Z" fill="#fff"/>
  </g>
</svg>
