<svg xmlns="http://www.w3.org/2000/svg" width="94.704" height="76.525" viewBox="0 0 94.704 76.525">
  <path id="Tracé_211" data-name="Tracé 211" d="M1965.721,926.008a2.319,2.319,0,0,0-1.719.556,38.845,38.845,0,0,0-2.863,2.921,2.842,2.842,0,0,0,.2,3.7,2.721,2.721,0,0,0,3.686.361,23.346,23.346,0,0,0,2.867-2.913,2.729,2.729,0,0,0,.282-3.088,2.641,2.641,0,0,0-2.453-1.536m17.694,28.509a2.014,2.014,0,0,0,1.322-.343,13.043,13.043,0,0,0,3.4-3.52,2.844,2.844,0,0,0-.655-3.57,2.687,2.687,0,0,0-3.56-.018,28.024,28.024,0,0,0-2.733,2.791,2.881,2.881,0,0,0,2.223,4.66m-10.376-8.833a2.74,2.74,0,0,0,1.634,2.61,2.618,2.618,0,0,0,3.148-.538c1.483-1.456,2.948-2.933,4.373-4.448a2.928,2.928,0,0,0,0-4.2,2.785,2.785,0,0,0-4.048.162c-1.43,1.423-2.83,2.874-4.244,4.313a2.862,2.862,0,0,0-.864,2.1m-3.769-3.941a2.173,2.173,0,0,0,1.625-.555c1.676-1.658,3.374-3.3,4.94-5.057a2.836,2.836,0,0,0-.326-3.9,2.728,2.728,0,0,0-3.774.024c-1.581,1.531-3.129,3.1-4.628,4.715a2.879,2.879,0,0,0,2.163,4.773m47.7-55.43c-.082.052-.161.1-.237.15-2.26,1.462-4.514,2.93-6.78,4.378-.447.286-.176.487.007.725q6.994,9.063,13.98,18.134c.283.368.454.365.787.068q2.819-2.511,5.672-4.976c.308-.266.419-.427.125-.815q-6.556-8.631-13.085-17.289c-.12-.159-.187-.418-.469-.375m-49.183,4.767c-.191-.146-.355-.286-.532-.4-2.125-1.381-4.259-2.747-6.371-4.146-.431-.285-.656-.24-.966.172-.919,1.216-1.885,2.4-2.834,3.593q-5.8,7.319-11.607,14.63c-.363.454-.5.7.048,1.16,1.857,1.551,3.663,3.164,5.47,4.775.363.324.559.42.926-.037q7.74-9.652,15.519-19.273c.115-.141.218-.295.347-.473m48.935,32.988c1.667-3.557,3.177-6.845,4.757-10.1a1.34,1.34,0,0,0-.2-1.651q-7.427-9.558-14.8-19.157a1.44,1.44,0,0,0-1.291-.666c-3.759.033-7.519.019-11.279.014a4.35,4.35,0,0,0-1.27.178q-6.15,1.819-12.309,3.608a1.181,1.181,0,0,0-.773.593q-3.345,6.06-6.713,12.107a2.777,2.777,0,0,0-.179,2.443,2.677,2.677,0,0,0,2.349,1.842,2.748,2.748,0,0,0,2.834-1.539c1.647-2.936,3.291-5.876,4.9-8.836a2.263,2.263,0,0,1,2.381-1.37c3.071.251,6.146.456,9.221.649a3.163,3.163,0,0,1,2.18,1.039q9.717,9.948,19.469,19.862a10.415,10.415,0,0,1,.731.981m-40.015-29.8c-1.688-.471-3.318-.9-4.934-1.389-.459-.137-.665.067-.916.378q-8.137,10.125-16.3,20.229a.782.782,0,0,0-.037,1.173q3.172,4.281,6.271,8.616c.39.55.613.522,1.123.156a6.439,6.439,0,0,1,10.04,3.7c.158.61.373.68.931.639a6.435,6.435,0,0,1,7.223,6.208c.042.459.187.536.6.577,3.949.393,6.4,3.53,5.97,7.637-.044.416.054.524.426.631a6.614,6.614,0,0,1,4.573,9.08.718.718,0,0,0,.241.946,2.869,2.869,0,0,0,4.145.057,2.958,2.958,0,0,0-.129-4.213c-1.326-1.4-2.691-2.765-4.03-4.154-.971-1.005-1.067-2.071-.28-2.909s1.936-.753,2.918.247c1.351,1.378,2.687,2.767,4.034,4.15a2.749,2.749,0,0,0,2.862.843,2.9,2.9,0,0,0,1.171-4.94c-2.443-2.572-4.938-5.093-7.408-7.64a6.58,6.58,0,0,1-.745-.832,1.8,1.8,0,0,1-.081-2.036,1.746,1.746,0,0,1,1.884-.891,2.234,2.234,0,0,1,1.309.812q3.768,3.887,7.539,7.771a2.849,2.849,0,0,0,3,.972,2.92,2.92,0,0,0,1.1-5.012q-5.483-5.672-10.99-11.315a13.626,13.626,0,0,1-1.021-1.089,1.875,1.875,0,0,1,1.887-3,2.4,2.4,0,0,1,1.2.832q5.718,5.9,11.445,11.785c1.376,1.412,3.129,1.5,4.327.255,1.182-1.224,1.079-2.961-.277-4.342q-10.653-10.861-21.3-21.723a1.8,1.8,0,0,0-1.285-.581c-2.215-.128-4.429-.269-6.638-.473a1.107,1.107,0,0,0-1.3.666q-2.05,3.837-4.22,7.607a6.483,6.483,0,0,1-7.252,3.224,6.693,6.693,0,0,1-4.142-9.83c2.139-3.947,4.36-7.85,6.54-11.774.181-.322.339-.656.54-1.045m-36.164,10.872,17.635-22.245c1.039-1.309,1.768-1.431,3.168-.529,1.716,1.106,3.49,2.131,5.127,3.348a26.239,26.239,0,0,0,10.613,4.743,17.512,17.512,0,0,1,2.934.812,5.839,5.839,0,0,0,4.2-.018c2.625-.876,5.31-1.568,7.963-2.363a4.715,4.715,0,0,1,1.367-.156c3.976,0,7.951-.01,11.927.011a2.653,2.653,0,0,0,1.543-.471q4.538-2.977,9.1-5.913c1.389-.9,2.165-.767,3.162.552q7.638,10.1,15.269,20.213c1.018,1.35.931,2.192-.336,3.308q-4.057,3.57-8.132,7.121a3.42,3.42,0,0,0-.874,1.18q-2.661,5.73-5.361,11.439a1.262,1.262,0,0,0-.017,1.276,6.645,6.645,0,0,1-5.3,9.707c-.474.044-.577.182-.641.643-.508,3.653-2.578,5.728-6.136,6.148-.421.05-.46.216-.514.569-.582,3.8-2.484,5.734-6.177,6.209-.627.081-.448.483-.493.794a6.577,6.577,0,0,1-5.276,5.9,5.973,5.973,0,0,1-5.428-1.432c-.7-.635-1.029-.5-1.594.112a6.205,6.205,0,0,1-6.374,2,6.356,6.356,0,0,1-4.888-5.073c-.12-.5-.173-.722-.786-.688a6.5,6.5,0,0,1-6.865-6.039c-.061-.586-.238-.77-.821-.826a6.488,6.488,0,0,1-5.827-6.792c.019-.675-.132-.854-.791-1a6.675,6.675,0,0,1-3.8-10.4.932.932,0,0,0,.016-1.35c-2.489-3.352-4.886-6.774-7.4-10.1-1.3-1.722-3.142-2.9-4.719-4.346-1.444-1.322-2.948-2.574-4.408-3.876-.384-.344-.706-.76-1.058-1.143Z" transform="translate(-1940.547 -881.787)" fill="#fff"/>
</svg>
