<svg xmlns="http://www.w3.org/2000/svg" width="81.445" height="76.183" viewBox="0 0 81.445 76.183">
  <g id="Groupe_1768" data-name="Groupe 1768" transform="translate(-62.018 -189.773)">
    <path id="Tracé_1918" data-name="Tracé 1918" d="M74.148,249.85c-5.3-22.749,7.4-31.031,7.4-31.031s10.76,10.846,19.4,9.874c-9.169-3.529-7.386-5.285-7.386-5.285a63.065,63.065,0,0,0,28.89-5.475c6,.269,10.938,13.183,12.349,29.274,6.654-4.809,4.937-18.169,4.937-18.169s4.757,3.887,3.525,0c-9.707-41.955-45.136-34.723-45.136-34.723s-3.617-1.231,2.281-4.051c-10.744-2.734-17.45,7.051-17.45,7.051s-2.282.076-2.282-4.064c-2.744.358-.181,7.576-.181,7.576s-7.579.181-9.349-1.05c-.883,2.82,6.105,2.255,8.118,3C43.823,205.239,73.97,253.723,74.148,249.85Z" transform="translate(-0.004 -0.009)" fill="#fff"/>
    <path id="Tracé_1919" data-name="Tracé 1919" d="M139.5,337.133c-2.282-1.884-7.566-7.977-14.233-1.425-6.45-5.882-11.565-.023-13.8,1.822-8.322,3.834-8.719-.86-8.926-2.114-6.283,11.3,13.761,8.719,16.669,8.719a19.411,19.411,0,0,0,6.732-1.822,17.305,17.305,0,0,0,5.81,1.425c2.908,0,22.952,2.576,16.669-8.719C148.221,336.273,147.824,340.967,139.5,337.133Z" transform="translate(-21.569 -78.432)" fill="#fff"/>
  </g>
</svg>
