<svg xmlns="http://www.w3.org/2000/svg" xmlns:xlink="http://www.w3.org/1999/xlink" width="435.668" height="435.667" viewBox="0 0 435.668 435.667">
  <defs>
    <filter id="Tracé_2281" x="0" y="0" width="435.668" height="435.667" filterUnits="userSpaceOnUse">
      <feOffset dx="12.84" dy="14.35" input="SourceAlpha"/>
      <feGaussianBlur stdDeviation="5.67" result="blur"/>
      <feFlood flood-opacity="0.161"/>
      <feComposite operator="in" in2="blur"/>
      <feComposite in="SourceGraphic"/>
    </filter>
  </defs>
  <g id="Groupe_1979" data-name="Groupe 1979" transform="matrix(0.998, 0.07, -0.07, 0.998, -1028.593, -3988.07)">
    <g id="Groupe_1978" data-name="Groupe 1978" transform="translate(1334.813 3907.135)">
      <g id="Groupe_1934" data-name="Groupe 1934">
        <g transform="matrix(1, -0.07, 0.07, 1, -30.53, -0.53)" filter="url(#Tracé_2281)">
          <path id="Tracé_2281-2" data-name="Tracé 2281" d="M188.157,0C292.073,0,376.314,84.241,376.314,188.157S292.073,376.314,188.157,376.314,0,292.073,0,188.157,84.241,0,188.157,0Z" transform="matrix(1, 0.07, -0.07, 1, 30.42, 2.66)" fill="#fff"/>
        </g>
      </g>
      <g id="Groupe_1938" data-name="Groupe 1938" transform="translate(195.29 11.79)">
        <g id="Groupe_1935" data-name="Groupe 1935" transform="translate(9.746 9.665)">
          <path id="Tracé_2222" data-name="Tracé 2222" d="M4842.944,2859.406h1.917l-2.77,2.77a1.208,1.208,0,0,0,.854,2.063h4.833a1.208,1.208,0,0,0,0-2.416h-1.916l2.77-2.771a1.208,1.208,0,0,0-.854-2.063h-4.833a1.208,1.208,0,1,0,0,2.417Zm0,0" transform="translate(-4841.735 -2856.989)" fill="#61b8c6"/>
        </g>
        <g id="Groupe_1936" data-name="Groupe 1936" transform="translate(19.412 12.082)">
          <path id="Tracé_2223" data-name="Tracé 2223" d="M4857.5,2863.045h4.332l-5.187,5.187a1.207,1.207,0,0,0,.854,2.063h7.249a1.208,1.208,0,1,0,0-2.417h-4.333l5.187-5.187a1.208,1.208,0,0,0-.854-2.062H4857.5a1.208,1.208,0,1,0,0,2.416Zm0,0" transform="translate(-4856.293 -2860.629)" fill="#61b8c6"/>
        </g>
        <g id="Groupe_1937" data-name="Groupe 1937" transform="translate(0 0)">
          <path id="Tracé_2224" data-name="Tracé 2224" d="M4835.7,2866.491a4.065,4.065,0,0,0-.085,1.281,4.854,4.854,0,0,0,1.407,2.93,6.2,6.2,0,0,0,4.875,1.731,10.685,10.685,0,0,0,5.8-2.532,8.379,8.379,0,0,0,12.5-3.489,9.621,9.621,0,0,0,0-18.963,230.548,230.548,0,0,1-17.359-5.017,8.437,8.437,0,0,0-7.693,5.017,9.83,9.83,0,0,0-5.5,2.967,9.5,9.5,0,0,0-2.59,6.515,9.7,9.7,0,0,0,8.645,9.56Zm.427-16.735a1.209,1.209,0,0,0,1.03-.811,5.976,5.976,0,0,1,9.711-2.525,1.209,1.209,0,0,0,1.618,0,5.976,5.976,0,0,1,9.711,2.525,1.209,1.209,0,0,0,1.029.811,7.369,7.369,0,0,1,1.687.362,7.178,7.178,0,0,1-1.687,13.989,1.208,1.208,0,0,0-1.029.811,5.975,5.975,0,0,1-9.711,2.525,1.209,1.209,0,0,0-1.618,0c-3.54,3.189-6.629,3.084-8.122,1.566a1.945,1.945,0,0,1-.283-2.729,1.208,1.208,0,0,0-.771-2.027l-1.565-.146a7.2,7.2,0,0,1,0-14.351Zm0,0" transform="translate(-4827.058 -2842.433)" fill="#61b8c6"/>
        </g>
      </g>
      <g id="Groupe_1939" data-name="Groupe 1939" transform="translate(91.081 269.057)">
        <path id="Tracé_2225" data-name="Tracé 2225" d="M4670.118,3229.88" transform="translate(-4670.118 -3229.88)" fill="#161615"/>
      </g>
      <text id="_24h" data-name="24h" transform="translate(181.39 89.608)" fill="#161615" font-size="9" font-family="Poppins-SemiBold, Poppins" font-weight="600"><tspan x="0" y="0">24h</tspan></text>
      <text id="_12h" data-name="12h" transform="translate(181.39 286.4)" fill="#161615" font-size="9" font-family="Poppins-SemiBold, Poppins" font-weight="600"><tspan x="0" y="0">12h</tspan></text>
      <text id="_18h" data-name="18h" transform="translate(88.261 187.246)" fill="#161615" font-size="9" font-family="Poppins-SemiBold, Poppins" font-weight="600"><tspan x="0" y="0">18h</tspan></text>
      <text id="Mon_quotidien_d_expédition" data-name="Mon quotidien
d’expédition" transform="translate(190.668 175.671)" fill="#161615" font-size="20" font-family="Poppins-Regular, Poppins"><tspan x="-71.56" y="0">Mon quotidien</tspan><tspan x="-61.02" y="24">d’expédition</tspan></text>
      <text id="_6h" data-name="6h" transform="translate(278.66 187.246)" fill="#161615" font-size="9" font-family="Poppins-SemiBold, Poppins" font-weight="600"><tspan x="0" y="0">6h</tspan></text>
      <g id="Groupe_1940" data-name="Groupe 1940" transform="translate(76.744 72.804)">
        <path id="Tracé_2226" data-name="Tracé 2226" d="M4762.906,3163.079a114.379,114.379,0,1,1,114.38-114.379A114.508,114.508,0,0,1,4762.906,3163.079Zm0-224.623A110.244,110.244,0,1,0,4873.15,3048.7,110.369,110.369,0,0,0,4762.906,2938.457Z" transform="translate(-4648.527 -2934.321)"/>
      </g>
      <path id="Tracé_2227" data-name="Tracé 2227" d="M4840.245,2941.155A130.984,130.984,0,0,0,4643.8,2969.9l6,4.481a4.385,4.385,0,1,1-5.245,7.03l-5.248-3.916c-.053.1-.107.19-.16.287a130.72,130.72,0,0,0-13.9,39.959l5.958,1.127a4.386,4.386,0,1,1-1.632,8.618l-5.543-1.049a131.058,131.058,0,0,0,93.229,139.544l1.22-4.715a4.386,4.386,0,0,1,8.492,2.2l-1.223,4.723a130.82,130.82,0,0,0,24.514,3.094l.324-6.226a4.386,4.386,0,1,1,8.76.456l-.3,5.752a131.379,131.379,0,0,0,120.994-93.415l-6.49-1.941a4.386,4.386,0,1,1,2.514-8.4l6.218,1.861a131.092,131.092,0,0,0,3.268-29.137,132.545,132.545,0,0,0-1.007-16.247l-5.823,1.086a4.386,4.386,0,1,1-1.607-8.623l6.057-1.129A131.334,131.334,0,0,0,4840.245,2941.155Z" transform="translate(-4563.309 -2853.042)" fill="none"/>
      <path id="Tracé_2228" data-name="Tracé 2228" d="M4776.488,3299.287l-2.2,8.5a139.585,139.585,0,0,0,26.257,3.356l.456-8.76A130.81,130.81,0,0,1,4776.488,3299.287Z" transform="translate(-4614.038 -2984.144)" fill="#bababa"/>
      <path id="Tracé_2229" data-name="Tracé 2229" d="M4827.516,3256.651l-.458,8.8c61.373-1.8,112.944-43.328,129.856-99.7l-8.4-2.513A131.379,131.379,0,0,1,4827.516,3256.651Z" transform="translate(-4631.768 -2938.431)" fill="#002b3b"/>
      <path id="Tracé_2230" data-name="Tracé 2230" d="M4635.78,3009.71c.052-.1.107-.19.159-.287l-7.094-5.293c-.258.462-.517.923-.771,1.388a139.5,139.5,0,0,0-14.809,42.52l8.619,1.631A130.688,130.688,0,0,1,4635.78,3009.71Z" transform="translate(-4559.935 -2884.973)" fill="#d43a29"/>
      <path id="Tracé_2231" data-name="Tracé 2231" d="M4618.868,3098.772a130.662,130.662,0,0,1,.733-13.789l-8.646-1.636a139.419,139.419,0,0,0-.859,15.426c0,63.478,42.5,117.208,100.535,134.252l2.2-8.5A131.357,131.357,0,0,1,4618.868,3098.772Z" transform="translate(-4558.87 -2911.589)" fill="#002b3b"/>
      <path id="Tracé_2232" data-name="Tracé 2232" d="M4761.238,2904.659a131.349,131.349,0,0,1,128.748,106.214l8.623-1.607A139.872,139.872,0,0,0,4643.56,2960.2l7.045,5.258A131.162,131.162,0,0,1,4761.238,2904.659Z" transform="translate(-4570.114 -2848.604)" fill="#61b8c6"/>
      <path id="Tracé_2233" data-name="Tracé 2233" d="M5016.61,3097.541a131.091,131.091,0,0,1-3.268,29.137l8.427,2.52a139.848,139.848,0,0,0,3.613-31.656,141.325,141.325,0,0,0-1.14-17.856l-8.64,1.609A132.45,132.45,0,0,1,5016.61,3097.541Z" transform="translate(-4694.359 -2910.359)" fill="#d43a29"/>
      <path id="Tracé_2234" data-name="Tracé 2234" d="M5038.688,3068.45a4.386,4.386,0,0,0-5.115-3.508l-5.908,1.1c.345,1.789.661,3.585.937,5.391.165,1.087.313,2.179.453,3.273l6.125-1.142A4.386,4.386,0,0,0,5038.688,3068.45Z" transform="translate(-4699.171 -2905.38)" fill="#fff"/>
      <path id="Tracé_2235" data-name="Tracé 2235" d="M5000.236,3075.3a4.38,4.38,0,0,0,5.115,3.509l5.824-1.085c-.147-1.191-.306-2.38-.486-3.563-.26-1.71-.559-3.41-.887-5.1l-6.057,1.129A4.385,4.385,0,0,0,5000.236,3075.3Z" transform="translate(-4689.93 -2906.788)" fill="#fff"/>
      <path id="Tracé_2236" data-name="Tracé 2236" d="M5023.3,3066.637l-8.622,1.606c.328,1.693.627,3.394.887,5.1.18,1.183.339,2.372.486,3.563l8.639-1.61c-.14-1.094-.288-2.186-.453-3.272C5023.964,3070.222,5023.647,3068.426,5023.3,3066.637Z" transform="translate(-4694.808 -2905.975)" fill="#fff"/>
      <path id="Tracé_2237" data-name="Tracé 2237" d="M4995.663,3150.507a4.385,4.385,0,0,0,2.946,5.459l6.49,1.941q1.258-4.187,2.241-8.485l-6.218-1.861A4.389,4.389,0,0,0,4995.663,3150.507Z" transform="translate(-4688.356 -2933.103)" fill="#fff"/>
      <path id="Tracé_2238" data-name="Tracé 2238" d="M5027.792,3164.276a4.386,4.386,0,1,0,2.513-8.4l-5.419-1.62c-.664,2.862-1.426,5.687-2.264,8.479Z" transform="translate(-4697.477 -2935.413)" fill="#fff"/>
      <path id="Tracé_2239" data-name="Tracé 2239" d="M5009.967,3158.942l8.4,2.513c.837-2.792,1.6-5.617,2.263-8.479l-8.426-2.52Q5011.229,3154.756,5009.967,3158.942Z" transform="translate(-4693.225 -2934.137)" fill="#fff"/>
      <path id="Tracé_2240" data-name="Tracé 2240" d="M4819.45,3288.314a4.395,4.395,0,0,0-4.608,4.152l-.323,6.226c1.382.043,2.768.073,4.16.073,1.549,0,3.089-.037,4.624-.09l.3-5.752A4.387,4.387,0,0,0,4819.45,3288.314Z" transform="translate(-4627.555 -2980.455)" fill="#fff"/>
      <path id="Tracé_2241" data-name="Tracé 2241" d="M4813.672,3317.14l-.309,5.927a4.386,4.386,0,0,0,4.151,4.608c.078,0,.155.006.232.006a4.386,4.386,0,0,0,4.376-4.158l.332-6.365c-1.385.041-2.772.067-4.167.067C4816.743,3317.224,4815.205,3317.19,4813.672,3317.14Z" transform="translate(-4627.165 -2990.142)" fill="#fff"/>
      <path id="Tracé_2242" data-name="Tracé 2242" d="M4818.448,3304.01c-1.393,0-2.778-.029-4.161-.073l-.456,8.76c1.533.05,3.071.084,4.617.084,1.395,0,2.781-.027,4.166-.067l.458-8.8C4821.536,3303.974,4820,3304.01,4818.448,3304.01Z" transform="translate(-4627.324 -2985.7)" fill="#fff"/>
      <path id="Tracé_2243" data-name="Tracé 2243" d="M4758.681,3315.824a4.386,4.386,0,1,0,8.492,2.2l1.824-7.052q-4.3-.971-8.49-2.207Z" transform="translate(-4608.747 -2987.327)" fill="#fff"/>
      <path id="Tracé_2244" data-name="Tracé 2244" d="M4771.38,3284.053a4.382,4.382,0,0,0-5.345,3.147l-1.221,4.715q4.191,1.24,8.49,2.205l1.223-4.723A4.387,4.387,0,0,0,4771.38,3284.053Z" transform="translate(-4610.854 -2978.978)" fill="#fff"/>
      <path id="Tracé_2245" data-name="Tracé 2245" d="M4763.7,3295.965l-2.2,8.5q4.192,1.231,8.489,2.207l2.2-8.5Q4767.892,3297.209,4763.7,3295.965Z" transform="translate(-4609.743 -2983.027)" fill="#fff"/>
      <path id="Tracé_2246" data-name="Tracé 2246" d="M4601.6,3068.508a4.385,4.385,0,0,0-1.632,8.618l6.387,1.209q.485-4.367,1.244-8.692Z" transform="translate(-4554.268 -2906.577)" fill="#fff"/>
      <path id="Tracé_2247" data-name="Tracé 2247" d="M4630.775,3082.536a4.386,4.386,0,0,0,.811-8.7l-5.958-1.127q-.754,4.323-1.217,8.7l5.543,1.049A4.371,4.371,0,0,0,4630.775,3082.536Z" transform="translate(-4563.681 -2908.016)" fill="#fff"/>
      <path id="Tracé_2248" data-name="Tracé 2248" d="M4621.254,3071.887l-8.618-1.631q-.759,4.322-1.245,8.691l8.646,1.636Q4620.5,3076.215,4621.254,3071.887Z" transform="translate(-4559.306 -2907.191)" fill="#fff"/>
      <path id="Tracé_2249" data-name="Tracé 2249" d="M4634.393,2988.112a4.386,4.386,0,1,0-5.246,7.03l4.441,3.314q2.159-3.865,4.537-7.559Z" transform="translate(-4564.679 -2879.298)" fill="#fff"/>
      <path id="Tracé_2250" data-name="Tracé 2250" d="M4655.281,3013.046a4.386,4.386,0,0,0,2.625-7.9l-6.005-4.481q-2.36,3.7-4.488,7.595l5.248,3.916A4.365,4.365,0,0,0,4655.281,3013.046Z" transform="translate(-4571.409 -2883.808)" fill="#fff"/>
      <path id="Tracé_2251" data-name="Tracé 2251" d="M4648.311,2998l-7.046-5.257q-2.376,3.692-4.536,7.559l7.094,5.293Q4645.949,3001.709,4648.311,2998Z" transform="translate(-4567.819 -2881.147)" fill="#fff"/>
      <g id="Groupe_1941" data-name="Groupe 1941" transform="translate(190.148 69.392)">
        <path id="Tracé_2252" data-name="Tracé 2252" d="M4820.29,2940.487a.975.975,0,0,1-.975-.975v-9.355a.975.975,0,1,1,1.949,0v9.355A.974.974,0,0,1,4820.29,2940.487Z" transform="translate(-4819.315 -2929.182)"/>
      </g>
      <g id="Groupe_1942" data-name="Groupe 1942" transform="translate(73.446 186.208)">
        <path id="Tracé_2253" data-name="Tracé 2253" d="M4654.864,3106.084a.975.975,0,0,1-.974.975h-9.354a.975.975,0,1,1,0-1.95h9.354A.975.975,0,0,1,4654.864,3106.084Z" transform="translate(-4643.56 -3105.109)"/>
      </g>
      <g id="Groupe_1943" data-name="Groupe 1943" transform="translate(298.147 185.936)">
        <path id="Tracé_2254" data-name="Tracé 2254" d="M4993.267,3105.674a.975.975,0,0,1-.975.975h-9.354a.975.975,0,1,1,0-1.949h9.354A.974.974,0,0,1,4993.267,3105.674Z" transform="translate(-4981.962 -3104.699)"/>
      </g>
      <g id="Groupe_1944" data-name="Groupe 1944" transform="translate(190.148 293.63)">
        <path id="Tracé_2255" data-name="Tracé 2255" d="M4820.29,3278.191a.975.975,0,0,1-.975-.975v-9.355a.975.975,0,0,1,1.949,0v9.355A.974.974,0,0,1,4820.29,3278.191Z" transform="translate(-4819.315 -3266.887)"/>
      </g>
      <g id="Groupe_1954" data-name="Groupe 1954" transform="translate(334.913 163.486)">
        <g id="Groupe_1949" data-name="Groupe 1949" transform="translate(0 25.003)">
          <g id="Groupe_1945" data-name="Groupe 1945" transform="translate(2.314 2.047)">
            <path id="Tracé_2256" data-name="Tracé 2256" d="M5055.688,3119.062a7.435,7.435,0,1,0-12.615,5.329l-1.611,1.79a.674.674,0,0,0,1,.9l1.657-1.842a7.421,7.421,0,0,0,8.262,0l1.659,1.842a.668.668,0,0,0,.5.223.673.673,0,0,0,.5-1.124l-1.612-1.791A7.413,7.413,0,0,0,5055.688,3119.062Zm-13.522,0a6.087,6.087,0,1,1,6.086,6.087A6.094,6.094,0,0,1,5042.166,3119.063Z" transform="translate(-5040.817 -3111.627)" fill="#d43a29"/>
          </g>
          <g id="Groupe_1946" data-name="Groupe 1946" transform="translate(8.671 5.978)">
            <path id="Tracé_2257" data-name="Tracé 2257" d="M5053.536,3120.827h-1.8v-2.606a.674.674,0,1,0-1.347,0v3.28a.673.673,0,0,0,.673.673h2.471a.674.674,0,1,0,0-1.347Z" transform="translate(-5050.391 -3117.547)" fill="#d43a29"/>
          </g>
          <g id="Groupe_1947" data-name="Groupe 1947">
            <path id="Tracé_2258" data-name="Tracé 2258" d="M5043.352,3110a.67.67,0,0,0-.2-.478,3.431,3.431,0,0,0-4.811,0,3.392,3.392,0,0,0-1.006,2.435,3.346,3.346,0,0,0,1.011,2.387.674.674,0,0,0,.948-.005l3.863-3.863A.673.673,0,0,0,5043.352,3110Zm-4.462,2.84a2,2,0,0,1-.209-.885,2.061,2.061,0,0,1,.612-1.475,2.04,2.04,0,0,1,1.446-.594,2.11,2.11,0,0,1,.9.2Z" transform="translate(-5037.333 -3108.544)" fill="#d43a29"/>
          </g>
          <g id="Groupe_1948" data-name="Groupe 1948" transform="translate(13.478)">
            <path id="Tracé_2259" data-name="Tracé 2259" d="M5062.645,3109.531a3.432,3.432,0,0,0-4.812-.005.676.676,0,0,0-.2.478.669.669,0,0,0,.2.48l3.864,3.864a.672.672,0,0,0,.947,0,3.336,3.336,0,0,0,1.011-2.387A3.4,3.4,0,0,0,5062.645,3109.531Zm-.551,3.313-2.75-2.751a2.062,2.062,0,0,1,2.96,1.866A2,2,0,0,1,5062.093,3112.844Z" transform="translate(-5057.63 -3108.544)" fill="#d43a29"/>
          </g>
        </g>
        <g id="Groupe_1950" data-name="Groupe 1950" transform="translate(13.918 31.411)">
          <path id="Tracé_2260" data-name="Tracé 2260" d="M5081.513,3140.691H5079.9l-8.809-16.15,2.88-5.278a.724.724,0,0,0-1.271-.692l-2.432,4.46-2.434-4.46a.723.723,0,1,0-1.269.692l2.878,5.278-8.81,16.15h-1.615a.723.723,0,0,0,0,1.446h22.5a.723.723,0,0,0,0-1.446Zm-3.264,0h-15.971l7.986-14.64Z" transform="translate(-5058.293 -3118.194)" fill="#d43a29"/>
        </g>
        <g id="Groupe_1953" data-name="Groupe 1953" transform="translate(13.811)">
          <g id="Groupe_1951" data-name="Groupe 1951" transform="translate(12.078 0.322)">
            <path id="Tracé_2261" data-name="Tracé 2261" d="M5081.809,3091.847l.053.2a1.867,1.867,0,0,0,2.287,1.321,1.871,1.871,0,0,0,1.321-2.288l-.364-1.357-.358-1.337-.861-3.215-.4-1.5-3.169-11.828a.623.623,0,0,0-.762-.44,4.362,4.362,0,0,0-3.082,5.337l1.934,7.215a1.85,1.85,0,0,0,.871,1.132,1.87,1.87,0,0,0,.787.247l.323,1.207.334,1.247.761,2.839Zm-1.44-7.781a.627.627,0,0,1-.763-.441l-1.934-7.215a3.127,3.127,0,0,1,1.617-3.59l2.883,10.763Zm3.458,8.1a.625.625,0,0,1-.762-.44l-1.772-6.614,1.2-.322,1.772,6.614A.622.622,0,0,1,5083.827,3092.162Z" transform="translate(-5076.321 -3071.375)" fill="#d43a29"/>
          </g>
          <g id="Groupe_1952" data-name="Groupe 1952">
            <path id="Tracé_2262" data-name="Tracé 2262" d="M5062.184,3090.461l.761-2.841.334-1.248,1.1-4.112a1.875,1.875,0,0,0-.748-2.023l.35-1.3.6.161a1.864,1.864,0,0,0,2.288-1.32l.321-1.2v-.009l.965-3.6a.623.623,0,1,0-1.2-.322l-.805,3.006-1.2-.322.806-3.006a.623.623,0,0,0-1.2-.323l-.806,3.006-1.2-.322.806-3.007a.623.623,0,1,0-1.2-.322l-.964,3.6v.007l0,.006-.321,1.2a1.873,1.873,0,0,0,1.32,2.288l.6.161-.35,1.305a1.875,1.875,0,0,0-1.658,1.378l-.592,2.209-.4,1.5-.861,3.215-.359,1.338-.363,1.357a1.867,1.867,0,1,0,3.607.967l.052-.194Zm.319-13.214a.627.627,0,0,1-.44-.763l.162-.6,3.607.966-.161.6a.624.624,0,0,1-.763.44l-1.2-.322h0Zm-1.9,14.313a.623.623,0,0,1-.762.44.612.612,0,0,1-.377-.291.62.62,0,0,1-.064-.472l2.578-9.621a.615.615,0,0,1,.291-.376.621.621,0,0,1,.313-.085.63.63,0,0,1,.16.021.626.626,0,0,1,.44.763Z" transform="translate(-5058.132 -3070.889)" fill="#d43a29"/>
          </g>
        </g>
      </g>
      <g id="Groupe_1961" data-name="Groupe 1961" transform="translate(276.775 294.05)">
        <g id="Groupe_1955" data-name="Groupe 1955" transform="translate(24.18)">
          <path id="Tracé_2263" data-name="Tracé 2263" d="M4988.44,3272.74a2.748,2.748,0,0,0,.377.028,2.63,2.63,0,0,0,2.6-2.25l.014-.1h0a2.625,2.625,0,1,0-2.985,2.324Z" transform="translate(-4986.191 -3267.519)" fill="#002b3b"/>
        </g>
        <g id="Groupe_1956" data-name="Groupe 1956" transform="translate(1.958 3.077)">
          <path id="Tracé_2264" data-name="Tracé 2264" d="M4962.7,3279.274a1.335,1.335,0,0,0,1.112-.348l4.513-3.949,2.02.292-9.84,8.645-5.775-.827a1.687,1.687,0,0,0-.436-.021l-.023,0a1.706,1.706,0,0,0-1.544,1.856,1.734,1.734,0,0,0,1.508,1.58l6.757.937a2.515,2.515,0,0,0,2.142-.358l3.79-3.2,3.263,4.211-2.54,6.749a1.545,1.545,0,0,0-.117.426,1.731,1.731,0,0,0,1.138,1.88,1.753,1.753,0,0,0,.574.1,1.732,1.732,0,0,0,1.628-1.156l3.11-8.272a2.038,2.038,0,0,0-.032-2.146l-2.884-3.839,4.2-3.679,1.988,2.658a1.291,1.291,0,0,0,.148.166,1.509,1.509,0,0,0,2.129-.027l4.446-3.385a1.411,1.411,0,0,0,.435-.832,1.4,1.4,0,0,0-2.143-1.394l-3.6,2.717-3.287-4.375a1.76,1.76,0,0,0-1.14-.659l-6.1-.858a1.351,1.351,0,0,0-1.11.342l-4.889,4.27a1.369,1.369,0,0,0,.563,2.5Z" transform="translate(-4952.724 -3272.153)" fill="#002b3b"/>
        </g>
        <g id="Groupe_1957" data-name="Groupe 1957" transform="translate(20.639 9.558)">
          <path id="Tracé_2265" data-name="Tracé 2265" d="M4993.62,3281.914l-12.683,18.812-.079.119,1.268.178,12.506-18.34.051-.076Z" transform="translate(-4980.857 -3281.914)" fill="#002b3b"/>
        </g>
        <g id="Groupe_1958" data-name="Groupe 1958" transform="translate(1.144 7.507)">
          <path id="Tracé_2266" data-name="Tracé 2266" d="M4960.538,3280.954l.121-.858-8.953-1.258-.088-.013-.122.859,8.953,1.257Z" transform="translate(-4951.497 -3278.825)" fill="#002b3b"/>
        </g>
        <g id="Groupe_1959" data-name="Groupe 1959" transform="translate(0 14.793)">
          <path id="Tracé_2267" data-name="Tracé 2267" d="M4959.125,3300.639l-.725-1.035-.067.031c-.008,0-.63.293-.932.022l-7.386-9.86-.24,1.719,6.7,8.952a1.357,1.357,0,0,0,1.182.576,3.357,3.357,0,0,0,1.38-.359Z" transform="translate(-4949.775 -3289.798)" fill="#002b3b"/>
        </g>
        <g id="Groupe_1960" data-name="Groupe 1960" transform="translate(8.006 27.94)">
          <path id="Tracé_2268" data-name="Tracé 2268" d="M4983.134,3311.391a1.169,1.169,0,0,1-1.281,1l-19.812-2.783-.088-.013-.121.859,19.9,2.8a2.02,2.02,0,0,0,.333.027,2.077,2.077,0,0,0,2.045-1.741l.021-.12-.984-.114Z" transform="translate(-4961.832 -3309.598)" fill="#002b3b"/>
        </g>
      </g>
      <g id="Groupe_1968" data-name="Groupe 1968" transform="translate(33.994 260.098)">
        <g id="Groupe_1962" data-name="Groupe 1962" transform="translate(24.18 0)">
          <path id="Tracé_2269" data-name="Tracé 2269" d="M4622.812,3221.609a2.584,2.584,0,0,0,.376.028,2.628,2.628,0,0,0,2.6-2.25l.014-.1h0a2.625,2.625,0,1,0-2.984,2.323Z" transform="translate(-4620.561 -3216.388)" fill="#002b3b"/>
        </g>
        <g id="Groupe_1963" data-name="Groupe 1963" transform="translate(1.958 3.077)">
          <path id="Tracé_2270" data-name="Tracé 2270" d="M4597.076,3228.145a1.337,1.337,0,0,0,1.111-.348l4.514-3.949,2.019.292-9.84,8.644-5.774-.826a1.731,1.731,0,0,0-.437-.022l-.023,0a1.707,1.707,0,0,0-1.544,1.857,1.732,1.732,0,0,0,1.508,1.579l6.757.938a2.519,2.519,0,0,0,2.142-.357l3.79-3.2,3.264,4.211-2.541,6.749a1.57,1.57,0,0,0-.117.426,1.727,1.727,0,0,0,2.459,1.807,1.712,1.712,0,0,0,.882-.983l3.109-8.272a2.041,2.041,0,0,0-.031-2.146l-2.885-3.839,4.2-3.679,1.988,2.658a1.277,1.277,0,0,0,.148.166,1.509,1.509,0,0,0,2.129-.026l4.446-3.386a1.414,1.414,0,0,0,.435-.832,1.413,1.413,0,0,0-1.2-1.6,1.377,1.377,0,0,0-.946.208l-3.6,2.717-3.287-4.375a1.764,1.764,0,0,0-1.14-.66l-6.1-.857a1.348,1.348,0,0,0-1.109.342l-4.889,4.27a1.37,1.37,0,0,0,.564,2.5Z" transform="translate(-4587.094 -3221.022)" fill="#002b3b"/>
        </g>
        <g id="Groupe_1964" data-name="Groupe 1964" transform="translate(20.638 9.558)">
          <path id="Tracé_2271" data-name="Tracé 2271" d="M4627.989,3230.783l-12.683,18.812-.079.119,1.268.178,12.507-18.34.05-.076Z" transform="translate(-4615.227 -3230.783)" fill="#002b3b"/>
        </g>
        <g id="Groupe_1965" data-name="Groupe 1965" transform="translate(1.144 7.508)">
          <path id="Tracé_2272" data-name="Tracé 2272" d="M4594.908,3229.824l.121-.858-8.952-1.258-.088-.013-.122.858,8.953,1.258Z" transform="translate(-4585.867 -3227.695)" fill="#002b3b"/>
        </g>
        <g id="Groupe_1966" data-name="Groupe 1966" transform="translate(0 14.793)">
          <path id="Tracé_2273" data-name="Tracé 2273" d="M4593.495,3249.508l-.725-1.034-.068.031c-.007,0-.629.293-.931.023l-7.385-9.861-.24,1.72,6.7,8.952a1.357,1.357,0,0,0,1.182.576,3.353,3.353,0,0,0,1.379-.36Z" transform="translate(-4584.146 -3238.667)" fill="#002b3b"/>
        </g>
        <g id="Groupe_1967" data-name="Groupe 1967" transform="translate(8.006 27.941)">
          <path id="Tracé_2274" data-name="Tracé 2274" d="M4617.5,3260.261a1.17,1.17,0,0,1-1.281,1l-19.813-2.783-.088-.013-.121.858,19.9,2.8a2.072,2.072,0,0,0,2.378-1.715l.021-.12-.984-.112Z" transform="translate(-4596.202 -3258.468)" fill="#002b3b"/>
        </g>
      </g>
      <g id="Groupe_1971" data-name="Groupe 1971" transform="translate(156.575 330.246)">
        <g id="Groupe_1969" data-name="Groupe 1969" transform="translate(17.916 0.478)">
          <path id="Tracé_2275" data-name="Tracé 2275" d="M4803.875,3353.118l.078.294a2.771,2.771,0,0,0,5.353-1.434l-.54-2.013-.531-1.984-1.278-4.769-.6-2.229-4.7-17.546a.923.923,0,0,0-1.13-.654,6.471,6.471,0,0,0-4.571,7.917l2.868,10.7a2.745,2.745,0,0,0,1.292,1.68,2.776,2.776,0,0,0,1.168.366l.48,1.791.5,1.85,1.128,4.211Zm-2.136-11.54a.93.93,0,0,1-1.132-.653l-2.868-10.7a4.644,4.644,0,0,1,2.4-5.326l4.278,15.965Zm5.129,12.008a.928.928,0,0,1-1.131-.652l-2.629-9.812,1.786-.478,2.628,9.811A.924.924,0,0,1,4806.868,3353.586Z" transform="translate(-4795.734 -3322.751)" fill="#bababa"/>
        </g>
        <g id="Groupe_1970" data-name="Groupe 1970" transform="translate(0 0)">
          <path id="Tracé_2276" data-name="Tracé 2276" d="M4774.763,3351.062l1.129-4.214.5-1.849,1.635-6.1a2.784,2.784,0,0,0-1.109-3l.52-1.936.892.239a2.736,2.736,0,0,0,.716.095,2.774,2.774,0,0,0,2.676-2.054l.477-1.778v-.006l0-.006,1.432-5.345a.923.923,0,1,0-1.783-.478l-1.2,4.459-1.784-.478,1.2-4.46a.924.924,0,1,0-1.784-.478l-1.195,4.459-1.784-.478,1.195-4.459a.923.923,0,1,0-1.784-.478l-1.432,5.342,0,.009,0,.01-.476,1.774a2.776,2.776,0,0,0,1.958,3.392l.893.239-.519,1.936a2.782,2.782,0,0,0-2.46,2.045l-.877,3.276-.6,2.229-1.277,4.768-.531,1.985-.54,2.014a2.771,2.771,0,0,0,2.674,3.487,2.776,2.776,0,0,0,2.677-2.053l.078-.289Zm.474-19.6a.927.927,0,0,1-.653-1.131l.239-.892,5.352,1.434-.239.892a.925.925,0,0,1-1.131.653l-1.783-.478h0Zm-2.822,21.231a.924.924,0,0,1-1.131.652.93.93,0,0,1-.653-1.13l3.824-14.27a.931.931,0,0,1,.9-.685.952.952,0,0,1,.236.031.929.929,0,0,1,.653,1.132Z" transform="translate(-4768.753 -3322.032)" fill="#bababa"/>
        </g>
      </g>
      <g id="Groupe_1977" data-name="Groupe 1977" transform="translate(19.212 108.327)">
        <g id="Groupe_1972" data-name="Groupe 1972" transform="translate(0 11.751)">
          <path id="Tracé_2277" data-name="Tracé 2277" d="M4569.748,3027.365a7.9,7.9,0,0,0,7.865-7.865c0-2.968-3.5-8.132-5.847-11.575-.5-.741-.95-1.424-1.365-2.048a.944.944,0,0,0-.238-.238.773.773,0,0,0-1.068.238c-.386.623-.831,1.276-1.366,2.048-2.344,3.443-5.847,8.637-5.847,11.605a7.831,7.831,0,0,0,2.315,5.55A7.93,7.93,0,0,0,4569.748,3027.365Zm-.741-18.608c.267-.386.5-.772.741-1.1.238.327.475.712.743,1.1,2.226,3.324,5.58,8.251,5.58,10.743a6.406,6.406,0,0,1-1.84,4.482,6.28,6.28,0,0,1-4.482,1.84,6.4,6.4,0,0,1-4.481-1.84,6.277,6.277,0,0,1-1.84-4.482C4563.427,3017.008,4566.78,3012.051,4569.007,3008.757Z" transform="translate(-4561.883 -3005.516)" fill="#d43a29"/>
        </g>
        <g id="Groupe_1973" data-name="Groupe 1973" transform="translate(12.144 26.968)">
          <path id="Tracé_2278" data-name="Tracé 2278" d="M4601.066,3048.676h-1.453l-7.927-14.532,2.591-4.749a.651.651,0,0,0-.26-.882.65.65,0,0,0-.883.259l-2.189,4.013-2.19-4.013a.651.651,0,0,0-1.142.624l2.59,4.749-7.927,14.532h-1.454a.651.651,0,0,0,0,1.3h20.244a.651.651,0,1,0,0-1.3Zm-2.936,0h-14.371l7.186-13.174Z" transform="translate(-4580.172 -3028.432)" fill="#d43a29"/>
        </g>
        <g id="Groupe_1976" data-name="Groupe 1976" transform="translate(20.402 0)">
          <g id="Groupe_1974" data-name="Groupe 1974" transform="translate(9.208 0.245)">
            <path id="Tracé_2279" data-name="Tracé 2279" d="M4610.659,3003.8l.041.151a1.424,1.424,0,0,0,2.75-.737l-.277-1.034-.274-1.02-.656-2.451-.307-1.146-2.416-9.018a.474.474,0,0,0-.581-.335,3.326,3.326,0,0,0-2.349,4.069l1.474,5.5a1.43,1.43,0,0,0,1.263,1.051l.247.92.255.95.58,2.165Zm-1.1-5.932a.479.479,0,0,1-.582-.335l-1.474-5.5a2.387,2.387,0,0,1,1.231-2.738l2.2,8.205Zm2.636,6.172a.469.469,0,0,1-.359-.048.475.475,0,0,1-.222-.287l-1.351-5.042.917-.246,1.352,5.042A.475.475,0,0,1,4612.2,3004.036Z" transform="translate(-4606.476 -2988.188)" fill="#d43a29"/>
          </g>
          <g id="Groupe_1975" data-name="Groupe 1975">
            <path id="Tracé_2280" data-name="Tracé 2280" d="M4595.7,3002.739l.581-2.165.254-.952.841-3.135a1.432,1.432,0,0,0-.57-1.543l.268-1,.458.123a1.42,1.42,0,0,0,1.744-1.007l.245-.914v-.007l.736-2.747a.475.475,0,0,0-.917-.246l-.614,2.292-.917-.246.614-2.292a.475.475,0,0,0-.917-.246l-.614,2.292-.917-.246.615-2.292a.475.475,0,0,0-.917-.246l-.736,2.746v.01l-.245.912a1.427,1.427,0,0,0,1.007,1.743l.458.123-.266,1a1.434,1.434,0,0,0-1.266,1.051l-.45,1.684-.307,1.146-.656,2.45-.274,1.02-.277,1.035a1.424,1.424,0,0,0,2.751.737l.04-.148Zm.243-10.074a.479.479,0,0,1-.335-.582l.123-.458,2.75.737-.123.458a.475.475,0,0,1-.581.336l-.917-.245h0Zm-1.45,10.912a.475.475,0,0,1-.917-.246l1.965-7.334a.479.479,0,0,1,.459-.351.471.471,0,0,1,.41.238.472.472,0,0,1,.048.359Z" transform="translate(-4592.608 -2987.819)" fill="#d43a29"/>
          </g>
        </g>
      </g>
    </g>
    <g id="Groupe_1883" data-name="Groupe 1883" transform="matrix(0.891, -0.454, 0.454, 0.891, 1423.612, 3921.475)">
      <path id="Tracé_1882" data-name="Tracé 1882" d="M10.215,0A10.225,10.225,0,0,1,20.428,10.214v1.315h-2.29V10.214a7.923,7.923,0,1,0-15.846,0v32.92a4.141,4.141,0,0,0,4.136,4.137H7.441a4.141,4.141,0,0,0,4.136-4.137V14.815a1.145,1.145,0,0,1,2.29,0v28.32a6.435,6.435,0,0,1-6.427,6.428H6.428A6.436,6.436,0,0,1,0,43.135V10.214A10.226,10.226,0,0,1,10.215,0Z" transform="matrix(0.999, 0.035, -0.035, 0.999, 1.73, 0)" fill="#00374b"/>
    </g>
  </g>
</svg>
