<svg xmlns="http://www.w3.org/2000/svg" width="86.182" height="77.246" viewBox="0 0 86.182 77.246">
  <g id="Groupe_1758" data-name="Groupe 1758" transform="translate(-725.534 -192.018)">
    <path id="Tracé_1893" data-name="Tracé 1893" d="M786.957,197.7a24.774,24.774,0,0,0-5.785.683l-.425.1-.345-.268a29.687,29.687,0,0,0-17.885-6.2h-.234a29.548,29.548,0,0,0-29.544,29.565,13.407,13.407,0,0,1-1.556,6.258l-5.155,9.733a4.185,4.185,0,0,0,3.62,6.146h3.082v8.7a7.546,7.546,0,0,0,7.534,7.541h6.4v3.187a6.118,6.118,0,0,0,6.108,6.114H776.88a6.118,6.118,0,0,0,6.108-6.114V258.1a50.446,50.446,0,0,1,1.041-10.178l.163-.785.8.063c.655.051,1.317.078,1.967.078a24.79,24.79,0,0,0,0-49.58Zm-6.222,49.667a53.772,53.772,0,0,0-1.086,10.736v5.045a2.776,2.776,0,0,1-2.769,2.775H752.767A2.775,2.775,0,0,1,750,263.15v-2.91a3.62,3.62,0,0,0-3.615-3.616h-6.119a4.2,4.2,0,0,1-4.195-4.2V244a3.62,3.62,0,0,0-3.614-3.618h-4.138l5.816-10.978a16.762,16.762,0,0,0,1.943-7.821,26.217,26.217,0,0,1,39.444-22.644l1.414.827-1.45.762a24.8,24.8,0,0,0,4.612,45.787l.806.233Zm6.222-3.426a21.451,21.451,0,1,1,21.42-21.451A21.46,21.46,0,0,1,786.957,243.943Z" transform="translate(0)" fill="#00374B"/>
    <path id="Tracé_1894" data-name="Tracé 1894" d="M853.3,225.557a8.591,8.591,0,0,0-6.5,2.5,1.671,1.671,0,0,0,0,2.361,1.709,1.709,0,0,0,2.361,0,5.161,5.161,0,0,1,3.687-1.531c.094,0,.188,0,.283.007a5.282,5.282,0,0,1,4.937,4.838,5.209,5.209,0,0,1-3.339,5.26,5.618,5.618,0,0,0-3.542,5.236,1.669,1.669,0,1,0,3.339,0,2.257,2.257,0,0,1,1.4-2.119,8.566,8.566,0,0,0-2.629-16.55Z" transform="translate(-65.902 -18.294)" fill="#00374B"/>
    <path id="Tracé_1895" data-name="Tracé 1895" d="M858.712,279.376a1.671,1.671,0,0,0-1.669,1.669v2.681a1.669,1.669,0,1,0,3.339,0v-2.681A1.671,1.671,0,0,0,858.712,279.376Z" transform="translate(-71.755 -47.665)" fill="#00374B"/>
  </g>
</svg>
