<svg xmlns="http://www.w3.org/2000/svg" xmlns:xlink="http://www.w3.org/1999/xlink" width="406.67" height="412.685" viewBox="0 0 406.67 412.685">
  <defs>
    <filter id="Rectangle_128" x="0" y="6.79" width="406.67" height="405.895" filterUnits="userSpaceOnUse">
      <feOffset dx="12.871" dy="14.385" input="SourceAlpha"/>
      <feGaussianBlur stdDeviation="5.684" result="blur"/>
      <feFlood flood-opacity="0.161"/>
      <feComposite operator="in" in2="blur"/>
      <feComposite in="SourceGraphic"/>
    </filter>
  </defs>
  <g id="postit_2" data-name="postit 2" transform="translate(-80.5 -3431.433)">
    <g id="Groupe_1742" data-name="Groupe 1742" transform="translate(84.68 3430.503)">
      <g transform="matrix(1, 0, 0, 1, -4.18, 0.93)" filter="url(#Rectangle_128)">
        <rect id="Rectangle_128-2" data-name="Rectangle 128" width="349.1" height="348.264" transform="translate(4.18 33.83) rotate(-4)" fill="#ededed"/>
      </g>
      <text id="Ce_que_je_mange" data-name="Ce que je mange" transform="translate(24.842 72.168) rotate(-4)" fill="#00374b" font-size="28" font-family="Poppins-SemiBold, Poppins" font-weight="600"><tspan x="0" y="0">Ce que je </tspan><tspan x="0" y="44">mange</tspan></text>
      <g id="Groupe_1741" data-name="Groupe 1741" transform="translate(239.707 4.046) rotate(-8)">
        <path id="Tracé_1882" data-name="Tracé 1882" d="M13.411,0A13.422,13.422,0,0,1,26.819,13.408v1.726H23.813V13.408a10.4,10.4,0,0,0-20.8,0V56.621a5.436,5.436,0,0,0,5.43,5.431h1.33a5.436,5.436,0,0,0,5.43-5.431V19.443a1.5,1.5,0,0,1,3.006,0V56.614a8.447,8.447,0,0,1-8.436,8.437H8.438A8.448,8.448,0,0,1,0,56.614V13.408A13.423,13.423,0,0,1,13.411,0Z" transform="matrix(0.999, 0.035, -0.035, 0.999, 2.277, 0)" fill="#00374b"/>
      </g>
      <path id="Icon_map-food" data-name="Icon map-food" d="M40.632,9.526,37.294,35.694H26.021L22.7,9.4H36.46L39.18,0l1.542.462L38.112,9.5l2.52.019ZM21.1,24.665s.422-3.393-5.424-3.393H6.37c-5.837,0-5.424,3.393-5.424,3.393ZM.946,32.3s-.414,3.39,5.424,3.39h9.309c5.846,0,5.424-3.393,5.424-3.393H.945ZM20.23,30.6a1.951,1.951,0,0,0,1.729-2.119,1.948,1.948,0,0,0-1.729-2.121H1.736A1.952,1.952,0,0,0,.008,28.48,1.955,1.955,0,0,0,1.738,30.6Z" transform="translate(151.473 79.354) rotate(-4.012)" fill="#dd5239"/>
      <g id="Groupe_1782" data-name="Groupe 1782" transform="translate(70.903 305.757)">
        <text id="_et_beaucoup_de_beurre_salé_" data-name="… et beaucoup de beurre salé ! " transform="translate(1.395 32.091) rotate(-4)" fill="#00374b" font-size="19" font-family="Poppins-Light, Poppins" font-weight="300"><tspan x="0" y="0">… et beaucoup de </tspan><tspan x="0" y="29">beurre salé !</tspan></text>
        <g id="Groupe_1779" data-name="Groupe 1779" transform="translate(156.246 36.035) rotate(9)">
          <g id="Groupe_1778" data-name="Groupe 1778" transform="translate(0 1.899) rotate(-4.012)">
            <rect id="rect595" width="14.83" height="1.809" transform="translate(12.298 0)" fill="#040506"/>
            <rect id="rect596" width="14.83" height="1.809" transform="translate(12.298 4.069)" fill="#040506"/>
            <rect id="rect597" width="27.128" height="1.809" transform="translate(0 8.138)" fill="#040506"/>
            <rect id="rect598" width="27.128" height="1.809" transform="translate(0 12.207)" fill="#040506"/>
            <rect id="rect599" width="27.128" height="1.809" transform="translate(0 16.277)" fill="#040506"/>
            <g id="Groupe_1777" data-name="Groupe 1777" transform="translate(0 0)">
              <rect id="Rectangle_144" data-name="Rectangle 144" width="27.128" height="2.261" transform="translate(0 9.947)" fill="#fff"/>
              <rect id="Rectangle_145" data-name="Rectangle 145" width="27.128" height="2.261" transform="translate(0 14.016)" fill="#fff"/>
              <path id="Tracé_1936" data-name="Tracé 1936" d="M12.3,8.137h14.83V5.877H12.3V4.068h14.83V1.809H12.3V0H0V8.137Z" transform="translate(0 0)" fill="#fff" fill-rule="evenodd"/>
            </g>
            <g id="g684" transform="translate(0.723 0.091)">
              <g id="g616" transform="translate(7.686 2.622)">
                <path id="path610" d="M0,.185.271,0,.723.185.271.37Z" transform="translate(0.814 0.543)" fill="#040506" fill-rule="evenodd"/>
                <path id="path611" d="M.724.185.453.37,0,.185.452,0Z" transform="translate(0.091 0.543)" fill="#040506" fill-rule="evenodd"/>
                <path id="path612" d="M.185.724,0,.452.185,0,.37.452Z" transform="translate(0.632 0)" fill="#040506" fill-rule="evenodd"/>
                <path id="path613" d="M.814,2.08.629,1.718,0,1.989.814,0l.814,1.989L.994,1.718.809,2.08Z" transform="translate(0 0.724)" fill="#040506" fill-rule="evenodd"/>
              </g>
              <g id="g621" transform="translate(9.223 5.063)">
                <path id="path622" d="M0,.185.271,0,.723.185.271.37Z" transform="translate(0.814 0.543)" fill="#040506" fill-rule="evenodd"/>
                <path id="path623" d="M.723.185.452.37,0,.185.452,0Z" transform="translate(0.091 0.543)" fill="#040506" fill-rule="evenodd"/>
                <path id="path624" d="M.185.723,0,.452.185,0,.37.452Z" transform="translate(0.633 0)" fill="#040506" fill-rule="evenodd"/>
                <path id="path625" d="M.814,2.08.629,1.718,0,1.989.814,0l.814,1.989L.994,1.718.809,2.08Z" transform="translate(0 0.723)" fill="#040506" fill-rule="evenodd"/>
              </g>
              <g id="g626" transform="translate(6.149 5.063)">
                <path id="path627" d="M0,.185.271,0,.723.185.271.37Z" transform="translate(0.814 0.543)" fill="#040506" fill-rule="evenodd"/>
                <path id="path628" d="M.724.185.453.37,0,.185.452,0Z" transform="translate(0.091 0.543)" fill="#040506" fill-rule="evenodd"/>
                <path id="path629" d="M.185.724,0,.452.185,0,.37.452Z" transform="translate(0.632 0)" fill="#040506" fill-rule="evenodd"/>
                <path id="path630" d="M.814,2.08.629,1.718,0,1.989.814,0l.814,1.989L.994,1.718.809,2.08Z" transform="translate(0 0.724)" fill="#040506" fill-rule="evenodd"/>
              </g>
              <g id="g631" transform="translate(9.223 0)">
                <path id="path632" d="M0,.185.271,0,.723.185.271.37Z" transform="translate(0.814 0.543)" fill="#040506" fill-rule="evenodd"/>
                <path id="path633" d="M.723.185.451.37,0,.185.452,0Z" transform="translate(0.091 0.543)" fill="#040506" fill-rule="evenodd"/>
                <path id="path634" d="M.185.723,0,.452.185,0,.37.452Z" transform="translate(0.632 0)" fill="#040506" fill-rule="evenodd"/>
                <path id="path635" d="M.814,2.08.629,1.718,0,1.989.814,0l.814,1.989L.994,1.718.809,2.08Z" transform="translate(0 0.723)" fill="#040506" fill-rule="evenodd"/>
              </g>
              <g id="g636" transform="translate(6.24 0.048)">
                <path id="path637" d="M0,.185.271,0,.723.185.271.37Z" transform="translate(0.814 0.543)" fill="#040506" fill-rule="evenodd"/>
                <path id="path638" d="M.723.185.452.37,0,.185.452,0Z" transform="translate(0.091 0.543)" fill="#040506" fill-rule="evenodd"/>
                <path id="path639" d="M.185.723,0,.452.185,0,.37.452Z" transform="translate(0.633 0)" fill="#040506" fill-rule="evenodd"/>
                <path id="path640" d="M.814,2.08.629,1.718,0,1.989.814,0l.814,1.989L.994,1.718.809,2.08Z" transform="translate(0 0.723)" fill="#040506" fill-rule="evenodd"/>
              </g>
              <g id="g641" transform="translate(4.611 2.622)">
                <path id="path642" d="M0,.185.271,0,.723.185.271.37Z" transform="translate(0.814 0.543)" fill="#040506" fill-rule="evenodd"/>
                <path id="path643" d="M.723.185.452.37,0,.185.452,0Z" transform="translate(0.091 0.543)" fill="#040506" fill-rule="evenodd"/>
                <path id="path644" d="M.185.724,0,.452.185,0,.37.452Z" transform="translate(0.632 0)" fill="#040506" fill-rule="evenodd"/>
                <path id="path645" d="M.814,2.08.629,1.718,0,1.989.814,0l.814,1.989L.994,1.718.809,2.08Z" transform="translate(0 0.724)" fill="#040506" fill-rule="evenodd"/>
              </g>
              <g id="g646" transform="translate(3.074 0)">
                <path id="path647" d="M0,.185.271,0,.723.185.271.37Z" transform="translate(0.814 0.543)" fill="#040506" fill-rule="evenodd"/>
                <path id="path648" d="M.724.185.453.37,0,.185.452,0Z" transform="translate(0.091 0.543)" fill="#040506" fill-rule="evenodd"/>
                <path id="path649" d="M.185.723,0,.452.185,0,.37.452Z" transform="translate(0.632 0)" fill="#040506" fill-rule="evenodd"/>
                <path id="path650" d="M.814,2.08.629,1.718,0,1.989.814,0l.814,1.989L.994,1.718.809,2.08Z" transform="translate(0 0.723)" fill="#040506" fill-rule="evenodd"/>
              </g>
              <g id="g651" transform="translate(3.074 5.063)">
                <path id="path652" d="M0,.185.271,0,.723.185.271.37Z" transform="translate(0.814 0.543)" fill="#040506" fill-rule="evenodd"/>
                <path id="path653" d="M.724.185.453.37,0,.185.452,0Z" transform="translate(0.091 0.543)" fill="#040506" fill-rule="evenodd"/>
                <path id="path654" d="M.185.724,0,.452.185,0,.37.452Z" transform="translate(0.632 0)" fill="#040506" fill-rule="evenodd"/>
                <path id="path655" d="M.814,2.08.629,1.718,0,1.989.814,0l.814,1.989L.994,1.718.809,2.08Z" transform="translate(0 0.724)" fill="#040506" fill-rule="evenodd"/>
              </g>
              <g id="g656" transform="translate(1.538 2.622)">
                <path id="path657" d="M0,.185.272,0,.723.185.271.37Z" transform="translate(0.814 0.543)" fill="#040506" fill-rule="evenodd"/>
                <path id="path658" d="M.723.185.452.37,0,.185.452,0Z" transform="translate(0.091 0.543)" fill="#040506" fill-rule="evenodd"/>
                <path id="path659" d="M.185.724,0,.452.185,0,.37.452Z" transform="translate(0.632 0)" fill="#040506" fill-rule="evenodd"/>
                <path id="path660" d="M.814,2.08.629,1.718,0,1.989.814,0l.814,1.989L.994,1.718.809,2.08Z" transform="translate(0 0.724)" fill="#040506" fill-rule="evenodd"/>
              </g>
              <g id="g661" transform="translate(0 0)">
                <path id="path662" d="M0,.185.271,0,.723.185.271.37Z" transform="translate(0.814 0.543)" fill="#040506" fill-rule="evenodd"/>
                <path id="path663" d="M.723.185.452.37,0,.185.452,0Z" transform="translate(0.091 0.543)" fill="#040506" fill-rule="evenodd"/>
                <path id="path664" d="M.185.723,0,.452.185,0,.37.452Z" transform="translate(0.632 0)" fill="#040506" fill-rule="evenodd"/>
                <path id="path665" d="M.814,2.08.629,1.718,0,1.989.814,0l.814,1.989L.994,1.718.809,2.08Z" transform="translate(0 0.723)" fill="#040506" fill-rule="evenodd"/>
              </g>
              <g id="g666" transform="translate(0 5.063)">
                <path id="path667" d="M0,.185.271,0,.723.185.271.37Z" transform="translate(0.814 0.543)" fill="#040506" fill-rule="evenodd"/>
                <path id="path668" d="M.723.185.452.37,0,.185.452,0Z" transform="translate(0.091 0.543)" fill="#040506" fill-rule="evenodd"/>
                <path id="path669" d="M.185.724,0,.452.185,0,.37.452Z" transform="translate(0.632 0)" fill="#040506" fill-rule="evenodd"/>
                <path id="path670" d="M.814,2.08.629,1.718,0,1.989.814,0l.814,1.989L.994,1.718.809,2.08Z" transform="translate(0 0.724)" fill="#040506" fill-rule="evenodd"/>
              </g>
            </g>
          </g>
          <path id="Tracé_1937" data-name="Tracé 1937" d="M0,0,1.449,23.144" transform="translate(0.047 2.104)" fill="none" stroke="#040506" stroke-width="1"/>
        </g>
      </g>
      <g id="Groupe_1781" data-name="Groupe 1781" transform="translate(31.501 134.466)">
        <text id="_6.000_kcal_jour_X_2_5_apport_journalier_masculin" data-name="6.000 kcal/jour X 2,5 apport journalier  masculin" transform="translate(29.699 30.436) rotate(-4)" fill="#00374b" font-size="19" font-family="Poppins-Light, Poppins" font-weight="300"><tspan x="0" y="0">6.500 kcal/jour</tspan><tspan font-size="13"><tspan x="0" y="19">Soit l’équivalent de 8 pizzas !</tspan></tspan></text>
        <path id="Icon_awesome-weight" data-name="Icon awesome-weight" d="M18.074,2.582H17.026a7.746,7.746,0,1,1-13.4,0H2.582A2.589,2.589,0,0,0,0,5.164v12.91a2.589,2.589,0,0,0,2.582,2.582H18.074a2.589,2.589,0,0,0,2.582-2.582V5.164A2.589,2.589,0,0,0,18.074,2.582ZM10.328,12.91A6.455,6.455,0,1,0,3.873,6.455,6.455,6.455,0,0,0,10.328,12.91Zm-.012-6.13,1.355-3.161a.647.647,0,0,1,1.188.508L11.5,7.3a1.606,1.606,0,1,1-1.184-.516Z" transform="translate(0 16.548) rotate(-4.012)" fill="#00374b"/>
      </g>
      <g id="Groupe_1780" data-name="Groupe 1780" transform="translate(39.859 222.667)">
        <text id="_6_litres_d_eau_par_jour_Soit_125_litres_de_neige_à_faire_fondre" data-name="6 litres d’eau par jour Soit 125 litres de neige à faire fondre" transform="translate(24.113 33.905) rotate(-4)" fill="#00374b" font-size="19" font-family="Poppins-Light, Poppins" font-weight="300"><tspan x="0" y="0">5 litres d’eau par jour</tspan><tspan font-size="13"><tspan x="0" y="19">Soit 100 litres de neige fraîche à faire </tspan><tspan x="0" y="38">fondre</tspan></tspan></text>
        <path id="Icon_ionic-ios-water" data-name="Icon ionic-ios-water" d="M13,5A22.71,22.71,0,0,0,8.389.092a.435.435,0,0,0-.528,0,22.431,22.431,0,0,0-4.6,4.9A15.406,15.406,0,0,0,0,13.667c0,.061,0,.127,0,.185A6.637,6.637,0,0,0,.555,16.5a7.136,7.136,0,0,0,.772,1.335,8.383,8.383,0,0,0,6.8,3.291c4.489,0,8.131-3.256,8.131-7.272A15.465,15.465,0,0,0,13,5ZM8.633,18.425H8.608a.446.446,0,0,1-.132-.868,6.323,6.323,0,0,0,4.388-4.1.442.442,0,0,1,.853.157v.071a4.928,4.928,0,0,1-5.084,4.744Z" transform="translate(0 21.386) rotate(-4)" fill="#00374b"/>
      </g>
    </g>
    <path id="Tracé_1887" data-name="Tracé 1887" d="M0,28.32l4.74,1.448,8.388,1.607L21.51,29.28,29.884,22.7l8.379,4.96,8.376-4.145L55.016,26l8.376-2.312,8.373,1.507,8.369,5.139L88.508,31.8l8.366-3.884,8.375,3.4,8.376-1.039L122,32.251l8.372-10.576,8.374,5.29,8.372-1.361,8.372-1.521,8.37.517,8.373,3.791,8.368-4.742,8.373-.681,8.369,8.12,8.367-4.768,8.372,6.127,8.369-4.708,8.365,1.559,8.366-4.2,8.373,6.146,8.366-8.12,8.363,4.567,8.363,4.546,8.368-5.1,8.369,3.193,8.363-5.762,8.361-2.794,8.361,2.838,8.363,6.234,8.37-1.769,8.369-5.989,9.766,6.267L348.259,0,0,.555Z" transform="translate(109.102 3810.875) rotate(-4.012)" fill="#ededed"/>
  </g>
</svg>
