<svg id="Composant_41_8" data-name="Composant 41 – 8" xmlns="http://www.w3.org/2000/svg" xmlns:xlink="http://www.w3.org/1999/xlink" width="491.999" height="336.648" viewBox="0 0 491.999 336.648">
  <defs>
    <clipPath id="clip-path">
      <rect id="Rectangle_199" data-name="Rectangle 199" width="145.725" height="327.271" fill="none"/>
    </clipPath>
    <clipPath id="clip-path-3">
      <rect id="Rectangle_196" data-name="Rectangle 196" width="47.647" height="47.646" fill="none"/>
    </clipPath>
    <clipPath id="clip-path-4">
      <rect id="Rectangle_197" data-name="Rectangle 197" width="53.066" height="53.068" fill="none"/>
    </clipPath>
    <clipPath id="clip-path-5">
      <rect id="Rectangle_200" data-name="Rectangle 200" width="146.999" height="147" fill="none"/>
    </clipPath>
  </defs>
  <path id="itineraire" d="M-17922-15743.156s21.391-18.957,48-16,26.7,42.087,57,48" transform="translate(18215 15784.156)" fill="none" stroke="#707070" stroke-width="10" stroke-dasharray="15 10"/>
  <g id="fusee" transform="matrix(0.719, 0.695, -0.695, 0.719, 227.342, 0)">
    <g id="Groupe_1787" data-name="Groupe 1787" clip-path="url(#clip-path)">
      <g id="Groupe_1786" data-name="Groupe 1786" transform="translate(0 0)">
        <g id="Groupe_1785" data-name="Groupe 1785" clip-path="url(#clip-path)">
          <path id="Tracé_1991" data-name="Tracé 1991" d="M5.268,0H38.957C56.793,47.445,24.1,76.326,24.1,76.326-15.042,44.558,5.268,0,5.268,0" transform="translate(50.669 250.945)" fill="#d3cc39"/>
          <path id="Tracé_1992" data-name="Tracé 1992" d="M23.856,0H.735C-.931,12.518-.9,33.637,13.423,50.335c0,0,14.819-18.8,10.434-50.335" transform="translate(60.473 250.945)" fill="#e8e46b"/>
          <path id="Tracé_1993" data-name="Tracé 1993" d="M7.619,25.169S13.635,15.941,14,0H0C.239,7.878,2,17.245,7.619,25.169" transform="translate(65.81 250.945)" fill="#dd5239"/>
          <path id="Tracé_1994" data-name="Tracé 1994" d="M84.214,0H74.962q.233,1.031.462,2.062H21.794q.229-1.03.462-2.062h-9.25C-2.487,50.791-9.561,99.781,23.3,177.052h6.576q-.326-1.035-.644-2.062t-.634-2.062H68.62c22.225-72.836,17.871-120.37,7.26-168.8h5.272c6.269,20.961,12.326,45.989,11.922,74.413-.415,29.181-7.581,60.081-21.894,94.391H68.62q-.314,1.028-.634,2.062t-.644,2.062h6.577C106.781,99.781,99.7,50.791,84.214,0" transform="translate(23.551 53.476)" fill="#fff"/>
          <path id="Tracé_1995" data-name="Tracé 1995" d="M84.214,0H74.962q.233,1.031.462,2.062H21.794q.229-1.03.462-2.062h-9.25C-2.487,50.791-9.561,99.781,23.3,177.052h6.576q-.326-1.035-.644-2.062t-.634-2.062H68.62c22.225-72.836,17.871-120.37,7.26-168.8h5.272c6.269,20.961,12.326,45.989,11.922,74.413-.415,29.181-7.581,60.081-21.894,94.391H68.62q-.314,1.028-.634,2.062t-.644,2.062h6.577C106.781,99.781,99.7,50.791,84.214,0Z" transform="translate(23.551 53.476)" fill="none" stroke="#00374b" stroke-miterlimit="10" stroke-width="1"/>
          <path id="Tracé_1996" data-name="Tracé 1996" d="M.159,0C.107,0,.053,0,0,.006c7.569.5,23.218,53.47,23.218,53.47H34.957S11.39,0,.159,0" transform="translate(72.809 0)" fill="#db3f15"/>
          <path id="Tracé_1997" data-name="Tracé 1997" d="M35.6,0C24.019,2.376,0,53.39,0,53.39H11.739S27.841,2.376,35.6,0" transform="translate(36.557 0.086)" fill="#dd5239"/>
          <path id="Tracé_1998" data-name="Tracé 1998" d="M.541,0A1.849,1.849,0,0,0,0,.086,4.116,4.116,0,0,1,.648.006C.612,0,.576,0,.541,0" transform="translate(72.161 0)" fill="#eb622a"/>
          <path id="Tracé_1999" data-name="Tracé 1999" d="M24.513,0a4.118,4.118,0,0,0-.648.08C16.1,2.456,0,53.47,0,53.47H47.73S32.082.5,24.513,0" transform="translate(48.296 0.006)" fill="#dd5239"/>
          <path id="Tracé_2000" data-name="Tracé 2000" d="M45.846,20.418H4.751L0,0H50.6Z" transform="translate(46.853 230.527)" fill="#00374b"/>
          <path id="Tracé_2001" data-name="Tracé 2001" d="M0,168.8H2.56c14.314-34.31,21.479-65.21,21.894-94.391C24.859,45.989,18.8,20.962,12.532,0H7.26C17.871,48.434,22.225,95.968,0,168.8" transform="translate(92.171 57.6)" fill="#dae1e7"/>
          <path id="Tracé_2002" data-name="Tracé 2002" d="M0,0Q.319,1.028.644,2.062H38.108q.326-1.035.644-2.062Z" transform="translate(52.786 228.465)" fill="#fff"/>
          <path id="Tracé_2003" data-name="Tracé 2003" d="M53.631,2.062Q53.4,1.031,53.169,0H.462Q.229,1.031,0,2.062Z" transform="translate(45.345 53.476)" fill="#fff"/>
          <path id="Tracé_2004" data-name="Tracé 2004" d="M0,0Q.314,1.028.634,2.062H39.385q.321-1.035.634-2.062Z" transform="translate(52.152 226.403)" fill="#fff"/>
          <path id="Tracé_2005" data-name="Tracé 2005" d="M84.214,0H74.962q.233,1.031.462,2.062H21.794q.229-1.03.462-2.062h-9.25C-2.487,50.791-9.561,99.781,23.3,177.052h6.576q-.326-1.035-.644-2.062t-.634-2.062H68.62c22.225-72.836,17.871-120.37,7.26-168.8h5.272c6.269,20.961,12.326,45.989,11.922,74.413-.415,29.181-7.581,60.081-21.894,94.391H68.62q-.314,1.028-.634,2.062t-.644,2.062h6.577C106.781,99.781,99.7,50.791,84.214,0" transform="translate(23.552 53.476)" fill="#fff"/>
          <path id="Tracé_2006" data-name="Tracé 2006" d="M52.078,49.972c-27.393,2.562-41.034,34.958-41.8,51.879-.162,3.545-3.9,4.786-5.384.279C-15.728,39.462,35.485,0,35.485,0s.544,3.782,5.633,22.53,10.96,27.442,10.96,27.442" transform="translate(0 176.926)" fill="#00374b"/>
          <path id="Tracé_2007" data-name="Tracé 2007" d="M0,49.972c27.395,2.562,41.036,34.958,41.8,51.879.16,3.545,3.9,4.786,5.384.279C67.808,39.462,16.6,0,16.6,0s-.542,3.782-5.633,22.53S0,49.972,0,49.972" transform="translate(93.644 176.926)" fill="#00374b"/>
          <path id="Tracé_2008" data-name="Tracé 2008" d="M42,21A21,21,0,1,1,21,0,21,21,0,0,1,42,21" transform="translate(51.16 81.681)" fill="#73c3d0"/>
          <path id="Tracé_2009" data-name="Tracé 2009" d="M30.02,0A30.02,30.02,0,1,0,60.038,30.022,30.02,30.02,0,0,0,30.02,0m0,51.021a21,21,0,1,1,21-21,21,21,0,0,1-21,21" transform="translate(42.141 72.663)" fill="#00374b"/>
          <g id="Groupe_1781" data-name="Groupe 1781" transform="translate(48.338 78.862)" style="mix-blend-mode: multiply;isolation: isolate">
            <g id="Groupe_1780" data-name="Groupe 1780">
              <g id="Groupe_1779" data-name="Groupe 1779" clip-path="url(#clip-path-3)">
                <path id="Tracé_2010" data-name="Tracé 2010" d="M23.823,0A23.823,23.823,0,1,0,47.647,23.823,23.823,23.823,0,0,0,23.823,0m0,44.823a21,21,0,1,1,21-21,21,21,0,0,1-21,21" transform="translate(0 -0.001)" fill="#d8d2cc"/>
              </g>
            </g>
          </g>
          <g id="Groupe_1784" data-name="Groupe 1784" transform="translate(49.113 79.635)" style="mix-blend-mode: multiply;isolation: isolate">
            <g id="Groupe_1783" data-name="Groupe 1783">
              <g id="Groupe_1782" data-name="Groupe 1782" clip-path="url(#clip-path-4)">
                <path id="Tracé_2011" data-name="Tracé 2011" d="M7.215,36.837A20.994,20.994,0,0,1,36.835,7.216,21,21,0,1,0,7.215,36.837" transform="translate(0 0)" fill="#dad6d2"/>
                <path id="Tracé_2012" data-name="Tracé 2012" d="M42.406,0A30.021,30.021,0,0,1,0,42.407,30.021,30.021,0,1,0,42.406,0" transform="translate(0.821 0.823)" fill="#dad6d2"/>
              </g>
            </g>
          </g>
          <path id="Tracé_2013" data-name="Tracé 2013" d="M17.65.219,0,24.538a20.934,20.934,0,0,0,2.733,7.338c.13.215.267.417.4.622L26.184.736A21.01,21.01,0,0,0,17.65.219" transform="translate(51.493 81.681)" fill="#fff"/>
          <path id="Tracé_2014" data-name="Tracé 2014" d="M2.71,108.126h0A2.71,2.71,0,0,1,0,105.416V2.71a2.71,2.71,0,1,1,5.42,0V105.416a2.71,2.71,0,0,1-2.71,2.71" transform="translate(69.442 173.838)" fill="#00374b"/>
        </g>
      </g>
    </g>
  </g>
  <g id="Groupe_1790" data-name="Groupe 1790" transform="translate(345 49.516)">
    <g id="Groupe_1789" data-name="Groupe 1789" clip-path="url(#clip-path-5)">
      <path id="Tracé_2015" data-name="Tracé 2015" d="M483.082,98.564a6.329,6.329,0,0,0,6.079.139,67.766,67.766,0,0,1,10.177,22.541,17.018,17.018,0,0,0-2.415,3.99Z" transform="translate(-353.157 -72.055)" fill="#73c3d0"/>
      <path id="Tracé_2016" data-name="Tracé 2016" d="M496.493,118.259c-1.328-3.024-2.862-5.922-4.086-8.993-.325-.814-1.254-3.736.616-3.265a2.991,2.991,0,0,1,.716.293,63.627,63.627,0,0,0-4.579-7.591,6.329,6.329,0,0,1-6.079-.139l13.84,26.67c.415-.868.978-1.929,1.481-2.749-.66-1.4-1.287-2.811-1.909-4.227" transform="translate(-353.157 -72.055)" fill="#5cb0c2"/>
      <path id="Tracé_2017" data-name="Tracé 2017" d="M32.281,394.925a4.613,4.613,0,0,0-4.422.234,48.88,48.88,0,0,1-8.5-15.813,12.521,12.521,0,0,0,1.559-3.032Z" transform="translate(-14.152 -275.104)" fill="#73c3d0"/>
      <path id="Tracé_2018" data-name="Tracé 2018" d="M57.114,60.182c.974-1.332.893-4.352.887-5.437a2.323,2.323,0,0,1,.1-.856,2.172,2.172,0,0,1,.646-.792l7.45-6.615c.99-.879,3.2-3.218,4.39-3.756s2.971.448,5.1-.067Z" transform="translate(-41.753 -31.113)" fill="#73c3d0"/>
      <path id="Tracé_2019" data-name="Tracé 2019" d="M328.643,510.081c2.56-.408,5.858.342,6.71,1.027a2.459,2.459,0,0,0,1.545.268,6.065,6.065,0,0,0,2.154-.489,73.279,73.279,0,0,0,8.374-3.943l5.308-2.778a2.612,2.612,0,0,0,1.329-1.16c.434-1.033.161-3.121.9-3.934Z" transform="translate(-240.254 -364.846)" fill="#73c3d0"/>
      <path id="Tracé_2020" data-name="Tracé 2020" d="M23.343,19.775A73.5,73.5,0,1,1,19.776,123.66,73.5,73.5,0,0,1,23.343,19.775" transform="translate(0 -0.001)" fill="#73c2d1"/>
      <path id="Tracé_2021" data-name="Tracé 2021" d="M127.116,0Zm0,0A73.24,73.24,0,0,0,77.065,19.691,73.256,73.256,0,0,1,127.114,0M76.974,19.774h0l-.038.036.038-.036m-.05.048-.028.026.028-.026m-.04.037-.036.034.036-.034m-.049.047-.025.024.025-.024m-.041.038-.026.024.026-.024m-.043.041-.03.028.03-.028m-.047.044-.021.02.021-.02m-.039.037-.029.028.029-.028m-.051.048-.019.018.019-.018m-.039.037-.017.016.017-.016m-.051.048-.018.017.018-.017m-.04.038-.013.013.013-.013m-.037.035-.008.008.008-.008m-.055.053-.01.01.01-.01m-.036.033-.008.009.008-.009m-.091.087-.008.008.008-.008m-.035.033,0,0,0,0m-.061.059h0Zm-.03.029,0,0,0,0m-.093.089,0,0,0,0m104.638,2.5,0,0ZM73.363,123.61l.046.049-.046-.049m103.841,3.7-.077.072.077-.072m-.078.072,0,0Zm-.077.072A73.256,73.256,0,0,1,127.149,147a73.244,73.244,0,0,0,49.9-19.549" transform="translate(-53.632)" fill="#f2fafa"/>
      <path id="Tracé_2022" data-name="Tracé 2022" d="M73.487,0h0A73.254,73.254,0,0,0,23.436,19.692l-.09.084-.038.036-.012.012-.028.026-.012.012-.036.034-.013.012-.025.024-.015.015-.026.024-.017.016-.03.028-.017.016-.021.02-.017.017-.029.028-.022.021-.019.018-.02.019-.017.016L22.9,20.2l-.018.017-.022.02-.014.014-.024.022-.008.008-.047.045-.01.009-.026.024-.008.008-.083.079a.051.051,0,0,0-.008.008l-.027.026,0,0-.059.056h0l-.029.028,0,0-.088.085,0,0A73.5,73.5,0,0,0,3.372,95.544,65.549,65.549,0,0,1,50.71,13.971a7.78,7.78,0,0,1,.089-.812c.58-3.577,4.449-5.894,8.079-5.894A6.952,6.952,0,0,1,62.857,8.42c2.009,1.393,4.036,2.472,5.493,3.69a65.788,65.788,0,0,1,10.235,1.113c-1.9-.834-3.311-2.19-2.494-3.739a3.34,3.34,0,0,1,3.146-1.949,10.63,10.63,0,0,1,4.282,1.279c2.094,1.006,2.811,3.8.607,4.975a3.492,3.492,0,0,1-1.574.31,65.153,65.153,0,0,1,18.319,7.778,1.9,1.9,0,0,1,.228-.6,2.734,2.734,0,0,1,2.322-1.662,3.932,3.932,0,0,1,3.119,2.355c.8,1.9-.024,2.747-1.276,2.886a65.884,65.884,0,0,1,9,8.027q1.742,1.867,3.312,3.829a5.1,5.1,0,0,1,2.776-.843q.179,0,.36.014c4.322.325,15.035,9.006,9.547,17.152a3.243,3.243,0,0,1-2.6,1.35,65.511,65.511,0,0,1-108.508,68.58c.2.215.389.432.587.645l.047.049A73.3,73.3,0,0,0,73.519,147h0a73.253,73.253,0,0,0,49.9-19.55l.074-.068,0,0h0l.077-.071.088-.083a73.5,73.5,0,0,0,3.563-103.882l-.168-.178,0,0A73.288,73.288,0,0,0,73.489,0ZM92.5,8.865c-.726,0-1.4-.273-1.379-.851A1.64,1.64,0,0,1,92.667,6.3a1.5,1.5,0,0,1,1.085.492c1.279,1.336-.063,2.072-1.254,2.072m8.32,1.814c-1.106,0-2.52-.892-1.55-1.418a1.6,1.6,0,0,1,.764-.192c1.176,0,2.18,1.234,1.284,1.536a1.537,1.537,0,0,1-.5.074m3.664,4.825c-.756,0-1.933-.508-1.71-.994a1.007,1.007,0,0,1,.9-.665,1.5,1.5,0,0,1,1.12.682c.56.716.233.977-.308.977m17.264,14.063c-2.089,0-5.033-2.9-4.134-5.67a1.372,1.372,0,0,1,1.352-1.094c2.138,0,5.609,4.022,4.216,6.041a1.661,1.661,0,0,1-1.434.724m16.405,30.75c-.728,0-1.384-.426-1.012-1.345.3-.74.718-1,1.127-1A1.519,1.519,0,0,1,139.584,59c.168.849-.671,1.313-1.432,1.313m-30.545,72.292c-.746,0-1.442-1.286-1.3-1.985.079-.381.635-.619,1.194-.619.85,0,1.709.55.909,1.984-.249.445-.532.62-.807.62" transform="translate(-0.003 -0.001)" fill="#6ebfcc"/>
      <path id="Tracé_2023" data-name="Tracé 2023" d="M20.09,376.316a54.512,54.512,0,0,0,2.967,6.392q-1.646-3.139-2.967-6.392" transform="translate(-14.687 -275.106)" fill="#c7e8ed"/>
      <path id="Tracé_2024" data-name="Tracé 2024" d="M51.459,139.5a44.433,44.433,0,0,0-30.625,11.8C6.781,164.42,3.346,184.962,10.411,203.193q1.321,3.25,2.967,6.392a56.28,56.28,0,0,0,8.3,11.475,54.4,54.4,0,0,0,31.084,16.8.885.885,0,0,1,.771-.468,1.222,1.222,0,0,1,1.011.719,49.652,49.652,0,0,0,6.053.373,47.254,47.254,0,0,0,9.643-.984,1.862,1.862,0,0,1,.13-.413,1.765,1.765,0,0,1,1.761-.875,5.822,5.822,0,0,1,1.843.343,43.338,43.338,0,0,0,17.244-9.866c18.97-17.712,18.593-48.947-.844-69.765A53.611,53.611,0,0,0,51.459,139.5M43.12,149.878a1.2,1.2,0,0,1-1.243-1.4.886.886,0,0,1,.925-.651c.718,0,1.529.576,1.241,1.393a.934.934,0,0,1-.924.659M24.842,166.7c-.806,0-1.75-.64-1.5-1.541a.931.931,0,0,1,.968-.7c.808,0,1.766.7,1.533,1.556a.949.949,0,0,1-1,.684m-2.252,6.914a27.317,27.317,0,0,1,15.877-4.935,32.616,32.616,0,0,1,23.676,10.6c11.825,12.666,12.055,31.667.513,42.443q-.287.269-.58.526a5.293,5.293,0,0,1,2.437,1.623c3.066,4.246,1.757,6.28-2.177,6.356l-.153,0c-2.669,0-6.235-1.366-7.689-3.317A28.057,28.057,0,0,1,44.027,228.9a32.623,32.623,0,0,1-23.677-10.6C9.429,206.606,8.4,189.5,17.4,178.465a4.431,4.431,0,0,1,.6-2.5,4.276,4.276,0,0,1,3.855-2.4,4.962,4.962,0,0,1,.732.055m17.973,57.369c-.429,0-1.179-1.045-.954-1.321a.31.31,0,0,1,.25-.112c.395,0,.959.526.959.526.081.669-.051.906-.254.906m8.724,1.94a1.055,1.055,0,0,1-.887-.5c-.534-.783.066-1.187.754-1.187a1.52,1.52,0,0,1,1.06.39c.5.512-.183,1.3-.927,1.3m6.469,2.539c-.284,0-.77-.322-.667-.725.046-.184.122-.25.207-.25.227,0,.524.474.524.474.225.358.125.5-.064.5" transform="translate(-5.008 -101.983)" fill="#73c2d1"/>
      <path id="Tracé_2025" data-name="Tracé 2025" d="M50.645,248.007a27.32,27.32,0,0,0-15.877,4.934,5.5,5.5,0,0,1,3.6,2.066c3.608,5.606.162,8.155-2.8,8.168h-.019c-2.339,0-5.772-2.374-5.976-5.387-9,11.035-7.973,28.141,2.948,39.84a32.623,32.623,0,0,0,23.678,10.6,28.068,28.068,0,0,0,10.468-1.987,2.745,2.745,0,0,1-.321-3.09c.821-1.558,2.639-2.176,4.549-2.176a9.857,9.857,0,0,1,3.354.6q.294-.258.58-.526c11.541-10.776,11.312-29.777-.513-42.443a32.615,32.615,0,0,0-23.676-10.6m-12.7,39.767a10.5,10.5,0,0,1-3.914-.966c-5.324-2.259-8.168-7.678-5.592-10.012a3.642,3.642,0,0,1,2.509-.825c2.945,0,6.783,2.169,7.718,3.814,3.208,5.657,2.135,7.989-.72,7.989m2.074,10.061c-.542,0-1.1-.6-.951-1.525.079-.508.317-.7.6-.7.575,0,1.323.809,1.214,1.319-.131.63-.491.9-.859.9m12.2,4.949a1.568,1.568,0,0,1-1.346-.7.814.814,0,0,1,.659-1.3,1.626,1.626,0,0,1,1.246.8c.581.8.088,1.2-.559,1.2" transform="translate(-17.185 -181.305)" fill="#73c2d1"/>
      <path id="Tracé_2026" data-name="Tracé 2026" d="M429.737,136.5c-2.7,1.756-4.083,6.033-.823,10.73,3.09,4.455,7.487,6.954,10.549,6.954.122,0,.242,0,.359-.012A65.128,65.128,0,0,0,429.737,136.5" transform="translate(-312.17 -99.789)" fill="#61b5c4"/>
      <path id="Tracé_2027" data-name="Tracé 2027" d="M439.908,133.366a5.1,5.1,0,0,0-2.776.843,65.136,65.136,0,0,1,10.085,17.672,3.238,3.238,0,0,0,2.6-1.35c5.489-8.145-5.224-16.826-9.546-17.151q-.181-.013-.36-.013" transform="translate(-319.565 -97.497)" fill="#5cb0c2"/>
      <path id="Tracé_2028" data-name="Tracé 2028" d="M204.164,44.914A65.638,65.638,0,0,0,188.508,46.8c-.251,4.542,3.826,7.594,9.09,8.183a13.986,13.986,0,0,0,1.542.086c4.851,0,8.643-2.6,9.076-5.577.286-1.963-.6-3.328-2.068-4.553-.66-.019-1.323-.03-1.984-.03" transform="translate(-137.801 -32.834)" fill="#61b5c4"/>
      <path id="Tracé_2029" data-name="Tracé 2029" d="M196.705,27.008c-3.63,0-7.5,2.317-8.078,5.894a7.52,7.52,0,0,0-.089.812,65.68,65.68,0,0,1,15.655-1.89q.992,0,1.984.03c-1.456-1.218-3.483-2.3-5.493-3.69a6.946,6.946,0,0,0-3.979-1.156" transform="translate(-137.831 -19.744)" fill="#5cb0c2"/>
      <path id="Tracé_2030" data-name="Tracé 2030" d="M438.192,84.778a1.372,1.372,0,0,0-1.352,1.095c-.9,2.766,2.045,5.67,4.134,5.67a1.66,1.66,0,0,0,1.434-.724c1.394-2.018-2.077-6.041-4.216-6.041" transform="translate(-319.23 -61.977)" fill="#5cb0c2"/>
      <path id="Tracé_2031" data-name="Tracé 2031" d="M374.966,81.342c-.311,1.676,2.143,3,4,3a3.675,3.675,0,0,0,.39-.021q-2.149-1.589-4.393-2.979" transform="translate(-274.099 -59.465)" fill="#61b5c4"/>
      <path id="Tracé_2032" data-name="Tracé 2032" d="M377.589,72.933a2.734,2.734,0,0,0-2.323,1.661,1.9,1.9,0,0,0-.228.6q2.246,1.392,4.394,2.979c1.252-.139,2.081-.984,1.276-2.886a3.933,3.933,0,0,0-3.119-2.355" transform="translate(-274.172 -53.318)" fill="#5cb0c2"/>
      <path id="Tracé_2033" data-name="Tracé 2033" d="M292.18,49.163a10.376,10.376,0,0,0,3.924.877h.042q-1.972-.5-3.966-.877" transform="translate(-213.598 -35.941)" fill="#61b5c4"/>
      <path id="Tracé_2034" data-name="Tracé 2034" d="M285.408,28.016a3.34,3.34,0,0,0-3.146,1.949c-.817,1.549.593,2.9,2.494,3.739q2,.377,3.966.876a3.488,3.488,0,0,0,1.574-.309c2.205-1.177,1.487-3.969-.607-4.975a10.63,10.63,0,0,0-4.282-1.279" transform="translate(-206.175 -20.481)" fill="#5cb0c2"/>
      <path id="Tracé_2035" data-name="Tracé 2035" d="M50.514,266.15a4.276,4.276,0,0,0-3.855,2.4,4.432,4.432,0,0,0-.6,2.5,26.413,26.413,0,0,1,5.188-4.846,4.925,4.925,0,0,0-.732-.055" transform="translate(-33.664 -194.569)" fill="#61b5c4"/>
      <path id="Tracé_2036" data-name="Tracé 2036" d="M51.272,266.353a26.491,26.491,0,0,0-5.188,4.847c.2,3.012,3.637,5.386,5.976,5.386h.019c2.96-.013,6.405-2.561,2.8-8.167a5.5,5.5,0,0,0-3.6-2.066" transform="translate(-33.69 -194.717)" fill="#61b5c4"/>
      <path id="Tracé_2037" data-name="Tracé 2037" d="M41.746,351.98a3.64,3.64,0,0,0-2.509.825c-2.576,2.334.268,7.754,5.592,10.012a10.5,10.5,0,0,0,3.914.966c2.856,0,3.928-2.332.719-7.989-.934-1.646-4.772-3.814-7.717-3.814" transform="translate(-27.981 -257.315)" fill="#61b5c4"/>
      <path id="Tracé_2038" data-name="Tracé 2038" d="M191.581,447.182A26.272,26.272,0,0,1,184,451.846c1.454,1.951,5.02,3.317,7.689,3.317l.152,0c3.935-.075,5.243-2.11,2.177-6.355a5.291,5.291,0,0,0-2.437-1.624" transform="translate(-134.512 -326.912)" fill="#61b5c4"/>
      <path id="Tracé_2039" data-name="Tracé 2039" d="M186.438,444.941c-1.91,0-3.729.618-4.549,2.176a2.745,2.745,0,0,0,.321,3.09,26.273,26.273,0,0,0,7.582-4.663,9.844,9.844,0,0,0-3.354-.6" transform="translate(-132.723 -325.274)" fill="#61b5c4"/>
      <path id="Tracé_2040" data-name="Tracé 2040" d="M246.186,500.349q-1.844.551-3.734.945c-.292,1.55,1.544,3.133,3.94,3.72a5.892,5.892,0,0,0,1.392.173c1.991,0,3.347-1.142,1.288-3.112a8.089,8.089,0,0,0-2.885-1.725" transform="translate(-177.222 -365.78)" fill="#61b5c4"/>
      <path id="Tracé_2041" data-name="Tracé 2041" d="M244.428,499.071a1.765,1.765,0,0,0-1.761.875,1.881,1.881,0,0,0-.129.413c1.257-.262,2.5-.577,3.733-.945a5.818,5.818,0,0,0-1.842-.343" transform="translate(-177.307 -364.846)" fill="#61b5c4"/>
      <path id="Tracé_2042" data-name="Tracé 2042" d="M396.409,483.374c-.559,0-1.115.238-1.194.618-.145.7.55,1.986,1.3,1.986.276,0,.558-.176.807-.621.8-1.433-.058-1.983-.909-1.983" transform="translate(-288.907 -353.37)" fill="#5cb0c2"/>
      <path id="Tracé_2043" data-name="Tracé 2043" d="M409.847,393.867a.756.756,0,0,0-.754.652c-.18.763.709,1.529,1.355,1.529.361,0,.646-.239.627-.85a1.335,1.335,0,0,0-1.228-1.332" transform="translate(-299.05 -287.936)" fill="#61b5c4"/>
      <path id="Tracé_2044" data-name="Tracé 2044" d="M475.034,267.881a1.827,1.827,0,0,0-1.79,1.506c-.209.895.5,1.273,1.317,1.273,1.036,0,2.258-.6,2.073-1.524a1.576,1.576,0,0,0-1.6-1.255" transform="translate(-345.938 -195.834)" fill="#61b5c4"/>
      <path id="Tracé_2045" data-name="Tracé 2045" d="M510.733,215.55c-.409,0-.829.258-1.127,1-.372.92.284,1.345,1.012,1.345.761,0,1.6-.463,1.431-1.313a1.518,1.518,0,0,0-1.316-1.03" transform="translate(-372.468 -157.578)" fill="#5cb0c2"/>
      <path id="Tracé_2046" data-name="Tracé 2046" d="M340.331,23.423a1.641,1.641,0,0,0-1.548,1.713c-.016.578.653.851,1.379.851,1.191,0,2.533-.736,1.254-2.072a1.5,1.5,0,0,0-1.085-.492" transform="translate(-247.667 -17.123)" fill="#5cb0c2"/>
      <path id="Tracé_2047" data-name="Tracé 2047" d="M368.968,33.713a1.6,1.6,0,0,0-.764.192c-.969.526.445,1.418,1.551,1.418a1.566,1.566,0,0,0,.5-.073c.9-.3-.108-1.537-1.284-1.537" transform="translate(-268.939 -24.646)" fill="#5cb0c2"/>
      <path id="Tracé_2048" data-name="Tracé 2048" d="M382.936,51.471a1.009,1.009,0,0,0-.9.665c-.222.487.954.994,1.711.994.542,0,.868-.261.309-.977a1.5,1.5,0,0,0-1.12-.682" transform="translate(-279.268 -37.628)" fill="#5cb0c2"/>
      <path id="Tracé_2049" data-name="Tracé 2049" d="M324.676,105.178a1,1,0,0,0-.85.435c-.362.545.777.98,1.5.98.317,0,.553-.085.54-.283a1.176,1.176,0,0,0-1.185-1.133" transform="translate(-236.682 -76.89)" fill="#61b5c4"/>
      <path id="Tracé_2050" data-name="Tracé 2050" d="M137.914,170.453a.887.887,0,0,0-.925.651,1.2,1.2,0,0,0,1.243,1.4.933.933,0,0,0,.923-.659c.287-.817-.523-1.393-1.241-1.393" transform="translate(-100.12 -124.61)" fill="#61b5c4"/>
      <path id="Tracé_2051" data-name="Tracé 2051" d="M69.016,232.316a.931.931,0,0,0-.968.7c-.246.9.7,1.54,1.5,1.54a.949.949,0,0,0,1-.683c.233-.859-.725-1.556-1.533-1.556" transform="translate(-49.717 -169.834)" fill="#61b5c4"/>
      <path id="Tracé_2052" data-name="Tracé 2052" d="M81.9,425.006c-.279,0-.517.191-.6.7-.146.928.41,1.525.952,1.525.367,0,.727-.274.859-.9.108-.51-.64-1.319-1.214-1.319" transform="translate(-59.423 -310.7)" fill="#61b5c4"/>
      <path id="Tracé_2053" data-name="Tracé 2053" d="M125.532,444.244a.814.814,0,0,0-.659,1.3,1.567,1.567,0,0,0,1.346.7c.647,0,1.14-.4.56-1.2a1.628,1.628,0,0,0-1.247-.8" transform="translate(-91.183 -324.764)" fill="#61b5c4"/>
      <path id="Tracé_2054" data-name="Tracé 2054" d="M161.536,480.586c-.688,0-1.288.4-.754,1.187a1.055,1.055,0,0,0,.887.5c.743,0,1.431-.79.927-1.3a1.521,1.521,0,0,0-1.06-.39" transform="translate(-117.39 -351.332)" fill="#61b5c4"/>
      <path id="Tracé_2055" data-name="Tracé 2055" d="M177.374,505.2a.451.451,0,0,0,.053.541,3.44,3.44,0,0,0,1.742.9c.285,0,.425-.189.218-.713a3.284,3.284,0,0,0-.231-.479q-.892-.109-1.781-.251" transform="translate(-129.622 -369.327)" fill="#61b5c4"/>
      <path id="Tracé_2056" data-name="Tracé 2056" d="M178.321,503.464a.883.883,0,0,0-.771.467q.89.142,1.781.251a1.221,1.221,0,0,0-1.01-.718" transform="translate(-129.798 -368.057)" fill="#61b5c4"/>
      <path id="Tracé_2057" data-name="Tracé 2057" d="M128.791,474.335a.307.307,0,0,0-.25.112c-.226.275.524,1.32.953,1.32.2,0,.336-.236.255-.906,0,0-.564-.526-.959-.526" transform="translate(-93.94 -346.762)" fill="#61b5c4"/>
      <path id="Tracé_2058" data-name="Tracé 2058" d="M186.377,492.687c-.085,0-.161.066-.208.25-.1.4.384.725.667.725.189,0,.289-.143.064-.5,0,0-.3-.474-.523-.474" transform="translate(-136.089 -360.179)" fill="#61b5c4"/>
      <path id="Tracé_2059" data-name="Tracé 2059" d="M234.779,506.833c-.315,0-.525.236-.357.638a.649.649,0,0,0,.631.4c.384,0,.748-.257.562-.522a1.084,1.084,0,0,0-.836-.515" transform="translate(-171.331 -370.52)" fill="#61b5c4"/>
      <path id="Tracé_2060" data-name="Tracé 2060" d="M302.386,485.729c-.562,0-.938.285-.67.834a2.1,2.1,0,0,0,1.847.9c.6,0,1.031-.225.766-.647a2.415,2.415,0,0,0-1.943-1.087" transform="translate(-220.505 -355.092)" fill="#61b5c4"/>
    </g>
  </g>
  <text id="PÔLE_SUD" data-name="PÔLE SUD" transform="translate(350 106.516)" fill="#fff" font-size="22" font-family="Poppins-SemiBold, Poppins" font-weight="600"><tspan x="15" y="23">PÔLE SUD</tspan></text>
</svg>
