<svg xmlns="http://www.w3.org/2000/svg" xmlns:xlink="http://www.w3.org/1999/xlink" width="513.664" height="417.596" viewBox="0 0 513.664 417.596">
  <defs>
    <filter id="Rectangle_136" x="0" y="48.531" width="513.664" height="369.065" filterUnits="userSpaceOnUse">
      <feOffset dx="12.869" dy="14.382" input="SourceAlpha"/>
      <feGaussianBlur stdDeviation="5.683" result="blur"/>
      <feFlood flood-opacity="0.102"/>
      <feComposite operator="in" in2="blur"/>
      <feComposite in="SourceGraphic"/>
    </filter>
    <filter id="Rectangle_137" x="339.433" y="0" width="67.577" height="130.234" filterUnits="userSpaceOnUse">
      <feOffset dy="3.007" input="SourceAlpha"/>
      <feGaussianBlur stdDeviation="3.007" result="blur-2"/>
      <feFlood flood-opacity="0.161"/>
      <feComposite operator="in" in2="blur-2"/>
      <feComposite in="SourceGraphic"/>
    </filter>
  </defs>
  <g id="postit_1" data-name="postit 1" transform="translate(-29.226 85.884) rotate(-12.007)">
    <g transform="matrix(0.98, 0.21, -0.21, 0.98, 46.46, -77.94)" filter="url(#Rectangle_136)">
      <rect id="Rectangle_136-2" data-name="Rectangle 136" width="459.937" height="304.343" transform="matrix(1, -0.07, 0.07, 1, 4.18, 82.57)" fill="#ededed"/>
    </g>
    <g transform="matrix(0.98, 0.21, -0.21, 0.98, 46.46, -77.94)" filter="url(#Rectangle_137)">
      <rect id="Rectangle_137-2" data-name="Rectangle 137" width="41.843" height="109.503" transform="matrix(1, 0.07, -0.07, 1, 356.26, 6.01)" fill="#fff"/>
    </g>
    <g id="Groupe_1736" data-name="Groupe 1736" transform="translate(27.122 14.976)">
      <text id="Hygiène_santé" data-name="Hygiène &amp; santé" transform="translate(22.947 26.737) rotate(8)" fill="#00374b" font-size="26" font-family="Poppins-SemiBold, Poppins" font-weight="600"><tspan x="0" y="0">Hygiène &amp; Santé</tspan></text>
      <g id="Groupe_1734" data-name="Groupe 1734" transform="translate(15.882 59.726)">
        <text id="_12_heures_de_ski_par_jour" data-name="12 heures de ski par jour" transform="translate(50.848 26.431) rotate(8)" fill="#00374b" font-size="18" font-family="Poppins-Light, Poppins" font-weight="300"><tspan x="0" y="0">12 heures d’activité par jour</tspan></text>
        <g id="Icon_map-cross-country-skiing" data-name="Icon map-cross-country-skiing" transform="translate(4.301 0) rotate(8)">
          <g id="Groupe_1772" data-name="Groupe 1772" transform="translate(0 0)">
            <path id="Tracé_1932" data-name="Tracé 1932" d="M5.058,2.538A2.529,2.529,0,1,1,2.528,0a2.529,2.529,0,0,1,2.53,2.538Z" transform="translate(21.93 0)" fill="#00374b"/>
            <path id="Tracé_1933" data-name="Tracé 1933" d="M8.421,22.532,0,14.062v1.479L7.836,23.43c.9.977,2.443-.153,2.443-.153l-.74-.794s-.728.48-1.106.071l-.018-.022ZM0,6.6H8.927v.687H0ZM31.978,4.191l.985.462-9.783,19.8H22.1ZM15.747,2.57,11.811,7.128a1.254,1.254,0,0,1-.982.468,1.277,1.277,0,0,1-.844-2.232l4.243-4.9A1.276,1.276,0,0,1,15.21,0h6.145A1.671,1.671,0,0,1,22.51.468L26.426,4.4l3.246-3.248a1.3,1.3,0,0,1,.844-.311,1.321,1.321,0,0,1,1.02,2.153L27.621,6.945a1.421,1.421,0,0,1-2.144.178l-2.4-2.417L19.323,9.059l3.439,3.449a1.954,1.954,0,0,1,.31,2.019l-1.928,8.616a1.635,1.635,0,0,1-3.239-.33,1.467,1.467,0,0,1,.053-.413l1.584-7.072-3.908-3.806L12.273,15.28a2.429,2.429,0,0,1-1.987.622l-6.817.012a1.636,1.636,0,0,1-1.622-1.282,1.615,1.615,0,0,1,1.225-1.948,1.5,1.5,0,0,1,.409-.036l5.863.014,8.67-10.08-2.269-.011Z" transform="translate(0 4.389)" fill="#00374b"/>
          </g>
          <path id="Tracé_1934" data-name="Tracé 1934" d="M21.169.02a1.264,1.264,0,0,1-1.213,1.258H0v.687H19.953a1.979,1.979,0,0,0,1.422-.559A1.979,1.979,0,0,0,21.975,0Z" transform="translate(9.614 28.937)" fill="#00374b" stroke="#00374b" stroke-width="0.2"/>
        </g>
      </g>
      <g id="Groupe_1735" data-name="Groupe 1735" transform="translate(13.221 108.24)">
        <text id="Nombre_d_orteils_avant_le_départ_:_10" data-name="Nombre d’orteils avant le départ : 10" transform="translate(44.614 24.203) rotate(8)" fill="#00374b" font-size="18" font-family="Poppins-Light, Poppins" font-weight="300"><tspan x="0" y="0">Nombre d’orteils avant le </tspan><tspan x="0" y="27">départ : 10</tspan></text>
        <g id="Groupe_1773" data-name="Groupe 1773" transform="translate(4.145 0) rotate(8)">
          <path id="Tracé_1935" data-name="Tracé 1935" d="M27.92,6.633a2.213,2.213,0,0,0-.664-1.555,1.311,1.311,0,0,0-1.236-.329,2.167,2.167,0,0,0-.654-1.4,1.293,1.293,0,0,0-1.567-.19,2.017,2.017,0,0,0-.549-.888,1.293,1.293,0,0,0-1.587-.178,2.007,2.007,0,0,0-.541-.862,1.3,1.3,0,0,0-1.872.047l-.005.006a2.53,2.53,0,0,0-.578-.8,1.645,1.645,0,0,0-2.386.06,2.82,2.82,0,0,0-.7,2.451,2.592,2.592,0,0,0,.966,1.83,1.659,1.659,0,0,0,2.289-.18,2.351,2.351,0,0,0,.317-.427,1.83,1.83,0,0,0,.3.292,1.341,1.341,0,0,0,.827.295,1.278,1.278,0,0,0,.664-.187,1.871,1.871,0,0,0,.638.932,1.344,1.344,0,0,0,.827.294,1.281,1.281,0,0,0,.643-.178,1.873,1.873,0,0,0,.645.956,1.341,1.341,0,0,0,.827.294,1.263,1.263,0,0,0,.317-.041.7.7,0,0,0,.012.1,1.987,1.987,0,0,0,.735,1.382,1.3,1.3,0,0,0,1.8-.141,2.184,2.184,0,0,0,.533-1.582ZM18.2,4.048a.784.784,0,0,1-1.118.089,1.743,1.743,0,0,1-.637-1.25V2.879A1.978,1.978,0,0,1,16.9,1.162a.848.848,0,0,1,.6-.281.863.863,0,0,1,.579.25,2.089,2.089,0,0,1,.592,1.451,2.053,2.053,0,0,1-.467,1.464Zm2.412-.276a.43.43,0,0,1-.622.052,1.123,1.123,0,0,1-.406-.806V3.01A1.284,1.284,0,0,1,19.875,1.9a.479.479,0,0,1,.338-.163.488.488,0,0,1,.327.146,1.36,1.36,0,0,1,.38.944,1.332,1.332,0,0,1-.3.95Zm2.132,1.038a.43.43,0,0,1-.622.052,1.122,1.122,0,0,1-.406-.8.071.071,0,0,1,0-.008,1.286,1.286,0,0,1,.286-1.115.48.48,0,0,1,.338-.163.489.489,0,0,1,.327.146,1.359,1.359,0,0,1,.38.943,1.332,1.332,0,0,1-.3.95Zm2.116,1.075a.43.43,0,0,1-.622.052,1.123,1.123,0,0,1-.406-.8.079.079,0,0,0,0-.008,1.711,1.711,0,0,1,.006-.56q.015-.055.027-.109a1.022,1.022,0,0,1,.253-.444.479.479,0,0,1,.338-.163.49.49,0,0,1,.327.146,1.361,1.361,0,0,1,.38.944,1.332,1.332,0,0,1-.3.95Zm1.889,1.731a.43.43,0,0,1-.622.052,1.123,1.123,0,0,1-.406-.8V6.855a1.285,1.285,0,0,1,.286-1.115.479.479,0,0,1,.338-.163.49.49,0,0,1,.327.146,1.361,1.361,0,0,1,.38.944,1.332,1.332,0,0,1-.3.95ZM24.275,25.358c0,.262-.013.493-.03.711a3.007,3.007,0,0,1-2.894,2.842A3.228,3.228,0,0,1,18.12,26.45a4.107,4.107,0,0,1,.566-3.175l.162-.259a6.825,6.825,0,0,0-.035-8.043c-.444-.7-.913-1.389-1.371-2.056q-.246-.355-.49-.72a3.416,3.416,0,0,1-.47-3.028,2.732,2.732,0,0,1,3.5-2.054A9.112,9.112,0,0,1,24.362,9.7,5.18,5.18,0,0,1,26,14.055a12.325,12.325,0,0,1-.667,2.892,17.677,17.677,0,0,0-1.078,6.687Zm.852-1.749a16.815,16.815,0,0,1,1.024-6.363,13.2,13.2,0,0,0,.716-3.1,6.079,6.079,0,0,0-1.88-5.063,9.972,9.972,0,0,0-4.8-2.826h0a3.621,3.621,0,0,0-4.548,2.658,4.3,4.3,0,0,0,.585,3.76q.245.362.493.723c.452.661.92,1.344,1.353,2.03a6.6,6.6,0,0,1,.951,5.265,6.852,6.852,0,0,1-.919,1.852l-.164.266a5,5,0,0,0-.675,3.82,4.086,4.086,0,0,0,3.908,3.151q.116,0,.234-.008a3.874,3.874,0,0,0,3.708-3.642c.019-.235.025-.486.034-.767.009-.444-.025-1.758-.025-1.758ZM2.338,8.356a1.988,1.988,0,0,0,.735-1.382c0-.032.008-.063.011-.1a1.265,1.265,0,0,0,.317.041,1.341,1.341,0,0,0,.827-.294,1.874,1.874,0,0,0,.645-.956,1.281,1.281,0,0,0,.644.178,1.343,1.343,0,0,0,.827-.294,1.872,1.872,0,0,0,.638-.932,1.283,1.283,0,0,0,.664.187,1.34,1.34,0,0,0,.827-.295,1.844,1.844,0,0,0,.3-.292,2.325,2.325,0,0,0,.317.427,1.692,1.692,0,0,0,1.236.555,1.71,1.71,0,0,0,1.054-.375A2.594,2.594,0,0,0,12.342,3a2.822,2.822,0,0,0-.7-2.451A1.645,1.645,0,0,0,9.259.491a2.533,2.533,0,0,0-.577.8l-.006-.006A1.3,1.3,0,0,0,6.8,1.237a2.008,2.008,0,0,0-.541.862,1.293,1.293,0,0,0-1.587.178,2.013,2.013,0,0,0-.549.888,1.293,1.293,0,0,0-1.567.189,2.17,2.17,0,0,0-.654,1.4,1.311,1.311,0,0,0-1.236.329A2.211,2.211,0,0,0,0,6.64,2.182,2.182,0,0,0,.538,8.222a1.3,1.3,0,0,0,1.8.141ZM9.255,2.582a2.089,2.089,0,0,1,.592-1.451.862.862,0,0,1,.579-.25.848.848,0,0,1,.6.281,1.978,1.978,0,0,1,.452,1.718v.008a1.743,1.743,0,0,1-.637,1.25.784.784,0,0,1-1.118-.089,2.053,2.053,0,0,1-.467-1.464ZM7.012,2.82a1.361,1.361,0,0,1,.38-.944.489.489,0,0,1,.327-.146.48.48,0,0,1,.338.163,1.285,1.285,0,0,1,.286,1.115v.008a1.124,1.124,0,0,1-.406.806.43.43,0,0,1-.622-.052,1.332,1.332,0,0,1-.3-.95ZM4.88,3.858a1.361,1.361,0,0,1,.38-.944.49.49,0,0,1,.327-.146.481.481,0,0,1,.338.163,1.285,1.285,0,0,1,.286,1.115.08.08,0,0,1,0,.008,1.122,1.122,0,0,1-.406.8.43.43,0,0,1-.622-.052,1.332,1.332,0,0,1-.3-.95ZM2.764,4.933a1.357,1.357,0,0,1,.38-.944.489.489,0,0,1,.327-.146.481.481,0,0,1,.338.163,1.021,1.021,0,0,1,.253.444q.012.056.027.109a1.7,1.7,0,0,1,.007.559v.008a1.124,1.124,0,0,1-.406.806.43.43,0,0,1-.622-.052,1.332,1.332,0,0,1-.3-.95ZM.874,6.664a1.36,1.36,0,0,1,.38-.944.488.488,0,0,1,.327-.146.479.479,0,0,1,.338.163,1.285,1.285,0,0,1,.286,1.115.075.075,0,0,1,0,.008,1.121,1.121,0,0,1-.406.8.43.43,0,0,1-.622-.052,1.332,1.332,0,0,1-.3-.95ZM9.91,25.534a3.157,3.157,0,0,1-.1.908A3.227,3.227,0,0,1,6.575,28.9a3.007,3.007,0,0,1-2.894-2.842,16.114,16.114,0,0,1-.021-1.66c.005-.255.011-.519.011-.779a18.282,18.282,0,0,0-.522-4.881.033.033,0,0,0-.006-.023L2.6,16.961l-.008-.022a12.332,12.332,0,0,1-.667-2.893A5.181,5.181,0,0,1,3.563,9.693,9.113,9.113,0,0,1,7.941,7.106a2.732,2.732,0,0,1,3.5,2.054,3.415,3.415,0,0,1-.47,3.028q-.244.361-.49.72c-.457.668-.93,1.358-1.371,2.057a6.823,6.823,0,0,0-.035,8.043c.054.089.108.178.162.26a4.954,4.954,0,0,1,.316.6,8.664,8.664,0,0,1,.358,1.669Zm.444-2.022a7.592,7.592,0,0,0-.371-.7c-.081-.136-.145-.233-.164-.266A6.869,6.869,0,0,1,8.9,20.691a6.6,6.6,0,0,1,.951-5.265c.432-.685.9-1.369,1.352-2.03l.493-.723a4.294,4.294,0,0,0,.586-3.761A3.622,3.622,0,0,0,7.733,6.255a9.97,9.97,0,0,0-4.8,2.827,6.079,6.079,0,0,0-1.88,5.063,13.191,13.191,0,0,0,.711,3.087L2.3,18.964a17.426,17.426,0,0,1,.493,4.641s0,.007,0,.011c0,.254-.005.514-.011.767a17.019,17.019,0,0,0,.024,1.75,3.874,3.874,0,0,0,3.708,3.642q.117.007.234.007c.1,0,3.252-.66,3.908-3.151a4.253,4.253,0,0,0,.126-1.091,5.55,5.55,0,0,0-.427-2.026ZM7.734,6.258" transform="translate(0 0)" fill="#00374b" stroke="#00374b" stroke-width="1"/>
        </g>
      </g>
      <g id="Groupe_1775" data-name="Groupe 1775" transform="translate(0 179.846)">
        <text id="Prévision_du_nombre_d_orteils_à_l_arrivée_:_10" data-name="Prévision du nombre d’orteils à l’arrivée : 10" transform="translate(46.908 21.125) rotate(8)" fill="#00374b" font-size="18" font-family="Poppins-Light, Poppins" font-weight="300"><tspan x="0" y="0">Prévision du nombre d’orteils </tspan><tspan x="0" y="27">à l’arrivée : 10</tspan></text>
        <g id="Groupe_1774" data-name="Groupe 1774" transform="translate(4.145 0) rotate(8)">
          <path id="Tracé_1935-2" data-name="Tracé 1935" d="M27.92,6.633a2.213,2.213,0,0,0-.664-1.555,1.311,1.311,0,0,0-1.236-.329,2.167,2.167,0,0,0-.654-1.4,1.293,1.293,0,0,0-1.567-.19,2.017,2.017,0,0,0-.549-.888,1.293,1.293,0,0,0-1.587-.178,2.007,2.007,0,0,0-.541-.862,1.3,1.3,0,0,0-1.872.047l-.005.006a2.53,2.53,0,0,0-.578-.8,1.645,1.645,0,0,0-2.386.06,2.82,2.82,0,0,0-.7,2.451,2.592,2.592,0,0,0,.966,1.83,1.659,1.659,0,0,0,2.289-.18,2.351,2.351,0,0,0,.317-.427,1.83,1.83,0,0,0,.3.292,1.341,1.341,0,0,0,.827.295,1.278,1.278,0,0,0,.664-.187,1.871,1.871,0,0,0,.638.932,1.344,1.344,0,0,0,.827.294,1.281,1.281,0,0,0,.643-.178,1.873,1.873,0,0,0,.645.956,1.341,1.341,0,0,0,.827.294,1.263,1.263,0,0,0,.317-.041.7.7,0,0,0,.012.1,1.987,1.987,0,0,0,.735,1.382,1.3,1.3,0,0,0,1.8-.141,2.184,2.184,0,0,0,.533-1.582ZM18.2,4.048a.784.784,0,0,1-1.118.089,1.743,1.743,0,0,1-.637-1.25V2.879A1.978,1.978,0,0,1,16.9,1.162a.848.848,0,0,1,.6-.281.863.863,0,0,1,.579.25,2.089,2.089,0,0,1,.592,1.451,2.053,2.053,0,0,1-.467,1.464Zm2.412-.276a.43.43,0,0,1-.622.052,1.123,1.123,0,0,1-.406-.806V3.01A1.284,1.284,0,0,1,19.875,1.9a.479.479,0,0,1,.338-.163.488.488,0,0,1,.327.146,1.36,1.36,0,0,1,.38.944,1.332,1.332,0,0,1-.3.95Zm2.132,1.038a.43.43,0,0,1-.622.052,1.122,1.122,0,0,1-.406-.8.071.071,0,0,1,0-.008,1.286,1.286,0,0,1,.286-1.115.48.48,0,0,1,.338-.163.489.489,0,0,1,.327.146,1.359,1.359,0,0,1,.38.943,1.332,1.332,0,0,1-.3.95Zm2.116,1.075a.43.43,0,0,1-.622.052,1.123,1.123,0,0,1-.406-.8.079.079,0,0,0,0-.008,1.711,1.711,0,0,1,.006-.56q.015-.055.027-.109a1.022,1.022,0,0,1,.253-.444.479.479,0,0,1,.338-.163.49.49,0,0,1,.327.146,1.361,1.361,0,0,1,.38.944,1.332,1.332,0,0,1-.3.95Zm1.889,1.731a.43.43,0,0,1-.622.052,1.123,1.123,0,0,1-.406-.8V6.855a1.285,1.285,0,0,1,.286-1.115.479.479,0,0,1,.338-.163.49.49,0,0,1,.327.146,1.361,1.361,0,0,1,.38.944,1.332,1.332,0,0,1-.3.95ZM24.275,25.358c0,.262-.013.493-.03.711a3.007,3.007,0,0,1-2.894,2.842A3.228,3.228,0,0,1,18.12,26.45a4.107,4.107,0,0,1,.566-3.175l.162-.259a6.825,6.825,0,0,0-.035-8.043c-.444-.7-.913-1.389-1.371-2.056q-.246-.355-.49-.72a3.416,3.416,0,0,1-.47-3.028,2.732,2.732,0,0,1,3.5-2.054A9.112,9.112,0,0,1,24.362,9.7,5.18,5.18,0,0,1,26,14.055a12.325,12.325,0,0,1-.667,2.892,17.677,17.677,0,0,0-1.078,6.687Zm.852-1.749a16.815,16.815,0,0,1,1.024-6.363,13.2,13.2,0,0,0,.716-3.1,6.079,6.079,0,0,0-1.88-5.063,9.972,9.972,0,0,0-4.8-2.826h0a3.621,3.621,0,0,0-4.548,2.658,4.3,4.3,0,0,0,.585,3.76q.245.362.493.723c.452.661.92,1.344,1.353,2.03a6.6,6.6,0,0,1,.951,5.265,6.852,6.852,0,0,1-.919,1.852l-.164.266a5,5,0,0,0-.675,3.82,4.086,4.086,0,0,0,3.908,3.151q.116,0,.234-.008a3.874,3.874,0,0,0,3.708-3.642c.019-.235.025-.486.034-.767.009-.444-.025-1.758-.025-1.758ZM2.338,8.356a1.988,1.988,0,0,0,.735-1.382c0-.032.008-.063.011-.1a1.265,1.265,0,0,0,.317.041,1.341,1.341,0,0,0,.827-.294,1.874,1.874,0,0,0,.645-.956,1.281,1.281,0,0,0,.644.178,1.343,1.343,0,0,0,.827-.294,1.872,1.872,0,0,0,.638-.932,1.283,1.283,0,0,0,.664.187,1.34,1.34,0,0,0,.827-.295,1.844,1.844,0,0,0,.3-.292,2.325,2.325,0,0,0,.317.427,1.692,1.692,0,0,0,1.236.555,1.71,1.71,0,0,0,1.054-.375A2.594,2.594,0,0,0,12.342,3a2.822,2.822,0,0,0-.7-2.451A1.645,1.645,0,0,0,9.259.491a2.533,2.533,0,0,0-.577.8l-.006-.006A1.3,1.3,0,0,0,6.8,1.237a2.008,2.008,0,0,0-.541.862,1.293,1.293,0,0,0-1.587.178,2.013,2.013,0,0,0-.549.888,1.293,1.293,0,0,0-1.567.189,2.17,2.17,0,0,0-.654,1.4,1.311,1.311,0,0,0-1.236.329A2.211,2.211,0,0,0,0,6.64,2.182,2.182,0,0,0,.538,8.222a1.3,1.3,0,0,0,1.8.141ZM9.255,2.582a2.089,2.089,0,0,1,.592-1.451.862.862,0,0,1,.579-.25.848.848,0,0,1,.6.281,1.978,1.978,0,0,1,.452,1.718v.008a1.743,1.743,0,0,1-.637,1.25.784.784,0,0,1-1.118-.089,2.053,2.053,0,0,1-.467-1.464ZM7.012,2.82a1.361,1.361,0,0,1,.38-.944.489.489,0,0,1,.327-.146.48.48,0,0,1,.338.163,1.285,1.285,0,0,1,.286,1.115v.008a1.124,1.124,0,0,1-.406.806.43.43,0,0,1-.622-.052,1.332,1.332,0,0,1-.3-.95ZM4.88,3.858a1.361,1.361,0,0,1,.38-.944.49.49,0,0,1,.327-.146.481.481,0,0,1,.338.163,1.285,1.285,0,0,1,.286,1.115.08.08,0,0,1,0,.008,1.122,1.122,0,0,1-.406.8.43.43,0,0,1-.622-.052,1.332,1.332,0,0,1-.3-.95ZM2.764,4.933a1.357,1.357,0,0,1,.38-.944.489.489,0,0,1,.327-.146.481.481,0,0,1,.338.163,1.021,1.021,0,0,1,.253.444q.012.056.027.109a1.7,1.7,0,0,1,.007.559v.008a1.124,1.124,0,0,1-.406.806.43.43,0,0,1-.622-.052,1.332,1.332,0,0,1-.3-.95ZM.874,6.664a1.36,1.36,0,0,1,.38-.944.488.488,0,0,1,.327-.146.479.479,0,0,1,.338.163,1.285,1.285,0,0,1,.286,1.115.075.075,0,0,1,0,.008,1.121,1.121,0,0,1-.406.8.43.43,0,0,1-.622-.052,1.332,1.332,0,0,1-.3-.95ZM9.91,25.534a3.157,3.157,0,0,1-.1.908A3.227,3.227,0,0,1,6.575,28.9a3.007,3.007,0,0,1-2.894-2.842,16.114,16.114,0,0,1-.021-1.66c.005-.255.011-.519.011-.779a18.282,18.282,0,0,0-.522-4.881.033.033,0,0,0-.006-.023L2.6,16.961l-.008-.022a12.332,12.332,0,0,1-.667-2.893A5.181,5.181,0,0,1,3.563,9.693,9.113,9.113,0,0,1,7.941,7.106a2.732,2.732,0,0,1,3.5,2.054,3.415,3.415,0,0,1-.47,3.028q-.244.361-.49.72c-.457.668-.93,1.358-1.371,2.057a6.823,6.823,0,0,0-.035,8.043c.054.089.108.178.162.26a4.954,4.954,0,0,1,.316.6,8.664,8.664,0,0,1,.358,1.669Zm.444-2.022a7.592,7.592,0,0,0-.371-.7c-.081-.136-.145-.233-.164-.266A6.869,6.869,0,0,1,8.9,20.691a6.6,6.6,0,0,1,.951-5.265c.432-.685.9-1.369,1.352-2.03l.493-.723a4.294,4.294,0,0,0,.586-3.761A3.622,3.622,0,0,0,7.733,6.255a9.97,9.97,0,0,0-4.8,2.827,6.079,6.079,0,0,0-1.88,5.063,13.191,13.191,0,0,0,.711,3.087L2.3,18.964a17.426,17.426,0,0,1,.493,4.641s0,.007,0,.011c0,.254-.005.514-.011.767a17.019,17.019,0,0,0,.024,1.75,3.874,3.874,0,0,0,3.708,3.642q.117.007.234.007c.1,0,3.252-.66,3.908-3.151a4.253,4.253,0,0,0,.126-1.091,5.55,5.55,0,0,0-.427-2.026ZM7.734,6.258" transform="translate(0 0)" fill="#00374b" stroke="#00374b" stroke-width="1"/>
        </g>
      </g>
      <path id="Icon_open-medical-cross" data-name="Icon open-medical-cross" d="M7.994,0V7.994H0V23.983H7.994v7.994H23.983V23.983h7.994V7.994H23.983V0Z" transform="translate(285.596 42.11) rotate(8)" fill="#dd5239"/>
    </g>
    <g id="Groupe_1776" data-name="Groupe 1776" transform="translate(31.193 237.022) rotate(12.007)">
      <g id="Groupe_1776-2" data-name="Groupe 1776" transform="translate(40.248 0)">
        <text id="Aucune_douche_vive_les_lingettes_bébé_" data-name="Aucune douche (vive les lingettes bébé)" transform="translate(1.33 40.271) rotate(-4.012)" fill="#00374b" font-size="18" font-family="Poppins-Light, Poppins" font-weight="300"><tspan x="0" y="0">Aucune douche </tspan><tspan y="0" font-size="12">(vive les lingettes bébé)</tspan></text>
      </g>
      <path id="Icon_awesome-shower" data-name="Icon awesome-shower" d="M20.445,5.436,12.152,13.73a1.26,1.26,0,0,1-1.777,0l-.594-.594a1.26,1.26,0,0,1,0-1.777l.005-.005a5.888,5.888,0,0,1-.178-7.366A4.077,4.077,0,0,0,3.361,7.444V23.506H0V7.438A7.434,7.434,0,0,1,12.468,1.964a5.888,5.888,0,0,1,5.6,1.1l.005-.005a1.26,1.26,0,0,1,1.777,0l.594.594A1.26,1.26,0,0,1,20.445,5.436Zm-.3,3.8a.839.839,0,1,1-.246-.593.839.839,0,0,1,.246.593Zm1.679,0a.839.839,0,1,1,.839.839.839.839,0,0,1-.839-.839Zm5.037,0a.839.839,0,1,1-.837-.839.839.839,0,0,1,.837.839Zm-8.4,1.679a.838.838,0,1,1-.245-.594.839.839,0,0,1,.245.594Zm2.518-.839a.839.839,0,1,1-.839.839.839.839,0,0,1,.839-.839Zm4.2.839a.838.838,0,1,1-.245-.594.839.839,0,0,1,.245.594Zm-8.4,1.68a.839.839,0,1,1-.839-.839A.839.839,0,0,1,16.788,12.593Zm1.679,0a.839.839,0,1,1,.839.839.839.839,0,0,1-.839-.839Zm5.037,0A.836.836,0,1,1,23.259,12a.839.839,0,0,1,.245.594Zm-6.715,1.679a.839.839,0,1,1,.839.839A.839.839,0,0,1,16.788,14.272Zm5.037,0a.836.836,0,1,1-.245-.594.839.839,0,0,1,.245.594Zm-5.037,1.679a.839.839,0,1,1-.246-.593.839.839,0,0,1,.246.593Zm3.358,0a.836.836,0,1,1-.244-.594.839.839,0,0,1,.244.594Zm-1.679,1.679a.836.836,0,1,1-.243-.593.839.839,0,0,1,.243.593Zm-1.679,1.679a.839.839,0,1,1-.246-.593.839.839,0,0,1,.246.593Z" transform="translate(0 25.896) rotate(-4.992)" fill="#00374b"/>
    </g>
  </g>
</svg>
