<svg xmlns="http://www.w3.org/2000/svg" xmlns:xlink="http://www.w3.org/1999/xlink" width="573.233" height="464.991" viewBox="0 0 573.233 464.991">
  <defs>
    <filter id="Rectangle_136" x="0" y="53.912" width="573.233" height="411.079" filterUnits="userSpaceOnUse">
      <feOffset dx="12.84" dy="14.35" input="SourceAlpha"/>
      <feGaussianBlur stdDeviation="5.67" result="blur"/>
      <feFlood flood-opacity="0.102"/>
      <feComposite operator="in" in2="blur"/>
      <feComposite in="SourceGraphic"/>
    </filter>
    <filter id="Rectangle_137" x="381.982" y="0" width="73.466" height="143.979" filterUnits="userSpaceOnUse">
      <feOffset dy="3" input="SourceAlpha"/>
      <feGaussianBlur stdDeviation="3" result="blur-2"/>
      <feFlood flood-opacity="0.161"/>
      <feComposite operator="in" in2="blur-2"/>
      <feComposite in="SourceGraphic"/>
    </filter>
  </defs>
  <g id="Groupe_1755" data-name="Groupe 1755" transform="matrix(0.978, -0.208, 0.208, 0.978, -34.703, 97.055)">
    <g transform="matrix(0.98, 0.21, -0.21, 0.98, 54.12, -87.72)" filter="url(#Rectangle_136)">
      <rect id="Rectangle_136-2" data-name="Rectangle 136" width="516.625" height="341.854" transform="translate(4.17 92.61) rotate(-4)" fill="#ededed"/>
    </g>
    <g transform="matrix(0.98, 0.21, -0.21, 0.98, 54.12, -87.72)" filter="url(#Rectangle_137)">
      <rect id="Rectangle_137-2" data-name="Rectangle 137" width="47" height="123" transform="translate(399.56 6) rotate(4)" fill="#fff"/>
    </g>
    <g id="Groupe_1736" data-name="Groupe 1736" transform="translate(35.884 16.6)">
      <text id="Hygiène_santé" data-name="Hygiène &amp; santé" transform="translate(25.906 0) rotate(8)" fill="#00374b" font-size="34" font-family="Poppins-SemiBold, Poppins" font-weight="600"><tspan x="0" y="36">Hygiène &amp; santé</tspan></text>
      <g id="Groupe_1734" data-name="Groupe 1734" transform="translate(26.623 70.726)">
        <text id="_12_heures_de_ski_par_jour" data-name="12 heures de ski par jour" transform="translate(47.319 5.086) rotate(8)" fill="#00374b" font-size="25" font-family="Poppins-Light, Poppins" font-weight="300"><tspan x="0" y="26">12 heures de ski par jour</tspan></text>
        <g id="Icon_map-cross-country-skiing" data-name="Icon map-cross-country-skiing" transform="translate(-8.472 -5.727) rotate(8)">
          <g id="Groupe_1772" data-name="Groupe 1772" transform="translate(0.72 2.16)">
            <path id="Tracé_1932" data-name="Tracé 1932" d="M29.406,5.017A2.847,2.847,0,1,1,26.558,2.16a2.852,2.852,0,0,1,2.847,2.857Z" transform="translate(0.976 -2.16)" fill="#00374b"/>
            <path id="Tracé_1933" data-name="Tracé 1933" d="M10.2,32.128.72,22.593l0,1.665,8.822,8.881c1.014,1.1,2.75-.172,2.75-.172l-.833-.894s-.82.54-1.245.08l-.02-.025ZM.72,14.19H10.77v.773H.72Zm36-2.71L37.829,12,26.816,34.291H25.6ZM18.448,9.655l-4.432,5.132a1.412,1.412,0,0,1-1.106.527,1.438,1.438,0,0,1-.95-2.513l4.777-5.52a1.436,1.436,0,0,1,1.106-.519l6.918,0a1.881,1.881,0,0,1,1.3.527L30.47,11.71l3.654-3.656a1.463,1.463,0,0,1,.95-.35,1.487,1.487,0,0,1,1.148,2.424l-4.407,4.453a1.6,1.6,0,0,1-2.414.2L26.7,12.06l-4.227,4.9,3.872,3.883a2.2,2.2,0,0,1,.349,2.273l-2.17,9.7a1.841,1.841,0,0,1-3.646-.371,1.651,1.651,0,0,1,.06-.465l1.783-7.961-4.4-4.285-3.784,4.23a2.735,2.735,0,0,1-2.237.7l-7.674.013A1.842,1.842,0,0,1,2.8,23.234a1.818,1.818,0,0,1,1.379-2.193A1.688,1.688,0,0,1,4.639,21l6.6.016L21,9.668l-2.554-.012Z" transform="translate(-0.72 -1.821)" fill="#00374b"/>
          </g>
          <path id="Tracé_1934" data-name="Tracé 1934" d="M34.631,32.523a1.423,1.423,0,0,1-1.365,1.416H10.8v.773H33.263A2.228,2.228,0,0,0,35.539,32.5Z" transform="translate(0.743 2.237)" fill="#00374b" stroke="#00374b" stroke-width="0.2"/>
        </g>
      </g>
      <g id="Groupe_1735" data-name="Groupe 1735" transform="translate(11.889 123.44)">
        <text id="Nombre_d_orteils_avant_le_départ_:_10" data-name="Nombre d’orteils avant le départ : 10" transform="translate(52.04 4.479) rotate(8)" fill="#00374b" font-size="25" font-family="Poppins-Light, Poppins" font-weight="300"><tspan x="0" y="26">Nombre d’orteils avant le </tspan><tspan x="0" y="64">départ : 10</tspan></text>
        <g id="Groupe_1773" data-name="Groupe 1773" transform="translate(-219.34 -140.218) rotate(8)">
          <path id="Tracé_1935" data-name="Tracé 1935" d="M271.4,113.737a2.492,2.492,0,0,0-.748-1.751,1.476,1.476,0,0,0-1.392-.37,2.439,2.439,0,0,0-.736-1.579,1.456,1.456,0,0,0-1.764-.214,2.271,2.271,0,0,0-.618-1,1.456,1.456,0,0,0-1.787-.2,2.259,2.259,0,0,0-.609-.97,1.469,1.469,0,0,0-2.107.053l-.006.007a2.848,2.848,0,0,0-.651-.9,1.852,1.852,0,0,0-2.686.068,3.175,3.175,0,0,0-.784,2.759A2.918,2.918,0,0,0,258.6,111.7a1.925,1.925,0,0,0,1.186.422,1.906,1.906,0,0,0,1.391-.625,2.647,2.647,0,0,0,.357-.481,2.059,2.059,0,0,0,.336.329,1.51,1.51,0,0,0,.931.332,1.439,1.439,0,0,0,.747-.211,2.107,2.107,0,0,0,.718,1.049,1.513,1.513,0,0,0,.931.331,1.442,1.442,0,0,0,.724-.2,2.109,2.109,0,0,0,.726,1.076,1.51,1.51,0,0,0,.931.331,1.422,1.422,0,0,0,.357-.046c0,.035.008.071.013.107a2.237,2.237,0,0,0,.827,1.556,1.512,1.512,0,0,0,.931.331,1.5,1.5,0,0,0,1.092-.49,2.459,2.459,0,0,0,.6-1.781Zm-10.937-2.91a.883.883,0,0,1-1.259.1,1.962,1.962,0,0,1-.717-1.407v-.009a2.227,2.227,0,0,1,.509-1.934.955.955,0,0,1,.676-.316.971.971,0,0,1,.652.282,2.352,2.352,0,0,1,.666,1.633,2.311,2.311,0,0,1-.526,1.648Zm2.715-.311a.484.484,0,0,1-.7.058,1.264,1.264,0,0,1-.457-.907v-.009a1.446,1.446,0,0,1,.322-1.255.539.539,0,0,1,.381-.183.55.55,0,0,1,.368.164,1.531,1.531,0,0,1,.428,1.063,1.5,1.5,0,0,1-.336,1.07Zm2.4,1.169a.484.484,0,0,1-.7.058,1.263,1.263,0,0,1-.457-.906.078.078,0,0,1,0-.009,1.448,1.448,0,0,1,.322-1.255.54.54,0,0,1,.381-.183.55.55,0,0,1,.368.164,1.53,1.53,0,0,1,.428,1.062,1.5,1.5,0,0,1-.336,1.07Zm2.382,1.21a.484.484,0,0,1-.7.058,1.264,1.264,0,0,1-.457-.906.086.086,0,0,0,0-.009,1.926,1.926,0,0,1,.007-.63c.011-.041.021-.082.03-.123a1.151,1.151,0,0,1,.285-.5.539.539,0,0,1,.38-.183.552.552,0,0,1,.368.164,1.532,1.532,0,0,1,.428,1.063,1.5,1.5,0,0,1-.336,1.07Zm2.127,1.949a.484.484,0,0,1-.7.058,1.264,1.264,0,0,1-.457-.906v-.009a1.447,1.447,0,0,1,.322-1.255.539.539,0,0,1,.38-.183.551.551,0,0,1,.368.164,1.532,1.532,0,0,1,.428,1.063,1.5,1.5,0,0,1-.336,1.07Zm-2.79,19.973c0,.295-.015.555-.034.8a3.385,3.385,0,0,1-3.258,3.2,3.634,3.634,0,0,1-3.637-2.771,4.624,4.624,0,0,1,.637-3.574l.182-.292a7.683,7.683,0,0,0-.039-9.055c-.5-.787-1.028-1.564-1.543-2.315q-.277-.4-.552-.81a3.846,3.846,0,0,1-.529-3.409,3.076,3.076,0,0,1,3.941-2.312,10.258,10.258,0,0,1,4.929,2.913,5.832,5.832,0,0,1,1.846,4.9,13.877,13.877,0,0,1-.751,3.256,19.9,19.9,0,0,0-1.214,7.528Zm.959-1.969a18.93,18.93,0,0,1,1.153-7.163,14.858,14.858,0,0,0,.806-3.487,6.844,6.844,0,0,0-2.116-5.7,11.226,11.226,0,0,0-5.4-3.182h0a4.076,4.076,0,0,0-5.12,2.992,4.835,4.835,0,0,0,.659,4.233q.276.408.555.814c.509.744,1.036,1.513,1.523,2.285a7.428,7.428,0,0,1,1.071,5.927,7.714,7.714,0,0,1-1.035,2.085l-.185.3a5.634,5.634,0,0,0-.76,4.3,4.6,4.6,0,0,0,4.4,3.547q.131,0,.263-.009a4.361,4.361,0,0,0,4.174-4.1c.021-.264.028-.547.038-.864C268.292,134.326,268.254,132.847,268.254,132.847ZM242.6,115.676a2.238,2.238,0,0,0,.827-1.556c.005-.036.009-.071.012-.107a1.424,1.424,0,0,0,.357.046,1.51,1.51,0,0,0,.931-.331,2.11,2.11,0,0,0,.726-1.076,1.442,1.442,0,0,0,.725.2,1.512,1.512,0,0,0,.931-.331,2.108,2.108,0,0,0,.718-1.049,1.444,1.444,0,0,0,.747.211,1.509,1.509,0,0,0,.931-.332,2.075,2.075,0,0,0,.336-.329,2.617,2.617,0,0,0,.357.481,1.905,1.905,0,0,0,1.391.625,1.925,1.925,0,0,0,1.186-.422,2.92,2.92,0,0,0,1.088-2.057,3.177,3.177,0,0,0-.785-2.759,1.852,1.852,0,0,0-2.686-.068,2.852,2.852,0,0,0-.65.9l-.007-.007a1.468,1.468,0,0,0-2.107-.053,2.261,2.261,0,0,0-.609.97,1.456,1.456,0,0,0-1.787.2,2.266,2.266,0,0,0-.618,1,1.456,1.456,0,0,0-1.764.213,2.443,2.443,0,0,0-.736,1.579,1.476,1.476,0,0,0-1.392.37,2.489,2.489,0,0,0-.748,1.751,2.457,2.457,0,0,0,.6,1.781,1.466,1.466,0,0,0,2.023.159Zm7.787-6.5a2.352,2.352,0,0,1,.666-1.633.971.971,0,0,1,.652-.282.955.955,0,0,1,.676.316,2.227,2.227,0,0,1,.509,1.934v.009a1.962,1.962,0,0,1-.717,1.407.883.883,0,0,1-1.259-.1,2.311,2.311,0,0,1-.526-1.648Zm-2.525.268a1.532,1.532,0,0,1,.428-1.063.55.55,0,0,1,.368-.164.54.54,0,0,1,.381.183,1.447,1.447,0,0,1,.322,1.255v.009a1.265,1.265,0,0,1-.457.907.484.484,0,0,1-.7-.058,1.5,1.5,0,0,1-.336-1.07Zm-2.4,1.169a1.532,1.532,0,0,1,.428-1.063.551.551,0,0,1,.368-.164.541.541,0,0,1,.381.183,1.447,1.447,0,0,1,.322,1.255.085.085,0,0,1,0,.009,1.263,1.263,0,0,1-.457.906.484.484,0,0,1-.7-.058,1.5,1.5,0,0,1-.336-1.07Zm-2.382,1.21a1.528,1.528,0,0,1,.428-1.063.55.55,0,0,1,.368-.164.541.541,0,0,1,.381.183,1.15,1.15,0,0,1,.285.5c.009.042.019.083.03.123a1.915,1.915,0,0,1,.008.629v.009a1.265,1.265,0,0,1-.457.907.484.484,0,0,1-.7-.058,1.5,1.5,0,0,1-.336-1.07Zm-2.128,1.949a1.531,1.531,0,0,1,.428-1.062.55.55,0,0,1,.368-.164.539.539,0,0,1,.381.183,1.447,1.447,0,0,1,.322,1.255.085.085,0,0,1,0,.009,1.262,1.262,0,0,1-.457.906.484.484,0,0,1-.7-.058,1.5,1.5,0,0,1-.336-1.07Zm10.173,21.243a3.553,3.553,0,0,1-.118,1.022,3.633,3.633,0,0,1-3.637,2.771,3.385,3.385,0,0,1-3.258-3.2,18.141,18.141,0,0,1-.024-1.869c.006-.287.012-.584.012-.877a20.581,20.581,0,0,0-.588-5.495c0-.009,0-.017-.007-.026l-.611-1.977-.009-.025a13.882,13.882,0,0,1-.751-3.257,5.833,5.833,0,0,1,1.845-4.9,10.259,10.259,0,0,1,4.929-2.913,3.076,3.076,0,0,1,3.941,2.312,3.844,3.844,0,0,1-.529,3.409q-.275.406-.552.81c-.515.752-1.047,1.529-1.543,2.316a7.681,7.681,0,0,0-.039,9.055c.061.1.122.2.182.293a5.574,5.574,0,0,1,.356.674A9.754,9.754,0,0,1,251.127,135.017Zm.5-2.276a8.535,8.535,0,0,0-.418-.791c-.091-.153-.163-.262-.185-.3a7.734,7.734,0,0,1-1.035-2.085,7.429,7.429,0,0,1,1.071-5.927c.486-.771,1.013-1.541,1.522-2.285q.278-.407.555-.814a4.834,4.834,0,0,0,.66-4.234,4.077,4.077,0,0,0-5.121-2.992,11.224,11.224,0,0,0-5.4,3.182,6.844,6.844,0,0,0-2.116,5.7,14.85,14.85,0,0,0,.8,3.475l.6,1.951a19.617,19.617,0,0,1,.555,5.225s0,.008,0,.012c0,.286-.006.579-.012.863a19.166,19.166,0,0,0,.027,1.97,4.361,4.361,0,0,0,4.174,4.1q.132.008.263.008c.116,0,3.661-.743,4.4-3.547a4.788,4.788,0,0,0,.142-1.228A6.248,6.248,0,0,0,251.626,132.741Zm-2.95-19.424" fill="#00374b" stroke="#00374b" stroke-width="1"/>
        </g>
      </g>
      <g id="Groupe_1775" data-name="Groupe 1775">
        <text id="Prévision_du_nombre_d_orteils_à_l_arrivée_:_10" data-name="Prévision du nombre d’orteils à l’arrivée : 10" transform="translate(51.627 205.066) rotate(8)" fill="#00374b" font-size="25" font-family="Poppins-Light, Poppins" font-weight="300"><tspan x="0" y="26">Prévision du nombre d’orteils </tspan><tspan x="0" y="64">à l’arrivée : 10</tspan></text>
        <g id="Groupe_1774" data-name="Groupe 1774" transform="translate(-222.335 63.834) rotate(8)">
          <path id="Tracé_1935-2" data-name="Tracé 1935" d="M271.4,113.737a2.492,2.492,0,0,0-.748-1.751,1.476,1.476,0,0,0-1.392-.37,2.439,2.439,0,0,0-.736-1.579,1.456,1.456,0,0,0-1.764-.214,2.271,2.271,0,0,0-.618-1,1.456,1.456,0,0,0-1.787-.2,2.259,2.259,0,0,0-.609-.97,1.469,1.469,0,0,0-2.107.053l-.006.007a2.848,2.848,0,0,0-.651-.9,1.852,1.852,0,0,0-2.686.068,3.175,3.175,0,0,0-.784,2.759A2.918,2.918,0,0,0,258.6,111.7a1.925,1.925,0,0,0,1.186.422,1.906,1.906,0,0,0,1.391-.625,2.647,2.647,0,0,0,.357-.481,2.059,2.059,0,0,0,.336.329,1.51,1.51,0,0,0,.931.332,1.439,1.439,0,0,0,.747-.211,2.107,2.107,0,0,0,.718,1.049,1.513,1.513,0,0,0,.931.331,1.442,1.442,0,0,0,.724-.2,2.109,2.109,0,0,0,.726,1.076,1.51,1.51,0,0,0,.931.331,1.422,1.422,0,0,0,.357-.046c0,.035.008.071.013.107a2.237,2.237,0,0,0,.827,1.556,1.512,1.512,0,0,0,.931.331,1.5,1.5,0,0,0,1.092-.49,2.459,2.459,0,0,0,.6-1.781Zm-10.937-2.91a.883.883,0,0,1-1.259.1,1.962,1.962,0,0,1-.717-1.407v-.009a2.227,2.227,0,0,1,.509-1.934.955.955,0,0,1,.676-.316.971.971,0,0,1,.652.282,2.352,2.352,0,0,1,.666,1.633,2.311,2.311,0,0,1-.526,1.648Zm2.715-.311a.484.484,0,0,1-.7.058,1.264,1.264,0,0,1-.457-.907v-.009a1.446,1.446,0,0,1,.322-1.255.539.539,0,0,1,.381-.183.55.55,0,0,1,.368.164,1.531,1.531,0,0,1,.428,1.063,1.5,1.5,0,0,1-.336,1.07Zm2.4,1.169a.484.484,0,0,1-.7.058,1.263,1.263,0,0,1-.457-.906.078.078,0,0,1,0-.009,1.448,1.448,0,0,1,.322-1.255.54.54,0,0,1,.381-.183.55.55,0,0,1,.368.164,1.53,1.53,0,0,1,.428,1.062,1.5,1.5,0,0,1-.336,1.07Zm2.382,1.21a.484.484,0,0,1-.7.058,1.264,1.264,0,0,1-.457-.906.086.086,0,0,0,0-.009,1.926,1.926,0,0,1,.007-.63c.011-.041.021-.082.03-.123a1.151,1.151,0,0,1,.285-.5.539.539,0,0,1,.38-.183.552.552,0,0,1,.368.164,1.532,1.532,0,0,1,.428,1.063,1.5,1.5,0,0,1-.336,1.07Zm2.127,1.949a.484.484,0,0,1-.7.058,1.264,1.264,0,0,1-.457-.906v-.009a1.447,1.447,0,0,1,.322-1.255.539.539,0,0,1,.38-.183.551.551,0,0,1,.368.164,1.532,1.532,0,0,1,.428,1.063,1.5,1.5,0,0,1-.336,1.07Zm-2.79,19.973c0,.295-.015.555-.034.8a3.385,3.385,0,0,1-3.258,3.2,3.634,3.634,0,0,1-3.637-2.771,4.624,4.624,0,0,1,.637-3.574l.182-.292a7.683,7.683,0,0,0-.039-9.055c-.5-.787-1.028-1.564-1.543-2.315q-.277-.4-.552-.81a3.846,3.846,0,0,1-.529-3.409,3.076,3.076,0,0,1,3.941-2.312,10.258,10.258,0,0,1,4.929,2.913,5.832,5.832,0,0,1,1.846,4.9,13.877,13.877,0,0,1-.751,3.256,19.9,19.9,0,0,0-1.214,7.528Zm.959-1.969a18.93,18.93,0,0,1,1.153-7.163,14.858,14.858,0,0,0,.806-3.487,6.844,6.844,0,0,0-2.116-5.7,11.226,11.226,0,0,0-5.4-3.182h0a4.076,4.076,0,0,0-5.12,2.992,4.835,4.835,0,0,0,.659,4.233q.276.408.555.814c.509.744,1.036,1.513,1.523,2.285a7.428,7.428,0,0,1,1.071,5.927,7.714,7.714,0,0,1-1.035,2.085l-.185.3a5.634,5.634,0,0,0-.76,4.3,4.6,4.6,0,0,0,4.4,3.547q.131,0,.263-.009a4.361,4.361,0,0,0,4.174-4.1c.021-.264.028-.547.038-.864C268.292,134.326,268.254,132.847,268.254,132.847ZM242.6,115.676a2.238,2.238,0,0,0,.827-1.556c.005-.036.009-.071.012-.107a1.424,1.424,0,0,0,.357.046,1.51,1.51,0,0,0,.931-.331,2.11,2.11,0,0,0,.726-1.076,1.442,1.442,0,0,0,.725.2,1.512,1.512,0,0,0,.931-.331,2.108,2.108,0,0,0,.718-1.049,1.444,1.444,0,0,0,.747.211,1.509,1.509,0,0,0,.931-.332,2.075,2.075,0,0,0,.336-.329,2.617,2.617,0,0,0,.357.481,1.905,1.905,0,0,0,1.391.625,1.925,1.925,0,0,0,1.186-.422,2.92,2.92,0,0,0,1.088-2.057,3.177,3.177,0,0,0-.785-2.759,1.852,1.852,0,0,0-2.686-.068,2.852,2.852,0,0,0-.65.9l-.007-.007a1.468,1.468,0,0,0-2.107-.053,2.261,2.261,0,0,0-.609.97,1.456,1.456,0,0,0-1.787.2,2.266,2.266,0,0,0-.618,1,1.456,1.456,0,0,0-1.764.213,2.443,2.443,0,0,0-.736,1.579,1.476,1.476,0,0,0-1.392.37,2.489,2.489,0,0,0-.748,1.751,2.457,2.457,0,0,0,.6,1.781,1.466,1.466,0,0,0,2.023.159Zm7.787-6.5a2.352,2.352,0,0,1,.666-1.633.971.971,0,0,1,.652-.282.955.955,0,0,1,.676.316,2.227,2.227,0,0,1,.509,1.934v.009a1.962,1.962,0,0,1-.717,1.407.883.883,0,0,1-1.259-.1,2.311,2.311,0,0,1-.526-1.648Zm-2.525.268a1.532,1.532,0,0,1,.428-1.063.55.55,0,0,1,.368-.164.54.54,0,0,1,.381.183,1.447,1.447,0,0,1,.322,1.255v.009a1.265,1.265,0,0,1-.457.907.484.484,0,0,1-.7-.058,1.5,1.5,0,0,1-.336-1.07Zm-2.4,1.169a1.532,1.532,0,0,1,.428-1.063.551.551,0,0,1,.368-.164.541.541,0,0,1,.381.183,1.447,1.447,0,0,1,.322,1.255.085.085,0,0,1,0,.009,1.263,1.263,0,0,1-.457.906.484.484,0,0,1-.7-.058,1.5,1.5,0,0,1-.336-1.07Zm-2.382,1.21a1.528,1.528,0,0,1,.428-1.063.55.55,0,0,1,.368-.164.541.541,0,0,1,.381.183,1.15,1.15,0,0,1,.285.5c.009.042.019.083.03.123a1.915,1.915,0,0,1,.008.629v.009a1.265,1.265,0,0,1-.457.907.484.484,0,0,1-.7-.058,1.5,1.5,0,0,1-.336-1.07Zm-2.128,1.949a1.531,1.531,0,0,1,.428-1.062.55.55,0,0,1,.368-.164.539.539,0,0,1,.381.183,1.447,1.447,0,0,1,.322,1.255.085.085,0,0,1,0,.009,1.262,1.262,0,0,1-.457.906.484.484,0,0,1-.7-.058,1.5,1.5,0,0,1-.336-1.07Zm10.173,21.243a3.553,3.553,0,0,1-.118,1.022,3.633,3.633,0,0,1-3.637,2.771,3.385,3.385,0,0,1-3.258-3.2,18.141,18.141,0,0,1-.024-1.869c.006-.287.012-.584.012-.877a20.581,20.581,0,0,0-.588-5.495c0-.009,0-.017-.007-.026l-.611-1.977-.009-.025a13.882,13.882,0,0,1-.751-3.257,5.833,5.833,0,0,1,1.845-4.9,10.259,10.259,0,0,1,4.929-2.913,3.076,3.076,0,0,1,3.941,2.312,3.844,3.844,0,0,1-.529,3.409q-.275.406-.552.81c-.515.752-1.047,1.529-1.543,2.316a7.681,7.681,0,0,0-.039,9.055c.061.1.122.2.182.293a5.574,5.574,0,0,1,.356.674A9.754,9.754,0,0,1,251.127,135.017Zm.5-2.276a8.535,8.535,0,0,0-.418-.791c-.091-.153-.163-.262-.185-.3a7.734,7.734,0,0,1-1.035-2.085,7.429,7.429,0,0,1,1.071-5.927c.486-.771,1.013-1.541,1.522-2.285q.278-.407.555-.814a4.834,4.834,0,0,0,.66-4.234,4.077,4.077,0,0,0-5.121-2.992,11.224,11.224,0,0,0-5.4,3.182,6.844,6.844,0,0,0-2.116,5.7,14.85,14.85,0,0,0,.8,3.475l.6,1.951a19.617,19.617,0,0,1,.555,5.225s0,.008,0,.012c0,.286-.006.579-.012.863a19.166,19.166,0,0,0,.027,1.97,4.361,4.361,0,0,0,4.174,4.1q.132.008.263.008c.116,0,3.661-.743,4.4-3.547a4.788,4.788,0,0,0,.142-1.228A6.248,6.248,0,0,0,251.626,132.741Zm-2.95-19.424" fill="#00374b" stroke="#00374b" stroke-width="1"/>
        </g>
      </g>
      <path id="Icon_open-medical-cross" data-name="Icon open-medical-cross" d="M9,0V9H0V27H9v9H27V27h9V9H27V0Z" transform="translate(317.359 47.406) rotate(8)" fill="#dd5239"/>
    </g>
    <g id="Groupe_1776" data-name="Groupe 1776" transform="matrix(0.978, 0.208, -0.208, 0.978, 670.746, -3276.125)">
      <g id="Groupe_1776-2" data-name="Groupe 1776">
        <text id="Aucune_douche_vive_les_lingettes_bébé_" data-name="Aucune douche (vive les lingettes bébé)" transform="matrix(0.998, -0.07, 0.07, 0.998, 161.742, 3621.617)" fill="#00374b" font-size="25" font-family="Poppins-Light, Poppins" font-weight="300"><tspan x="0" y="26">Aucune douche </tspan><tspan y="26" font-size="18">(vive les lingettes bébé)</tspan></text>
      </g>
      <path id="Icon_awesome-shower" data-name="Icon awesome-shower" d="M23.016,8.369,13.68,17.706a1.418,1.418,0,0,1-2,0l-.669-.669a1.418,1.418,0,0,1,0-2l.006-.006a6.628,6.628,0,0,1-.2-8.292,4.59,4.59,0,0,0-7.033,3.89V28.712H0V10.623A8.369,8.369,0,0,1,14.036,4.46a6.629,6.629,0,0,1,6.3,1.242l.006-.006a1.418,1.418,0,0,1,2,0l.669.669A1.418,1.418,0,0,1,23.016,8.369Zm-.334,4.276a.945.945,0,1,1-.945-.945A.945.945,0,0,1,22.682,12.646Zm1.89,0a.945.945,0,1,1,.945.945A.945.945,0,0,1,24.572,12.646Zm5.67,0A.945.945,0,1,1,29.3,11.7.945.945,0,0,1,30.243,12.646Zm-9.451,1.89a.945.945,0,1,1-.945-.945A.945.945,0,0,1,20.792,14.536Zm2.835-.945a.945.945,0,1,1-.945.945A.945.945,0,0,1,23.627,13.591Zm4.725.945a.945.945,0,1,1-.945-.945A.945.945,0,0,1,28.352,14.536ZM18.9,16.426a.945.945,0,1,1-.945-.945A.945.945,0,0,1,18.9,16.426Zm1.89,0a.945.945,0,1,1,.945.945A.945.945,0,0,1,20.792,16.426Zm5.67,0a.945.945,0,1,1-.945-.945A.945.945,0,0,1,26.462,16.426ZM18.9,18.316a.945.945,0,1,1,.945.945A.945.945,0,0,1,18.9,18.316Zm5.67,0a.945.945,0,1,1-.945-.945A.945.945,0,0,1,24.572,18.316Zm-5.67,1.89a.945.945,0,1,1-.945-.945A.945.945,0,0,1,18.9,20.207Zm3.78,0a.945.945,0,1,1-.945-.945A.945.945,0,0,1,22.682,20.207Zm-1.89,1.89a.945.945,0,1,1-.945-.945A.945.945,0,0,1,20.792,22.1Zm-1.89,1.89a.945.945,0,1,1-.945-.945A.945.945,0,0,1,18.9,23.987Z" transform="matrix(0.996, -0.087, 0.087, 0.996, 116.236, 3624.541)" fill="#00374b"/>
    </g>
  </g>
</svg>
