<?xml version="1.0" encoding="UTF-8" standalone="no"?>
<svg
   xmlns:dc="http://purl.org/dc/elements/1.1/"
   xmlns:cc="http://creativecommons.org/ns#"
   xmlns:rdf="http://www.w3.org/1999/02/22-rdf-syntax-ns#"
   xmlns:svg="http://www.w3.org/2000/svg"
   xmlns="http://www.w3.org/2000/svg"
   aria-hidden="true"
   focusable="false"
   data-prefix="fab"
   data-icon="instagram"
   class="svg-inline--fa fa-instagram fa-w-14"
   role="img"
   viewBox="0 0 100 100"
   version="1.1"
   id="svg132"
   width="100"
   height="100">
  <metadata
     id="metadata138">
    <rdf:RDF>
      <cc:Work
         rdf:about="">
        <dc:format>image/svg+xml</dc:format>
        <dc:type
           rdf:resource="http://purl.org/dc/dcmitype/StillImage" />
        <dc:title></dc:title>
      </cc:Work>
    </rdf:RDF>
  </metadata>
  <defs
     id="defs136" />
  <path
     fill="currentColor"
     d="m 50.010902,24.946965 c -13.867477,0 -25.053033,11.185559 -25.053033,25.053035 0,13.867477 11.185556,25.053036 25.053033,25.053036 13.867477,0 25.053035,-11.185559 25.053035,-25.053036 0,-13.867476 -11.185558,-25.053035 -25.053035,-25.053035 z m 0,41.340779 c -8.96153,0 -16.287743,-7.304409 -16.287743,-16.287744 0,-8.983332 7.30441,-16.287743 16.287743,-16.287743 8.983334,0 16.287743,7.304411 16.287743,16.287743 0,8.983335 -7.326213,16.287744 -16.287743,16.287744 z m 31.92136,-42.365575 c 0,3.248826 -2.616504,5.843526 -5.843527,5.843526 -3.248828,0 -5.843527,-2.616504 -5.843527,-5.843526 0,-3.227024 2.616504,-5.843528 5.843527,-5.843528 3.227023,0 5.843527,2.616504 5.843527,5.843528 z m 16.593002,5.930743 C 98.154594,22.025202 96.366649,15.091464 90.632142,9.3787625 84.919438,3.6660591 77.985701,1.8781141 70.15799,1.4856377 62.090433,1.0277494 37.909567,1.0277494 29.842009,1.4856377 22.036102,1.8563089 15.102366,3.644254 9.3678609,9.3569569 3.6333521,15.069661 1.8672114,22.003398 1.4747359,29.83111 c -0.4578887,8.067557 -0.4578887,32.248422 0,40.31598 0.3706713,7.827709 2.1586162,14.761446 7.893125,20.474148 5.7345051,5.712704 12.6464391,7.500649 20.4741481,7.893124 8.067558,0.457889 32.248424,0.457889 40.315981,0 7.827711,-0.370671 14.761448,-2.158616 20.474152,-7.893124 5.712701,-5.712702 7.500646,-12.646439 7.893122,-20.474148 0.457889,-8.067558 0.457889,-32.22662 0,-40.294178 z M 88.102853,78.80336 c -1.700728,4.273623 -4.993163,7.566059 -9.288592,9.288593 -6.432242,2.551092 -21.695186,1.962378 -28.803359,1.962378 -7.10817,0 -22.39292,0.566907 -28.803359,-1.962378 C 16.933919,86.391224 13.641484,83.098788 11.918952,78.80336 9.3678609,72.371118 9.9565739,57.108172 9.9565739,50 c 0,-7.108172 -0.5669108,-22.392921 1.9623781,-28.803357 1.700728,-4.273626 4.993163,-7.56606 9.288591,-9.288593 6.432242,-2.5510931 21.695189,-1.9623794 28.803359,-1.9623794 7.108173,0 22.392921,-0.5669081 28.803359,1.9623794 4.273625,1.700727 7.56606,4.993164 9.288592,9.288593 C 90.653945,27.628884 90.06523,42.891828 90.06523,50 c 0,7.108172 0.588715,22.392921 -1.962377,28.80336 z"
     id="path130"
     style="stroke-width:0.218041;fill:#ffffff" />
</svg>
