<svg id="montagne" xmlns="http://www.w3.org/2000/svg" xmlns:xlink="http://www.w3.org/1999/xlink" width="1920" height="853.924" viewBox="0 0 1920 853.924">
  <defs>
    <clipPath id="clip-path">
      <rect id="Rectangle_375" data-name="Rectangle 375" width="1920" height="852.924" fill="none"/>
    </clipPath>
    <clipPath id="clip-path-2">
      <path id="Tracé_2295" data-name="Tracé 2295" d="M570.09,0c-2.96.057-5.615,2.148-9.477,6.591q-3.094,3.56-6.081,7.2c-2.63,3.2-5.193,6.458-7.728,9.736l10.13-1.4,31.01,4.512-33.83,37.777L584,62.164l-53.57,43.981-14,46.077,91.56-40.44-32.019,19.962-27.493,18.944-23.682,24.246-68.287,3.076,12.515,25.269L484.2,237.521l9.021,30.448-65.406-9.021L388.906,222.3V171.75q-20.723,12.147-41.7,23.857c-3.529,1.958-7.132,4.07-11.031,1.436-23.995-16.205-41.831-9.062-62.14,10.08-36.391,34.3,41.591,83.391-.667,110.305,0,25.7-4.07,50.684-10.7,75.224a169.456,169.456,0,0,0,26.859,8.753c33.37,7.649,69.324,2.072,102.506-3.838,27.054-4.82,53.947-10.243,81.167-14.1,23.926-3.389,47.93-6.19,71.932-8.974s50.983,6.5,78.025,15.781c29.247,10.037,58.551,20.074,84.162,14.853,47.845-9.755,82.558-75.756,125.67-99.112,32.845-17.8,62.033-41.264,85.439-69.986-53.883-38.579-108.71-75.837-161.855-115.448-6.828-5.089-14.278-9.332-21.4-14.031-6.738-4.448-14.459-3.638-21.28-2-6.2,1.483-9.75-.636-13.853-4.047C661.859,68.8,624.009,36.69,583.851,7.452c-1.051-.767-2.089-1.555-3.142-2.316C576.154,1.846,573.1.052,570.339,0Z" transform="translate(-262.664)" fill="none"/>
    </clipPath>
    <linearGradient id="linear-gradient" x1="-0.821" y1="1.902" x2="-0.818" y2="1.902" gradientUnits="objectBoundingBox">
      <stop offset="0" stop-color="#00374b"/>
      <stop offset="1" stop-color="#1d1d1b"/>
    </linearGradient>
  </defs>
  <g id="Groupe_2087" data-name="Groupe 2087">
    <g id="Groupe_2086" data-name="Groupe 2086" clip-path="url(#clip-path)">
      <path id="Tracé_2294" data-name="Tracé 2294" d="M273.366,317.426c0,25.7-4.073,50.686-10.7,75.224a169.219,169.219,0,0,0,26.859,8.755c33.37,7.649,69.322,2.072,102.506-3.84,27.054-4.818,53.947-10.241,81.165-14.1,23.926-3.389,47.93-6.192,71.935-8.974,49.934-5.791,112.892,40.682,162.187,30.633,47.843-9.755,82.558-75.756,125.668-99.112,32.848-17.8,62.035-41.264,85.442-69.986-53.885-38.579-108.71-75.839-161.857-115.448-6.826-5.089-14.278-9.332-21.4-14.031-6.738-4.45-14.459-3.638-21.28-2.006-6.2,1.486-9.752-.636-13.856-4.044C661.862,68.8,624.006,36.691,583.853,7.454c-1.054-.767-2.091-1.555-3.147-2.316C571.1-1.8,568.158-2.09,560.611,6.592q-3.094,3.557-6.078,7.2c-2.632,3.2-5.193,6.458-7.73,9.733l10.13-1.393,31.013,4.509L554.113,64.419,584,62.165l-53.567,43.979-14.005,46.079,91.56-40.44-32.019,19.96-27.491,18.947-23.682,24.244-68.287,3.076,12.515,25.269L484.2,237.522l9.024,30.448-65.408-9.021L388.9,222.3V171.751q-20.72,12.143-41.7,23.855c-3.529,1.96-7.132,4.073-11.034,1.438-23.995-16.205-41.828-9.062-62.137,10.08-36.393,34.3,41.589,83.389-.667,110.3" transform="translate(360.737 -0.001)" fill="#00374b"/>
    </g>
  </g>
  <g id="Groupe_2089" data-name="Groupe 2089" transform="translate(623.401)">
    <g id="Groupe_2088" data-name="Groupe 2088" clip-path="url(#clip-path-2)">
      <rect id="Rectangle_376" data-name="Rectangle 376" width="710.591" height="461.97" transform="translate(-56.788 2.474) rotate(-4.453)" fill="url(#linear-gradient)"/>
    </g>
  </g>
  <g id="Groupe_2091" data-name="Groupe 2091" transform="translate(0 1)">
    <g id="Groupe_2090" data-name="Groupe 2090" clip-path="url(#clip-path)">
      <path id="Tracé_2296" data-name="Tracé 2296" d="M548.794,111.525l-59.512,38.907-32.719,33.5,56.42-4.661-58.658,38.261,55.478-2.665-75.777,52.848-65.406-9.021-38.907-36.652-23.947-37.73c22.426-13.141,68.572-39.481,90.452-53.524,11.117-7.134,23.691-12.337,31.219-24.643,7.609-12.441,16.445-24.178,25.3-35.8,11.829-15.534,32.943-46.369,48.685-64.005l2.689-3.047A16.345,16.345,0,0,1,506.947.935l1.735-.748,20.072,26.195L494.921,64.161l29.886-2.255-51.265,68.821Z" transform="translate(419.931 0.257)" fill="#73c3d0"/>
      <path id="Tracé_2297" data-name="Tracé 2297" d="M641.9,268.112l77.258-118.095-93.813,59.6L708.12,113.6,686.045,99.246l11.509-17.262a23.629,23.629,0,0,0-11.722,5.074q-64.309,48.5-126.917,99.153c-29.439,23.76-62.206,42.994-91.643,66.811-10.569,8.551-23.01,10.547-36.241,7.22-2.091-.527-4.194-.883-5.8.408-2.442,5.585,6.138,4.41,3.771,9.6-4.585,10.049,2.181,15.538,9.387,20.024,41.888,26.067,84.63,50.52,130.711,68.664,16.6,6.536,33.415,12.363,50.349,17.758L787.585,185.335Z" transform="translate(583.397 112.595)" fill="#73c3d0"/>
      <path id="Tracé_2298" data-name="Tracé 2298" d="M1219.365,411.473c-47.845-31.974-368.09-221-417.8-250.126-6.662-3.9-13.644-7.168-21.609-5.9-8.988,1.424-17.976,3.026-26.8,5.2a27.316,27.316,0,0,1-18.391-1.687c-17.33-7.578-33.548-17.247-50.062-26.326-29.057-15.975-56.745-34.426-87.065-48.13a24.12,24.12,0,0,0-12.726-2.452L573.4,99.314l22.075,14.347L512.7,209.683l93.815-59.6-77.258,118.1L674.943,185.4,506.808,376.76c39.066,12.446,78.87,22.331,118.885,31.461A1181.192,1181.192,0,0,0,758.671,430.69c23.371,2.585,46.758,4.732,70.212,5.988,40.241,2.157,353.809,53.071,394.289,48.524a23.983,23.983,0,0,0,.653-3.8c.038-55.929,0-6.026.135-61.955.01-3.88-1.479-5.891-4.595-7.975" transform="translate(696.04 112.527)" fill="#00374b"/>
      <path id="Tracé_2299" data-name="Tracé 2299" d="M1679.584,483.8c-35.7-5.513-343.772-60.991-378.941-63.721-21.273-1.649-42.512-3.7-63.751-5.746a34.236,34.236,0,0,1-13.673-4.787c-40.257-22.882-80.18-46.409-121.109-68.028-30.467-16.094-61.373-31.243-89.469-51.374-11.625-8.331-23.428-10.032-37.658-5.865-42.27,12.377-85.869,19.239-128.73,29.233-16.336,3.807-27.942-6.28-39.621-14.717-57.839-41.774-117.017-81.675-174.235-124.32-6.826-5.086-14.278-9.33-21.4-14.029-6.74-4.45-14.459-3.638-21.282-2.005-6.2,1.483-9.75-.638-13.853-4.044-38.178-31.7-76.031-63.813-116.186-93.051L429.8,104.411h35.318L288.525,274.378l149-91.605L277.489,367.089l90.5-32.943L287.421,446.555l270.4-120.3L247.689,574.582,186.583,721.14,175,768.67H1679.584Z" transform="translate(240.34 84.254)" fill="#00374b"/>
      <path id="Tracé_2300" data-name="Tracé 2300" d="M798.165,330.565l-270.4,120.3L608.33,338.459l-90.5,32.943L677.863,187.085l-149,91.608,176.589-169.97H670.138l29.881-43.06c-1.054-.767-2.089-1.555-3.145-2.319-9.605-6.935-12.548-7.225-20.1,1.457-17.615,20.257-32.444,42.678-48.687,64.005-8.853,11.625-17.687,23.364-25.3,35.8-7.528,12.306-20.1,17.508-31.222,24.643q-53.034,34.038-108.2,64.563c-3.529,1.96-7.134,4.073-11.034,1.438-23.995-16.205-41.831-9.064-62.14,10.08C353.807,299.633,42.256,512.656,0,539.57V772.982H415.339l11.585-47.529L488.029,578.9Z" transform="translate(0 79.942)" fill="#73c3d0"/>
    </g>
  </g>
</svg>
