<?xml version="1.0" encoding="UTF-8" standalone="no"?>
<!-- Generator: Adobe Illustrator 25.3.0, SVG Export Plug-In . SVG Version: 6.00 Build 0)  -->

<svg
   version="1.1"
   id="Calque_1"
   x="0px"
   y="0px"
   viewBox="0 0 2309.12 841.89"
   style="enable-background:new 0 0 2309.12 841.89;"
   xml:space="preserve"
   sodipodi:docname="test2.svg"
   inkscape:version="1.1 (c4e8f9e, 2021-05-24)"
   xmlns:inkscape="http://www.inkscape.org/namespaces/inkscape"
   xmlns:sodipodi="http://sodipodi.sourceforge.net/DTD/sodipodi-0.dtd"
   xmlns="http://www.w3.org/2000/svg"
   xmlns:svg="http://www.w3.org/2000/svg"><defs
   id="defs444" /><sodipodi:namedview
   id="namedview442"
   pagecolor="#505050"
   bordercolor="#eeeeee"
   borderopacity="1"
   inkscape:pageshadow="0"
   inkscape:pageopacity="0"
   inkscape:pagecheckerboard="0"
   showgrid="false"
   inkscape:zoom="0.49412761"
   inkscape:cx="1018.9676"
   inkscape:cy="639.51092"
   inkscape:window-width="1680"
   inkscape:window-height="1050"
   inkscape:window-x="0"
   inkscape:window-y="0"
   inkscape:window-maximized="0"
   inkscape:current-layer="Calque_1" />
<style
   type="text/css"
   id="style438">
	.st0{fill:#01232D;}
	.st1{fill:#01374B;}
</style>
<path
   id="Tracé_1775"
   class="st0"
   d="m -16.953553,304.67038 c 0,0 74.565795,33.11854 87.44523,33.11854 12.879435,0 73.596773,-18.39919 125.114513,-33.11854 51.51773,-14.71936 121.43467,-23.91895 121.43467,-23.91895 0,0 62.55726,-58.87742 84.63629,-58.87742 22.07903,0 84.63628,45.99799 93.83588,51.51774 9.1996,5.51976 34.95846,9.1996 34.95846,9.1996 l 27.5988,-5.51977 c 0,0 69.91693,12.87944 104.8754,11.03953 34.95846,-1.83993 60.71734,-5.51976 66.23709,-5.51976 5.51976,0 44.15806,1.83992 44.15806,1.83992 l 152.7133,-71.75686 h 45.99798 c 0,0 42.31818,-14.71935 47.83788,-14.71935 5.5198,0 75.4367,56.87804 75.4367,56.87804 h 65.3171 l 30.3464,7.50686 29.4388,27.5988 49.6778,11.03952 91.996,20.23911 c 0,0 112.2228,5.51975 165.5804,-14.71935 53.3577,-20.23912 82.7964,-27.5988 82.7964,-27.5988 l 40.4782,-5.51975 31.2787,-13.45594 38.6383,9.7761 64.3971,16.55927 c 0,0 130.622,57.03749 139.8216,49.67782 9.1997,-7.35968 117.7548,-25.75887 117.7548,-25.75887 l 77.2767,-25.75887 53.3577,-17.14805 95.6758,22.66781 69.0582,14.71935 v 537.2319 H -16.879957 Z"
   style="stroke-width:1.22661" />
</svg>
