<?xml version="1.0" encoding="UTF-8" standalone="no"?>
<!-- Generator: Adobe Illustrator 25.3.0, SVG Export Plug-In . SVG Version: 6.00 Build 0)  -->

<svg
   version="1.1"
   id="Calque_1"
   x="0px"
   y="0px"
   viewBox="0 0 2309.12 841.89"
   style="enable-background:new 0 0 2309.12 841.89;"
   xml:space="preserve"
   sodipodi:docname="test.svg"
   inkscape:version="1.1 (c4e8f9e, 2021-05-24)"
   xmlns:inkscape="http://www.inkscape.org/namespaces/inkscape"
   xmlns:sodipodi="http://sodipodi.sourceforge.net/DTD/sodipodi-0.dtd"
   xmlns="http://www.w3.org/2000/svg"
   xmlns:svg="http://www.w3.org/2000/svg"><defs
   id="defs81" /><sodipodi:namedview
   id="namedview79"
   pagecolor="#505050"
   bordercolor="#eeeeee"
   borderopacity="1"
   inkscape:pageshadow="0"
   inkscape:pageopacity="0"
   inkscape:pagecheckerboard="0"
   showgrid="false"
   inkscape:zoom="0.32479906"
   inkscape:cx="1774.9436"
   inkscape:cy="421.79925"
   inkscape:window-width="1680"
   inkscape:window-height="1050"
   inkscape:window-x="0"
   inkscape:window-y="0"
   inkscape:window-maximized="0"
   inkscape:current-layer="Calque_1" />
<style
   type="text/css"
   id="style74">
	.st0{fill:#01232D;}
	.st1{fill:#01374B;}
</style>
<path
   class="st1"
   d="m 2341.6516,366.92027 v -104.8267 c 0,0 -58.0602,90.49472 -85.8917,93.38856 -7.8922,0.82324 -17.5423,5.36357 -27.3152,11.43814 H 1812.902 c -29.2208,-23.475 -46.517,-46.12674 -93.9437,-46.12674 -65.6205,0 -69.5788,-14.45671 -121.2834,-2.89384 -51.7047,11.56287 -121.2836,14.4567 -121.2836,14.4567 0,0 -85.486,17.35055 -141.1613,-17.35053 -55.663,-34.68861 -77.8643,-75.47672 -145.4639,-78.37055 -67.5996,-2.89385 -90.7597,-40.47628 -151.4015,0 -22.9265,15.30489 -54.95,34.57634 -85.91624,52.63786 -11.48173,-3.28051 -22.60697,-7.74599 -33.19131,-13.32161 -32.51516,-17.7996 -52.5283,-7.12233 -112.54306,-7.12233 -60.01479,0 -52.51602,-28.48932 -75.02463,-28.48932 -22.50861,0 -117.54636,-24.92191 -117.54636,-24.92191 0,0 -82.53569,-35.61164 -142.56276,-35.61164 -60.02708,0 -210.08862,110.38984 -210.08862,110.38984 0,0 -115.02626,51.17849 -166.804694,76.72407 H -18.630613 v 51.47784 153.11133 298.09001 H 2341.6393 V 366.92027 Z"
   id="path76"
   style="stroke-width:1.2383" />
</svg>
