<svg id="persos" xmlns="http://www.w3.org/2000/svg" xmlns:xlink="http://www.w3.org/1999/xlink" width="467.12" height="275.595" viewBox="0 0 467.12 275.595">
  <defs>
    <clipPath id="clip-path">
      <rect id="Rectangle_191" data-name="Rectangle 191" width="467.12" height="275.594" fill="none"/>
    </clipPath>
    <clipPath id="clip-path-2">
      <rect id="Rectangle_190" data-name="Rectangle 190" width="467.119" height="275.595" fill="none"/>
    </clipPath>
    <clipPath id="clip-path-3">
      <rect id="Rectangle_185" data-name="Rectangle 185" width="10.465" height="10.465" fill="none"/>
    </clipPath>
    <clipPath id="clip-path-4">
      <rect id="Rectangle_188" data-name="Rectangle 188" width="41.997" height="5.085" fill="none"/>
    </clipPath>
  </defs>
  <g id="Groupe_1767" data-name="Groupe 1767" clip-path="url(#clip-path)">
    <rect id="Rectangle_142" data-name="Rectangle 142" width="393.677" height="96.43" transform="translate(27.864 0.465)" fill="#00374b"/>
    <path id="Tracé_1898" data-name="Tracé 1898" d="M446.609,0,422,0,372.794.02,175.956.269h-.193V.462l.147,96.43H176L176.149.655,372.794.9,422,.926l24.6,0,24.6-.066L520.423.727l49.21-.219V.415L520.423.2,471.214.062Z" transform="translate(-148.091 0.003)" fill="#73c3d0"/>
    <rect id="Rectangle_143" data-name="Rectangle 143" width="383.43" height="86.183" transform="translate(32.988 5.588)" fill="#73c3d0"/>
    <path id="Tracé_1899" data-name="Tracé 1899" d="M590.943,33.059l-191.715.275-95.858.131-47.929.012-47.929-.088.376-.376L207.767,76.1,207.56,119.2h-.093L207.259,76.1l-.123-43.091v-.376h.378l47.929-.088,47.929.012,95.858.131,191.715.275Z" transform="translate(-174.525 -27.424)" fill="#77bad8"/>
    <g id="Groupe_1766" data-name="Groupe 1766" transform="translate(0 -0.001)">
      <g id="Groupe_1765" data-name="Groupe 1765" clip-path="url(#clip-path-2)">
        <path id="Tracé_1900" data-name="Tracé 1900" d="M1125.825,139.109h-128.6a4.043,4.043,0,0,1-4.043-4.043V64.978a4.043,4.043,0,0,1,4.043-4.043h128.6a4.043,4.043,0,0,1,4.043,4.043v70.087a4.043,4.043,0,0,1-4.043,4.043" transform="translate(-836.821 -51.341)" fill="#00374b"/>
        <rect id="Rectangle_144" data-name="Rectangle 144" width="126.688" height="69.205" transform="translate(161.359 14.078)" fill="#83f3ff"/>
        <rect id="Rectangle_145" data-name="Rectangle 145" width="2.099" height="65.324" transform="translate(303.79 16.019)" fill="#00374b"/>
        <rect id="Rectangle_146" data-name="Rectangle 146" width="8.384" height="4.347" transform="translate(300.647 38.725)" fill="#c6c6c6"/>
        <rect id="Rectangle_147" data-name="Rectangle 147" width="6.521" height="2.484" transform="translate(301.579 39.656)" fill="#dd5239"/>
        <rect id="Rectangle_148" data-name="Rectangle 148" width="2.099" height="65.324" transform="translate(315.745 16.019)" fill="#00374b"/>
        <rect id="Rectangle_149" data-name="Rectangle 149" width="8.384" height="4.347" transform="translate(312.602 48.972)" fill="#c6c6c6"/>
        <rect id="Rectangle_150" data-name="Rectangle 150" width="6.521" height="2.484" transform="translate(313.534 49.903)" fill="#dd5239"/>
        <rect id="Rectangle_151" data-name="Rectangle 151" width="2.099" height="65.324" transform="translate(327.699 16.019)" fill="#00374b"/>
        <rect id="Rectangle_152" data-name="Rectangle 152" width="8.384" height="4.347" transform="translate(324.557 36.629)" fill="#c6c6c6"/>
        <rect id="Rectangle_153" data-name="Rectangle 153" width="6.521" height="2.484" transform="translate(325.488 37.561)" fill="#dd5239"/>
        <rect id="Rectangle_154" data-name="Rectangle 154" width="2.099" height="65.324" transform="translate(339.654 16.019)" fill="#00374b"/>
        <rect id="Rectangle_155" data-name="Rectangle 155" width="8.384" height="4.347" transform="translate(336.511 24.519)" fill="#c6c6c6"/>
        <rect id="Rectangle_156" data-name="Rectangle 156" width="6.521" height="2.484" transform="translate(337.443 25.451)" fill="#dd5239"/>
        <rect id="Rectangle_157" data-name="Rectangle 157" width="15.137" height="0.932" transform="translate(351.503 16.785)" fill="#00374b"/>
        <rect id="Rectangle_158" data-name="Rectangle 158" width="15.137" height="0.932" transform="translate(351.503 19.502)" fill="#00374b"/>
        <rect id="Rectangle_159" data-name="Rectangle 159" width="15.137" height="0.932" transform="translate(351.503 22.219)" fill="#00374b"/>
        <rect id="Rectangle_160" data-name="Rectangle 160" width="15.137" height="0.932" transform="translate(351.503 24.935)" fill="#00374b"/>
        <rect id="Rectangle_161" data-name="Rectangle 161" width="15.137" height="0.932" transform="translate(351.503 27.652)" fill="#00374b"/>
        <rect id="Rectangle_162" data-name="Rectangle 162" width="15.137" height="0.932" transform="translate(351.503 30.369)" fill="#00374b"/>
        <rect id="Rectangle_163" data-name="Rectangle 163" width="15.137" height="0.932" transform="translate(351.503 33.086)" fill="#00374b"/>
        <rect id="Rectangle_164" data-name="Rectangle 164" width="15.137" height="0.932" transform="translate(351.503 35.803)" fill="#00374b"/>
        <rect id="Rectangle_165" data-name="Rectangle 165" width="15.137" height="0.932" transform="translate(369.823 16.785)" fill="#00374b"/>
        <rect id="Rectangle_166" data-name="Rectangle 166" width="15.137" height="0.932" transform="translate(369.823 19.502)" fill="#00374b"/>
        <rect id="Rectangle_167" data-name="Rectangle 167" width="15.137" height="0.932" transform="translate(369.823 22.219)" fill="#00374b"/>
        <rect id="Rectangle_168" data-name="Rectangle 168" width="15.137" height="0.932" transform="translate(369.823 24.935)" fill="#00374b"/>
        <rect id="Rectangle_169" data-name="Rectangle 169" width="15.137" height="0.932" transform="translate(369.823 27.652)" fill="#00374b"/>
        <rect id="Rectangle_170" data-name="Rectangle 170" width="15.137" height="0.932" transform="translate(369.823 30.369)" fill="#00374b"/>
        <rect id="Rectangle_171" data-name="Rectangle 171" width="15.137" height="0.932" transform="translate(369.823 33.086)" fill="#00374b"/>
        <rect id="Rectangle_172" data-name="Rectangle 172" width="15.137" height="0.932" transform="translate(369.823 35.803)" fill="#00374b"/>
        <rect id="Rectangle_173" data-name="Rectangle 173" width="33.361" height="4.917" transform="translate(351.551 40.724)" fill="#a9ce74"/>
        <rect id="Rectangle_174" data-name="Rectangle 174" width="33.361" height="4.917" transform="translate(351.551 52.625)" fill="#a9ce74"/>
        <rect id="Rectangle_175" data-name="Rectangle 175" width="33.361" height="4.917" transform="translate(351.551 64.525)" fill="#00374b"/>
        <rect id="Rectangle_176" data-name="Rectangle 176" width="33.361" height="4.917" transform="translate(351.551 76.426)" fill="#db863a"/>
        <rect id="Rectangle_177" data-name="Rectangle 177" width="24.356" height="4.917" transform="translate(123.015 40.724)" fill="#a9ce74"/>
        <rect id="Rectangle_178" data-name="Rectangle 178" width="24.356" height="4.917" transform="translate(123.015 52.625)" fill="#a9ce74"/>
        <rect id="Rectangle_179" data-name="Rectangle 179" width="24.356" height="4.917" transform="translate(123.015 64.525)" fill="#a9ce74"/>
        <rect id="Rectangle_180" data-name="Rectangle 180" width="24.356" height="4.917" transform="translate(123.015 76.426)" fill="#a9ce74"/>
        <rect id="Rectangle_181" data-name="Rectangle 181" width="24.356" height="4.917" transform="translate(90.412 40.724)" fill="#dd5239"/>
        <rect id="Rectangle_182" data-name="Rectangle 182" width="24.356" height="4.917" transform="translate(90.412 52.625)" fill="#dd5239"/>
        <rect id="Rectangle_183" data-name="Rectangle 183" width="24.356" height="4.917" transform="translate(90.412 64.525)" fill="#dd5239"/>
        <rect id="Rectangle_184" data-name="Rectangle 184" width="24.356" height="4.917" transform="translate(90.412 76.426)" fill="#dd5239"/>
        <path id="Tracé_1901" data-name="Tracé 1901" d="M2501.753,142.452a10.926,10.926,0,1,1-10.926-10.926,10.926,10.926,0,0,1,10.926,10.926" transform="translate(-2089.483 -110.819)" fill="#00374b"/>
        <path id="Tracé_1902" data-name="Tracé 1902" d="M2532.447,296.988a3.873,3.873,0,1,1-3.874-3.873,3.873,3.873,0,0,1,3.874,3.873" transform="translate(-2127.229 -246.968)" fill="#fc0"/>
        <path id="Tracé_1903" data-name="Tracé 1903" d="M2532.447,380.565a3.873,3.873,0,1,1-3.874-3.873,3.873,3.873,0,0,1,3.874,3.873" transform="translate(-2127.229 -317.388)" fill="#fc0"/>
        <path id="Tracé_1904" data-name="Tracé 1904" d="M2532.447,464.143a3.873,3.873,0,1,1-3.874-3.873,3.873,3.873,0,0,1,3.874,3.873" transform="translate(-2127.229 -387.808)" fill="#fc0"/>
        <g id="Groupe_1761" data-name="Groupe 1761" transform="translate(47.961 59.438)" opacity="0.3">
          <g id="Groupe_1760" data-name="Groupe 1760">
            <g id="Groupe_1759" data-name="Groupe 1759" clip-path="url(#clip-path-3)">
              <path id="Tracé_1905" data-name="Tracé 1905" d="M313.071,377.54a8.426,8.426,0,0,0-8.426,8.426,8.228,8.228,0,0,0,.273,2.04l10.192-10.192a8.212,8.212,0,0,0-2.04-.273" transform="translate(-304.645 -377.54)" fill="#fff"/>
            </g>
          </g>
        </g>
        <path id="Tracé_1906" data-name="Tracé 1906" d="M894.3,100.439a3.571,3.571,0,1,0-3.571-3.571,3.571,3.571,0,0,0,3.571,3.571" transform="translate(-750.495 -78.608)" fill="#83f3ff"/>
        <path id="Tracé_1907" data-name="Tracé 1907" d="M805.541,93.3a3.571,3.571,0,1,0,3.571,3.571,3.571,3.571,0,0,0-3.571-3.571" transform="translate(-675.713 -78.608)" fill="#83f3ff"/>
        <path id="Tracé_1908" data-name="Tracé 1908" d="M716.786,93.3a3.571,3.571,0,1,0,3.571,3.571,3.571,3.571,0,0,0-3.571-3.571" transform="translate(-600.931 -78.608)" fill="#83f3ff"/>
        <path id="Tracé_1909" data-name="Tracé 1909" d="M628.031,93.3a3.571,3.571,0,1,0,3.571,3.571,3.571,3.571,0,0,0-3.571-3.571" transform="translate(-526.149 -78.608)" fill="#83f3ff"/>
        <path id="Tracé_1910" data-name="Tracé 1910" d="M539.276,93.3a3.571,3.571,0,1,0,3.571,3.571,3.571,3.571,0,0,0-3.571-3.571" transform="translate(-451.367 -78.608)" fill="#83f3ff"/>
        <path id="Tracé_1911" data-name="Tracé 1911" d="M894.3,174.656a3.571,3.571,0,1,0,3.571,3.571,3.571,3.571,0,0,0-3.571-3.571" transform="translate(-750.495 -147.159)" fill="#83f3ff"/>
        <path id="Tracé_1912" data-name="Tracé 1912" d="M805.541,174.656a3.571,3.571,0,1,0,3.571,3.571,3.571,3.571,0,0,0-3.571-3.571" transform="translate(-675.713 -147.159)" fill="#83f3ff"/>
        <path id="Tracé_1913" data-name="Tracé 1913" d="M716.786,174.656a3.571,3.571,0,1,0,3.571,3.571,3.571,3.571,0,0,0-3.571-3.571" transform="translate(-600.931 -147.159)" fill="#83f3ff"/>
        <path id="Tracé_1914" data-name="Tracé 1914" d="M628.031,174.656a3.571,3.571,0,1,0,3.571,3.571,3.571,3.571,0,0,0-3.571-3.571" transform="translate(-526.149 -147.159)" fill="#83f3ff"/>
        <path id="Tracé_1915" data-name="Tracé 1915" d="M539.276,174.656a3.571,3.571,0,1,0,3.571,3.571,3.571,3.571,0,0,0-3.571-3.571" transform="translate(-451.367 -147.159)" fill="#83f3ff"/>
        <path id="Tracé_1916" data-name="Tracé 1916" d="M274.1,141.489H241.511a2.457,2.457,0,0,1-2.457-2.457V108.082a2.457,2.457,0,0,1,2.457-2.457H274.1a2.457,2.457,0,0,1,2.457,2.457v30.949a2.457,2.457,0,0,1-2.457,2.457" transform="translate(-201.419 -88.996)" fill="#00374b"/>
        <rect id="Rectangle_186" data-name="Rectangle 186" width="31.711" height="30.325" transform="translate(40.531 19.399)" fill="#83f3ff"/>
        <path id="Tracé_1917" data-name="Tracé 1917" d="M537.3,615.468H143.621l-6.235,11.955H543.533Z" transform="translate(-115.757 -518.572)" fill="#4ba1aa"/>
        <path id="Tracé_1918" data-name="Tracé 1918" d="M374.111,691.407H137.386l1.164,3.959H542.369l1.164-3.959Z" transform="translate(-115.757 -582.556)" fill="#227b7f"/>
        <path id="Tracé_1919" data-name="Tracé 1919" d="M1123.974,615.472h-109.61l-12.11,129.793h133.83Z" transform="translate(-844.466 -518.576)" fill="#73c3d0"/>
        <path id="Tracé_1920" data-name="Tracé 1920" d="M1680.814,808.228l-6.621-93.153h-3.736l6.621,93.153Z" transform="translate(-1407.472 -602.498)" fill="#00374b"/>
        <path id="Tracé_1921" data-name="Tracé 1921" d="M1614.8,808.228l-5.708-93.153h-3.733l5.708,93.153Z" transform="translate(-1352.625 -602.498)" fill="#00374b"/>
        <rect id="Rectangle_187" data-name="Rectangle 187" width="36.174" height="9.16" transform="translate(243.644 124.377)" fill="#aaa"/>
        <path id="Tracé_1922" data-name="Tracé 1922" d="M1529.5,794.792h.776a1.126,1.126,0,0,0,1.125-1.126V784.74a1.126,1.126,0,0,0-1.125-1.126h-.776a1.126,1.126,0,0,0-1.126,1.126v8.927a1.126,1.126,0,0,0,1.126,1.126" transform="translate(-1287.756 -660.247)" fill="#888"/>
        <path id="Tracé_1923" data-name="Tracé 1923" d="M1777.027,794.792h.776a1.126,1.126,0,0,0,1.126-1.126V784.74a1.126,1.126,0,0,0-1.126-1.126h-.776a1.126,1.126,0,0,0-1.126,1.126v8.927a1.126,1.126,0,0,0,1.126,1.126" transform="translate(-1496.316 -660.247)" fill="#888"/>
        <g id="Groupe_1764" data-name="Groupe 1764" transform="translate(240.616 129.461)" opacity="0.15">
          <g id="Groupe_1763" data-name="Groupe 1763">
            <g id="Groupe_1762" data-name="Groupe 1762" clip-path="url(#clip-path-4)">
              <path id="Tracé_1924" data-name="Tracé 1924" d="M1569.245,823.446h-.776a1.114,1.114,0,0,1-1.1-1.009H1531.4v-.116a1.125,1.125,0,0,1-1.125,1.125h-.776a1.125,1.125,0,0,1-1.126-1.125v3.959a1.125,1.125,0,0,0,1.126,1.125h.776a1.125,1.125,0,0,0,1.125-1.125v.116h35.965a1.115,1.115,0,0,0,1.1,1.009h.776a1.125,1.125,0,0,0,1.126-1.125v-3.959a1.125,1.125,0,0,1-1.126,1.125" transform="translate(-1528.373 -822.321)"/>
            </g>
          </g>
        </g>
        <path id="Tracé_1925" data-name="Tracé 1925" d="M1165.192,721.962c.147,12.021,10.739,21.638,23.657,21.48s23.271-10.032,23.124-22.053-10.739-21.638-23.657-21.48-23.271,10.032-23.124,22.053" transform="translate(-981.751 -589.718)" fill="#333"/>
        <path id="Tracé_1926" data-name="Tracé 1926" d="M1165.192,721.962c.147,12.021,10.739,21.638,23.657,21.48s23.271-10.032,23.124-22.053-10.739-21.638-23.657-21.48-23.271,10.032-23.124,22.053" transform="translate(-981.751 -589.718)" fill="#00374b"/>
        <path id="Tracé_1927" data-name="Tracé 1927" d="M1172.67,724.793c.13,10.663,10.173,19.185,22.43,19.035s22.088-8.916,21.957-19.579-10.173-19.185-22.431-19.035-22.087,8.916-21.957,19.578" transform="translate(-988.052 -594.188)" fill="#0e5366"/>
        <path id="Tracé_1928" data-name="Tracé 1928" d="M1193,739.659c.112,9.125,8.706,16.418,19.2,16.289s18.9-7.63,18.79-16.755-8.706-16.418-19.2-16.289-18.9,7.63-18.79,16.755" transform="translate(-1005.184 -609.093)" fill="#83f3ff"/>
        <path id="Tracé_1929" data-name="Tracé 1929" d="M1139.4,1027.336c.028,2.253,2.15,4.054,4.74,4.022s4.667-1.884,4.64-4.137-2.15-4.054-4.74-4.023-4.667,1.884-4.64,4.137" transform="translate(-960.021 -862.113)" fill="#dd5239"/>
        <path id="Tracé_1930" data-name="Tracé 1930" d="M1147.521,1026.2a3.431,3.431,0,1,0,3.362-3,3.2,3.2,0,0,0-3.362,3" transform="translate(-966.863 -862.113)" fill="#a9ce74"/>
        <path id="Tracé_1931" data-name="Tracé 1931" d="M1265.136,1027.336c.028,2.253,2.15,4.054,4.74,4.022s4.668-1.884,4.64-4.137-2.15-4.054-4.74-4.023-4.667,1.884-4.64,4.137" transform="translate(-1065.962 -862.113)" fill="#a00"/>
        <path id="Tracé_1932" data-name="Tracé 1932" d="M1273.257,1026.2a3.431,3.431,0,1,0,3.362-3,3.2,3.2,0,0,0-3.362,3" transform="translate(-1072.804 -862.113)" fill="#fc0"/>
        <path id="Tracé_1933" data-name="Tracé 1933" d="M1390.873,1027.336c.028,2.253,2.15,4.054,4.74,4.022s4.668-1.884,4.64-4.137-2.15-4.054-4.74-4.023-4.668,1.884-4.64,4.137" transform="translate(-1171.903 -862.113)" fill="#dd5239"/>
        <path id="Tracé_1934" data-name="Tracé 1934" d="M1398.993,1026.2a3.431,3.431,0,1,0,3.362-3,3.2,3.2,0,0,0-3.362,3" transform="translate(-1178.745 -862.113)" fill="#e8e46b"/>
        <path id="Tracé_1935" data-name="Tracé 1935" d="M1516.609,1027.336c.028,2.253,2.15,4.054,4.74,4.022s4.667-1.884,4.64-4.137-2.15-4.054-4.74-4.023-4.667,1.884-4.64,4.137" transform="translate(-1277.844 -862.113)" fill="#dd5239"/>
        <path id="Tracé_1936" data-name="Tracé 1936" d="M1524.729,1026.2a3.431,3.431,0,1,0,3.362-3,3.2,3.2,0,0,0-3.362,3" transform="translate(-1284.686 -862.113)" fill="#db863a"/>
        <path id="Tracé_1937" data-name="Tracé 1937" d="M1128.042,1143.207c.028,2.312,2.206,4.16,4.863,4.127s4.789-1.933,4.761-4.245-2.206-4.16-4.863-4.127-4.789,1.933-4.761,4.245" transform="translate(-950.451 -959.651)" fill="#a00"/>
        <path id="Tracé_1938" data-name="Tracé 1938" d="M1136.374,1142.038a3.52,3.52,0,1,0,3.449-3.075,3.283,3.283,0,0,0-3.449,3.075" transform="translate(-957.471 -959.651)" fill="#6af1a4"/>
        <path id="Tracé_1939" data-name="Tracé 1939" d="M1257.048,1143.207c.028,2.312,2.206,4.16,4.863,4.127s4.789-1.933,4.761-4.245-2.206-4.16-4.863-4.127-4.789,1.933-4.761,4.245" transform="translate(-1059.147 -959.651)" fill="#dd5239"/>
        <path id="Tracé_1940" data-name="Tracé 1940" d="M1265.379,1142.038a3.521,3.521,0,1,0,3.449-3.075,3.284,3.284,0,0,0-3.449,3.075" transform="translate(-1066.166 -959.651)" fill="#a9ce74"/>
        <path id="Tracé_1941" data-name="Tracé 1941" d="M1386.054,1143.207c.028,2.312,2.206,4.16,4.863,4.127s4.789-1.933,4.761-4.245-2.206-4.16-4.863-4.127-4.789,1.933-4.761,4.245" transform="translate(-1167.844 -959.651)" fill="#dd5239"/>
        <path id="Tracé_1942" data-name="Tracé 1942" d="M1394.386,1142.038a3.52,3.52,0,1,0,3.449-3.075,3.283,3.283,0,0,0-3.449,3.075" transform="translate(-1174.863 -959.651)" fill="#e8e46b"/>
        <path id="Tracé_1943" data-name="Tracé 1943" d="M1515.06,1143.207c.028,2.312,2.206,4.16,4.863,4.127s4.789-1.933,4.761-4.245-2.205-4.16-4.863-4.127-4.789,1.933-4.76,4.245" transform="translate(-1276.54 -959.651)" fill="#dd5239"/>
        <path id="Tracé_1944" data-name="Tracé 1944" d="M1523.392,1142.038a3.52,3.52,0,1,0,3.449-3.075,3.283,3.283,0,0,0-3.449,3.075" transform="translate(-1283.559 -959.651)" fill="#a9ce74"/>
        <rect id="Rectangle_189" data-name="Rectangle 189" width="133.83" height="48.905" transform="translate(157.788 226.69)" fill="#3c97a0"/>
        <path id="Tracé_1945" data-name="Tracé 1945" d="M899.281,104.493a2.639,2.639,0,1,0-2.639-2.639,2.643,2.643,0,0,0,2.639,2.639" transform="translate(-755.481 -83.594)" fill="#e8e46b"/>
        <path id="Tracé_1946" data-name="Tracé 1946" d="M810.526,99.214a2.639,2.639,0,1,0,2.639,2.639,2.643,2.643,0,0,0-2.639-2.639" transform="translate(-680.699 -83.594)" fill="#dd5239"/>
        <path id="Tracé_1947" data-name="Tracé 1947" d="M721.771,99.214a2.639,2.639,0,1,0,2.639,2.639,2.643,2.643,0,0,0-2.639-2.639" transform="translate(-605.917 -83.594)" fill="#e8e46b"/>
        <path id="Tracé_1948" data-name="Tracé 1948" d="M633.016,99.214a2.639,2.639,0,1,0,2.639,2.639,2.643,2.643,0,0,0-2.639-2.639" transform="translate(-531.135 -83.594)" fill="#e8e46b"/>
        <path id="Tracé_1949" data-name="Tracé 1949" d="M544.261,99.214a2.639,2.639,0,1,0,2.639,2.639,2.643,2.643,0,0,0-2.639-2.639" transform="translate(-456.353 -83.594)" fill="#dd5239"/>
        <path id="Tracé_1950" data-name="Tracé 1950" d="M899.281,180.573a2.639,2.639,0,1,0,2.639,2.639,2.643,2.643,0,0,0-2.639-2.639" transform="translate(-755.481 -152.144)" fill="#dd5239"/>
        <path id="Tracé_1951" data-name="Tracé 1951" d="M810.526,180.573a2.639,2.639,0,1,0,2.639,2.639,2.643,2.643,0,0,0-2.639-2.639" transform="translate(-680.699 -152.144)" fill="#db863a"/>
        <path id="Tracé_1952" data-name="Tracé 1952" d="M721.771,180.573a2.639,2.639,0,1,0,2.639,2.639,2.643,2.643,0,0,0-2.639-2.639" transform="translate(-605.917 -152.144)" fill="#db863a"/>
        <path id="Tracé_1953" data-name="Tracé 1953" d="M633.016,180.573a2.639,2.639,0,1,0,2.639,2.639,2.643,2.643,0,0,0-2.639-2.639" transform="translate(-531.135 -152.144)" fill="#dd5239"/>
        <path id="Tracé_1954" data-name="Tracé 1954" d="M544.261,180.573a2.639,2.639,0,1,0,2.639,2.639,2.643,2.643,0,0,0-2.639-2.639" transform="translate(-456.353 -152.144)" fill="#dd5239"/>
        <path id="Tracé_1955" data-name="Tracé 1955" d="M1634.076,783.854s1.965-5.115.762-7.672-4.408-7.973-8.221-7.973-7.2-.53-7.54,1.014,1.293,7.561,1.381,9.968.07,6.92,4.968,7.672,8.65-3.009,8.65-3.009" transform="translate(-1364.142 -647.193)" fill="#fdcc86"/>
        <path id="Tracé_1956" data-name="Tracé 1956" d="M2445,510.879,2431.8,519.53l-19.07-3.554c.264-1.539,1.523-7.92,2.669-13.7.069-.341.138-.682.2-1.015.982-4.917,1.83-9.142,1.83-9.142l17.811-7.859,6.641-2.93c-.017.1-.515,5.457-.584,6.239-1.246,13.879,3.695,23.308,3.695,23.308" transform="translate(-2032.887 -405.554)" fill="#fdcc86"/>
        <path id="Tracé_1957" data-name="Tracé 1957" d="M2380.763,290.259s28.69,8.95,33.989-9,12.57-28.888-5.524-35.362-23.691-.678-26.917,4.884-8.874,36.69-1.548,39.48" transform="translate(-2002.931 -204.776)" fill="#fdcc86"/>
        <path id="Tracé_1958" data-name="Tracé 1958" d="M2402.508,196.588s1.83,20.891,6.15,19.984,8.238-1.579,7.606,4.718-6.624,13.569,6.691,14.683,32.455-33.224,28.8-39.725c-10.554-18.759-64.5-22.545-49.246.34" transform="translate(-2022.001 -152.314)" fill="#1d1d1b"/>
        <path id="Tracé_1959" data-name="Tracé 1959" d="M2404.718,588.587c.37-.156,23.369-4.319,25.824-3.509s5.514,8.307,5.514,8.307l-36.245,3.216s.186-6.026,4.907-8.014" transform="translate(-2022.002 -492.879)" fill="#c6c6c6"/>
        <path id="Tracé_1960" data-name="Tracé 1960" d="M1841.635,674.857c0-1.822-12.734-28.268-18.149-31.277s-18.911-4.958-28.072-6.255-57.9,3.945-65.573,8.093-34.646,60.246-41.686,61.284c-6.918,1.02-36.454-34.448-36.454-34.448a25.634,25.634,0,0,0-6.311,1.054c-4.492,1.7-5.924,4.315-5.924,4.315s23.873,64.516,44.633,70.432,74.566-20.77,74.566-20.77Z" transform="translate(-1381.36 -536.819)" fill="#fff"/>
        <path id="Tracé_1961" data-name="Tracé 1961" d="M2189.965,772.794v65.994l0,.006L2179,891.546H2049.346l6.88-33.1,1.06-5.1,5.3-25.52,8.058-38.769a16.3,16.3,0,0,1,.974-3.086c3.673-8.63,14.662-15.173,26.252-15.134l9.06.031a.007.007,0,0,1,.008,0l72.349.247,1.3,0a26.111,26.111,0,0,1,9.372,1.675Z" transform="translate(-1726.711 -649.479)" fill="#0e5366"/>
        <path id="Tracé_1962" data-name="Tracé 1962" d="M2272.864,775.892c-1.021-3.573-3.024-3.76-3.024-3.76h0a22.431,22.431,0,0,0-6.71-1.014l-3.969-.016h0l-71.018-.268c-.442,0-.883.008-1.324.031a.008.008,0,0,0-.008,0c-10.006.486-19.279,6.837-22.467,15.1a17.662,17.662,0,0,0-.884,3.086l-7.3,38.769-4.871,25.854-.915,4.849-6.222,33.02h117.54l8.155-43.277c5.083-26.973,4.045-68.8,3.024-72.378" transform="translate(-1806.586 -649.479)" fill="#00374b"/>
        <path id="Tracé_1963" data-name="Tracé 1963" d="M1274.456,923.671s-1.965-5.115-.761-7.672,4.407-7.973,8.221-7.973,7.205-.53,7.54,1.014-1.292,7.561-1.381,9.968-.07,6.92-4.968,7.672-8.65-3.009-8.65-3.009" transform="translate(-1072.844 -764.998)" fill="#fdcc86"/>
        <path id="Tracé_1964" data-name="Tracé 1964" d="M337.483,491.084l13.2,8.651,19.07-3.554c-.264-1.539-1.523-7.92-2.669-13.7-.069-.341-.139-.682-.2-1.015-.982-4.917-1.83-9.142-1.83-9.142l-17.811-7.859-6.641-2.93c.017.1.515,5.457.584,6.239,1.246,13.879-3.694,23.308-3.694,23.308" transform="translate(-284.352 -388.875)" fill="#fdcc86"/>
        <path id="Tracé_1965" data-name="Tracé 1965" d="M341.067,270.464s-28.69,8.95-33.989-9-12.57-28.888,5.524-35.362,23.691-.678,26.917,4.884,8.874,36.69,1.548,39.48" transform="translate(-253.66 -188.097)" fill="#fdcc86"/>
        <path id="Tracé_1966" data-name="Tracé 1966" d="M272.216,176.794s-1.83,20.891-6.15,19.984-8.239-1.579-7.606,4.718,6.624,13.569-6.691,14.683-32.456-33.224-28.8-39.725c10.554-18.759,64.5-22.545,49.245.34" transform="translate(-187.484 -135.637)" fill="#1d1d1b"/>
        <path id="Tracé_1967" data-name="Tracé 1967" d="M356.464,568.792c-.37-.156-23.37-4.319-25.824-3.509s-5.514,8.307-5.514,8.307l36.245,3.216s-.185-6.026-4.907-8.014" transform="translate(-273.94 -476.201)" fill="#c6c6c6"/>
        <path id="Tracé_1968" data-name="Tracé 1968" d="M265.943,682.356s-.083.124-.246.359c-.745,1.082-3.141,4.526-6.623,9.158v0l-.039.054c-.819,1.088-1.7,2.242-2.626,3.446l-.416.535c-1.763,2.273-3.706,4.713-5.779,7.223-1.189,1.437-2.42,2.9-3.687,4.362-2.179,2.522-4.46,5.055-6.8,7.508-.123.129-.246.258-.37.387a103.723,103.723,0,0,1-15.926,13.979c-.143.094-.285.19-.427.283a32.734,32.734,0,0,1-8.813,4.326,65.51,65.51,0,0,1-15.715,2.6,41.113,41.113,0,0,1-14.007-1.689,16.384,16.384,0,0,1-2.321-.909l-9.329-5.9h0l-51.761-32.708-30.6-19.334L62.078,658.107V644.178c.73-1.447,1.511-2.952,2.321-4.462.069-.131.14-.26.209-.39,1.589-2.944,3.278-5.887,4.9-8.421.1-.159.2-.316.3-.472,2.14-3.295,4.142-5.826,5.608-6.64,5.416-3.009,18.911-4.958,28.072-6.255a30.633,30.633,0,0,1,3.857-.2c5.4-.022,14.254.59,23.637,1.56,1.714.176,3.445.365,5.175.565q1.748.2,3.487.414c1.672.208,3.333.422,4.964.644h0c1.53.208,3.035.422,4.5.641h0c6.03.9,11.414,1.88,15.214,2.856a22.786,22.786,0,0,1,4.728,1.612c3.062,1.656,9.444,13.919,16.42,27.891,8.172,16.369,17.16,35.084,22.589,41.855,1.546,1.928,2.8,2.889,3.671,2.549,1.134-.444,3.117-1.352,5.62-2.549,3.706-1.771,8.55-4.177,13.46-6.647v0c2.388-1.2,4.794-2.42,7.092-3.588,3.846-1.955,7.391-3.769,10.052-5.135,2.939-1.51,4.8-2.472,4.8-2.472s.264-.044.69-.107a29.687,29.687,0,0,1,5.617-.452A8.571,8.571,0,0,1,264.381,680c.266.309.5.609.694.888a10.988,10.988,0,0,1,.686,1.105v0c.121.224.181.357.181.357" transform="translate(-52.305 -520.147)" fill="#fff"/>
        <path id="Tracé_1969" data-name="Tracé 1969" d="M24.551,772.794v65.994l0,.006,10.964,52.751H165.17l-6.88-33.1-1.06-5.1-5.3-25.52-8.057-38.769a16.324,16.324,0,0,0-.975-3.086c-3.673-8.63-14.662-15.173-26.252-15.134l-9.06.031a.007.007,0,0,0-.008,0l-72.348.247-1.3,0a26.112,26.112,0,0,0-9.372,1.675Z" transform="translate(-20.686 -649.479)" fill="#0e5366"/>
        <path id="Tracé_1970" data-name="Tracé 1970" d="M3.865,848.269l8.155,43.277H129.559l-6.222-33.02-.915-4.849-4.871-25.854-7.3-38.769a17.642,17.642,0,0,0-.883-3.086c-3.188-8.265-12.461-14.616-22.467-15.1a.007.007,0,0,0-.008,0c-.441-.024-.882-.033-1.324-.031l-71.018.268h0l-3.969.016a22.432,22.432,0,0,0-6.71,1.014h0s-2,.187-3.024,3.76-2.059,45.4,3.024,72.378" transform="translate(0 -649.479)" fill="#00374b"/>
      </g>
    </g>
  </g>
</svg>
