<svg xmlns="http://www.w3.org/2000/svg" xmlns:xlink="http://www.w3.org/1999/xlink" width="398.823" height="432.716" viewBox="0 0 398.823 432.716">
  <defs>
    <style>
      .cls-1, .cls-5 {
        fill: #fff;
      }

      .cls-2 {
        clip-path: url(#clip-path);
      }

      .cls-3 {
        clip-path: url(#clip-path-2);
      }

      .cls-4 {
        clip-path: url(#clip-path-3);
      }

      .cls-5 {
        font-size: 20px;
        font-family: Poppins-Light, Poppins;
        font-weight: 300;
      }

      .cls-6 {
        clip-path: url(#clip-path-4);
      }

      .cls-7 {
        clip-path: url(#clip-path-5);
      }
    </style>
    <clipPath id="clip-path">
      <rect id="Rectangle_299" data-name="Rectangle 299" class="cls-1" width="117.896" height="105"/>
    </clipPath>
    <clipPath id="clip-path-2">
      <rect id="Rectangle_300" data-name="Rectangle 300" class="cls-1" width="121.823" height="107"/>
    </clipPath>
    <clipPath id="clip-path-3">
      <rect id="Rectangle_302" data-name="Rectangle 302" class="cls-1" width="65.979" height="90.036"/>
    </clipPath>
    <clipPath id="clip-path-4">
      <rect id="Rectangle_390" data-name="Rectangle 390" class="cls-1" width="96" height="80.223"/>
    </clipPath>
    <clipPath id="clip-path-5">
      <rect id="Rectangle_391" data-name="Rectangle 391" class="cls-1" width="71.764" height="90.036"/>
    </clipPath>
  </defs>
  <g id="pictos" transform="translate(-140 -9861.101)">
    <g id="Groupe_2080" data-name="Groupe 2080" transform="translate(142 9861.101)">
      <g id="Groupe_1896" data-name="Groupe 1896" class="cls-2">
        <path id="Tracé_2130" data-name="Tracé 2130" class="cls-1" d="M117.9,52.261a2.72,2.72,0,0,1-2.732,1.022c-.7-.082-.976.1-.975.9q.041,23.216,0,46.433c0,.784.243,1,.963.91a2.447,2.447,0,0,1,2.742,1.155v1.151A2.518,2.518,0,0,1,115.483,105q-56.535-.032-113.07,0A2.51,2.51,0,0,1,0,103.837v-1.151a2.445,2.445,0,0,1,2.745-1.155c.726.087.961-.135.96-.914q-.037-23.229,0-46.457c0-.706-.17-.974-.885-.879A2.8,2.8,0,0,1,0,52.261V50.879a22.338,22.338,0,0,0,1.809-3.767c1.84-4.078,3.675-8.16,5.44-12.271a2.435,2.435,0,0,1,2.558-1.652c11.475.027,22.949.008,34.424.032a2.411,2.411,0,0,0,1.9-.787q5.129-5.208,10.337-10.34a2.3,2.3,0,0,0,.762-1.8c-.03-5.909-.018-11.819-.016-17.728C57.218.469,57.692,0,59.791,0Q65.547,0,71.3,0c1.714,0,2.3.567,2.307,2.261q.019,4.087,0,8.174c-.009,1.7-.578,2.237-2.314,2.239-3.224,0-6.447.024-9.67-.015-.746-.009-.982.179-.965.95.052,2.3.036,4.6.007,6.907a1.791,1.791,0,0,0,.6,1.406q5.312,5.27,10.576,10.589a2.291,2.291,0,0,0,1.821.7c11.4-.017,22.8.008,34.193-.036a2.729,2.729,0,0,1,2.9,1.865c2.224,5.163,4.54,10.285,6.829,15.419Zm-8.88-2.423c1.188-.039,2.379-.032,3.568,0,.675.017.9-.092.567-.825-1.765-3.9-3.488-7.823-5.212-11.744a.894.894,0,0,0-.951-.615c-10.2.015-20.407.011-30.856.011.25.309.352.46.478.586q6.021,6.026,12.036,12.058a1.8,1.8,0,0,0,1.435.528c3.569-.014,7.137-.007,10.706-.007Zm-7.93,3.449c-3.914-.007-7.829-.035-11.742.018a3.5,3.5,0,0,1-2.737-1.134q-13.4-13.463-26.831-26.892c-.692-.7-1.008-.643-1.67.021Q44.752,38.726,31.356,52.11a3.768,3.768,0,0,1-2.943,1.195c-6.677-.043-13.354,0-20.03-.042-.95-.006-1.272.147-1.269,1.212q.065,22.964.012,45.929c0,.855.15,1.162,1.1,1.147,3.836-.062,7.674-.026,11.511-.026,7.253,0,14.505-.01,21.757.016.728,0,1.008-.151.963-.933-.069-1.224-.018-2.455-.018-3.683,0-2.374.371-2.792,2.7-2.757.809.012,1.019-.214,1.011-1.016-.04-4.374-.021-8.748-.018-13.123,0-1.987.482-2.483,2.411-2.484q10.418,0,20.836,0c1.88,0,2.384.5,2.387,2.392q.008,6.273,0,12.547c0,1.634,0,1.634,1.592,1.662,1.476.026,2.073.609,2.1,2.112.022,1.342.069,2.69-.017,4.027-.063.975.171,1.271,1.222,1.266q16.462-.07,32.924-.006c.938,0,1.2-.192,1.193-1.169q-.054-22.675-.025-45.351c0-1.674,0-1.674-1.725-1.744ZM41.6,36.729a1.687,1.687,0,0,0-.317-.064q-15.13,0-30.261-.021c-.683,0-.912.307-1.147.84-1.662,3.778-3.325,7.556-5.044,11.309-.415.907-.22,1.055.711,1.051q11.1-.047,22.207,0a2.18,2.18,0,0,0,1.7-.723c3.806-3.842,7.639-7.656,11.455-11.488.254-.255.629-.434.694-.9m17.234,64.8H69.3c2.712,0,2.668,0,2.731-2.734.022-.938-.2-1.217-1.172-1.212-7.361.043-14.723.021-22.085.027-.916,0-2.133-.3-2.668.158-.633.548-.089,1.808-.222,2.744s.3,1.042,1.1,1.034c3.949-.038,7.9-.017,11.847-.017M49.585,87.6c0,1.917.018,3.835-.01,5.752-.009.572.119.818.757.806,2.032-.038,4.066-.045,6.1,0,.708.017.805-.272.8-.874-.021-3.835-.028-7.669,0-11.5.006-.7-.261-.808-.866-.8-1.955.03-3.913.056-5.866-.01-.814-.027-.947.28-.931.989.041,1.878.014,3.757.014,5.637m11.092-.049c0,1.917.022,3.835-.013,5.752-.011.628.141.87.82.856,1.993-.043,3.988-.038,5.982,0,.634.012.864-.147.859-.822q-.044-5.751,0-11.5c0-.642-.164-.864-.832-.851-1.993.041-3.989.055-5.981-.006-.782-.024-.857.3-.846.939.033,1.878.012,3.758.012,5.637M65.342,9.221c1.342,0,2.686-.022,4.027.011.573.014.823-.118.8-.755-.045-1.418-.041-2.839,0-4.257.017-.607-.179-.783-.781-.776q-3.969.044-7.94,0c-.587-.006-.8.14-.786.76q.064,2.127,0,4.257c-.017.6.155.8.765.774,1.3-.044,2.608-.014,3.912-.014" transform="translate(0 0.001)"/>
        <path id="Tracé_2131" data-name="Tracé 2131" class="cls-1" d="M267.127,192.387q6.152,0,12.3,0c1.78,0,2.314.544,2.316,2.335q.006,4.944,0,9.889c0,1.7-.587,2.3-2.272,2.3q-12.361.011-24.722,0c-1.727,0-2.288-.557-2.291-2.257q-.013-5.059,0-10.118c0-1.593.55-2.144,2.132-2.148,4.178-.01,8.356,0,12.534,0m6.438,11.072c1.341,0,2.683-.022,4.023.011.557.014.722-.178.715-.724-.026-2.069-.031-4.138,0-6.207.01-.575-.188-.709-.724-.7q-4.023.033-8.047,0c-.55-.005-.72.155-.712.709q.044,3.1,0,6.207c-.007.547.158.737.717.723,1.34-.035,2.682-.011,4.023-.012m-12.974,0c1.34,0,2.681-.027,4.02.012.607.018.789-.187.78-.786-.032-2.029-.024-4.059,0-6.088,0-.5-.076-.77-.674-.764q-4.078.037-8.156,0c-.5,0-.657.155-.652.654.023,2.067.028,4.135,0,6.2-.009.6.176.8.782.782,1.3-.041,2.6-.013,3.906-.013" transform="translate(-174.917 -133.297)"/>
        <path id="Tracé_2132" data-name="Tracé 2132" class="cls-1" d="M267.153,252.479q6.152,0,12.3,0c1.721,0,2.288.558,2.291,2.245q.01,5,0,10c0,1.68-.6,2.267-2.294,2.268q-12.362.005-24.723,0c-1.706,0-2.263-.558-2.267-2.272q-.011-5.059,0-10.119c.005-1.573.565-2.123,2.153-2.126q6.267-.012,12.534,0m-6.562,11.065c1.341,0,2.683-.027,4.023.012.6.018.791-.17.781-.778-.034-2.03-.024-4.061,0-6.092,0-.5-.062-.77-.668-.764-2.72.027-5.441.023-8.162,0-.5,0-.659.143-.653.648.025,2.069.029,4.138,0,6.207-.009.6.168.8.777.778,1.3-.043,2.605-.013,3.908-.013m12.911,0c1.342,0,2.684-.028,4.025.013.6.019.792-.158.781-.77q-.054-3.047,0-6.095c.011-.608-.171-.777-.772-.77q-3.967.045-7.935,0c-.591-.007-.79.138-.779.758.039,2.031.034,4.063,0,6.095-.009.589.147.805.767.783,1.3-.045,2.606-.014,3.91-.014" transform="translate(-174.919 -174.932)"/>
        <path id="Tracé_2133" data-name="Tracé 2133" class="cls-1" d="M50.712,192.387q6.152,0,12.3,0c1.759,0,2.28.509,2.284,2.229q.012,5.059,0,10.118c-.005,1.572-.584,2.172-2.141,2.174q-12.476.015-24.953,0c-1.556,0-2.183-.625-2.189-2.147q-.017-5.117,0-10.233c0-1.548.6-2.137,2.162-2.141,4.178-.01,8.356,0,12.534,0m-6.5,11.072c1.3,0,2.606-.021,3.908.01.552.013.835-.075.823-.734-.039-2.068-.034-4.138,0-6.207.009-.573-.194-.7-.726-.694q-4.023.035-8.047,0c-.556-.005-.717.17-.709.719q.043,3.1,0,6.207c-.008.562.189.723.729.71,1.34-.03,2.682-.01,4.023-.01m12.9,0c1.34,0,2.681-.022,4.02.011.552.014.733-.166.727-.719q-.038-3.1,0-6.2c.007-.544-.15-.722-.707-.717-2.68.025-5.361.021-8.041,0-.523,0-.748.123-.739.7.031,2.067.037,4.136,0,6.2-.013.67.3.738.835.729,1.3-.024,2.6-.008,3.906-.008" transform="translate(-24.949 -133.297)"/>
        <path id="Tracé_2134" data-name="Tracé 2134" class="cls-1" d="M48.476,263.6c.526-.116.443-.428.444-.753,0-2.072-.015-4.144.014-6.215.008-.552-.156-.715-.709-.71q-4.028.04-8.057,0c-.547,0-.724.149-.716.709q.046,3.107,0,6.215c-.008.562.182.748.726.7a7.581,7.581,0,0,1,1.379.013Zm-6.823,3.35a26.072,26.072,0,0,1-4.137,0,1.6,1.6,0,0,1-1.5-1.746c-.018-3.645-.028-7.289,0-10.934.01-1.2.721-1.781,2.05-1.784,4.182-.011,8.364,0,12.546,0q6.215,0,12.431,0c1.721,0,2.242.529,2.245,2.27q.01,5.006,0,10.013c0,1.649-.576,2.231-2.194,2.234-4.642.007-9.285,0-13.927.007Zm15.418-3.406c1.3,0,2.606-.026,3.908.011.6.017.9-.083.879-.793-.046-2.03-.029-4.061-.008-6.092.005-.5-.061-.757-.669-.75-2.72.032-5.441.023-8.161.006-.5,0-.657.165-.652.662.022,2.069.033,4.138,0,6.207-.011.632.221.775.8.76,1.3-.035,2.605-.011,3.908-.011" transform="translate(-24.945 -174.932)"/>
        <path id="Tracé_2135" data-name="Tracé 2135" class="cls-1" d="M163.028,138.235a12.807,12.807,0,1,1-12.806,12.8,12.855,12.855,0,0,1,12.806-12.8m.143,3.46a9.35,9.35,0,1,0,9.205,9.512,9.384,9.384,0,0,0-9.205-9.512" transform="translate(-104.084 -95.778)"/>
        <path id="Tracé_2136" data-name="Tracé 2136" class="cls-1" d="M186.256,173.749c0-.42.022-.842,0-1.261a2.176,2.176,0,0,1,1.43-2.349c1.045-.459,2.043-1.027,3.079-1.508a1.737,1.737,0,0,1,2.462.682,1.675,1.675,0,0,1-.926,2.363c-1.933.709-2.968,1.78-2.637,4A1.546,1.546,0,0,1,188,177.344a1.714,1.714,0,0,1-1.722-1.646,1.917,1.917,0,0,1-.017-.229q0-.86,0-1.72Z" transform="translate(-129.042 -116.675)"/>
      </g>
    </g>
    <g id="Groupe_2082" data-name="Groupe 2082" transform="translate(417 9861.556)">
      <g id="Groupe_1898" data-name="Groupe 1898" class="cls-3">
        <path id="Tracé_2137" data-name="Tracé 2137" class="cls-1" d="M60.79,107H8.984c-2.3,0-4.6.01-6.907,0C.766,106.985.033,106.378,0,105.331c-.034-1.1.726-1.749,2.09-1.824.992-.054,2.314.435,2.891-.191.624-.678.183-2,.184-3.033q.018-24.083.009-48.165c0-2.327.441-2.761,2.8-2.761,10.565,0,21.129-.017,31.694.027,1.051,0,1.291-.251,1.288-1.293-.041-12.45-.027-24.9-.026-37.35,0-2.076.152-2.278,2.082-3.037q9.5-3.74,19-7.5a2.393,2.393,0,0,1,1.928,0Q75.425,5.051,86.928,9.861a2.283,2.283,0,0,1,1.566,2.407c-.031,7.923,0,15.846-.041,23.768-.006,1.017.3,1.25,1.26,1.229,2.471-.054,5.069-.463,7.38.155,2.259.6,4.226,2.3,6.32,3.517,3.8,2.207,7.567,4.457,11.4,6.6a3.1,3.1,0,0,1,1.8,3.089c-.049,17.187-.018,34.374-.061,51.561,0,1.13.291,1.484,1.376,1.338a10.273,10.273,0,0,1,1.884-.008c1.244.065,2.032.788,2.006,1.8s-.824,1.676-2.089,1.678q-9.93.014-19.861,0H60.79Zm3.939-53.1q0,24.207-.024,48.414c0,.987.251,1.232,1.229,1.224,5.869-.048,11.738-.062,17.606.007,1.211.014,1.512-.282,1.509-1.5q-.062-32.5-.03-65c0-7.671-.016-15.342.022-23.012a1.5,1.5,0,0,0-1.1-1.651C77.962,9.9,72,7.382,66.03,4.875c-1.3-.546-1.3-.548-1.3.86q0,24.081,0,48.162M61.23,4.29c-5.345,2.1-10.5,4.148-15.685,6.138a1.513,1.513,0,0,0-1.164,1.7q.077,19.552.055,39.105,0,25.588-.046,51.177c0,.861.2,1.134,1.1,1.126,4.778-.045,9.558-.056,14.336.005,1.106.014,1.437-.223,1.435-1.4Q61.2,53.915,61.23,5.692ZM8.668,78.149c0,8.09.014,16.181-.02,24.271,0,.866.2,1.115,1.094,1.112q15.029-.05,30.059,0c.973,0,1.151-.28,1.149-1.189q-.042-24.208,0-48.417c0-.878-.215-1.1-1.1-1.1q-15.029.049-30.059,0c-.961,0-1.156.256-1.151,1.176.039,8.048.022,16.1.022,24.145M98.346,42.012c-.039.291-.058.37-.058.451q0,29.991-.023,59.981c0,.927.315,1.094,1.149,1.086,4.108-.038,8.217-.054,12.324.008,1.056.016,1.389-.181,1.385-1.334-.046-15.76-.03-31.52-.034-47.281,0-1.423.431-3.109-.183-4.193s-2.288-1.547-3.5-2.281c-.25-.152-.506-.294-.759-.442l-10.3-6M88.472,72.14c0,10.052.015,20.1-.023,30.157,0,.987.243,1.312,1.241,1.24a22.578,22.578,0,0,1,3.766.005c1.219.118,1.405-.372,1.4-1.461q-.046-29.968-.023-59.937a5.438,5.438,0,0,1,0-.628c.07-.6-.176-.811-.781-.8a38.64,38.64,0,0,1-4.27-.018c-1.188-.1-1.345.362-1.341,1.407.038,10.01.023,20.021.023,30.031" transform="translate(0 -0.001)"/>
        <path id="Tracé_2138" data-name="Tracé 2138" class="cls-1" d="M203.305,267.492c0,.587.037,1.176-.009,1.759a1.6,1.6,0,0,1-1.623,1.594,1.527,1.527,0,0,1-1.731-1.316,12.443,12.443,0,0,1,.006-4.122,1.523,1.523,0,0,1,1.748-1.291,1.605,1.605,0,0,1,1.6,1.616c.04.584.007,1.173.007,1.759" transform="translate(-132.746 -175.497)"/>
        <path id="Tracé_2139" data-name="Tracé 2139" class="cls-1" d="M217.6,196.29c0-.586-.039-1.175.008-1.757a1.592,1.592,0,0,1,1.647-1.567,1.538,1.538,0,0,1,1.706,1.348,13.391,13.391,0,0,1,.007,4,1.54,1.54,0,0,1-1.8,1.373,1.587,1.587,0,0,1-1.568-1.64c-.033-.584-.006-1.172-.006-1.758h.006" transform="translate(-144.584 -128.221)"/>
        <path id="Tracé_2140" data-name="Tracé 2140" class="cls-1" d="M238.431,280.779a13.934,13.934,0,0,1-.013,1.756,1.632,1.632,0,0,1-1.784,1.568,1.584,1.584,0,0,1-1.656-1.563,23.527,23.527,0,0,1,.011-3.638,1.563,1.563,0,0,1,1.7-1.5,1.606,1.606,0,0,1,1.715,1.495,12.286,12.286,0,0,1,.018,1.881h.006" transform="translate(-156.096 -184.331)"/>
        <path id="Tracé_2141" data-name="Tracé 2141" class="cls-1" d="M238.432,86.4a15.293,15.293,0,0,1-.011,1.632,1.635,1.635,0,0,1-1.7,1.651,1.586,1.586,0,0,1-1.753-1.585,24,24,0,0,1,0-3.514,1.6,1.6,0,0,1,1.75-1.6,1.644,1.644,0,0,1,1.706,1.658c.053.581.01,1.171.009,1.757" transform="translate(-156.089 -55.139)"/>
        <path id="Tracé_2142" data-name="Tracé 2142" class="cls-1" d="M217.61,157.354c0-.586-.045-1.175.01-1.756a1.573,1.573,0,0,1,1.579-1.5,1.525,1.525,0,0,1,1.749,1.284,12.339,12.339,0,0,1,.007,4.118,1.527,1.527,0,0,1-1.846,1.3,1.554,1.554,0,0,1-1.5-1.566c-.044-.625-.008-1.254-.008-1.882h.007" transform="translate(-144.584 -102.393)"/>
        <path id="Tracé_2143" data-name="Tracé 2143" class="cls-1" d="M221.082,274.229a15.114,15.114,0,0,1-.157,1.959,1.69,1.69,0,0,1-3.324-.2,32.512,32.512,0,0,1,.006-3.763,1.512,1.512,0,0,1,1.592-1.461,1.535,1.535,0,0,1,1.73,1.3,16.788,16.788,0,0,1,.153,2.159" transform="translate(-144.558 -179.918)"/>
        <path id="Tracé_2144" data-name="Tracé 2144" class="cls-1" d="M217.611,235.148c0-.586-.04-1.176.009-1.758a1.575,1.575,0,0,1,1.541-1.536,1.511,1.511,0,0,1,1.778,1.24,11.562,11.562,0,0,1,0,4.242,1.514,1.514,0,0,1-1.781,1.238,1.579,1.579,0,0,1-1.537-1.543c-.047-.624-.009-1.255-.009-1.883" transform="translate(-144.589 -154.057)"/>
        <path id="Tracé_2145" data-name="Tracé 2145" class="cls-1" d="M203.3,34.274c0,.586.04,1.175-.008,1.757a1.6,1.6,0,0,1-1.642,1.577,1.534,1.534,0,0,1-1.714-1.34,12.445,12.445,0,0,1,.021-4.118,1.521,1.521,0,0,1,1.763-1.262,1.57,1.57,0,0,1,1.567,1.5,18.038,18.038,0,0,1,.014,1.882" transform="translate(-132.749 -20.52)"/>
        <path id="Tracé_2146" data-name="Tracé 2146" class="cls-1" d="M203.3,73.189c0,.586.039,1.175-.009,1.758a1.6,1.6,0,0,1-1.652,1.566,1.545,1.545,0,0,1-1.71-1.35,13.288,13.288,0,0,1-.007-4,1.539,1.539,0,0,1,1.807-1.364A1.578,1.578,0,0,1,203.3,71.43c.037.584.007,1.172.007,1.758H203.3" transform="translate(-132.75 -46.375)"/>
        <path id="Tracé_2147" data-name="Tracé 2147" class="cls-1" d="M203.307,228.664c0,.545.025,1.09-.006,1.633a1.6,1.6,0,0,1-1.559,1.65,1.543,1.543,0,0,1-1.816-1.356,12.93,12.93,0,0,1,0-4,1.549,1.549,0,0,1,1.821-1.354A1.613,1.613,0,0,1,203.3,226.9c.023.586,0,1.173,0,1.759" transform="translate(-132.745 -149.658)"/>
        <path id="Tracé_2148" data-name="Tracé 2148" class="cls-1" d="M217.6,40.871c0-.585-.032-1.173.007-1.755a1.55,1.55,0,0,1,1.484-1.575,1.523,1.523,0,0,1,1.857,1.278,12.347,12.347,0,0,1,0,4.113,1.517,1.517,0,0,1-1.736,1.3,1.587,1.587,0,0,1-1.607-1.6c-.035-.583-.006-1.17-.007-1.755" transform="translate(-144.584 -24.935)"/>
        <path id="Tracé_2149" data-name="Tracé 2149" class="cls-1" d="M203.305,189.789c0,.585.039,1.174-.01,1.754a1.564,1.564,0,0,1-1.508,1.555,1.539,1.539,0,0,1-1.846-1.3,12.807,12.807,0,0,1-.021-3.991,1.549,1.549,0,0,1,1.789-1.39,1.593,1.593,0,0,1,1.593,1.619c.033.583.006,1.17,0,1.755" transform="translate(-132.746 -123.865)"/>
        <path id="Tracé_2150" data-name="Tracé 2150" class="cls-1" d="M203.305,112c0,.586.032,1.174-.007,1.757a1.582,1.582,0,0,1-1.608,1.6,1.516,1.516,0,0,1-1.743-1.287,12.247,12.247,0,0,1,0-4.116,1.528,1.528,0,0,1,1.859-1.282,1.555,1.555,0,0,1,1.493,1.572c.042.582.008,1.171.008,1.757" transform="translate(-132.745 -72.2)"/>
        <path id="Tracé_2151" data-name="Tracé 2151" class="cls-1" d="M217.594,118.531c0-.543-.024-1.088.005-1.63a1.58,1.58,0,0,1,1.575-1.628,1.537,1.537,0,0,1,1.8,1.37,13,13,0,0,1-.012,3.992,1.7,1.7,0,0,1-3.35-.224c-.05-.623-.01-1.253-.01-1.88h0" transform="translate(-144.58 -76.592)"/>
        <path id="Tracé_2152" data-name="Tracé 2152" class="cls-1" d="M238.418,125.281a10.966,10.966,0,0,1-.017,1.755,1.626,1.626,0,0,1-1.709,1.511,1.574,1.574,0,0,1-1.708-1.5,21.85,21.85,0,0,1-.013-3.638,1.609,1.609,0,0,1,1.773-1.58,1.635,1.635,0,0,1,1.665,1.57,16.3,16.3,0,0,1,.013,1.882h0" transform="translate(-156.089 -80.952)"/>
        <path id="Tracé_2153" data-name="Tracé 2153" class="cls-1" d="M238.446,241.87c0,.545.034,1.092-.008,1.633a1.732,1.732,0,0,1-1.78,1.732,1.678,1.678,0,0,1-1.689-1.69,28.288,28.288,0,0,1,.005-3.39,1.621,1.621,0,0,1,1.7-1.648,1.693,1.693,0,0,1,1.76,1.731c.038.542.007,1.088.006,1.633" transform="translate(-156.102 -158.483)"/>
        <path id="Tracé_2154" data-name="Tracé 2154" class="cls-1" d="M203.31,150.953c0,.544.026,1.088-.006,1.63a1.576,1.576,0,0,1-1.552,1.646,1.536,1.536,0,0,1-1.821-1.336,12.856,12.856,0,0,1,0-3.992,1.536,1.536,0,0,1,1.816-1.344,1.579,1.579,0,0,1,1.56,1.641c.03.584.006,1.17.006,1.755" transform="translate(-132.747 -98.043)"/>
        <path id="Tracé_2155" data-name="Tracé 2155" class="cls-1" d="M238.433,203.019c0,.545.04,1.092-.008,1.633a1.661,1.661,0,0,1-1.689,1.684,1.608,1.608,0,0,1-1.762-1.591,23.678,23.678,0,0,1,0-3.515,1.6,1.6,0,0,1,1.736-1.615,1.642,1.642,0,0,1,1.714,1.647,17.053,17.053,0,0,1,.012,1.758" transform="translate(-156.092 -132.641)"/>
        <path id="Tracé_2156" data-name="Tracé 2156" class="cls-1" d="M238.43,47.543a16.283,16.283,0,0,1-.01,1.63,1.632,1.632,0,0,1-1.692,1.658,1.583,1.583,0,0,1-1.761-1.572,23.41,23.41,0,0,1,0-3.508,1.589,1.589,0,0,1,1.741-1.6,1.627,1.627,0,0,1,1.714,1.635,17.2,17.2,0,0,1,.012,1.755" transform="translate(-156.087 -29.339)"/>
        <path id="Tracé_2157" data-name="Tracé 2157" class="cls-1" d="M217.6,79.73c0-.585-.037-1.172.008-1.753a1.544,1.544,0,0,1,1.508-1.549,1.524,1.524,0,0,1,1.838,1.3,12.243,12.243,0,0,1-.013,4.109,1.513,1.513,0,0,1-1.755,1.259,1.539,1.539,0,0,1-1.567-1.49c-.059-.621-.011-1.251-.011-1.878H217.6" transform="translate(-144.582 -50.777)"/>
        <path id="Tracé_2158" data-name="Tracé 2158" class="cls-1" d="M238.431,164.145a15.925,15.925,0,0,1-.01,1.632,1.653,1.653,0,0,1-1.706,1.659,1.606,1.606,0,0,1-1.745-1.607,23.442,23.442,0,0,1,0-3.515,1.608,1.608,0,0,1,1.753-1.6,1.655,1.655,0,0,1,1.7,1.672c.053.582.01,1.172.009,1.758" transform="translate(-156.091 -106.792)"/>
        <path id="Tracé_2159" data-name="Tracé 2159" class="cls-1" d="M140.53,279.227a11.066,11.066,0,0,1,.017-1.756,1.618,1.618,0,0,1,1.71-1.506,1.568,1.568,0,0,1,1.709,1.5,22.274,22.274,0,0,1,.012,3.64,1.608,1.608,0,0,1-1.774,1.58,1.63,1.63,0,0,1-1.665-1.57,16.7,16.7,0,0,1-.013-1.884h0" transform="translate(-93.361 -183.374)"/>
        <path id="Tracé_2160" data-name="Tracé 2160" class="cls-1" d="M143.962,240.378c0,.545.042,1.093-.009,1.633a1.65,1.65,0,0,1-1.707,1.66,1.6,1.6,0,0,1-1.749-1.6,24.24,24.24,0,0,1,0-3.515,1.586,1.586,0,0,1,1.752-1.585,1.632,1.632,0,0,1,1.7,1.652,17.25,17.25,0,0,1,.011,1.758" transform="translate(-93.316 -157.461)"/>
        <path id="Tracé_2161" data-name="Tracé 2161" class="cls-1" d="M143.973,201.287c0,.544.034,1.091-.007,1.632a1.7,1.7,0,0,1-1.768,1.733,1.649,1.649,0,0,1-1.7-1.663,28.2,28.2,0,0,1,0-3.389,1.611,1.611,0,0,1,1.692-1.653,1.685,1.685,0,0,1,1.776,1.708c.041.541.007,1.088.007,1.632" transform="translate(-93.324 -131.531)"/>
        <path id="Tracé_2162" data-name="Tracé 2162" class="cls-1" d="M143.972,162.27c0,.545.033,1.091-.007,1.633a1.7,1.7,0,0,1-1.767,1.732,1.641,1.641,0,0,1-1.7-1.659,28.21,28.21,0,0,1,0-3.39,1.614,1.614,0,0,1,1.692-1.657,1.683,1.683,0,0,1,1.777,1.709c.041.541.007,1.088.007,1.633" transform="translate(-93.323 -105.605)"/>
        <path id="Tracé_2163" data-name="Tracé 2163" class="cls-1" d="M143.957,123.31a12.974,12.974,0,0,1-.014,1.755,1.625,1.625,0,0,1-1.793,1.551,1.576,1.576,0,0,1-1.646-1.567,23.338,23.338,0,0,1,.014-3.637,1.56,1.56,0,0,1,1.712-1.487,1.607,1.607,0,0,1,1.707,1.5,12.719,12.719,0,0,1,.018,1.88h0" transform="translate(-93.319 -79.688)"/>
        <path id="Tracé_2164" data-name="Tracé 2164" class="cls-1" d="M140.516,84.2c0-.544-.044-1.092.009-1.63a1.628,1.628,0,0,1,1.7-1.654,1.586,1.586,0,0,1,1.76,1.576,23.258,23.258,0,0,1,0,3.51,1.591,1.591,0,0,1-1.745,1.6,1.628,1.628,0,0,1-1.71-1.642c-.058-.58-.01-1.17-.011-1.756" transform="translate(-93.359 -53.768)"/>
        <path id="Tracé_2165" data-name="Tracé 2165" class="cls-1" d="M143.959,45.32a14.108,14.108,0,0,1-.011,1.63,1.63,1.63,0,0,1-1.725,1.624,1.59,1.59,0,0,1-1.732-1.607,23.7,23.7,0,0,1,.007-3.51,1.588,1.588,0,0,1,1.771-1.565,1.608,1.608,0,0,1,1.668,1.549,15.073,15.073,0,0,1,.015,1.88h.008" transform="translate(-93.313 -27.836)"/>
        <path id="Tracé_2166" data-name="Tracé 2166" class="cls-1" d="M164.3,273.286c0-.584-.041-1.171.009-1.751a1.55,1.55,0,0,1,1.625-1.559,1.5,1.5,0,0,1,1.728,1.428,27.3,27.3,0,0,1-.009,3.87,1.494,1.494,0,0,1-1.648,1.394,1.565,1.565,0,0,1-1.685-1.507c-.058-.62-.011-1.25-.011-1.876H164.3" transform="translate(-109.167 -179.394)"/>
        <path id="Tracé_2167" data-name="Tracé 2167" class="cls-1" d="M167.67,78.233a15.642,15.642,0,0,1-.016,1.873,1.54,1.54,0,0,1-1.716,1.455,1.523,1.523,0,0,1-1.641-1.537,34.6,34.6,0,0,1,0-3.626,1.521,1.521,0,0,1,1.66-1.517,1.544,1.544,0,0,1,1.7,1.479,16.68,16.68,0,0,1,.011,1.873" transform="translate(-109.142 -49.757)"/>
        <path id="Tracé_2168" data-name="Tracé 2168" class="cls-1" d="M167.687,234.314c0,.584.044,1.172-.01,1.75a1.586,1.586,0,0,1-1.752,1.573,1.54,1.54,0,0,1-1.629-1.562,35.529,35.529,0,0,1,.01-3.628,1.513,1.513,0,0,1,1.672-1.5,1.543,1.543,0,0,1,1.687,1.492,16.788,16.788,0,0,1,.013,1.875h.009" transform="translate(-109.144 -153.461)"/>
        <path id="Tracé_2169" data-name="Tracé 2169" class="cls-1" d="M167.687,117.293a17.023,17.023,0,0,1-.011,1.751,1.572,1.572,0,0,1-1.767,1.547,1.53,1.53,0,0,1-1.615-1.57c-.05-1.208-.056-2.423.013-3.629a1.5,1.5,0,0,1,1.563-1.479,1.528,1.528,0,0,1,1.771,1.383,14.211,14.211,0,0,1,.018,2h.026" transform="translate(-109.146 -75.69)"/>
        <path id="Tracé_2170" data-name="Tracé 2170" class="cls-1" d="M167.686,156.3a17.185,17.185,0,0,1-.011,1.75,1.572,1.572,0,0,1-1.764,1.548,1.531,1.531,0,0,1-1.615-1.568c-.051-1.207-.057-2.421.013-3.627a1.494,1.494,0,0,1,1.561-1.479,1.527,1.527,0,0,1,1.772,1.379,13.986,13.986,0,0,1,.018,2h.027" transform="translate(-109.145 -101.613)"/>
        <path id="Tracé_2171" data-name="Tracé 2171" class="cls-1" d="M167.686,195.3c0,.584.046,1.172-.01,1.75a1.582,1.582,0,0,1-1.757,1.563,1.538,1.538,0,0,1-1.625-1.564c-.052-1.166-.054-2.337-.006-3.5a1.545,1.545,0,0,1,1.694-1.617,1.577,1.577,0,0,1,1.7,1.619c.049.58.009,1.167.009,1.751h-.007" transform="translate(-109.143 -127.537)"/>
        <path id="Tracé_2172" data-name="Tracé 2172" class="cls-1" d="M164.327,39.158a16.231,16.231,0,0,1,.014-1.874,1.528,1.528,0,0,1,1.619-1.426,1.507,1.507,0,0,1,1.7,1.328,15.4,15.4,0,0,1,.008,3.992A1.5,1.5,0,0,1,166,42.542a1.545,1.545,0,0,1-1.671-1.508c-.061-.619-.011-1.25-.011-1.875h.011" transform="translate(-109.173 -23.826)"/>
        <path id="Tracé_2173" data-name="Tracé 2173" class="cls-1" d="M97.183,288.749c.585,0,1.171-.021,1.755,0a1.648,1.648,0,0,1,1.739,1.62,1.589,1.589,0,0,1-1.521,1.817,25.656,25.656,0,0,1-4.132,0,1.573,1.573,0,0,1-1.494-1.718,1.632,1.632,0,0,1,1.646-1.708c.665-.048,1.337-.009,2.005-.011" transform="translate(-62.15 -191.86)"/>
        <path id="Tracé_2174" data-name="Tracé 2174" class="cls-1" d="M97.1,194.78c-.627,0-1.257.039-1.88-.009a1.654,1.654,0,0,1-1.683-1.682,1.6,1.6,0,0,1,1.576-1.769,28.634,28.634,0,0,1,4.008,0,1.6,1.6,0,0,1,1.563,1.782,1.637,1.637,0,0,1-1.58,1.652,18.152,18.152,0,0,1-2,.014v.008" transform="translate(-62.152 -127.084)"/>
        <path id="Tracé_2175" data-name="Tracé 2175" class="cls-1" d="M97.165,243.484a19.555,19.555,0,0,1-2-.014,1.641,1.641,0,0,1-1.622-1.737,1.611,1.611,0,0,1,1.637-1.715,36.246,36.246,0,0,1,3.885,0,1.61,1.61,0,0,1,1.624,1.727,1.653,1.653,0,0,1-1.64,1.723,17.456,17.456,0,0,1-1.879.012" transform="translate(-62.155 -159.455)"/>
        <path id="Tracé_2176" data-name="Tracé 2176" class="cls-1" d="M67.01,240.033c.584,0,1.172-.037,1.753.007a1.629,1.629,0,0,1,1.682,1.667,1.58,1.58,0,0,1-1.549,1.781,26.425,26.425,0,0,1-4,0,1.593,1.593,0,0,1-1.564-1.773,1.639,1.639,0,0,1,1.679-1.672c.664-.052,1.335-.01,2-.011" transform="translate(-42.079 -159.488)"/>
        <path id="Tracé_2177" data-name="Tracé 2177" class="cls-1" d="M36.644,240.026c.626,0,1.254-.037,1.877.008a1.639,1.639,0,0,1,1.726,1.744,1.594,1.594,0,0,1-1.623,1.714,28.1,28.1,0,0,1-3.878,0,1.589,1.589,0,0,1-1.6-1.735,1.613,1.613,0,0,1,1.62-1.715,18.308,18.308,0,0,1,1.877-.012v0" transform="translate(-22.026 -159.483)"/>
        <path id="Tracé_2178" data-name="Tracé 2178" class="cls-1" d="M36.633,194.773a16.419,16.419,0,0,1-1.876-.012,1.62,1.62,0,0,1-1.61-1.729,1.587,1.587,0,0,1,1.609-1.723,29.505,29.505,0,0,1,3.878,0,1.6,1.6,0,0,1,1.615,1.722,1.625,1.625,0,0,1-1.614,1.727,18.09,18.09,0,0,1-2,.015" transform="translate(-22.026 -127.08)"/>
        <path id="Tracé_2179" data-name="Tracé 2179" class="cls-1" d="M66.889,194.773c-.626,0-1.256.043-1.878-.01a1.649,1.649,0,0,1-1.684-1.672,1.588,1.588,0,0,1,1.56-1.774,27.251,27.251,0,0,1,4,0,1.578,1.578,0,0,1,1.553,1.776,1.633,1.633,0,0,1-1.677,1.673c-.622.05-1.252.009-1.878.009" transform="translate(-42.079 -127.078)"/>
        <path id="Tracé_2180" data-name="Tracé 2180" class="cls-1" d="M66.786,292.2a13.356,13.356,0,0,1-1.876-.016,1.64,1.64,0,0,1-1.583-1.767,1.6,1.6,0,0,1,1.661-1.678c1.25-.056,2.5-.043,3.756-.005a1.624,1.624,0,0,1,1.709,1.637,1.694,1.694,0,0,1-1.665,1.825c-.663.059-1.335.011-2,.011V292.2" transform="translate(-42.079 -191.841)"/>
        <path id="Tracé_2181" data-name="Tracé 2181" class="cls-1" d="M36.609,292.22c-.584,0-1.173.048-1.751-.01a1.645,1.645,0,0,1-1.7-1.773,1.6,1.6,0,0,1,1.76-1.7c1.209-.031,2.421-.039,3.63,0a1.619,1.619,0,0,1,1.711,1.625,1.7,1.7,0,0,1-1.646,1.834c-.662.06-1.334.011-2,.011v0" transform="translate(-22.031 -191.847)"/>
        <path id="Tracé_2182" data-name="Tracé 2182" class="cls-1" d="M97.1,219.186c-.667,0-1.337.038-2-.01a1.573,1.573,0,0,1-1.564-1.636A1.517,1.517,0,0,1,95,215.823a34.862,34.862,0,0,1,4.245,0,1.514,1.514,0,0,1,1.441,1.728,1.578,1.578,0,0,1-1.578,1.623c-.664.046-1.333.009-2,.008" transform="translate(-62.156 -143.37)"/>
        <path id="Tracé_2183" data-name="Tracé 2183" class="cls-1" d="M97.1,170.5a18.026,18.026,0,0,1-2.122-.016,1.552,1.552,0,0,1-1.438-1.738A1.511,1.511,0,0,1,95,167.154a40.581,40.581,0,0,1,4.247.005,1.507,1.507,0,0,1,1.438,1.61,1.558,1.558,0,0,1-1.46,1.722,18.65,18.65,0,0,1-2.121.016v0" transform="translate(-62.157 -111.036)"/>
        <path id="Tracé_2184" data-name="Tracé 2184" class="cls-1" d="M97.043,267.876c-.625,0-1.252.031-1.876-.007a1.594,1.594,0,0,1-1.625-1.706,1.529,1.529,0,0,1,1.519-1.668,40.921,40.921,0,0,1,4.123,0,1.531,1.531,0,0,1,1.5,1.682,1.566,1.566,0,0,1-1.519,1.673c-.7.062-1.416.012-2.124.012v.011" transform="translate(-62.158 -175.719)"/>
        <path id="Tracé_2185" data-name="Tracé 2185" class="cls-1" d="M36.7,219.172c-.625,0-1.251.028-1.874-.006a1.577,1.577,0,0,1-1.672-1.644,1.532,1.532,0,0,1,1.548-1.748,36.291,36.291,0,0,1,3.994,0,1.693,1.693,0,0,1,0,3.375c-.662.056-1.331.011-2,.011v.012" transform="translate(-22.032 -143.341)"/>
        <path id="Tracé_2186" data-name="Tracé 2186" class="cls-1" d="M36.637,167.139a21.191,21.191,0,0,1,2.121.014,1.538,1.538,0,0,1,1.492,1.68,1.515,1.515,0,0,1-1.5,1.674,35.8,35.8,0,0,1-4.117,0,1.509,1.509,0,0,1-1.489-1.678,1.536,1.536,0,0,1,1.492-1.679,19.8,19.8,0,0,1,2-.012" transform="translate(-22.026 -111.047)"/>
        <path id="Tracé_2187" data-name="Tracé 2187" class="cls-1" d="M66.83,267.856a19.346,19.346,0,0,1-2-.013,1.556,1.556,0,0,1-1.5-1.679,1.522,1.522,0,0,1,1.5-1.678,37.508,37.508,0,0,1,4.12,0,1.516,1.516,0,0,1,1.5,1.674,1.573,1.573,0,0,1-1.618,1.7c-.664.04-1.333.008-2,.008v-.012" transform="translate(-42.082 -175.709)"/>
        <path id="Tracé_2188" data-name="Tracé 2188" class="cls-1" d="M36.674,267.868c-.666,0-1.336.048-2-.011a1.542,1.542,0,0,1-1.527-1.648,1.5,1.5,0,0,1,1.451-1.7,32.453,32.453,0,0,1,4.239.011,1.494,1.494,0,0,1,1.408,1.739,1.522,1.522,0,0,1-1.452,1.588,20.333,20.333,0,0,1-2.121.015Z" transform="translate(-22.027 -175.716)"/>
        <path id="Tracé_2189" data-name="Tracé 2189" class="cls-1" d="M66.848,167.147a21.2,21.2,0,0,1,2.122.014,1.543,1.543,0,0,1,1.475,1.7,1.478,1.478,0,0,1-1.4,1.631,34.265,34.265,0,0,1-4.364-.013,1.476,1.476,0,0,1-1.357-1.665,1.526,1.526,0,0,1,1.4-1.637,17.119,17.119,0,0,1,2.12-.017s0-.008,0-.012" transform="translate(-42.078 -111.052)"/>
        <path id="Tracé_2190" data-name="Tracé 2190" class="cls-1" d="M66.918,219.066a19.034,19.034,0,0,1-2.122-.015,1.546,1.546,0,0,1-1.466-1.708,1.511,1.511,0,0,1,1.413-1.627,19.228,19.228,0,0,1,4.364.013,1.506,1.506,0,0,1,1.343,1.685,1.523,1.523,0,0,1-1.41,1.63,18.873,18.873,0,0,1-2.121.016v.007" transform="translate(-42.082 -143.261)"/>
        <path id="Tracé_2191" data-name="Tracé 2191" class="cls-1" d="M318.165,261.676c0-.334-.025-.67,0-1a1.627,1.627,0,0,1,1.618-1.6,1.6,1.6,0,0,1,1.788,1.41,8.473,8.473,0,0,1,.06,2,1.711,1.711,0,0,1-1.835,1.784,1.664,1.664,0,0,1-1.643-1.831c-.006-.251,0-.5,0-.752Z" transform="translate(-211.408 -172.144)"/>
        <path id="Tracé_2192" data-name="Tracé 2192" class="cls-1" d="M321.661,184.843a8.6,8.6,0,0,1-.156,1.357,1.712,1.712,0,0,1-3.35-.259,12.582,12.582,0,0,1-.023-1.75c.034-1.2.651-1.9,1.675-1.924a1.759,1.759,0,0,1,1.809,1.821c.02.249,0,.5,0,.751l.043,0" transform="translate(-211.381 -121.113)"/>
        <path id="Tracé_2193" data-name="Tracé 2193" class="cls-1" d="M318.156,210.418c0-.293-.019-.586,0-.877a1.728,1.728,0,0,1,3.448-.117,8.388,8.388,0,0,1,.021,1.876,1.726,1.726,0,0,1-1.75,1.768c-.971.055-1.678-.764-1.727-1.9-.011-.25,0-.5,0-.752Z" transform="translate(-211.404 -138.115)"/>
        <path id="Tracé_2194" data-name="Tracé 2194" class="cls-1" d="M321.616,236.238a3.377,3.377,0,0,1-.131,1.22,1.641,1.641,0,0,1-1.736,1.162,1.615,1.615,0,0,1-1.592-1.493,13.739,13.739,0,0,1-.027-1.878,1.7,1.7,0,0,1,1.653-1.844,1.764,1.764,0,0,1,1.829,1.814c.025.291,0,.585,0,1.019" transform="translate(-211.38 -155.087)"/>
        <path id="Tracé_2195" data-name="Tracé 2195" class="cls-1" d="M318.161,287.289a8.791,8.791,0,0,1,.008-1,1.72,1.72,0,0,1,3.383-.231,5.6,5.6,0,0,1,.014,2.481,1.592,1.592,0,0,1-1.813,1.362,1.609,1.609,0,0,1-1.589-1.611,9.555,9.555,0,0,1,0-1" transform="translate(-211.404 -189.205)"/>
        <path id="Tracé_2196" data-name="Tracé 2196" class="cls-1" d="M318.156,159.222c0-.292-.02-.585.005-.875a1.728,1.728,0,0,1,3.446-.1,8.071,8.071,0,0,1,.01,2,1.677,1.677,0,0,1-1.869,1.6,1.636,1.636,0,0,1-1.592-1.745c-.013-.291,0-.583,0-.875" transform="translate(-211.405 -104.116)"/>
        <path id="Tracé_2197" data-name="Tracé 2197" class="cls-1" d="M304.127,173.756c0,.25.012.5,0,.751-.068,1.2-.7,1.906-1.7,1.919s-1.677-.7-1.737-1.875a14.456,14.456,0,0,1,0-1.5c.06-1.141.781-1.934,1.754-1.853a1.689,1.689,0,0,1,1.681,1.808c.009.25,0,.5,0,.751Z" transform="translate(-199.787 -113.754)"/>
        <path id="Tracé_2198" data-name="Tracé 2198" class="cls-1" d="M304.16,148.27a9.454,9.454,0,0,1-.106,1.242,1.569,1.569,0,0,1-1.607,1.312,1.546,1.546,0,0,1-1.691-1.35,10.326,10.326,0,0,1-.055-2.12,1.64,1.64,0,0,1,1.723-1.74,1.662,1.662,0,0,1,1.7,1.779c.014.291,0,.583,0,.875l.035,0" transform="translate(-199.792 -96.756)"/>
        <path id="Tracé_2199" data-name="Tracé 2199" class="cls-1" d="M300.571,199.329a5.675,5.675,0,0,1,.2-1.471,1.583,1.583,0,0,1,1.7-1.013,1.554,1.554,0,0,1,1.523,1.4,11.718,11.718,0,0,1,.039,2.117,1.7,1.7,0,0,1-3.408-.03c-.02-.332,0-.666,0-1l-.056-.005" transform="translate(-199.725 -130.793)"/>
        <path id="Tracé_2200" data-name="Tracé 2200" class="cls-1" d="M304.168,276.407a9.431,9.431,0,0,1-.107,1.241,1.566,1.566,0,0,1-1.612,1.3,1.538,1.538,0,0,1-1.684-1.354,10.946,10.946,0,0,1-.041-2.242,1.7,1.7,0,0,1,3.379-.071,9.064,9.064,0,0,1,.008,1.122l.058,0" transform="translate(-199.801 -181.912)"/>
        <path id="Tracé_2201" data-name="Tracé 2201" class="cls-1" d="M300.7,250.471a2.889,2.889,0,0,1,.2-1.452,1.642,1.642,0,0,1,1.8-.862,1.474,1.474,0,0,1,1.361,1.275,10.867,10.867,0,0,1,.066,2.129,1.713,1.713,0,1,1-3.424-.061c-.01-.293,0-.586,0-1.029" transform="translate(-199.81 -164.879)"/>
        <path id="Tracé_2202" data-name="Tracé 2202" class="cls-1" d="M304.173,225.22a7.378,7.378,0,0,1-.1,1.2,1.558,1.558,0,0,1-1.733,1.28,1.478,1.478,0,0,1-1.559-1.329,10.233,10.233,0,0,1,0-2.483,1.5,1.5,0,0,1,1.672-1.345,1.551,1.551,0,0,1,1.644,1.394,12.354,12.354,0,0,1,.082,1.286" transform="translate(-199.811 -147.874)"/>
      </g>
    </g>
    <g id="Groupe_2083" data-name="Groupe 2083" transform="translate(444.922 10156.975)">
      <g id="Groupe_1902" data-name="Groupe 1902" class="cls-4" transform="translate(0 2)">
        <path id="Tracé_2208" data-name="Tracé 2208" class="cls-1" d="M42.156,89.1a5.8,5.8,0,0,0,2.388-2.305,67.846,67.846,0,0,0,3.869-7.874c.354-.856.856-.735,1.462-.453a2.213,2.213,0,0,1,.526.434,12.287,12.287,0,0,1,4.117,8.979,1.986,1.986,0,0,0,1.275,2,1.918,1.918,0,0,0,2.282-.633c.5-.561,1.005-1.114,1.462-1.707a29.173,29.173,0,0,0,6.431-17.079c.261-7.553-3.69-12.948-10.907-15.082-.721-.213-.788-.511-.737-1.149A59.186,59.186,0,0,0,52.6,34.255,84.281,84.281,0,0,0,38.04,5L34.385.61A1.594,1.594,0,0,0,33.554.07a2.31,2.31,0,0,0-.948-.038,1.807,1.807,0,0,0-1.041.6L29.748,2.7A90.526,90.526,0,0,0,17.809,21.879c-4.695,10.212-7.1,20.875-6.154,32.166.067.8-.087,1.145-.9,1.4A15.435,15.435,0,0,0,.007,70.6,28.041,28.041,0,0,0,2.822,81.66a28.039,28.039,0,0,0,5.086,7.595,2,2,0,0,0,3.56-1.377c0-.163,0-.326.014-.489a12.331,12.331,0,0,1,4.324-8.683c.875-.783,1.448-.624,1.876.477.125.322.256.64.412.948a75.92,75.92,0,0,0,3.94,6.909,5.5,5.5,0,0,0,4.138,2.445c.779.063,1.734.11,2.867.115,2.642.012,5.42.125,8.061.079,0,0,3.786.128,5.056-.579M30.09,8.708c.807-1.1,1.651-2.179,2.475-3.269.239-.316.43-.545.8-.084a90.1,90.1,0,0,1,9.175,13.973H23.453A84.927,84.927,0,0,1,30.09,8.708M15.218,74.48a10.209,10.209,0,0,0-3.858,3.208,16.677,16.677,0,0,0-3.1,5.545,4.963,4.963,0,0,1-1.109-1.66C4.994,77.518,3.6,73.261,3.981,68.591a10.256,10.256,0,0,1,7.527-9.328c.591-.186.688-.02.763.514A75.812,75.812,0,0,0,15.6,73.7c.148.434.144.574-.385.781M40.793,85.424a1.687,1.687,0,0,1-1.546.69q-6.263.014-12.525,0a1.879,1.879,0,0,1-1.748-1.03,63.008,63.008,0,0,1-3.331-6.623h22.7a54.651,54.651,0,0,1-3.551,6.966m7.254-17.494c-.518,1.913-1.172,3.789-1.768,5.682-.068.216-.161.425-.231.606-.208.221-.45.157-.668.157q-12.376,0-24.752.009a.738.738,0,0,1-.852-.567C15.8,62.291,14.1,50.551,16.447,38.437A67.271,67.271,0,0,1,21.1,24.083a.93.93,0,0,1,1.022-.632q10.86.029,21.72-.006c.657,0,.87.279,1.108.8,6.552,14.174,7.131,28.771,3.1,43.689m9.9,15.116c-.029.047-.1.065-.229.138a17.43,17.43,0,0,0-3.134-5.546c-1.143-1.331-2.281-2.692-4.054-3.241-.592-.183-.172-.531-.1-.751a75.016,75.016,0,0,0,2.163-7.792c.429-2.036.795-4.086,1.137-6.138.088-.523.2-.63.719-.454,4.3,1.466,7.03,4.3,7.51,8.908.567,5.443-1.2,10.316-4.013,14.876" transform="translate(0 0)"/>
        <path id="Tracé_2209" data-name="Tracé 2209" class="cls-1" d="M105.519,136.464a9.784,9.784,0,0,1-13.87-13.805,9.784,9.784,0,1,1,13.87,13.805m-2.988-2.559a5.864,5.864,0,1,0-7.907-.032,5.853,5.853,0,0,0,7.907.032" transform="translate(-65.602 -88.487)"/>
        <path id="Tracé_2210" data-name="Tracé 2210" class="cls-1" d="M121.9,210.088a2.194,2.194,0,0,1,.72,1.72c.005,1.172.022,2.344,0,3.515a1.968,1.968,0,1,1-3.918-.012c-.021-1.269-.025-2.54.019-3.808a1.785,1.785,0,0,1,1.232-1.71,1.877,1.877,0,0,1,1.95.295" transform="translate(-87.665 -154.853)"/>
        <path id="Tracé_2211" data-name="Tracé 2211" class="cls-1" d="M122.065,257.973a1.908,1.908,0,0,1-2.706-.034,1.941,1.941,0,0,1,.024-2.785,1.981,1.981,0,0,1,2.731.031,1.946,1.946,0,0,1-.049,2.788" transform="translate(-87.737 -188.074)"/>
      </g>
    </g>
    <text id="Écoles" class="cls-5" transform="translate(140 9985.85)"><tspan x="-31.19" y="21">Écoles</tspan></text>
    <text id="Entreprises" class="cls-5" transform="translate(416 9985.85)"><tspan x="-53.84" y="21">Entreprises</tspan></text>
    <text id="Évolution_collective" data-name="Évolution collective" class="cls-5" transform="translate(278 10100.975)"><tspan x="-44.14" y="21">Évolution </tspan><tspan x="-47.02" y="51">collective</tspan></text>
    <text id="Aide_projet" data-name="Aide projet" class="cls-5" transform="translate(416 10265.816)"><tspan x="-53.43" y="21">Aide projet</tspan></text>
    <text id="Sciences" class="cls-5" transform="translate(140 10265.816)"><tspan x="-44.14" y="21">Sciences</tspan></text>
    <g id="Groupe_2193" data-name="Groupe 2193" transform="translate(292.001 10007.37)">
      <g id="Groupe_2192" data-name="Groupe 2192" class="cls-6">
        <path id="Tracé_2335" data-name="Tracé 2335" class="cls-1" d="M96,59.906A27.637,27.637,0,0,0,91.135,44.22a28.051,28.051,0,0,0-8.654-8.176A20.876,20.876,0,1,0,51.023,8.921a20.747,20.747,0,0,0-6.046,0A20.877,20.877,0,1,0,13.519,36.043a28.044,28.044,0,0,0-8.654,8.176A27.639,27.639,0,0,0,0,59.906V71.523H20.134v8.7H75.866v-8.7H96V59.906ZM68.134,5.155a15.731,15.731,0,0,1,0,31.463q-.233,0-.466-.007c.012-.033.022-.067.033-.1a20.679,20.679,0,0,0,.672-2.342c.013-.057.027-.113.039-.17.047-.215.088-.433.128-.651.019-.1.038-.206.055-.309q.049-.292.089-.586c.019-.136.036-.273.052-.409.02-.173.04-.347.056-.521s.029-.356.041-.535c.009-.141.021-.281.027-.422q.021-.455.023-.911c0-.022,0-.044,0-.067s0-.024,0-.036c0-.311-.01-.619-.023-.927,0-.089-.01-.179-.015-.268q-.023-.392-.06-.781c-.006-.059-.01-.118-.016-.176a20.783,20.783,0,0,0-12.4-16.952A15.778,15.778,0,0,1,68.134,5.155M42.557,14.825l.151-.054q.235-.084.473-.16.18-.058.363-.111l.266-.076c.159-.044.318-.086.479-.125a15.639,15.639,0,0,1,7.423,0c.16.039.319.081.477.124.09.025.18.05.27.077q.18.053.359.11c.161.052.32.105.478.162l.146.052a15.781,15.781,0,0,1,10.1,12.31c.007.045.014.091.02.137.029.193.053.387.074.581.008.072.016.143.023.215.017.178.03.356.041.536,0,.077.011.153.015.23q.016.344.018.691c0,.02,0,.04,0,.06s0,.019,0,.028c0,.224-.007.447-.017.669,0,.07-.006.14-.01.209q-.018.322-.049.64c-.008.082-.019.164-.028.245q-.024.206-.052.41c-.015.106-.03.212-.047.318q-.039.241-.086.479c-.028.141-.058.282-.089.423q-.028.127-.059.254-.075.314-.164.624c-.023.082-.045.165-.07.246-.036.119-.074.236-.113.354q-.046.141-.1.281c-.037.106-.074.212-.113.317q-.1.268-.21.531c-.032.078-.067.156-.1.234q-.1.219-.2.435l-.024.051-.074.153q-.114.233-.237.462c-.032.059-.062.119-.095.178l-.006.011c-.089.162-.182.322-.277.481-.038.063-.075.126-.113.188q-.155.251-.318.5c-.068.1-.139.2-.209.3-.06.085-.119.169-.18.253q-.119.162-.242.32-.084.108-.169.214c-.087.108-.174.216-.263.322-.055.066-.112.13-.169.195-.093.106-.185.213-.281.317-.057.062-.115.121-.173.182q-.233.245-.476.481c-.1.093-.192.186-.29.277-.068.063-.138.123-.207.185-.113.1-.227.2-.342.3l-.178.146q-.21.171-.426.335l-.117.089a15.7,15.7,0,0,1-18.733,0l-.115-.088q-.217-.164-.428-.336l-.176-.145c-.116-.1-.23-.2-.344-.3-.069-.061-.138-.122-.206-.184-.1-.091-.195-.184-.291-.277q-.244-.236-.477-.482c-.057-.06-.115-.119-.171-.179-.1-.1-.188-.211-.281-.318-.056-.065-.113-.129-.169-.195-.089-.106-.177-.214-.263-.322q-.085-.107-.169-.215-.123-.159-.241-.32c-.061-.084-.121-.169-.18-.253s-.141-.2-.208-.3q-.164-.245-.319-.5c-.038-.062-.074-.124-.112-.186-.1-.161-.19-.323-.281-.488-.033-.061-.065-.122-.1-.183-.081-.153-.161-.307-.238-.463-.027-.055-.054-.111-.08-.167l-.012-.026c-.071-.151-.14-.3-.206-.456-.032-.073-.064-.146-.094-.219q-.112-.269-.214-.543c-.037-.1-.071-.2-.106-.3s-.07-.2-.1-.307-.073-.223-.107-.335q-.076-.251-.144-.5c-.032-.119-.06-.239-.089-.358q-.034-.141-.065-.283c-.026-.116-.052-.232-.075-.348q-.054-.272-.1-.547c-.016-.1-.03-.2-.044-.3q-.031-.22-.056-.442c-.008-.073-.018-.146-.025-.219-.021-.217-.038-.436-.05-.656,0-.063-.006-.126-.009-.189-.011-.235-.018-.47-.018-.707,0-.254.007-.506.019-.758,0-.068.009-.136.013-.2.011-.189.025-.377.043-.564.006-.065.014-.13.021-.2.022-.2.047-.4.077-.6.006-.039.011-.078.018-.117a15.78,15.78,0,0,1,10.1-12.318M12.135,20.886a15.725,15.725,0,0,1,27.49-10.44A20.783,20.783,0,0,0,27.228,27.4c-.005.051-.009.1-.014.154q-.039.4-.062.808c0,.082-.01.165-.014.247-.015.322-.025.646-.025.972s.01.657.025.985c.006.132.017.263.026.394.013.189.026.377.043.565.015.167.035.334.054.5.017.145.035.289.055.434q.039.284.086.566c.019.112.039.223.06.334.039.21.078.42.123.628.015.069.032.137.047.2a20.64,20.64,0,0,0,.651,2.271c.016.048.031.1.048.143q-.233.007-.466.007A15.749,15.749,0,0,1,12.135,20.886M24.455,53.747c-.057.089-.111.18-.167.27-.118.19-.235.381-.347.573-.063.107-.124.216-.185.324-.1.179-.2.358-.3.538q-.092.17-.181.342-.141.269-.275.541c-.056.114-.113.228-.167.342-.091.191-.179.384-.266.576-.047.1-.1.209-.141.314-.1.231-.2.464-.29.7-.028.068-.057.136-.084.2q-.179.455-.342.916c-.025.07-.047.141-.071.212-.081.237-.161.474-.236.712-.034.11-.066.22-.1.329-.061.2-.12.4-.176.608-.033.121-.065.243-.1.364q-.077.293-.146.588-.044.187-.086.374c-.044.2-.086.4-.126.6-.024.12-.049.241-.071.362-.04.218-.077.437-.112.656-.016.1-.035.206-.05.309-.048.322-.091.645-.128.97,0,0,0,.008,0,.012q-.05.443-.086.887H5.155V59.906A22.664,22.664,0,0,1,18.182,39.383,20.794,20.794,0,0,0,30.9,41.549c.157.223.316.445.481.662.056.073.113.144.17.216.163.208.328.414.5.616.07.083.141.164.213.245q.24.275.488.542c.087.094.176.186.264.278q.228.235.462.462c.059.057.114.117.173.174q-.336.2-.666.415l-.106.07q-.33.214-.653.437L32,45.823q-.288.2-.57.413c-.06.044-.12.088-.179.132q-.36.272-.71.554l-.152.126q-.279.228-.552.464l-.211.184q-.273.241-.54.489c-.046.043-.094.085-.14.129q-.328.308-.646.628c-.055.055-.109.112-.164.168q-.244.249-.481.5l-.188.2q-.268.292-.527.593l-.082.094q-.3.345-.58.7c-.053.066-.1.133-.157.2q-.215.273-.423.551c-.054.072-.107.143-.16.215-.181.247-.361.5-.535.751q-.28.409-.544.827m.833,21.321V68.606q0-.429.016-.855c0-.094.011-.186.015-.28.009-.19.018-.38.032-.569.009-.115.021-.228.032-.343.015-.166.028-.333.047-.5.014-.121.031-.242.047-.362.02-.157.039-.315.062-.472.019-.125.041-.248.062-.373.025-.151.049-.3.077-.453.024-.127.052-.253.078-.379.03-.146.059-.292.091-.437.029-.128.062-.254.093-.382s.068-.284.105-.425.072-.255.108-.382.077-.277.119-.414.082-.255.123-.382.086-.27.132-.4.091-.252.137-.378.1-.265.147-.4.1-.248.15-.373.1-.26.16-.389.11-.247.165-.369.113-.254.173-.379.119-.243.179-.365.122-.248.185-.37.128-.24.193-.359.13-.242.2-.361.137-.235.205-.353.139-.236.211-.353.145-.231.219-.346.147-.23.223-.344.154-.226.231-.339.155-.224.234-.335.162-.221.244-.331.163-.218.246-.326.17-.215.256-.323.171-.212.258-.317.178-.209.267-.313.179-.207.271-.309.185-.2.278-.3.187-.2.282-.3.193-.2.29-.294.195-.194.294-.289.2-.189.3-.282.2-.187.305-.28.206-.182.311-.272.21-.18.316-.269.213-.175.321-.261.218-.173.328-.259.219-.167.33-.249.226-.167.34-.248.225-.159.338-.237.234-.159.352-.237.23-.151.347-.225.241-.152.363-.226.236-.143.355-.212.248-.144.374-.214.241-.134.363-.2.256-.136.386-.2.246-.125.37-.186c.1-.048.2-.094.3-.141a20.818,20.818,0,0,0,19.367,0c.1.046.2.093.293.14.126.062.25.125.374.188s.255.132.381.2.246.134.367.2.247.14.369.212.241.143.36.215.24.148.358.223.235.151.351.228.232.155.347.235.229.159.342.24.225.163.336.246.223.167.333.252.218.17.325.256.216.174.323.263.211.178.315.268.209.181.312.274.2.184.3.277.2.189.3.285.195.19.291.287.2.2.292.3.187.2.28.3.188.2.281.306.18.2.268.306.181.209.269.315.172.209.256.315.173.215.258.324.164.215.245.324.165.221.245.333.156.222.233.334.156.226.232.34.148.228.221.342.148.231.22.348.14.233.209.35.14.236.207.355.132.24.2.36.13.239.193.36.124.246.185.37.121.243.179.365.115.252.172.378.112.246.165.371.106.257.159.386.1.25.152.376.1.263.146.395.093.252.137.379.089.27.133.405.083.253.122.38.08.276.119.415.074.254.108.382.071.283.105.425.064.254.093.382c.033.145.061.291.091.437.026.127.054.253.078.38.028.149.051.3.077.449.021.126.044.25.063.377.023.155.042.312.062.468.016.122.034.243.047.365.019.165.032.332.047.5.01.114.023.228.032.343.014.189.023.379.032.569,0,.093.012.186.015.279q.016.426.016.855v6.463Zm50.488-8.7q-.076-.942-.215-1.872c-.015-.1-.032-.2-.048-.294-.036-.224-.073-.448-.115-.672-.022-.118-.046-.235-.069-.352q-.061-.306-.128-.61-.041-.183-.085-.366-.071-.3-.148-.595c-.031-.12-.062-.239-.1-.359-.056-.206-.117-.41-.178-.615-.032-.108-.063-.216-.1-.323-.076-.242-.156-.483-.239-.723-.023-.067-.044-.135-.068-.2q-.163-.462-.343-.919c-.026-.065-.054-.13-.08-.195-.1-.236-.193-.472-.294-.706-.045-.1-.093-.206-.139-.31-.088-.195-.176-.389-.269-.582-.054-.113-.11-.225-.165-.337q-.136-.274-.278-.546c-.059-.113-.119-.226-.18-.339q-.147-.272-.3-.54c-.061-.108-.122-.215-.185-.322-.113-.194-.231-.385-.349-.576-.055-.089-.109-.179-.165-.268q-.265-.417-.545-.827c-.174-.254-.353-.5-.535-.751-.053-.072-.106-.143-.159-.214q-.209-.28-.424-.553c-.052-.066-.1-.132-.156-.2q-.286-.356-.582-.7l-.078-.089q-.261-.3-.531-.6l-.186-.2q-.239-.256-.484-.506c-.054-.055-.107-.11-.161-.165q-.319-.32-.648-.63l-.137-.126q-.269-.249-.543-.491l-.21-.183q-.274-.236-.553-.465l-.152-.125q-.35-.283-.71-.554l-.181-.134q-.281-.209-.568-.411l-.225-.157q-.32-.221-.646-.433l-.114-.075q-.329-.211-.664-.414c.058-.055.112-.113.169-.169q.24-.232.471-.472c.086-.089.172-.179.257-.269.169-.18.333-.364.5-.551.069-.079.138-.158.206-.238.173-.2.341-.414.506-.625.054-.069.11-.137.163-.207.166-.218.326-.44.483-.664a20.8,20.8,0,0,0,12.713-2.167A22.663,22.663,0,0,1,90.844,59.906v6.462Z" transform="translate(0 0)"/>
      </g>
    </g>
    <g id="Groupe_2195" data-name="Groupe 2195" transform="translate(164.826 10158.975)">
      <g id="Groupe_2194" data-name="Groupe 2194" class="cls-7">
        <path id="Tracé_2336" data-name="Tracé 2336" class="cls-1" d="M69.621,75.106l-21.9-26.092V12.936A6.47,6.47,0,0,0,47.519,0H24.246a6.47,6.47,0,0,0-.206,12.936V49.014L2.144,75.105A9.089,9.089,0,0,0,9.106,90.036H62.659a9.088,9.088,0,0,0,6.961-14.931M22.205,6.47a2.043,2.043,0,0,1,2.041-2.041H47.519a2.041,2.041,0,0,1,0,4.083H24.247A2.044,2.044,0,0,1,22.205,6.47m5.747,44.773a2.216,2.216,0,0,0,.518-1.424V43.949h5.11a2.215,2.215,0,0,0,0-4.429H28.47V35.961h5.11a2.215,2.215,0,0,0,0-4.429H28.47V27.973h5.11a2.215,2.215,0,0,0,0-4.429H28.47v-10.6H43.294V49.82a2.214,2.214,0,0,0,.518,1.424l7.757,9.242H20.2ZM62.659,85.607H9.106a4.654,4.654,0,0,1-3.569-7.654L16.479,64.916H55.287L66.228,77.953a4.654,4.654,0,0,1-3.569,7.654" transform="translate(0 0)"/>
        <path id="Tracé_2337" data-name="Tracé 2337" class="cls-1" d="M233.949,389.978a6.683,6.683,0,1,0,6.683,6.683,6.69,6.69,0,0,0-6.683-6.683m0,8.936a2.253,2.253,0,1,1,2.253-2.253,2.256,2.256,0,0,1-2.253,2.253" transform="translate(-187.301 -321.4)"/>
      </g>
    </g>
  </g>
</svg>
