<svg xmlns="http://www.w3.org/2000/svg" width="82.9" height="77.246" viewBox="0 0 82.9 77.246">
  <g id="Groupe_1764" data-name="Groupe 1764" transform="translate(-514.24 -189.766)">
    <g id="Groupe_1760" data-name="Groupe 1760" transform="translate(517.705 202.094)">
      <path id="Tracé_1896" data-name="Tracé 1896" d="M600.085,221.237a4.884,4.884,0,0,0-6.712,0l-7.123,7.26a.915.915,0,0,1-1.37,0l-10-9.314a5.477,5.477,0,0,0-3.562-1.37H556.389a1.155,1.155,0,0,0-.822.274l-12.6,12.054a5.041,5.041,0,0,0-.274,6.712,4.645,4.645,0,0,0,6.849,0l8.9-9.452h3.15l-20.821,23.287L527.9,254.558a5.606,5.606,0,0,0-5.754,5.205,5.161,5.161,0,0,0,1.507,4.109,6.1,6.1,0,0,0,3.972,1.644l19.177-3.871a1.243,1.243,0,0,0,.959-.411l9.863-10.547,8.219,8.63-2.466,15.89a5.556,5.556,0,0,0,3.014,6.438,4.84,4.84,0,0,0,2.328.548,5.373,5.373,0,0,0,2.466-.548,5.687,5.687,0,0,0,2.877-3.7l4.246-22.876a1.911,1.911,0,0,0-.411-1.233l-11.369-11.369,9.041-9.041,6.3,6.3a4.714,4.714,0,0,0,6.575,0l11.78-11.78a4.714,4.714,0,0,0,0-6.575Zm-1.781,4.794-11.78,11.78a2.081,2.081,0,0,1-2.74,0l-7.26-7.26a1.325,1.325,0,0,0-1.918,0L563.649,241.51a1.244,1.244,0,0,0-.411.959,1.415,1.415,0,0,0,.548,1.1l11.78,11.78L571.457,277.4a3.788,3.788,0,0,1-1.507,1.781,2.763,2.763,0,0,1-2.329,0,2.968,2.968,0,0,1-1.506-3.425l2.6-16.711a1.555,1.555,0,0,0-.411-1.1l-9.726-10.136a1.243,1.243,0,0,0-.959-.411,1.066,1.066,0,0,0-.959.411l-10.411,11.1-18.629,3.871a2.789,2.789,0,0,1-2.055-.822,3.365,3.365,0,0,1-.685-2.055,2.8,2.8,0,0,1,3.014-2.6l13.424-3.871c.411,0,.685-.137.959-.137l23.286-26.026a1.491,1.491,0,0,0,.274-1.506,1.2,1.2,0,0,0-1.233-.822h-6.849a1.478,1.478,0,0,0-.959.411l-9.314,9.863a1.687,1.687,0,0,1-1.37.685,2.2,2.2,0,0,1-1.507-.685,2.119,2.119,0,0,1,.137-2.877l12.191-11.643h14.52a2.527,2.527,0,0,1,1.644.685l10,9.314a3.81,3.81,0,0,0,5.205-.137l7.123-7.26a2.084,2.084,0,0,1,2.74,0l.137.137A1.905,1.905,0,0,1,598.3,226.031Z" transform="translate(-522.123 -217.812)" fill="#fff"/>
    </g>
    <g id="Groupe_1761" data-name="Groupe 1761" transform="translate(572.518 189.766)">
      <path id="Tracé_1897" data-name="Tracé 1897" d="M655.039,206.2a8.219,8.219,0,1,0-8.219-8.219A8.243,8.243,0,0,0,655.039,206.2Zm0-13.7a5.479,5.479,0,1,1-5.479,5.479A5.5,5.5,0,0,1,655.039,192.506Z" transform="translate(-646.82 -189.766)" fill="#fff"/>
    </g>
    <g id="Groupe_1762" data-name="Groupe 1762" transform="translate(551.714 260.429)">
      <path id="Tracé_1898" data-name="Tracé 1898" d="M619.833,357.1H600.591a1.1,1.1,0,1,1,0-2.2h18.452l5.011-4.134a1.1,1.1,0,1,1,1.4,1.7Z" transform="translate(-599.492 -350.522)" fill="#fff"/>
    </g>
    <g id="Groupe_1763" data-name="Groupe 1763" transform="translate(514.24 235.895)">
      <path id="Tracé_1899" data-name="Tracé 1899" d="M527.239,318.387a1.092,1.092,0,0,1-.578-.165l-6.193-3.837L514.3,296.159a1.1,1.1,0,0,1,2.082-.7l5.916,17.478,5.522,3.422a1.1,1.1,0,0,1-.579,2.033Z" transform="translate(-514.24 -294.707)" fill="#fff"/>
    </g>
  </g>
</svg>
