<?xml version="1.0" encoding="UTF-8" standalone="no"?>
<svg
   xmlns:dc="http://purl.org/dc/elements/1.1/"
   xmlns:cc="http://creativecommons.org/ns#"
   xmlns:rdf="http://www.w3.org/1999/02/22-rdf-syntax-ns#"
   xmlns:svg="http://www.w3.org/2000/svg"
   xmlns="http://www.w3.org/2000/svg"
   width="550.446"
   height="354.87"
   viewBox="0 0 550.446 354.87"
   version="1.1"
   id="svg116">
  <metadata
     id="metadata120">
    <rdf:RDF>
      <cc:Work
         rdf:about="">
        <dc:format>image/svg+xml</dc:format>
        <dc:type
           rdf:resource="http://purl.org/dc/dcmitype/StillImage" />
        <dc:title></dc:title>
      </cc:Work>
    </rdf:RDF>
  </metadata>
  <defs
     id="defs106">
    <filter
       id="Rectangle_139"
       x="0"
       y="31.478"
       width="550.446"
       height="323.391"
       filterUnits="userSpaceOnUse">
      <feOffset
         dx="12.84"
         dy="14.35"
         input="SourceAlpha"
         id="feOffset84" />
      <feGaussianBlur
         stdDeviation="5.67"
         result="blur"
         id="feGaussianBlur86" />
      <feFlood
         flood-opacity="0.102"
         id="feFlood88" />
      <feComposite
         operator="in"
         in2="blur"
         id="feComposite90"
         result="result1" />
      <feComposite
         in="SourceGraphic"
         in2="result1"
         id="feComposite92" />
    </filter>
    <filter
       id="Rectangle_123"
       x="212.705"
       y="0"
       width="71.051"
       height="122.092"
       filterUnits="userSpaceOnUse">
      <feOffset
         dy="3"
         input="SourceAlpha"
         id="feOffset95" />
      <feGaussianBlur
         stdDeviation="3"
         result="blur-2"
         id="feGaussianBlur97" />
      <feFlood
         flood-opacity="0.161"
         id="feFlood99" />
      <feComposite
         operator="in"
         in2="blur-2"
         id="feComposite101"
         result="result1" />
      <feComposite
         in="SourceGraphic"
         in2="result1"
         id="feComposite103" />
    </filter>
  </defs>
  <g
     id="Groupe_1663"
     data-name="Groupe 1663"
     transform="translate(-100.247 -3462.081)">
    <g
       id="Groupe_1662"
       data-name="Groupe 1662"
       transform="matrix(0.995, -0.105, 0.105, 0.995, 104.417, 3547.872)">
      <g
         transform="matrix(0.99, 0.1, -0.1, 0.99, 4.82, -85.76)"
         filter="url(#Rectangle_139)"
         id="g109">
        <rect
           id="Rectangle_139-2"
           data-name="Rectangle 139"
           width="494.148"
           height="239.028"
           transform="matrix(0.99, -0.1, 0.1, 0.99, 4.17, 85.79)"
           fill="#ededed" />
      </g>
    </g>
    <g
       transform="matrix(1, 0, 0, 1, 100.25, 3462.08)"
       filter="url(#Rectangle_123)"
       id="g113">
      <rect
         id="Rectangle_123-2"
         data-name="Rectangle 123"
         width="37.973"
         height="99.375"
         transform="translate(221.71 11.94) rotate(-9)"
         fill="#fff" />
    </g>
  </g>
  <path
     id="text124"
     style="font-size:56px;line-height:1.25;font-family:Poppins;-inkscape-font-specification:Poppins;letter-spacing:0px;word-spacing:0px;fill:#00374b;fill-opacity:1;"
     d="M 325.12695 114.13867 L 313.70312 122.46289 L 314.28906 127.12891 L 325.80664 119.52734 L 325.12695 114.13867 z M 293.92969 124.16211 L 287.54102 124.9668 L 288.5 132.57812 L 284.88867 133.0332 L 285.53906 138.20117 L 289.15039 137.74609 L 291.28516 154.69336 C 291.66302 157.69366 292.69425 159.76405 294.38086 160.90625 C 296.06747 162.04845 298.33732 162.43928 301.18945 162.08008 L 306.18945 161.45117 L 305.52539 156.17188 L 301.63672 156.66211 C 300.34029 156.82538 299.38383 156.70062 298.76758 156.28906 C 298.1837 155.8358 297.81844 155.03693 297.67383 153.88867 L 295.53906 136.94141 L 302.98438 136.00391 L 302.33398 130.83594 L 294.88867 131.77344 L 293.92969 124.16211 z M 323.3457 127.80273 C 322.65285 127.81003 321.94495 127.85825 321.22266 127.94922 C 318.22236 128.32708 315.63709 129.31203 313.4668 130.90234 C 311.33354 132.488 309.77055 134.5658 308.77734 137.13672 C 307.81651 139.66593 307.53512 142.50583 307.93164 145.6543 C 308.32816 148.80276 309.32613 151.49781 310.92578 153.74219 C 312.5578 155.94486 314.60585 157.56904 317.07031 158.61328 C 319.56715 159.61582 322.27886 159.93298 325.20508 159.56445 C 328.79803 159.11195 331.68541 157.84485 333.86914 155.76367 C 336.08525 153.64079 337.4793 151.11336 338.05078 148.18164 L 331.2168 149.04297 C 330.16845 152.07237 327.94095 153.80129 324.5332 154.23047 C 322.1626 154.52903 320.06834 154.04004 318.25195 152.76367 C 316.43556 151.4873 315.2802 149.63816 314.78711 147.2168 L 338.17969 144.27148 C 338.21123 143.32681 338.15438 142.27912 338.00977 141.13086 C 337.63657 138.1676 336.67676 135.63603 335.13281 133.53516 C 333.5842 131.39724 331.60169 129.84201 329.18359 128.86719 C 327.37002 128.13607 325.42426 127.78084 323.3457 127.80273 z M 323.36523 133.23242 C 325.05836 133.28729 326.58416 133.76625 327.93945 134.66797 C 329.74651 135.87026 330.81555 137.63594 331.14648 139.96484 L 314.19922 142.09766 C 314.19699 139.68973 314.88838 137.70315 316.27148 136.13672 C 317.64993 134.53324 319.43178 133.59359 321.61719 133.31836 C 322.2191 133.24255 322.80086 133.21413 323.36523 133.23242 z M 268.62305 134.66992 C 268.04567 134.67914 267.45738 134.72107 266.85547 134.79688 C 265.04047 135.02546 263.36147 135.59487 261.82031 136.50391 C 260.31619 137.40827 259.12463 138.55531 258.24609 139.94531 L 257.80469 136.44531 L 251.4707 137.24219 L 255.32617 167.85742 L 261.66016 167.05859 L 259.50586 149.94531 C 259.16065 147.2043 259.58291 145.02539 260.77148 143.4082 C 261.99243 141.74931 263.7876 140.77121 266.1582 140.47266 C 268.52881 140.1741 270.49172 140.67925 272.04883 141.98828 C 273.60127 143.26027 274.55128 145.2668 274.89648 148.00781 L 277.05078 165.12109 L 283.33008 164.33008 L 281.05664 146.27344 C 280.70677 143.49538 279.87025 141.19116 278.54883 139.36328 C 277.2274 137.53541 275.54035 136.24385 273.48828 135.48633 C 271.97701 134.91469 270.35517 134.64227 268.62305 134.66992 z M 194.35938 135.98047 C 193.49488 135.9694 192.59348 136.02088 191.6582 136.13867 C 189.02831 136.46988 186.7691 137.20677 184.88086 138.34766 C 182.99262 139.48854 181.59857 140.96275 180.69727 142.76953 C 179.79597 144.57631 179.48573 146.59006 179.76562 148.8125 C 180.06885 151.22015 180.867 153.07622 182.16016 154.38086 C 183.45331 155.6855 184.92206 156.59176 186.56641 157.09961 C 188.24313 157.56575 190.38164 157.9747 192.98438 158.32422 C 195.04988 158.59088 196.66678 158.87515 197.83398 159.17969 C 199.03823 159.47956 200.06281 159.99129 200.90625 160.71289 C 201.78673 161.42982 202.30743 162.436 202.4707 163.73242 C 202.68063 165.39925 202.24331 166.84805 201.15625 168.07617 C 200.06452 169.26726 198.42564 170.00016 196.24023 170.27539 C 194.12891 170.54129 192.41238 170.21201 191.0918 169.28711 C 189.80825 168.35754 188.98699 167.0681 188.62891 165.41992 L 181.85156 166.27344 C 182.13146 168.49588 182.96806 170.36526 184.36328 171.88281 C 185.75851 173.40037 187.55324 174.49147 189.74414 175.15625 C 191.93038 175.78399 194.31926 175.93592 196.91211 175.60938 C 199.65312 175.26417 201.95854 174.4453 203.82812 173.15625 C 205.73008 171.8255 207.09031 170.22505 207.9082 168.35352 C 208.76313 166.47732 209.0656 164.55691 208.81836 162.59375 C 208.51047 160.14906 207.69152 158.27849 206.36133 156.97852 C 205.06351 155.63683 203.55632 154.71531 201.83789 154.2168 C 200.15651 153.71362 197.99405 153.27252 195.34961 152.89062 C 193.35818 152.61463 191.77853 152.32407 190.61133 152.01953 C 189.44413 151.71499 188.44349 151.23931 187.60938 150.5918 C 186.80764 149.90258 186.33092 148.9646 186.18164 147.7793 C 185.96239 146.03838 186.36875 144.63313 187.40039 143.5625 C 188.43203 142.49187 189.85688 141.84186 191.67188 141.61328 C 193.67207 141.36137 195.34506 141.65775 196.69336 142.50391 C 198.04166 143.35006 198.86005 144.46973 199.14844 145.86328 L 206.15039 144.98242 C 205.48059 141.75549 203.82449 139.36717 201.18359 137.81836 C 199.2272 136.62547 196.95285 136.01366 194.35938 135.98047 z M 243.15234 138.29102 L 236.76172 139.0957 L 237.32227 143.53906 C 236.07082 142.2668 234.47849 141.28337 232.54688 140.58594 C 230.64763 139.8468 228.49554 139.62842 226.08789 139.93164 C 223.42096 140.26752 221.06037 141.24211 219.00586 142.85547 C 216.98373 144.42713 215.47248 146.47979 214.47461 149.01367 C 213.51378 151.54289 213.22804 154.34359 213.61523 157.41797 C 214.00242 160.49235 214.9796 163.1729 216.54688 165.45898 C 218.14652 167.70336 220.12442 169.37347 222.48242 170.46875 C 224.83576 171.52698 227.32714 171.89176 229.95703 171.56055 C 232.32764 171.26199 234.37863 170.51271 236.10938 169.31641 C 237.84012 168.1201 239.15267 166.73222 240.04492 165.15234 L 240.61719 169.70898 L 247.00781 168.9043 L 243.15234 138.29102 z M 229.32422 145.18945 C 230.52414 145.19355 231.69159 145.43389 232.82422 145.91211 C 234.3344 146.54974 235.61229 147.5926 236.66016 149.04102 C 237.74506 150.48477 238.4216 152.26368 238.6875 154.375 C 238.9534 156.48632 238.74112 158.39295 238.05273 160.09766 C 237.39672 161.76066 236.41625 163.08791 235.11133 164.08008 C 233.80641 165.07224 232.33878 165.6717 230.70898 165.87695 C 229.11623 166.07755 227.54722 165.86148 226 165.22852 C 224.48516 164.55385 223.18332 163.47689 222.09375 161.99609 C 221.04122 160.51064 220.38114 158.71093 220.11523 156.59961 C 219.84933 154.48829 220.04636 152.6201 220.70703 150.99414 C 221.40008 149.32647 222.40135 148.01567 223.71094 147.06055 C 225.01586 146.06838 226.48349 145.46893 228.11328 145.26367 C 228.52073 145.21236 228.92425 145.18809 229.32422 145.18945 z M 351.9082 220.04102 L 348.28906 220.5 L 351.26562 243.99219 L 354.88477 243.5332 L 351.9082 220.04102 z M 385.46289 221.69141 C 385.00643 221.68474 384.53056 221.71432 384.0332 221.77734 C 382.69987 221.94631 381.54322 222.31867 380.5625 222.89453 C 379.60294 223.46771 378.89635 224.1804 378.44531 225.0332 C 377.9916 225.86484 377.8234 226.74651 377.94141 227.67773 C 378.08623 228.82059 378.50054 229.70285 379.18164 230.32617 C 379.8839 230.94681 380.6688 231.37339 381.53711 231.60742 C 382.40542 231.84145 383.51919 232.05649 384.87695 232.25 C 386.27973 232.45931 387.30695 232.68414 387.96094 232.92383 C 388.63609 233.16083 389.01452 233.60563 389.09766 234.26172 C 389.17543 234.87548 388.95407 235.42 388.43359 235.89453 C 387.9316 236.34521 387.17408 236.63494 386.1582 236.76367 C 385.18466 236.88704 384.33886 236.74738 383.62109 236.34375 C 382.92181 235.91627 382.4933 235.33621 382.33594 234.60352 L 378.58984 235.07812 C 378.76627 236.13097 379.22777 237.05062 379.97266 237.83789 C 380.71486 238.604 381.65705 239.17376 382.80078 239.54492 C 383.963 239.89224 385.23176 239.97901 386.60742 239.80469 C 387.96192 239.63304 389.10848 239.2619 390.04688 238.69141 C 391.00643 238.11823 391.71107 237.40358 392.16211 236.55078 C 392.61314 235.69798 392.77644 234.77401 392.65039 233.7793 C 392.48708 232.66028 392.06513 231.80138 391.38672 231.19922 C 390.7083 230.59706 389.93667 230.17739 389.06836 229.94336 C 388.21853 229.68548 387.13697 229.46873 385.82422 229.29102 C 384.83697 229.13657 384.08831 229.00607 383.58008 228.89844 C 383.06917 228.76965 382.62495 228.56752 382.24609 228.29297 C 381.86724 228.01842 381.64885 227.64725 381.58984 227.18164 C 381.51475 226.58905 381.70758 226.08236 382.16992 225.6582 C 382.63227 225.23405 383.33863 224.96053 384.29102 224.83984 C 385.26456 224.71648 386.06683 224.85094 386.69727 225.24414 C 387.3277 225.63734 387.724 226.22302 387.88672 226.99805 L 391.50586 226.53906 C 391.20129 224.81434 390.3731 223.53252 389.01953 222.69336 C 388.01822 222.0461 386.83227 221.71141 385.46289 221.69141 z M 373.26172 223.43164 L 369.64258 223.89062 L 370.87695 233.63672 C 371.07542 235.20286 370.82586 236.45973 370.12891 237.4082 C 369.45043 238.33283 368.43458 238.88109 367.08008 239.05273 C 365.72558 239.22438 364.60446 238.94687 363.7168 238.2207 C 362.82645 237.47337 362.28245 236.31614 362.08398 234.75 L 360.84766 225.00391 L 357.26172 225.45898 L 358.56445 235.74414 C 358.7656 237.33145 359.2441 238.64749 360 239.69141 C 360.77706 240.73264 361.7408 241.4716 362.89258 241.90625 C 364.06552 242.33822 365.34113 242.46729 366.7168 242.29297 C 367.75384 242.16155 368.70145 241.8358 369.56055 241.31836 C 370.43813 240.77707 371.11741 240.11035 371.59766 239.31836 L 371.85938 241.38281 L 375.47852 240.92383 L 373.26172 223.43164 z M 300.125 225.67773 C 299.97465 225.66856 299.82084 225.67324 299.66211 225.69336 C 299.00602 225.7765 298.48383 226.06955 298.0957 226.57031 C 297.70758 227.07108 297.55553 227.6486 297.63867 228.30469 C 297.72181 228.96077 298.01291 229.48297 298.51367 229.87109 C 299.01444 230.25922 299.59391 230.41126 300.25 230.32812 C 300.88492 230.24767 301.39703 229.9578 301.78516 229.45703 C 302.17328 228.95627 302.32533 228.37874 302.24219 227.72266 C 302.15905 227.06657 301.866 226.54438 301.36523 226.15625 C 300.98966 225.86516 300.57604 225.70525 300.125 225.67773 z M 338.33789 227.63867 C 337.9681 227.63715 337.59384 227.66071 337.21289 227.70898 C 335.87955 227.87795 334.71699 228.30587 333.72852 228.99023 C 332.74004 229.6746 331.99036 230.45783 331.47852 231.33984 L 331.15234 228.76758 L 327.5332 229.22656 L 330.80469 255.03516 L 334.42383 254.57812 L 333.04688 243.7207 C 333.80487 244.4418 334.73893 245.01084 335.8457 245.42969 C 336.94979 245.82738 338.16862 245.9424 339.50195 245.77344 C 341.02577 245.58034 342.36349 245.02366 343.51562 244.10352 C 344.68624 243.15953 345.54264 241.95318 346.08789 240.48633 C 346.63046 238.99831 346.79096 237.37576 346.56836 235.61914 C 346.34576 233.86252 345.78966 232.35316 344.89844 231.08984 C 344.00722 229.82653 342.87934 228.906 341.51562 228.32617 C 340.5067 227.87342 339.44727 227.64324 338.33789 227.63867 z M 315.89453 230.41016 C 314.68818 230.56303 313.67218 230.94973 312.84766 231.57031 C 312.04161 232.16705 311.43013 232.94445 311.01367 233.90039 L 310.69141 231.36133 L 307.07227 231.81836 L 309.28906 249.31055 L 312.9082 248.85352 L 311.74219 239.64648 C 311.51691 237.8687 311.71731 236.57444 312.3457 235.76367 C 312.99526 234.95023 314.02927 234.45313 315.44727 234.27344 L 316.36914 234.15625 L 315.89453 230.41016 z M 337.50781 230.91016 C 338.19348 230.91197 338.86038 231.04949 339.50781 231.32227 C 340.38953 231.66212 341.13105 232.24506 341.73047 233.07227 C 342.34837 233.87563 342.73385 234.87958 342.88672 236.08594 C 343.03959 237.29229 342.91996 238.383 342.52734 239.35742 C 342.15589 240.32916 341.58793 241.11176 340.82422 241.70312 C 340.07899 242.27065 339.23981 242.61246 338.30859 242.73047 C 337.39854 242.84579 336.50159 242.72234 335.61719 242.36133 C 334.75395 241.99763 334.01316 241.4046 333.39258 240.58008 C 332.79048 239.73171 332.41264 238.7044 332.25977 237.49805 C 332.1069 236.29169 332.21766 235.21229 332.5918 234.26172 C 332.98709 233.30846 333.5575 232.54799 334.30273 231.98047 C 335.06913 231.41026 335.90635 231.06845 336.81641 230.95312 C 337.04921 230.92362 337.27926 230.90955 337.50781 230.91016 z M 302.32031 232.42188 L 298.70117 232.87891 L 300.91797 250.37109 L 304.53711 249.91406 L 302.32031 232.42188 z M 287.36914 234.0957 C 286.96512 234.09986 286.55471 234.12867 286.13672 234.18164 C 284.46476 234.39351 282.99892 234.95675 281.73828 235.86914 C 280.47765 236.78153 279.54234 237.97432 278.93359 239.44922 C 278.32485 240.92412 278.13409 242.55034 278.35938 244.32812 C 278.58734 246.12707 279.16924 247.6662 280.10547 248.94531 C 281.03902 250.20326 282.2205 251.12776 283.65039 251.7207 C 285.0776 252.29248 286.61678 252.47482 288.26758 252.26562 C 289.93954 252.05375 291.41547 251.48929 292.69727 250.57422 C 293.99755 249.6353 294.96384 248.42875 295.59375 246.95117 C 296.22366 245.47359 296.4245 243.84419 296.19922 242.06641 C 295.97394 240.28862 295.38318 238.76276 294.42578 237.48633 C 293.46838 236.20989 292.26477 235.2859 290.81641 234.7168 C 289.73013 234.28997 288.58119 234.08323 287.36914 234.0957 z M 275.69141 235.79492 L 271.84961 236.2832 L 268.70312 251.16406 L 261.94531 237.53711 L 258.07227 238.0293 L 266.92383 254.67969 L 271.24023 254.13281 L 275.69141 235.79492 z M 287.16406 237.28711 C 287.84923 237.28496 288.51279 237.41302 289.1582 237.66992 C 290.01876 238.01245 290.75019 238.59662 291.34961 239.42383 C 291.94634 240.22987 292.32541 241.26726 292.48633 242.53711 C 292.64724 243.80695 292.53006 244.91979 292.13477 245.87305 C 291.73947 246.8263 291.1558 247.57791 290.38672 248.12695 C 289.6388 248.67331 288.80036 249.00504 287.86914 249.12305 C 286.40882 249.3081 285.12767 248.95305 284.02539 248.06055 C 282.94159 247.14419 282.27971 245.74493 282.04102 243.86133 C 281.8801 242.59148 281.97833 241.49314 282.33398 240.56641 C 282.68695 239.61851 283.22637 238.87376 283.95312 238.33008 C 284.70104 237.78372 285.53948 237.45004 286.4707 237.33203 C 286.70351 237.30253 286.93567 237.28783 287.16406 237.28711 z M 255.38281 238.36914 L 251.73047 238.83203 L 252.05273 241.37109 C 251.33706 240.64463 250.42831 240.08323 249.32422 239.68555 C 248.23861 239.26401 247.00652 239.14013 245.63086 239.31445 C 244.10705 239.50755 242.75923 240.06546 241.58594 240.98828 C 240.43112 241.88726 239.5691 243.0614 239 244.50977 C 238.45206 245.95545 238.28912 247.55588 238.51172 249.3125 C 238.73432 251.06912 239.29482 252.60061 240.19141 253.90625 C 241.10647 255.18805 242.23803 256.14079 243.58594 256.76562 C 244.93117 257.3693 246.35477 257.57714 247.85742 257.38672 C 249.21192 257.21508 250.38262 256.78592 251.37109 256.10156 C 252.35957 255.4172 253.10802 254.62388 253.61719 253.7207 L 253.94727 256.32422 L 257.59766 255.86133 L 255.38281 238.36914 z M 229.15039 241.5 C 228.69393 241.49333 228.21806 241.52096 227.7207 241.58398 C 226.38737 241.75295 225.23072 242.12531 224.25 242.70117 C 223.29044 243.27435 222.58385 243.98704 222.13281 244.83984 C 221.6791 245.67148 221.5109 246.55316 221.62891 247.48438 C 221.77373 248.62724 222.18804 249.51144 222.86914 250.13477 C 223.5714 250.7554 224.3563 251.18199 225.22461 251.41602 C 226.09292 251.65005 227.20669 251.86313 228.56445 252.05664 C 229.96723 252.26595 230.99445 252.49078 231.64844 252.73047 C 232.32359 252.96747 232.70202 253.41423 232.78516 254.07031 C 232.86293 254.68407 232.64157 255.2286 232.12109 255.70312 C 231.6191 256.15381 230.86158 256.44353 229.8457 256.57227 C 228.87216 256.69563 228.02636 256.55598 227.30859 256.15234 C 226.60931 255.72486 226.1808 255.14481 226.02344 254.41211 L 222.27734 254.88672 C 222.45377 255.93956 222.91527 256.85921 223.66016 257.64648 C 224.40236 258.41259 225.34455 258.9804 226.48828 259.35156 C 227.6505 259.69888 228.91926 259.78565 230.29492 259.61133 C 231.64942 259.43968 232.79598 259.06854 233.73438 258.49805 C 234.69393 257.92487 235.39857 257.21218 235.84961 256.35938 C 236.30064 255.50657 236.46394 254.5826 236.33789 253.58789 C 236.17458 252.46888 235.75263 251.60802 235.07422 251.00586 C 234.3958 250.4037 233.62417 249.98598 232.75586 249.75195 C 231.90603 249.49408 230.82447 249.27732 229.51172 249.09961 C 228.52447 248.94516 227.77581 248.81271 227.26758 248.70508 C 226.75667 248.57629 226.31245 248.37611 225.93359 248.10156 C 225.55474 247.82701 225.33635 247.45584 225.27734 246.99023 C 225.20225 246.39764 225.39508 245.889 225.85742 245.46484 C 226.31977 245.04069 227.02613 244.76912 227.97852 244.64844 C 228.95206 244.52507 229.75433 244.65954 230.38477 245.05273 C 231.0152 245.44593 231.4115 246.02966 231.57422 246.80469 L 235.19336 246.3457 C 234.88879 244.62098 234.0606 243.33916 232.70703 242.5 C 231.70572 241.85275 230.51977 241.52001 229.15039 241.5 z M 187.85156 242.25 L 175.66016 243.79492 L 178.46094 265.89062 L 190.65039 264.3457 L 190.27734 261.39258 L 181.70508 262.47852 L 180.84766 255.7168 L 188.4668 254.75195 L 188.09375 251.79883 L 180.47461 252.76367 L 179.6543 246.28906 L 188.22461 245.20312 L 187.85156 242.25 z M 247.48438 242.31836 C 248.17004 242.32017 248.83499 242.4577 249.48242 242.73047 C 250.34566 243.09417 251.07832 243.68842 251.67773 244.51562 C 252.29831 245.34015 252.68502 246.35615 252.83789 247.5625 C 252.99076 248.76885 252.87113 249.85956 252.47852 250.83398 C 252.10438 251.78456 251.54406 252.54381 250.79883 253.11133 C 250.0536 253.67885 249.21442 254.02067 248.2832 254.13867 C 247.37315 254.25399 246.4762 254.13055 245.5918 253.76953 C 244.72588 253.38467 243.98264 252.76952 243.35938 251.92383 C 242.75728 251.07546 242.37943 250.04815 242.22656 248.8418 C 242.07369 247.63544 242.18569 246.56808 242.5625 245.63867 C 242.9578 244.68541 243.52943 243.93503 244.27734 243.38867 C 245.02258 242.82115 245.8598 242.47933 246.79102 242.36133 C 247.02382 242.33183 247.25582 242.31775 247.48438 242.31836 z M 202.66016 244.81445 C 202.33023 244.81997 201.99431 244.84509 201.65039 244.88867 C 200.61335 245.02009 199.6537 245.34511 198.77344 245.86523 C 197.91434 246.38267 197.23578 247.03931 196.73438 247.83398 L 196.48047 245.83398 L 192.86133 246.29297 L 195.07812 263.78516 L 198.69727 263.32617 L 197.45703 253.54688 C 197.25857 251.98073 197.49926 250.73713 198.17773 249.8125 C 198.87469 248.86402 199.8994 248.3025 201.25391 248.13086 C 202.60841 247.95922 203.7327 248.24681 204.62305 248.99414 C 205.51071 249.72031 206.05349 250.86745 206.25195 252.43359 L 207.49023 262.21094 L 211.07812 261.75586 L 209.76953 251.43945 C 209.56839 249.85215 209.08988 248.53611 208.33398 247.49219 C 207.57808 246.44827 206.61435 245.71127 205.44141 245.2793 C 204.57757 244.95331 203.64993 244.79789 202.66016 244.81445 z " />
  <g
     id="g1036"
     transform="matrix(0.0070012,0.0612656,-0.0612656,0.0070012,299.14142,258.19131)"
     style="fill:#00374b;fill-opacity:1">
    <g
       id="g1034"
       style="fill:#00374b;fill-opacity:1">
      <path
         d="M 367.954,213.588 160.67,5.872 c -7.804,-7.819 -20.467,-7.831 -28.284,-0.029 -7.819,7.802 -7.832,20.465 -0.03,28.284 l 207.299,207.731 c 7.798,7.798 7.798,20.486 -0.015,28.299 L 132.356,477.873 c -7.802,7.819 -7.789,20.482 0.03,28.284 3.903,3.896 9.016,5.843 14.127,5.843 5.125,0 10.25,-1.958 14.157,-5.873 L 367.939,298.426 c 23.394,-23.394 23.394,-61.459 0.015,-84.838 z"
         id="path1032"
         style="fill:#00374b;fill-opacity:1" />
    </g>
  </g>
</svg>
