<?xml version="1.0" encoding="UTF-8" standalone="no"?>
<svg
   xmlns:dc="http://purl.org/dc/elements/1.1/"
   xmlns:cc="http://creativecommons.org/ns#"
   xmlns:rdf="http://www.w3.org/1999/02/22-rdf-syntax-ns#"
   xmlns:svg="http://www.w3.org/2000/svg"
   xmlns="http://www.w3.org/2000/svg"
   width="550.446"
   height="354.87"
   viewBox="0 0 550.446 354.87"
   version="1.1"
   id="svg116">
  <metadata
     id="metadata120">
    <rdf:RDF>
      <cc:Work
         rdf:about="">
        <dc:format>image/svg+xml</dc:format>
        <dc:type
           rdf:resource="http://purl.org/dc/dcmitype/StillImage" />
        <dc:title></dc:title>
      </cc:Work>
    </rdf:RDF>
  </metadata>
  <defs
     id="defs106">
    <filter
       id="Rectangle_139"
       x="0"
       y="31.478"
       width="550.446"
       height="323.391"
       filterUnits="userSpaceOnUse">
      <feOffset
         dx="12.84"
         dy="14.35"
         input="SourceAlpha"
         id="feOffset84" />
      <feGaussianBlur
         stdDeviation="5.67"
         result="blur"
         id="feGaussianBlur86" />
      <feFlood
         flood-opacity="0.102"
         id="feFlood88" />
      <feComposite
         operator="in"
         in2="blur"
         id="feComposite90"
         result="result1" />
      <feComposite
         in="SourceGraphic"
         in2="result1"
         id="feComposite92" />
    </filter>
    <filter
       id="Rectangle_123"
       x="212.705"
       y="0"
       width="71.051"
       height="122.092"
       filterUnits="userSpaceOnUse">
      <feOffset
         dy="3"
         input="SourceAlpha"
         id="feOffset95" />
      <feGaussianBlur
         stdDeviation="3"
         result="blur-2"
         id="feGaussianBlur97" />
      <feFlood
         flood-opacity="0.161"
         id="feFlood99" />
      <feComposite
         operator="in"
         in2="blur-2"
         id="feComposite101"
         result="result1" />
      <feComposite
         in="SourceGraphic"
         in2="result1"
         id="feComposite103" />
    </filter>
  </defs>
  <g
     id="Groupe_1663"
     data-name="Groupe 1663"
     transform="translate(-100.247 -3462.081)">
    <g
       id="Groupe_1662"
       data-name="Groupe 1662"
       transform="matrix(0.995, -0.105, 0.105, 0.995, 104.417, 3547.872)">
      <g
         transform="matrix(0.99, 0.1, -0.1, 0.99, 4.82, -85.76)"
         filter="url(#Rectangle_139)"
         id="g109">
        <rect
           id="Rectangle_139-2"
           data-name="Rectangle 139"
           width="494.148"
           height="239.028"
           transform="matrix(0.99, -0.1, 0.1, 0.99, 4.17, 85.79)"
           fill="#ededed" />
      </g>
    </g>
    <g
       transform="matrix(1, 0, 0, 1, 100.25, 3462.08)"
       filter="url(#Rectangle_123)"
       id="g113">
      <rect
         id="Rectangle_123-2"
         data-name="Rectangle 123"
         width="37.973"
         height="99.375"
         transform="translate(221.71 11.94) rotate(-9)"
         fill="#fff" />
    </g>
  </g>
  <path
     id="text124"
     style="font-size:56px;line-height:1.25;font-family:Poppins;-inkscape-font-specification:Poppins;letter-spacing:0px;word-spacing:0px;fill:#00374b;fill-opacity:1"
     d="M 302.21289 117.14453 L 290.78711 125.46875 L 291.375 130.13672 L 302.89062 122.5332 L 302.21289 117.14453 z M 247.30273 124.06055 L 235.87695 132.38477 L 236.46484 137.05273 L 247.98047 129.44922 L 247.30273 124.06055 z M 335.14648 126.44141 C 334.43945 126.44814 333.71984 126.49771 332.98828 126.58984 C 330.06206 126.95837 327.49444 127.93822 325.28711 129.5332 C 323.07978 131.12819 321.44229 133.21662 320.375 135.79688 C 319.30771 138.37713 318.97143 141.22256 319.36328 144.33398 C 319.7598 147.48245 320.77542 150.17631 322.41211 152.41602 C 324.04413 154.61868 326.11178 156.23972 328.61328 157.2793 C 331.11012 158.28183 333.80223 158.60215 336.69141 158.23828 C 339.61762 157.86975 342.20289 156.8848 344.44727 155.28516 C 346.72402 153.6438 348.4152 151.53218 349.51953 148.94727 C 350.62386 146.36235 350.97975 143.51377 350.58789 140.40234 C 350.19604 137.29092 349.16396 134.61786 347.49023 132.38281 C 345.81651 130.14777 343.71161 128.53107 341.17773 127.5332 C 339.27732 126.7848 337.26758 126.42121 335.14648 126.44141 z M 271.01562 127.16992 L 264.625 127.97461 L 265.58398 135.58594 L 261.97266 136.04102 L 262.62305 141.20703 L 266.23438 140.75391 L 268.36914 157.69922 C 268.747 160.69952 269.78019 162.76991 271.4668 163.91211 C 273.1534 165.05431 275.4213 165.44709 278.27344 165.08789 L 283.27539 164.45703 L 282.60938 159.17969 L 278.7207 159.66992 C 277.42428 159.83319 276.46782 159.70843 275.85156 159.29688 C 275.26768 158.84361 274.90243 158.04279 274.75781 156.89453 L 272.625 139.94922 L 280.07031 139.00977 L 279.41992 133.84375 L 271.97461 134.78125 L 271.01562 127.16992 z M 300.42969 130.80859 C 299.73684 130.81589 299.02893 130.86606 298.30664 130.95703 C 295.30634 131.33489 292.72107 132.31789 290.55078 133.9082 C 288.41753 135.49386 286.85453 137.57361 285.86133 140.14453 C 284.9005 142.67375 284.6191 145.51169 285.01562 148.66016 C 285.41215 151.80862 286.41012 154.50563 288.00977 156.75 C 289.64179 158.95267 291.68983 160.5749 294.1543 161.61914 C 296.65114 162.62168 299.36284 162.93884 302.28906 162.57031 C 305.88201 162.11781 308.77135 160.85071 310.95508 158.76953 C 313.17118 156.64665 314.56328 154.11922 315.13477 151.1875 L 308.30078 152.04883 C 307.25243 155.07823 305.02494 156.80715 301.61719 157.23633 C 299.24658 157.53488 297.15233 157.0459 295.33594 155.76953 C 293.51955 154.49316 292.36614 152.64597 291.87305 150.22461 L 315.26367 147.27734 C 315.29521 146.33267 315.23836 145.28693 315.09375 144.13867 C 314.72055 141.17541 313.7627 138.64385 312.21875 136.54297 C 310.67014 134.40505 308.68567 132.84787 306.26758 131.87305 C 304.45401 131.14193 302.50824 130.7867 300.42969 130.80859 z M 334.78125 132.02539 C 335.98029 132.02254 337.1443 132.24682 338.27344 132.69727 C 339.77895 133.29785 341.05565 134.32111 342.10352 135.76953 C 343.14672 137.18091 343.80799 138.99826 344.08789 141.2207 C 344.36779 143.44315 344.15985 145.38897 343.4668 147.05664 C 342.77375 148.72431 341.75483 150.03631 340.4082 150.99609 C 339.09862 151.95122 337.62979 152.53302 336 152.73828 C 333.44419 153.06016 331.20123 152.43837 329.27344 150.875 C 327.37802 149.26993 326.22377 146.82006 325.80859 143.52344 C 325.5287 141.30099 325.70059 139.37911 326.32422 137.75781 C 326.94319 136.09947 327.88761 134.79421 329.16016 133.84375 C 330.46974 132.88863 331.94052 132.30877 333.57031 132.10352 C 333.97776 132.0522 334.38157 132.02634 334.78125 132.02539 z M 220.90625 133.08398 L 214.12695 133.93945 L 204.43945 165.91992 L 187.06836 137.3457 L 180.23438 138.20703 L 185.09766 176.82227 L 191.43164 176.02344 L 188.10156 149.57812 L 203.26562 174.5332 L 207.65625 173.98047 L 216.10352 146.05078 L 219.43555 172.49805 L 225.76953 171.69922 L 220.90625 133.08398 z M 300.45117 136.23828 C 302.1443 136.29315 303.66814 136.77211 305.02344 137.67383 C 306.8305 138.87612 307.89954 140.6418 308.23047 142.9707 L 291.28516 145.10547 C 291.28293 142.69754 291.97236 140.70901 293.35547 139.14258 C 294.73391 137.5391 296.51577 136.6014 298.70117 136.32617 C 299.30308 136.25037 299.8868 136.21999 300.45117 136.23828 z M 245.51953 137.72461 C 244.82668 137.73191 244.12073 137.78013 243.39844 137.87109 C 240.39814 138.24895 237.81287 139.2339 235.64258 140.82422 C 233.50933 142.40987 231.94438 144.48767 230.95117 147.05859 C 229.99034 149.58781 229.70895 152.42771 230.10547 155.57617 C 230.50199 158.72463 231.49996 161.41969 233.09961 163.66406 C 234.73163 165.86673 236.77968 167.49092 239.24414 168.53516 C 241.74098 169.53769 244.45269 169.85486 247.37891 169.48633 C 250.97186 169.03383 253.86119 167.76672 256.04492 165.68555 C 258.26103 163.56266 259.65313 161.03524 260.22461 158.10352 L 253.39062 158.96484 C 252.34228 161.99425 250.11478 163.72317 246.70703 164.15234 C 244.33642 164.4509 242.24412 163.96192 240.42773 162.68555 C 238.61134 161.40917 237.45598 159.56004 236.96289 157.13867 L 260.35352 154.19336 C 260.38506 153.24868 260.32821 152.20295 260.18359 151.05469 C 259.8104 148.09143 258.85254 145.55791 257.30859 143.45703 C 255.75998 141.31911 253.77747 139.76389 251.35938 138.78906 C 249.54581 138.05794 247.59809 137.70271 245.51953 137.72461 z M 245.54102 143.1543 C 247.23414 143.20916 248.75799 143.68813 250.11328 144.58984 C 251.92034 145.79213 252.98938 147.55782 253.32031 149.88672 L 236.375 152.01953 C 236.37277 149.6116 237.0622 147.62503 238.44531 146.05859 C 239.82376 144.45512 241.60561 143.51547 243.79102 143.24023 C 244.39293 143.16443 244.97664 143.13601 245.54102 143.1543 z M 351.9082 220.04102 L 348.28906 220.5 L 351.26562 243.99219 L 354.88477 243.5332 L 351.9082 220.04102 z M 385.46289 221.69141 C 385.00643 221.68474 384.53056 221.71432 384.0332 221.77734 C 382.69987 221.94631 381.54322 222.31867 380.5625 222.89453 C 379.60294 223.46771 378.89635 224.1804 378.44531 225.0332 C 377.9916 225.86484 377.8234 226.74651 377.94141 227.67773 C 378.08623 228.82059 378.50054 229.70285 379.18164 230.32617 C 379.8839 230.94681 380.6688 231.37339 381.53711 231.60742 C 382.40542 231.84145 383.51919 232.05649 384.87695 232.25 C 386.27973 232.45931 387.30695 232.68414 387.96094 232.92383 C 388.63609 233.16083 389.01452 233.60563 389.09766 234.26172 C 389.17543 234.87548 388.95407 235.42 388.43359 235.89453 C 387.9316 236.34521 387.17408 236.63494 386.1582 236.76367 C 385.18466 236.88704 384.33886 236.74738 383.62109 236.34375 C 382.92181 235.91627 382.4933 235.33621 382.33594 234.60352 L 378.58984 235.07812 C 378.76627 236.13097 379.22777 237.05062 379.97266 237.83789 C 380.71486 238.604 381.65705 239.17376 382.80078 239.54492 C 383.963 239.89224 385.23176 239.97901 386.60742 239.80469 C 387.96192 239.63304 389.10848 239.2619 390.04688 238.69141 C 391.00643 238.11823 391.71107 237.40358 392.16211 236.55078 C 392.61314 235.69798 392.77644 234.77401 392.65039 233.7793 C 392.48708 232.66028 392.06513 231.80138 391.38672 231.19922 C 390.7083 230.59706 389.93667 230.17739 389.06836 229.94336 C 388.21853 229.68548 387.13697 229.46873 385.82422 229.29102 C 384.83697 229.13657 384.08831 229.00607 383.58008 228.89844 C 383.06917 228.76965 382.62495 228.56752 382.24609 228.29297 C 381.86724 228.01842 381.64885 227.64725 381.58984 227.18164 C 381.51475 226.58905 381.70758 226.08236 382.16992 225.6582 C 382.63227 225.23405 383.33863 224.96053 384.29102 224.83984 C 385.26456 224.71648 386.06683 224.85094 386.69727 225.24414 C 387.3277 225.63734 387.724 226.22302 387.88672 226.99805 L 391.50586 226.53906 C 391.20129 224.81434 390.3731 223.53252 389.01953 222.69336 C 388.01822 222.0461 386.83227 221.71141 385.46289 221.69141 z M 373.26172 223.43164 L 369.64258 223.89062 L 370.87695 233.63672 C 371.07542 235.20286 370.82586 236.45973 370.12891 237.4082 C 369.45043 238.33283 368.43458 238.88109 367.08008 239.05273 C 365.72558 239.22438 364.60446 238.94687 363.7168 238.2207 C 362.82645 237.47337 362.28245 236.31614 362.08398 234.75 L 360.84766 225.00391 L 357.26172 225.45898 L 358.56445 235.74414 C 358.7656 237.33145 359.2441 238.64749 360 239.69141 C 360.77706 240.73264 361.7408 241.4716 362.89258 241.90625 C 364.06552 242.33822 365.34113 242.46729 366.7168 242.29297 C 367.75384 242.16155 368.70145 241.8358 369.56055 241.31836 C 370.43813 240.77707 371.11741 240.11035 371.59766 239.31836 L 371.85938 241.38281 L 375.47852 240.92383 L 373.26172 223.43164 z M 300.125 225.67773 C 299.97465 225.66856 299.82084 225.67324 299.66211 225.69336 C 299.00602 225.7765 298.48383 226.06955 298.0957 226.57031 C 297.70758 227.07108 297.55553 227.6486 297.63867 228.30469 C 297.72181 228.96077 298.01291 229.48297 298.51367 229.87109 C 299.01444 230.25922 299.59391 230.41126 300.25 230.32812 C 300.88492 230.24767 301.39703 229.9578 301.78516 229.45703 C 302.17328 228.95627 302.32533 228.37874 302.24219 227.72266 C 302.15905 227.06657 301.866 226.54438 301.36523 226.15625 C 300.98966 225.86516 300.57604 225.70525 300.125 225.67773 z M 338.33789 227.63867 C 337.9681 227.63715 337.59384 227.66071 337.21289 227.70898 C 335.87955 227.87795 334.71699 228.30587 333.72852 228.99023 C 332.74004 229.6746 331.99036 230.45783 331.47852 231.33984 L 331.15234 228.76758 L 327.5332 229.22656 L 330.80469 255.03516 L 334.42383 254.57812 L 333.04688 243.7207 C 333.80487 244.4418 334.73893 245.01084 335.8457 245.42969 C 336.94979 245.82738 338.16862 245.9424 339.50195 245.77344 C 341.02577 245.58034 342.36349 245.02366 343.51562 244.10352 C 344.68624 243.15953 345.54264 241.95318 346.08789 240.48633 C 346.63046 238.99831 346.79096 237.37576 346.56836 235.61914 C 346.34576 233.86252 345.78966 232.35316 344.89844 231.08984 C 344.00722 229.82653 342.87934 228.906 341.51562 228.32617 C 340.5067 227.87342 339.44727 227.64324 338.33789 227.63867 z M 315.89453 230.41016 C 314.68818 230.56303 313.67218 230.94973 312.84766 231.57031 C 312.04161 232.16705 311.43013 232.94445 311.01367 233.90039 L 310.69141 231.36133 L 307.07227 231.81836 L 309.28906 249.31055 L 312.9082 248.85352 L 311.74219 239.64648 C 311.51691 237.8687 311.71731 236.57444 312.3457 235.76367 C 312.99526 234.95023 314.02927 234.45313 315.44727 234.27344 L 316.36914 234.15625 L 315.89453 230.41016 z M 337.50781 230.91016 C 338.19348 230.91197 338.86038 231.04949 339.50781 231.32227 C 340.38953 231.66212 341.13105 232.24506 341.73047 233.07227 C 342.34837 233.87563 342.73385 234.87958 342.88672 236.08594 C 343.03959 237.29229 342.91996 238.383 342.52734 239.35742 C 342.15589 240.32916 341.58793 241.11176 340.82422 241.70312 C 340.07899 242.27065 339.23981 242.61246 338.30859 242.73047 C 337.39854 242.84579 336.50159 242.72234 335.61719 242.36133 C 334.75395 241.99763 334.01316 241.4046 333.39258 240.58008 C 332.79048 239.73171 332.41264 238.7044 332.25977 237.49805 C 332.1069 236.29169 332.21766 235.21229 332.5918 234.26172 C 332.98709 233.30846 333.5575 232.54799 334.30273 231.98047 C 335.06913 231.41026 335.90635 231.06845 336.81641 230.95312 C 337.04921 230.92362 337.27926 230.90955 337.50781 230.91016 z M 302.32031 232.42188 L 298.70117 232.87891 L 300.91797 250.37109 L 304.53711 249.91406 L 302.32031 232.42188 z M 287.36914 234.0957 C 286.96512 234.09986 286.55471 234.12867 286.13672 234.18164 C 284.46476 234.39351 282.99892 234.95675 281.73828 235.86914 C 280.47765 236.78153 279.54234 237.97432 278.93359 239.44922 C 278.32485 240.92412 278.13409 242.55034 278.35938 244.32812 C 278.58734 246.12707 279.16924 247.6662 280.10547 248.94531 C 281.03902 250.20326 282.2205 251.12776 283.65039 251.7207 C 285.0776 252.29248 286.61678 252.47482 288.26758 252.26562 C 289.93954 252.05375 291.41547 251.48929 292.69727 250.57422 C 293.99755 249.6353 294.96384 248.42875 295.59375 246.95117 C 296.22366 245.47359 296.4245 243.84419 296.19922 242.06641 C 295.97394 240.28862 295.38318 238.76276 294.42578 237.48633 C 293.46838 236.20989 292.26477 235.2859 290.81641 234.7168 C 289.73013 234.28997 288.58119 234.08323 287.36914 234.0957 z M 275.69141 235.79492 L 271.84961 236.2832 L 268.70312 251.16406 L 261.94531 237.53711 L 258.07227 238.0293 L 266.92383 254.67969 L 271.24023 254.13281 L 275.69141 235.79492 z M 287.16406 237.28711 C 287.84923 237.28496 288.51279 237.41302 289.1582 237.66992 C 290.01876 238.01245 290.75019 238.59662 291.34961 239.42383 C 291.94634 240.22987 292.32541 241.26726 292.48633 242.53711 C 292.64724 243.80695 292.53006 244.91979 292.13477 245.87305 C 291.73947 246.8263 291.1558 247.57791 290.38672 248.12695 C 289.6388 248.67331 288.80036 249.00504 287.86914 249.12305 C 286.40882 249.3081 285.12767 248.95305 284.02539 248.06055 C 282.94159 247.14419 282.27971 245.74493 282.04102 243.86133 C 281.8801 242.59148 281.97833 241.49314 282.33398 240.56641 C 282.68695 239.61851 283.22637 238.87376 283.95312 238.33008 C 284.70104 237.78372 285.53948 237.45004 286.4707 237.33203 C 286.70351 237.30253 286.93567 237.28783 287.16406 237.28711 z M 255.38281 238.36914 L 251.73047 238.83203 L 252.05273 241.37109 C 251.33706 240.64463 250.42831 240.08323 249.32422 239.68555 C 248.23861 239.26401 247.00652 239.14013 245.63086 239.31445 C 244.10705 239.50755 242.75923 240.06546 241.58594 240.98828 C 240.43112 241.88726 239.5691 243.0614 239 244.50977 C 238.45206 245.95545 238.28912 247.55588 238.51172 249.3125 C 238.73432 251.06912 239.29482 252.60061 240.19141 253.90625 C 241.10647 255.18805 242.23803 256.14079 243.58594 256.76562 C 244.93117 257.3693 246.35477 257.57714 247.85742 257.38672 C 249.21192 257.21508 250.38262 256.78592 251.37109 256.10156 C 252.35957 255.4172 253.10802 254.62388 253.61719 253.7207 L 253.94727 256.32422 L 257.59766 255.86133 L 255.38281 238.36914 z M 229.15039 241.5 C 228.69393 241.49333 228.21806 241.52096 227.7207 241.58398 C 226.38737 241.75295 225.23072 242.12531 224.25 242.70117 C 223.29044 243.27435 222.58385 243.98704 222.13281 244.83984 C 221.6791 245.67148 221.5109 246.55316 221.62891 247.48438 C 221.77373 248.62724 222.18804 249.51144 222.86914 250.13477 C 223.5714 250.7554 224.3563 251.18199 225.22461 251.41602 C 226.09292 251.65005 227.20669 251.86313 228.56445 252.05664 C 229.96723 252.26595 230.99445 252.49078 231.64844 252.73047 C 232.32359 252.96747 232.70202 253.41423 232.78516 254.07031 C 232.86293 254.68407 232.64157 255.2286 232.12109 255.70312 C 231.6191 256.15381 230.86158 256.44353 229.8457 256.57227 C 228.87216 256.69563 228.02636 256.55598 227.30859 256.15234 C 226.60931 255.72486 226.1808 255.14481 226.02344 254.41211 L 222.27734 254.88672 C 222.45377 255.93956 222.91527 256.85921 223.66016 257.64648 C 224.40236 258.41259 225.34455 258.9804 226.48828 259.35156 C 227.6505 259.69888 228.91926 259.78565 230.29492 259.61133 C 231.64942 259.43968 232.79598 259.06854 233.73438 258.49805 C 234.69393 257.92487 235.39857 257.21218 235.84961 256.35938 C 236.30064 255.50657 236.46394 254.5826 236.33789 253.58789 C 236.17458 252.46888 235.75263 251.60802 235.07422 251.00586 C 234.3958 250.4037 233.62417 249.98598 232.75586 249.75195 C 231.90603 249.49408 230.82447 249.27732 229.51172 249.09961 C 228.52447 248.94516 227.77581 248.81271 227.26758 248.70508 C 226.75667 248.57629 226.31245 248.37611 225.93359 248.10156 C 225.55474 247.82701 225.33635 247.45584 225.27734 246.99023 C 225.20225 246.39764 225.39508 245.889 225.85742 245.46484 C 226.31977 245.04069 227.02613 244.76912 227.97852 244.64844 C 228.95206 244.52507 229.75433 244.65954 230.38477 245.05273 C 231.0152 245.44593 231.4115 246.02966 231.57422 246.80469 L 235.19336 246.3457 C 234.88879 244.62098 234.0606 243.33916 232.70703 242.5 C 231.70572 241.85275 230.51977 241.52001 229.15039 241.5 z M 187.85156 242.25 L 175.66016 243.79492 L 178.46094 265.89062 L 190.65039 264.3457 L 190.27734 261.39258 L 181.70508 262.47852 L 180.84766 255.7168 L 188.4668 254.75195 L 188.09375 251.79883 L 180.47461 252.76367 L 179.6543 246.28906 L 188.22461 245.20312 L 187.85156 242.25 z M 247.48438 242.31836 C 248.17004 242.32017 248.83499 242.4577 249.48242 242.73047 C 250.34566 243.09417 251.07832 243.68842 251.67773 244.51562 C 252.29831 245.34015 252.68502 246.35615 252.83789 247.5625 C 252.99076 248.76885 252.87113 249.85956 252.47852 250.83398 C 252.10438 251.78456 251.54406 252.54381 250.79883 253.11133 C 250.0536 253.67885 249.21442 254.02067 248.2832 254.13867 C 247.37315 254.25399 246.4762 254.13055 245.5918 253.76953 C 244.72588 253.38467 243.98264 252.76952 243.35938 251.92383 C 242.75728 251.07546 242.37943 250.04815 242.22656 248.8418 C 242.07369 247.63544 242.18569 246.56808 242.5625 245.63867 C 242.9578 244.68541 243.52943 243.93503 244.27734 243.38867 C 245.02258 242.82115 245.8598 242.47933 246.79102 242.36133 C 247.02382 242.33183 247.25582 242.31775 247.48438 242.31836 z M 202.66016 244.81445 C 202.33023 244.81997 201.99431 244.84509 201.65039 244.88867 C 200.61335 245.02009 199.6537 245.34511 198.77344 245.86523 C 197.91434 246.38267 197.23578 247.03931 196.73438 247.83398 L 196.48047 245.83398 L 192.86133 246.29297 L 195.07812 263.78516 L 198.69727 263.32617 L 197.45703 253.54688 C 197.25857 251.98073 197.49926 250.73713 198.17773 249.8125 C 198.87469 248.86402 199.8994 248.3025 201.25391 248.13086 C 202.60841 247.95922 203.7327 248.24681 204.62305 248.99414 C 205.51071 249.72031 206.05349 250.86745 206.25195 252.43359 L 207.49023 262.21094 L 211.07812 261.75586 L 209.76953 251.43945 C 209.56839 249.85215 209.08988 248.53611 208.33398 247.49219 C 207.57808 246.44827 206.61435 245.71127 205.44141 245.2793 C 204.57757 244.95331 203.64993 244.79789 202.66016 244.81445 z " />
  <g
     id="g1036"
     transform="matrix(0.0070012,0.0612656,-0.0612656,0.0070012,299.14142,258.19131)"
     style="fill:#00374b;fill-opacity:1">
    <g
       id="g1034"
       style="fill:#00374b;fill-opacity:1">
      <path
         d="M 367.954,213.588 160.67,5.872 c -7.804,-7.819 -20.467,-7.831 -28.284,-0.029 -7.819,7.802 -7.832,20.465 -0.03,28.284 l 207.299,207.731 c 7.798,7.798 7.798,20.486 -0.015,28.299 L 132.356,477.873 c -7.802,7.819 -7.789,20.482 0.03,28.284 3.903,3.896 9.016,5.843 14.127,5.843 5.125,0 10.25,-1.958 14.157,-5.873 L 367.939,298.426 c 23.394,-23.394 23.394,-61.459 0.015,-84.838 z"
         id="path1032"
         style="fill:#00374b;fill-opacity:1" />
    </g>
  </g>
</svg>
