<?xml version="1.0" encoding="UTF-8" standalone="no"?>
<svg
   xmlns:dc="http://purl.org/dc/elements/1.1/"
   xmlns:cc="http://creativecommons.org/ns#"
   xmlns:rdf="http://www.w3.org/1999/02/22-rdf-syntax-ns#"
   xmlns:svg="http://www.w3.org/2000/svg"
   xmlns="http://www.w3.org/2000/svg"
   width="550.446"
   height="354.87"
   viewBox="0 0 550.446 354.87"
   version="1.1"
   id="svg116">
  <metadata
     id="metadata120">
    <rdf:RDF>
      <cc:Work
         rdf:about="">
        <dc:format>image/svg+xml</dc:format>
        <dc:type
           rdf:resource="http://purl.org/dc/dcmitype/StillImage" />
        <dc:title></dc:title>
      </cc:Work>
    </rdf:RDF>
  </metadata>
  <defs
     id="defs106">
    <filter
       id="Rectangle_139"
       x="0"
       y="31.478"
       width="550.446"
       height="323.391"
       filterUnits="userSpaceOnUse">
      <feOffset
         dx="12.84"
         dy="14.35"
         input="SourceAlpha"
         id="feOffset84" />
      <feGaussianBlur
         stdDeviation="5.67"
         result="blur"
         id="feGaussianBlur86" />
      <feFlood
         flood-opacity="0.102"
         id="feFlood88" />
      <feComposite
         operator="in"
         in2="blur"
         id="feComposite90"
         result="result1" />
      <feComposite
         in="SourceGraphic"
         in2="result1"
         id="feComposite92" />
    </filter>
    <filter
       id="Rectangle_123"
       x="212.705"
       y="0"
       width="71.051"
       height="122.092"
       filterUnits="userSpaceOnUse">
      <feOffset
         dy="3"
         input="SourceAlpha"
         id="feOffset95" />
      <feGaussianBlur
         stdDeviation="3"
         result="blur-2"
         id="feGaussianBlur97" />
      <feFlood
         flood-opacity="0.161"
         id="feFlood99" />
      <feComposite
         operator="in"
         in2="blur-2"
         id="feComposite101"
         result="result1" />
      <feComposite
         in="SourceGraphic"
         in2="result1"
         id="feComposite103" />
    </filter>
  </defs>
  <g
     id="Groupe_1663"
     data-name="Groupe 1663"
     transform="translate(-100.247 -3462.081)">
    <g
       id="Groupe_1662"
       data-name="Groupe 1662"
       transform="matrix(0.995, -0.105, 0.105, 0.995, 104.417, 3547.872)">
      <g
         transform="matrix(0.99, 0.1, -0.1, 0.99, 4.82, -85.76)"
         filter="url(#Rectangle_139)"
         id="g109">
        <rect
           id="Rectangle_139-2"
           data-name="Rectangle 139"
           width="494.148"
           height="239.028"
           transform="matrix(0.99, -0.1, 0.1, 0.99, 4.17, 85.79)"
           fill="#ededed" />
      </g>
    </g>
    <g
       transform="matrix(1, 0, 0, 1, 100.25, 3462.08)"
       filter="url(#Rectangle_123)"
       id="g113">
      <rect
         id="Rectangle_123-2"
         data-name="Rectangle 123"
         width="37.973"
         height="99.375"
         transform="translate(221.71 11.94) rotate(-9)"
         fill="#fff" />
    </g>
  </g>
  <path
     id="text124"
     style="font-size:56px;line-height:1.25;font-family:Poppins;-inkscape-font-specification:Poppins;letter-spacing:0px;word-spacing:0px;fill:#00374b;fill-opacity:1"
     d="M 388.27148 112.79688 C 387.57863 112.80417 386.87073 112.85239 386.14844 112.94336 C 383.14814 113.32122 380.56287 114.30617 378.39258 115.89648 C 376.25933 117.48214 374.69633 119.55994 373.70312 122.13086 C 372.7423 124.66007 372.4609 127.49802 372.85742 130.64648 C 373.25394 133.79495 374.25192 136.49195 375.85156 138.73633 C 377.48359 140.939 379.53163 142.56318 381.99609 143.60742 C 384.49293 144.60996 387.20464 144.92712 390.13086 144.55859 C 393.72381 144.10609 396.61119 142.83899 398.79492 140.75781 C 401.01103 138.63493 402.40508 136.1075 402.97656 133.17578 L 396.14258 134.03711 C 395.09423 137.06651 392.86673 138.79543 389.45898 139.22461 C 387.08838 139.52317 384.99412 139.03418 383.17773 137.75781 C 381.36134 136.48144 380.20793 134.6323 379.71484 132.21094 L 403.10547 129.26562 C 403.13701 128.32095 403.08016 127.27326 402.93555 126.125 C 402.56235 123.16174 401.60449 120.63017 400.06055 118.5293 C 398.51194 116.39138 396.52747 114.8342 394.10938 113.85938 C 392.29581 113.12826 390.35004 112.77498 388.27148 112.79688 z M 282.87109 114.17188 C 282.608 114.15562 282.33835 114.16423 282.06055 114.19922 C 280.91228 114.34383 279.99825 114.85465 279.31836 115.73047 C 278.63847 116.60629 278.37101 117.61932 278.51562 118.76758 C 278.66024 119.91584 279.1691 120.82987 280.04492 121.50977 C 280.92074 122.18966 281.93377 122.45711 283.08203 122.3125 C 284.19325 122.17255 285.08769 121.66488 285.76758 120.78906 C 286.44747 119.91324 286.71493 118.90022 286.57031 117.75195 C 286.4257 116.60369 285.91683 115.68966 285.04102 115.00977 C 284.38415 114.49985 283.66037 114.22063 282.87109 114.17188 z M 367.10547 115.3418 C 364.99415 115.6077 363.21524 116.28424 361.77148 117.36914 C 360.36011 118.41234 359.29064 119.76907 358.56055 121.44141 L 358 116.99609 L 351.66602 117.79492 L 355.52148 148.4082 L 361.85547 147.61133 L 359.82617 131.49805 C 359.43432 128.38663 359.78985 126.12307 360.89062 124.70508 C 362.02844 123.28242 363.83663 122.41411 366.31836 122.10156 L 367.92969 121.89844 L 367.10547 115.3418 z M 301.45117 116.38672 L 295.06055 117.19141 L 296.01953 124.80273 L 292.4082 125.25781 L 293.05859 130.42383 L 296.66992 129.9707 L 298.80469 146.91602 C 299.18255 149.91632 300.21574 151.9867 301.90234 153.12891 C 303.58895 154.27111 305.85685 154.66389 308.70898 154.30469 L 313.71094 153.67383 L 313.04492 148.39648 L 309.15625 148.88672 C 307.85982 149.04999 306.90336 148.92523 306.28711 148.51367 C 305.70323 148.06041 305.33993 147.25959 305.19531 146.11133 L 303.06055 129.16602 L 310.50586 128.22656 L 309.85547 123.06055 L 302.41016 123.99805 L 301.45117 116.38672 z M 388.29297 118.22656 C 389.98609 118.28143 391.50994 118.76039 392.86523 119.66211 C 394.67229 120.8644 395.74133 122.62813 396.07227 124.95703 L 379.125 127.0918 C 379.12277 124.68387 379.81416 122.69729 381.19727 121.13086 C 382.57571 119.52738 384.35757 118.58773 386.54297 118.3125 C 387.14488 118.23669 387.72859 118.20827 388.29297 118.22656 z M 343.36328 118.83984 L 337.0293 119.63867 L 339.17773 136.69531 C 339.52294 139.43633 339.08423 141.63602 337.86328 143.29492 C 336.67471 144.91211 334.896 145.86941 332.52539 146.16797 C 330.15478 146.46653 328.19306 145.98097 326.64062 144.70898 C 325.08352 143.39996 324.13232 141.37383 323.78711 138.63281 L 321.63867 121.57617 L 315.36133 122.36719 L 317.62695 140.36914 C 317.97682 143.1472 318.81334 145.44947 320.13477 147.27734 C 321.49323 149.10055 323.18028 150.39406 325.19531 151.15625 C 327.24738 151.91377 329.47712 152.14111 331.88477 151.83789 C 333.69976 151.60931 335.35916 151.04304 336.86328 150.13867 C 338.39977 149.1926 339.5882 148.02596 340.42969 146.64062 L 340.88477 150.25195 L 347.21875 149.45508 L 343.36328 118.83984 z M 286.70312 125.97656 L 280.36914 126.77344 L 284.22461 157.38867 L 290.55859 156.58984 L 286.70312 125.97656 z M 274.42969 127.01367 C 272.31837 127.27957 270.54141 127.95416 269.09766 129.03906 C 267.68628 130.08226 266.61486 131.44095 265.88477 133.11328 L 265.32617 128.66797 L 258.99219 129.4668 L 262.84766 160.08008 L 269.18164 159.2832 L 267.15234 143.16992 C 266.76049 140.0585 267.11407 137.79299 268.21484 136.375 C 269.35266 134.95234 271.1628 134.08599 273.64453 133.77344 L 275.25586 133.57031 L 274.42969 127.01367 z M 253.05273 129.70508 C 250.94141 129.97098 249.16446 130.64752 247.7207 131.73242 C 246.30933 132.77562 245.2379 134.13235 244.50781 135.80469 L 243.94727 131.36133 L 237.61328 132.1582 L 241.46875 162.77344 L 247.80273 161.97461 L 245.77344 145.86133 C 245.38158 142.74991 245.73711 140.48635 246.83789 139.06836 C 247.97571 137.6457 249.78585 136.77739 252.26758 136.46484 L 253.87891 136.26172 L 253.05273 129.70508 z M 229.31055 133.20312 L 222.97656 134.00195 L 225.125 151.05859 C 225.47021 153.79961 225.03345 155.99931 223.8125 157.6582 C 222.62393 159.27539 220.84326 160.23465 218.47266 160.5332 C 216.10205 160.83176 214.14033 160.34425 212.58789 159.07227 C 211.03079 157.76324 210.07958 155.73906 209.73438 152.99805 L 207.58594 135.93945 L 201.30859 136.73047 L 203.57617 154.73242 C 203.92604 157.51048 204.76061 159.81275 206.08203 161.64062 C 207.4405 163.46384 209.12755 164.75734 211.14258 165.51953 C 213.19465 166.27705 215.42438 166.50439 217.83203 166.20117 C 219.64703 165.97259 221.30643 165.40632 222.81055 164.50195 C 224.34704 163.55588 225.53546 162.38924 226.37695 161.00391 L 226.83203 164.61523 L 233.16602 163.81836 L 229.31055 133.20312 z M 156.76758 134.15625 L 150.43359 134.95312 L 154.05859 163.73438 L 131.37695 137.35352 L 125.04297 138.15234 L 129.91406 176.82227 L 136.24805 176.02344 L 132.61523 147.1875 L 155.30469 173.625 L 161.63867 172.82617 L 156.76758 134.15625 z M 181.75195 138.80859 C 181.04492 138.81533 180.3253 138.8649 179.59375 138.95703 C 176.66753 139.32556 174.10187 140.30736 171.89453 141.90234 C 169.6872 143.49733 168.04971 145.58576 166.98242 148.16602 C 165.91514 150.74627 165.57689 153.5917 165.96875 156.70312 C 166.36527 159.85159 167.38284 162.54545 169.01953 164.78516 C 170.65155 166.98783 172.71725 168.60886 175.21875 169.64844 C 177.71559 170.65097 180.40965 170.97129 183.29883 170.60742 C 186.22505 170.23889 188.81031 169.25394 191.05469 167.6543 C 193.33144 166.01294 195.02067 163.89937 196.125 161.31445 C 197.22933 158.72954 197.58717 155.88095 197.19531 152.76953 C 196.80346 149.65811 195.76943 146.98504 194.0957 144.75 C 192.42197 142.51496 190.31904 140.90021 187.78516 139.90234 C 185.88475 139.15394 183.87305 138.7884 181.75195 138.80859 z M 181.38672 144.39258 C 182.58576 144.38973 183.74977 144.61401 184.87891 145.06445 C 186.38442 145.66504 187.66112 146.69025 188.70898 148.13867 C 189.75218 149.55005 190.41346 151.3674 190.69336 153.58984 C 190.97326 155.81229 190.76727 157.75616 190.07422 159.42383 C 189.38117 161.0915 188.3603 162.40545 187.01367 163.36523 C 185.70409 164.32036 184.23526 164.90021 182.60547 165.10547 C 180.04966 165.42735 177.80865 164.80751 175.88086 163.24414 C 173.98544 161.63907 172.82924 159.18725 172.41406 155.89062 C 172.13417 153.66818 172.30605 151.7463 172.92969 150.125 C 173.54866 148.46666 174.49503 147.16335 175.76758 146.21289 C 177.07716 145.25777 178.54599 144.67791 180.17578 144.47266 C 180.58323 144.42134 180.98704 144.39353 181.38672 144.39258 z M 351.9082 220.04102 L 348.28906 220.5 L 351.26562 243.99219 L 354.88477 243.5332 L 351.9082 220.04102 z M 385.46289 221.69141 C 385.00643 221.68474 384.53056 221.71432 384.0332 221.77734 C 382.69987 221.94631 381.54322 222.31867 380.5625 222.89453 C 379.60294 223.46771 378.89635 224.1804 378.44531 225.0332 C 377.9916 225.86484 377.8234 226.74651 377.94141 227.67773 C 378.08623 228.82059 378.50054 229.70285 379.18164 230.32617 C 379.8839 230.94681 380.6688 231.37339 381.53711 231.60742 C 382.40542 231.84145 383.51919 232.05649 384.87695 232.25 C 386.27973 232.45931 387.30695 232.68414 387.96094 232.92383 C 388.63609 233.16083 389.01452 233.60563 389.09766 234.26172 C 389.17543 234.87548 388.95407 235.42 388.43359 235.89453 C 387.9316 236.34521 387.17408 236.63494 386.1582 236.76367 C 385.18466 236.88704 384.33886 236.74738 383.62109 236.34375 C 382.92181 235.91627 382.4933 235.33621 382.33594 234.60352 L 378.58984 235.07812 C 378.76627 236.13097 379.22777 237.05062 379.97266 237.83789 C 380.71486 238.604 381.65705 239.17376 382.80078 239.54492 C 383.963 239.89224 385.23176 239.97901 386.60742 239.80469 C 387.96192 239.63304 389.10848 239.2619 390.04688 238.69141 C 391.00643 238.11823 391.71107 237.40358 392.16211 236.55078 C 392.61314 235.69798 392.77644 234.77401 392.65039 233.7793 C 392.48708 232.66028 392.06513 231.80138 391.38672 231.19922 C 390.7083 230.59706 389.93667 230.17739 389.06836 229.94336 C 388.21853 229.68548 387.13697 229.46873 385.82422 229.29102 C 384.83697 229.13657 384.08831 229.00607 383.58008 228.89844 C 383.06917 228.76965 382.62495 228.56752 382.24609 228.29297 C 381.86724 228.01842 381.64885 227.64725 381.58984 227.18164 C 381.51475 226.58905 381.70758 226.08236 382.16992 225.6582 C 382.63227 225.23405 383.33863 224.96053 384.29102 224.83984 C 385.26456 224.71648 386.06683 224.85094 386.69727 225.24414 C 387.3277 225.63734 387.724 226.22302 387.88672 226.99805 L 391.50586 226.53906 C 391.20129 224.81434 390.3731 223.53252 389.01953 222.69336 C 388.01822 222.0461 386.83227 221.71141 385.46289 221.69141 z M 373.26172 223.43164 L 369.64258 223.89062 L 370.87695 233.63672 C 371.07542 235.20286 370.82586 236.45973 370.12891 237.4082 C 369.45043 238.33283 368.43458 238.88109 367.08008 239.05273 C 365.72558 239.22438 364.60446 238.94687 363.7168 238.2207 C 362.82645 237.47337 362.28245 236.31614 362.08398 234.75 L 360.84766 225.00391 L 357.26172 225.45898 L 358.56445 235.74414 C 358.7656 237.33145 359.2441 238.64749 360 239.69141 C 360.77706 240.73264 361.7408 241.4716 362.89258 241.90625 C 364.06552 242.33822 365.34113 242.46729 366.7168 242.29297 C 367.75384 242.16155 368.70145 241.8358 369.56055 241.31836 C 370.43813 240.77707 371.11741 240.11035 371.59766 239.31836 L 371.85938 241.38281 L 375.47852 240.92383 L 373.26172 223.43164 z M 300.125 225.67773 C 299.97465 225.66856 299.82084 225.67324 299.66211 225.69336 C 299.00602 225.7765 298.48383 226.06955 298.0957 226.57031 C 297.70758 227.07108 297.55553 227.6486 297.63867 228.30469 C 297.72181 228.96077 298.01291 229.48297 298.51367 229.87109 C 299.01444 230.25922 299.59391 230.41126 300.25 230.32812 C 300.88492 230.24767 301.39703 229.9578 301.78516 229.45703 C 302.17328 228.95627 302.32533 228.37874 302.24219 227.72266 C 302.15905 227.06657 301.866 226.54438 301.36523 226.15625 C 300.98966 225.86516 300.57604 225.70525 300.125 225.67773 z M 338.33789 227.63867 C 337.9681 227.63715 337.59384 227.66071 337.21289 227.70898 C 335.87955 227.87795 334.71699 228.30587 333.72852 228.99023 C 332.74004 229.6746 331.99036 230.45783 331.47852 231.33984 L 331.15234 228.76758 L 327.5332 229.22656 L 330.80469 255.03516 L 334.42383 254.57812 L 333.04688 243.7207 C 333.80487 244.4418 334.73893 245.01084 335.8457 245.42969 C 336.94979 245.82738 338.16862 245.9424 339.50195 245.77344 C 341.02577 245.58034 342.36349 245.02366 343.51562 244.10352 C 344.68624 243.15953 345.54264 241.95318 346.08789 240.48633 C 346.63046 238.99831 346.79096 237.37576 346.56836 235.61914 C 346.34576 233.86252 345.78966 232.35316 344.89844 231.08984 C 344.00722 229.82653 342.87934 228.906 341.51562 228.32617 C 340.5067 227.87342 339.44727 227.64324 338.33789 227.63867 z M 315.89453 230.41016 C 314.68818 230.56303 313.67218 230.94973 312.84766 231.57031 C 312.04161 232.16705 311.43013 232.94445 311.01367 233.90039 L 310.69141 231.36133 L 307.07227 231.81836 L 309.28906 249.31055 L 312.9082 248.85352 L 311.74219 239.64648 C 311.51691 237.8687 311.71731 236.57444 312.3457 235.76367 C 312.99526 234.95023 314.02927 234.45313 315.44727 234.27344 L 316.36914 234.15625 L 315.89453 230.41016 z M 337.50781 230.91016 C 338.19348 230.91197 338.86038 231.04949 339.50781 231.32227 C 340.38953 231.66212 341.13105 232.24506 341.73047 233.07227 C 342.34837 233.87563 342.73385 234.87958 342.88672 236.08594 C 343.03959 237.29229 342.91996 238.383 342.52734 239.35742 C 342.15589 240.32916 341.58793 241.11176 340.82422 241.70312 C 340.07899 242.27065 339.23981 242.61246 338.30859 242.73047 C 337.39854 242.84579 336.50159 242.72234 335.61719 242.36133 C 334.75395 241.99763 334.01316 241.4046 333.39258 240.58008 C 332.79048 239.73171 332.41264 238.7044 332.25977 237.49805 C 332.1069 236.29169 332.21766 235.21229 332.5918 234.26172 C 332.98709 233.30846 333.5575 232.54799 334.30273 231.98047 C 335.06913 231.41026 335.90635 231.06845 336.81641 230.95312 C 337.04921 230.92362 337.27926 230.90955 337.50781 230.91016 z M 302.32031 232.42188 L 298.70117 232.87891 L 300.91797 250.37109 L 304.53711 249.91406 L 302.32031 232.42188 z M 287.36914 234.0957 C 286.96512 234.09986 286.55471 234.12867 286.13672 234.18164 C 284.46476 234.39351 282.99892 234.95675 281.73828 235.86914 C 280.47765 236.78153 279.54234 237.97432 278.93359 239.44922 C 278.32485 240.92412 278.13409 242.55034 278.35938 244.32812 C 278.58734 246.12707 279.16924 247.6662 280.10547 248.94531 C 281.03902 250.20326 282.2205 251.12776 283.65039 251.7207 C 285.0776 252.29248 286.61678 252.47482 288.26758 252.26562 C 289.93954 252.05375 291.41547 251.48929 292.69727 250.57422 C 293.99755 249.6353 294.96384 248.42875 295.59375 246.95117 C 296.22366 245.47359 296.4245 243.84419 296.19922 242.06641 C 295.97394 240.28862 295.38318 238.76276 294.42578 237.48633 C 293.46838 236.20989 292.26477 235.2859 290.81641 234.7168 C 289.73013 234.28997 288.58119 234.08323 287.36914 234.0957 z M 275.69141 235.79492 L 271.84961 236.2832 L 268.70312 251.16406 L 261.94531 237.53711 L 258.07227 238.0293 L 266.92383 254.67969 L 271.24023 254.13281 L 275.69141 235.79492 z M 287.16406 237.28711 C 287.84923 237.28496 288.51279 237.41302 289.1582 237.66992 C 290.01876 238.01245 290.75019 238.59662 291.34961 239.42383 C 291.94634 240.22987 292.32541 241.26726 292.48633 242.53711 C 292.64724 243.80695 292.53006 244.91979 292.13477 245.87305 C 291.73947 246.8263 291.1558 247.57791 290.38672 248.12695 C 289.6388 248.67331 288.80036 249.00504 287.86914 249.12305 C 286.40882 249.3081 285.12767 248.95305 284.02539 248.06055 C 282.94159 247.14419 282.27971 245.74493 282.04102 243.86133 C 281.8801 242.59148 281.97833 241.49314 282.33398 240.56641 C 282.68695 239.61851 283.22637 238.87376 283.95312 238.33008 C 284.70104 237.78372 285.53948 237.45004 286.4707 237.33203 C 286.70351 237.30253 286.93567 237.28783 287.16406 237.28711 z M 255.38281 238.36914 L 251.73047 238.83203 L 252.05273 241.37109 C 251.33706 240.64463 250.42831 240.08323 249.32422 239.68555 C 248.23861 239.26401 247.00652 239.14013 245.63086 239.31445 C 244.10705 239.50755 242.75923 240.06546 241.58594 240.98828 C 240.43112 241.88726 239.5691 243.0614 239 244.50977 C 238.45206 245.95545 238.28912 247.55588 238.51172 249.3125 C 238.73432 251.06912 239.29482 252.60061 240.19141 253.90625 C 241.10647 255.18805 242.23803 256.14079 243.58594 256.76562 C 244.93117 257.3693 246.35477 257.57714 247.85742 257.38672 C 249.21192 257.21508 250.38262 256.78592 251.37109 256.10156 C 252.35957 255.4172 253.10802 254.62388 253.61719 253.7207 L 253.94727 256.32422 L 257.59766 255.86133 L 255.38281 238.36914 z M 229.15039 241.5 C 228.69393 241.49333 228.21806 241.52096 227.7207 241.58398 C 226.38737 241.75295 225.23072 242.12531 224.25 242.70117 C 223.29044 243.27435 222.58385 243.98704 222.13281 244.83984 C 221.6791 245.67148 221.5109 246.55316 221.62891 247.48438 C 221.77373 248.62724 222.18804 249.51144 222.86914 250.13477 C 223.5714 250.7554 224.3563 251.18199 225.22461 251.41602 C 226.09292 251.65005 227.20669 251.86313 228.56445 252.05664 C 229.96723 252.26595 230.99445 252.49078 231.64844 252.73047 C 232.32359 252.96747 232.70202 253.41423 232.78516 254.07031 C 232.86293 254.68407 232.64157 255.2286 232.12109 255.70312 C 231.6191 256.15381 230.86158 256.44353 229.8457 256.57227 C 228.87216 256.69563 228.02636 256.55598 227.30859 256.15234 C 226.60931 255.72486 226.1808 255.14481 226.02344 254.41211 L 222.27734 254.88672 C 222.45377 255.93956 222.91527 256.85921 223.66016 257.64648 C 224.40236 258.41259 225.34455 258.9804 226.48828 259.35156 C 227.6505 259.69888 228.91926 259.78565 230.29492 259.61133 C 231.64942 259.43968 232.79598 259.06854 233.73438 258.49805 C 234.69393 257.92487 235.39857 257.21218 235.84961 256.35938 C 236.30064 255.50657 236.46394 254.5826 236.33789 253.58789 C 236.17458 252.46888 235.75263 251.60802 235.07422 251.00586 C 234.3958 250.4037 233.62417 249.98598 232.75586 249.75195 C 231.90603 249.49408 230.82447 249.27732 229.51172 249.09961 C 228.52447 248.94516 227.77581 248.81271 227.26758 248.70508 C 226.75667 248.57629 226.31245 248.37611 225.93359 248.10156 C 225.55474 247.82701 225.33635 247.45584 225.27734 246.99023 C 225.20225 246.39764 225.39508 245.889 225.85742 245.46484 C 226.31977 245.04069 227.02613 244.76912 227.97852 244.64844 C 228.95206 244.52507 229.75433 244.65954 230.38477 245.05273 C 231.0152 245.44593 231.4115 246.02966 231.57422 246.80469 L 235.19336 246.3457 C 234.88879 244.62098 234.0606 243.33916 232.70703 242.5 C 231.70572 241.85275 230.51977 241.52001 229.15039 241.5 z M 187.85156 242.25 L 175.66016 243.79492 L 178.46094 265.89062 L 190.65039 264.3457 L 190.27734 261.39258 L 181.70508 262.47852 L 180.84766 255.7168 L 188.4668 254.75195 L 188.09375 251.79883 L 180.47461 252.76367 L 179.6543 246.28906 L 188.22461 245.20312 L 187.85156 242.25 z M 247.48438 242.31836 C 248.17004 242.32017 248.83499 242.4577 249.48242 242.73047 C 250.34566 243.09417 251.07832 243.68842 251.67773 244.51562 C 252.29831 245.34015 252.68502 246.35615 252.83789 247.5625 C 252.99076 248.76885 252.87113 249.85956 252.47852 250.83398 C 252.10438 251.78456 251.54406 252.54381 250.79883 253.11133 C 250.0536 253.67885 249.21442 254.02067 248.2832 254.13867 C 247.37315 254.25399 246.4762 254.13055 245.5918 253.76953 C 244.72588 253.38467 243.98264 252.76952 243.35938 251.92383 C 242.75728 251.07546 242.37943 250.04815 242.22656 248.8418 C 242.07369 247.63544 242.18569 246.56808 242.5625 245.63867 C 242.9578 244.68541 243.52943 243.93503 244.27734 243.38867 C 245.02258 242.82115 245.8598 242.47933 246.79102 242.36133 C 247.02382 242.33183 247.25582 242.31775 247.48438 242.31836 z M 202.66016 244.81445 C 202.33023 244.81997 201.99431 244.84509 201.65039 244.88867 C 200.61335 245.02009 199.6537 245.34511 198.77344 245.86523 C 197.91434 246.38267 197.23578 247.03931 196.73438 247.83398 L 196.48047 245.83398 L 192.86133 246.29297 L 195.07812 263.78516 L 198.69727 263.32617 L 197.45703 253.54688 C 197.25857 251.98073 197.49926 250.73713 198.17773 249.8125 C 198.87469 248.86402 199.8994 248.3025 201.25391 248.13086 C 202.60841 247.95922 203.7327 248.24681 204.62305 248.99414 C 205.51071 249.72031 206.05349 250.86745 206.25195 252.43359 L 207.49023 262.21094 L 211.07812 261.75586 L 209.76953 251.43945 C 209.56839 249.85215 209.08988 248.53611 208.33398 247.49219 C 207.57808 246.44827 206.61435 245.71127 205.44141 245.2793 C 204.57757 244.95331 203.64993 244.79789 202.66016 244.81445 z " />
  <g
     id="g1036"
     transform="matrix(0.0070012,0.0612656,-0.0612656,0.0070012,299.14142,258.19131)"
     style="fill:#00374b;fill-opacity:1">
    <g
       id="g1034"
       style="fill:#00374b;fill-opacity:1">
      <path
         d="M 367.954,213.588 160.67,5.872 c -7.804,-7.819 -20.467,-7.831 -28.284,-0.029 -7.819,7.802 -7.832,20.465 -0.03,28.284 l 207.299,207.731 c 7.798,7.798 7.798,20.486 -0.015,28.299 L 132.356,477.873 c -7.802,7.819 -7.789,20.482 0.03,28.284 3.903,3.896 9.016,5.843 14.127,5.843 5.125,0 10.25,-1.958 14.157,-5.873 L 367.939,298.426 c 23.394,-23.394 23.394,-61.459 0.015,-84.838 z"
         id="path1032"
         style="fill:#00374b;fill-opacity:1" />
    </g>
  </g>
</svg>
