<?xml version="1.0" encoding="UTF-8" standalone="no"?>
<svg
   xmlns:dc="http://purl.org/dc/elements/1.1/"
   xmlns:cc="http://creativecommons.org/ns#"
   xmlns:rdf="http://www.w3.org/1999/02/22-rdf-syntax-ns#"
   xmlns:svg="http://www.w3.org/2000/svg"
   xmlns="http://www.w3.org/2000/svg"
   width="550.446"
   height="354.87"
   viewBox="0 0 550.446 354.87"
   version="1.1"
   id="svg116">
  <metadata
     id="metadata120">
    <rdf:RDF>
      <cc:Work
         rdf:about="">
        <dc:format>image/svg+xml</dc:format>
        <dc:type
           rdf:resource="http://purl.org/dc/dcmitype/StillImage" />
        <dc:title></dc:title>
      </cc:Work>
    </rdf:RDF>
  </metadata>
  <defs
     id="defs106">
    <filter
       id="Rectangle_139"
       x="0"
       y="31.478"
       width="550.446"
       height="323.391"
       filterUnits="userSpaceOnUse">
      <feOffset
         dx="12.84"
         dy="14.35"
         input="SourceAlpha"
         id="feOffset84" />
      <feGaussianBlur
         stdDeviation="5.67"
         result="blur"
         id="feGaussianBlur86" />
      <feFlood
         flood-opacity="0.102"
         id="feFlood88" />
      <feComposite
         operator="in"
         in2="blur"
         id="feComposite90"
         result="result1" />
      <feComposite
         in="SourceGraphic"
         in2="result1"
         id="feComposite92" />
    </filter>
    <filter
       id="Rectangle_123"
       x="212.705"
       y="0"
       width="71.051"
       height="122.092"
       filterUnits="userSpaceOnUse">
      <feOffset
         dy="3"
         input="SourceAlpha"
         id="feOffset95" />
      <feGaussianBlur
         stdDeviation="3"
         result="blur-2"
         id="feGaussianBlur97" />
      <feFlood
         flood-opacity="0.161"
         id="feFlood99" />
      <feComposite
         operator="in"
         in2="blur-2"
         id="feComposite101"
         result="result1" />
      <feComposite
         in="SourceGraphic"
         in2="result1"
         id="feComposite103" />
    </filter>
  </defs>
  <g
     id="Groupe_1663"
     data-name="Groupe 1663"
     transform="translate(-100.247 -3462.081)">
    <g
       id="Groupe_1662"
       data-name="Groupe 1662"
       transform="matrix(0.995, -0.105, 0.105, 0.995, 104.417, 3547.872)">
      <g
         transform="matrix(0.99, 0.1, -0.1, 0.99, 4.82, -85.76)"
         filter="url(#Rectangle_139)"
         id="g109">
        <rect
           id="Rectangle_139-2"
           data-name="Rectangle 139"
           width="494.148"
           height="239.028"
           transform="matrix(0.99, -0.1, 0.1, 0.99, 4.17, 85.79)"
           fill="#ededed" />
      </g>
    </g>
    <g
       transform="matrix(1, 0, 0, 1, 100.25, 3462.08)"
       filter="url(#Rectangle_123)"
       id="g113">
      <rect
         id="Rectangle_123-2"
         data-name="Rectangle 123"
         width="37.973"
         height="99.375"
         transform="translate(221.71 11.94) rotate(-9)"
         fill="#fff" />
    </g>
  </g>
  <path
     id="text124"
     style="font-size:56px;line-height:1.25;font-family:Poppins;-inkscape-font-specification:Poppins;letter-spacing:0px;word-spacing:0px;fill:#00374b;fill-opacity:1"
     d="M 328.21484 108.21289 C 327.95175 108.19664 327.68015 108.20525 327.40234 108.24023 C 326.25408 108.38485 325.34005 108.89567 324.66016 109.77148 C 323.98026 110.6473 323.71281 111.66033 323.85742 112.80859 C 324.00204 113.95686 324.51285 114.87089 325.38867 115.55078 C 326.26449 116.23067 327.27557 116.49813 328.42383 116.35352 C 329.53505 116.21357 330.43144 115.7059 331.11133 114.83008 C 331.79122 113.95426 332.05868 112.94123 331.91406 111.79297 C 331.76945 110.64471 331.25863 109.73067 330.38281 109.05078 C 329.72595 108.54086 329.00412 108.26165 328.21484 108.21289 z M 393 111.92773 C 392.42263 111.93695 391.83238 111.97888 391.23047 112.05469 C 389.41547 112.28327 387.73842 112.85269 386.19727 113.76172 C 384.69315 114.66609 383.50158 115.81312 382.62305 117.20312 L 382.18164 113.70312 L 375.84766 114.5 L 379.70312 145.11523 L 386.03711 144.31641 L 383.88281 127.20508 C 383.53761 124.46406 383.95986 122.28516 385.14844 120.66797 C 386.36939 119.00907 388.16455 118.02903 390.53516 117.73047 C 392.90576 117.43191 394.86868 117.93707 396.42578 119.24609 C 397.97822 120.51808 398.92823 122.52461 399.27344 125.26562 L 401.42773 142.37891 L 407.70703 141.58789 L 405.43164 123.53125 C 405.08177 120.75319 404.2472 118.44897 402.92578 116.62109 C 401.60436 114.79322 399.91731 113.50166 397.86523 112.74414 C 396.35396 112.1725 394.73212 111.90008 393 111.92773 z M 292.94531 112.6543 C 292.68222 112.63804 292.41257 112.64861 292.13477 112.68359 C 290.9865 112.82821 290.07247 113.33707 289.39258 114.21289 C 288.71269 115.08871 288.44523 116.10174 288.58984 117.25 C 288.73446 118.39826 289.24527 119.3123 290.12109 119.99219 C 290.99691 120.67208 292.00799 120.93954 293.15625 120.79492 C 294.26747 120.65497 295.16386 120.1473 295.84375 119.27148 C 296.52364 118.39567 296.7911 117.38264 296.64648 116.23438 C 296.50187 115.08611 295.99105 114.17208 295.11523 113.49219 C 294.45837 112.98227 293.73459 112.70306 292.94531 112.6543 z M 311.52539 114.86914 L 305.13672 115.67383 L 306.0957 123.28516 L 302.48242 123.74023 L 303.13477 128.9082 L 306.74609 128.45312 L 308.87891 145.39844 C 309.25677 148.39874 310.28995 150.47108 311.97656 151.61328 C 313.66317 152.75549 315.93302 153.14631 318.78516 152.78711 L 323.78516 152.1582 L 323.12109 146.87891 L 319.23047 147.36914 C 317.93404 147.53241 316.97758 147.40765 316.36133 146.99609 C 315.77745 146.54283 315.41414 145.74201 315.26953 144.59375 L 313.13477 127.64844 L 320.58008 126.71094 L 319.92969 121.54297 L 312.48438 122.48047 L 311.52539 114.86914 z M 280.80273 115.80273 L 274.41406 116.60742 L 276.27539 131.38672 C 274.9452 130.08674 273.24428 129.13399 271.17383 128.5293 C 269.13575 127.8829 267.11739 127.68755 265.11719 127.93945 C 262.41321 128.27999 260.03302 129.25578 257.97852 130.86914 C 255.95639 132.4408 254.44709 134.49346 253.44922 137.02734 C 252.48839 139.55656 252.2007 142.35921 252.58789 145.43359 C 252.97508 148.50797 253.95226 151.18853 255.51953 153.47461 C 257.11918 155.71898 259.09903 157.38715 261.45703 158.48242 C 263.84741 159.53599 266.37604 159.89642 269.04297 159.56055 C 271.41358 159.26199 273.44496 158.51586 275.13867 157.32422 C 276.86942 156.12791 278.15922 154.72358 279.00977 153.11133 L 279.5918 157.72266 L 285.98047 156.91797 L 280.80273 115.80273 z M 356.01562 116.61328 C 355.30859 116.62001 354.58898 116.66959 353.85742 116.76172 C 350.9312 117.13025 348.36358 118.11205 346.15625 119.70703 C 343.94892 121.30201 342.31143 123.39045 341.24414 125.9707 C 340.17685 128.55095 339.84057 131.39639 340.23242 134.50781 C 340.62894 137.65628 341.64456 140.35013 343.28125 142.58984 C 344.91327 144.79251 346.98092 146.41355 349.48242 147.45312 C 351.97926 148.45566 354.67137 148.77597 357.56055 148.41211 C 360.48676 148.04358 363.07203 147.05863 365.31641 145.45898 C 367.59316 143.81763 369.28435 141.70406 370.38867 139.11914 C 371.493 136.53423 371.84889 133.68759 371.45703 130.57617 C 371.06518 127.46475 370.0331 124.79169 368.35938 122.55664 C 366.68565 120.3216 364.58076 118.7049 362.04688 117.70703 C 360.14646 116.95863 358.13673 116.59308 356.01562 116.61328 z M 235.50781 118.34766 L 224.08203 126.67188 L 224.66992 131.33984 L 236.18555 123.73633 L 235.50781 118.34766 z M 332.04688 120.01758 L 325.71289 120.81445 L 329.56836 151.42969 L 335.90234 150.63086 L 332.04688 120.01758 z M 355.64844 122.19922 C 356.84748 122.19637 358.01149 122.4187 359.14062 122.86914 C 360.64614 123.46973 361.92284 124.49494 362.9707 125.94336 C 364.0139 127.35474 364.67713 129.17209 364.95703 131.39453 C 365.23693 133.61698 365.02899 135.56085 364.33594 137.22852 C 363.64289 138.89619 362.62397 140.21013 361.27734 141.16992 C 359.96776 142.12505 358.49698 142.70685 356.86719 142.91211 C 354.31138 143.23399 352.07037 142.6122 350.14258 141.04883 C 348.24716 139.44375 347.09096 136.99389 346.67578 133.69727 C 346.39588 131.47482 346.56777 129.55294 347.19141 127.93164 C 347.81037 126.2733 348.75675 124.96804 350.0293 124.01758 C 351.33888 123.06245 352.80966 122.4826 354.43945 122.27734 C 354.8469 122.22603 355.24876 122.20017 355.64844 122.19922 z M 296.7793 124.45898 L 290.44531 125.25586 L 294.30078 155.87109 L 300.63477 155.07227 L 296.7793 124.45898 z M 233.72461 132.01172 C 233.03176 132.01902 232.32386 132.06919 231.60156 132.16016 C 228.60126 132.53802 226.016 133.52101 223.8457 135.11133 C 221.71245 136.69698 220.14945 138.77478 219.15625 141.3457 C 218.19542 143.87492 217.91403 146.71482 218.31055 149.86328 C 218.70707 153.01174 219.70504 155.70875 221.30469 157.95312 C 222.93671 160.15579 224.98476 161.77803 227.44922 162.82227 C 229.94606 163.8248 232.65777 164.14197 235.58398 163.77344 C 239.17694 163.32094 242.06432 162.05383 244.24805 159.97266 C 246.46415 157.84977 247.8582 155.32234 248.42969 152.39062 L 241.5957 153.25195 C 240.54736 156.28136 238.31986 158.01028 234.91211 158.43945 C 232.5415 158.73801 230.44725 158.24903 228.63086 156.97266 C 226.81447 155.69628 225.66106 153.84715 225.16797 151.42578 L 248.55859 148.48047 C 248.59013 147.53579 248.53329 146.49006 248.38867 145.3418 C 248.01548 142.37854 247.05762 139.84502 245.51367 137.74414 C 243.96506 135.60622 241.98059 134.051 239.5625 133.07617 C 237.74893 132.34505 235.80316 131.98982 233.72461 132.01172 z M 268.29883 133.20312 C 269.49874 133.20722 270.66424 133.44756 271.79688 133.92578 C 273.30705 134.56341 274.5869 135.60822 275.63477 137.05664 C 276.71967 138.50039 277.39425 140.27735 277.66016 142.38867 C 277.92606 144.49999 277.71573 146.40857 277.02734 148.11328 C 276.37133 149.77629 275.39086 151.10354 274.08594 152.0957 C 272.78102 153.08787 271.31339 153.68537 269.68359 153.89062 C 268.09084 154.09122 266.51987 153.87515 264.97266 153.24219 C 263.45781 152.56752 262.15598 151.49056 261.06641 150.00977 C 260.01388 148.52431 259.35379 146.72656 259.08789 144.61523 C 258.82199 142.50391 259.02097 140.63378 259.68164 139.00781 C 260.37469 137.34014 261.37596 136.02934 262.68555 135.07422 C 263.99047 134.08205 265.45615 133.4826 267.08594 133.27734 C 267.49339 133.22603 267.89886 133.20176 268.29883 133.20312 z M 144.4082 135.46484 L 123.07227 138.15234 L 127.94336 176.82227 L 149.27734 174.13477 L 148.62695 168.96875 L 133.625 170.85742 L 132.13477 159.02344 L 145.4707 157.34375 L 144.81836 152.17578 L 131.48438 153.85547 L 130.05664 142.52148 L 145.05859 140.63086 L 144.4082 135.46484 z M 199.75195 136.29688 C 199.10482 136.29371 198.44798 136.334 197.78125 136.41797 C 195.44768 136.71186 193.41434 137.45799 191.68359 138.6543 C 189.95285 139.8506 188.6391 141.22084 187.74219 142.76367 L 187.17578 138.26172 L 180.8418 139.06055 L 186.53125 184.23047 L 192.86523 183.43359 L 190.4707 164.43164 C 191.79623 165.69458 193.42895 166.69326 195.36523 167.42773 C 197.29685 168.12517 199.42815 168.32709 201.76172 168.0332 C 204.42865 167.69733 206.7716 166.72589 208.78906 165.11719 C 210.8389 163.46678 212.34071 161.35727 213.29688 158.79102 C 214.24837 156.18772 214.53172 153.34977 214.14453 150.27539 C 213.75734 147.20101 212.7845 144.5577 211.22656 142.3457 C 209.66862 140.1337 207.69626 138.51848 205.31055 137.50195 C 203.54554 136.70828 201.69335 136.30636 199.75195 136.29688 z M 233.74609 137.44141 C 235.43922 137.49627 236.96306 137.97524 238.31836 138.87695 C 240.12542 140.07924 241.19446 141.84493 241.52539 144.17383 L 224.58008 146.30859 C 224.57785 143.90067 225.26728 141.91214 226.65039 140.3457 C 228.02883 138.74223 229.81069 137.80258 231.99609 137.52734 C 232.59801 137.45154 233.18172 137.42312 233.74609 137.44141 z M 176.17188 139.64844 L 169.56055 140.48047 L 164.64648 151.6543 L 156.72656 142.09766 L 149.55859 143 L 161.4082 157.3125 L 153.41406 173.61328 L 160.02539 172.78125 L 164.93945 161.60742 L 172.85938 171.16602 L 180.02734 170.26172 L 168.18555 156.00586 L 176.17188 139.64844 z M 198.29492 142.01953 C 199.49484 142.02363 200.66229 142.26397 201.79492 142.74219 C 203.33747 143.33811 204.63182 144.36018 205.67969 145.80859 C 206.75993 147.21531 207.43332 148.97462 207.69922 151.08594 C 207.96512 153.19726 207.75284 155.10584 207.06445 156.81055 C 206.41311 158.51059 205.41933 159.87824 204.08203 160.91211 C 202.77711 161.90427 201.30948 162.50177 199.67969 162.70703 C 198.08694 162.90762 196.51792 162.69156 194.9707 162.05859 C 193.46053 161.42097 192.16303 160.38125 191.07812 158.9375 C 190.0256 157.45204 189.36551 155.65234 189.09961 153.54102 C 188.83371 151.42969 189.02954 149.54386 189.68555 147.88086 C 190.3786 146.21319 191.37672 144.88279 192.68164 143.89062 C 194.0236 142.8938 195.49123 142.29434 197.08398 142.09375 C 197.49143 142.04244 197.89495 142.01817 198.29492 142.01953 z " />
  <path
     id="text951"
     style="font-size:32px;line-height:1.25;font-family:Poppins;-inkscape-font-specification:Poppins;letter-spacing:0px;word-spacing:0px;fill:#00374b;fill-opacity:1"
     d="M 351.9082 220.04102 L 348.28906 220.5 L 351.26562 243.99219 L 354.88477 243.5332 L 351.9082 220.04102 z M 385.46289 221.69141 C 385.00643 221.68474 384.53056 221.71432 384.0332 221.77734 C 382.69987 221.94631 381.54322 222.31867 380.5625 222.89453 C 379.60294 223.46771 378.89635 224.1804 378.44531 225.0332 C 377.9916 225.86484 377.8234 226.74651 377.94141 227.67773 C 378.08623 228.82059 378.50054 229.70285 379.18164 230.32617 C 379.8839 230.94681 380.6688 231.37339 381.53711 231.60742 C 382.40542 231.84145 383.51919 232.05649 384.87695 232.25 C 386.27973 232.45931 387.30695 232.68414 387.96094 232.92383 C 388.63609 233.16083 389.01452 233.60563 389.09766 234.26172 C 389.17543 234.87548 388.95407 235.42 388.43359 235.89453 C 387.9316 236.34521 387.17408 236.63494 386.1582 236.76367 C 385.18466 236.88704 384.33886 236.74738 383.62109 236.34375 C 382.92181 235.91627 382.4933 235.33621 382.33594 234.60352 L 378.58984 235.07812 C 378.76627 236.13097 379.22777 237.05062 379.97266 237.83789 C 380.71486 238.604 381.65705 239.17376 382.80078 239.54492 C 383.963 239.89224 385.23176 239.97901 386.60742 239.80469 C 387.96192 239.63304 389.10848 239.2619 390.04688 238.69141 C 391.00643 238.11823 391.71107 237.40358 392.16211 236.55078 C 392.61314 235.69798 392.77644 234.77401 392.65039 233.7793 C 392.48708 232.66028 392.06513 231.80138 391.38672 231.19922 C 390.7083 230.59706 389.93667 230.17739 389.06836 229.94336 C 388.21853 229.68548 387.13697 229.46873 385.82422 229.29102 C 384.83697 229.13657 384.08831 229.00607 383.58008 228.89844 C 383.06917 228.76965 382.62495 228.56752 382.24609 228.29297 C 381.86724 228.01842 381.64885 227.64725 381.58984 227.18164 C 381.51475 226.58905 381.70758 226.08236 382.16992 225.6582 C 382.63227 225.23405 383.33863 224.96053 384.29102 224.83984 C 385.26456 224.71648 386.06683 224.85094 386.69727 225.24414 C 387.3277 225.63734 387.724 226.22302 387.88672 226.99805 L 391.50586 226.53906 C 391.20129 224.81434 390.3731 223.53252 389.01953 222.69336 C 388.01822 222.0461 386.83227 221.71141 385.46289 221.69141 z M 373.26172 223.43164 L 369.64258 223.89062 L 370.87695 233.63672 C 371.07542 235.20286 370.82586 236.45973 370.12891 237.4082 C 369.45043 238.33283 368.43458 238.88109 367.08008 239.05273 C 365.72558 239.22438 364.60446 238.94687 363.7168 238.2207 C 362.82645 237.47337 362.28245 236.31614 362.08398 234.75 L 360.84766 225.00391 L 357.26172 225.45898 L 358.56445 235.74414 C 358.7656 237.33145 359.2441 238.64749 360 239.69141 C 360.77706 240.73264 361.7408 241.4716 362.89258 241.90625 C 364.06552 242.33822 365.34113 242.46729 366.7168 242.29297 C 367.75384 242.16155 368.70145 241.8358 369.56055 241.31836 C 370.43813 240.77707 371.11741 240.11035 371.59766 239.31836 L 371.85938 241.38281 L 375.47852 240.92383 L 373.26172 223.43164 z M 300.125 225.67773 C 299.97465 225.66856 299.82084 225.67324 299.66211 225.69336 C 299.00602 225.7765 298.48383 226.06955 298.0957 226.57031 C 297.70758 227.07108 297.55553 227.6486 297.63867 228.30469 C 297.72181 228.96077 298.01291 229.48297 298.51367 229.87109 C 299.01444 230.25922 299.59391 230.41126 300.25 230.32812 C 300.88492 230.24767 301.39703 229.9578 301.78516 229.45703 C 302.17328 228.95627 302.32533 228.37874 302.24219 227.72266 C 302.15905 227.06657 301.866 226.54438 301.36523 226.15625 C 300.98966 225.86516 300.57604 225.70525 300.125 225.67773 z M 338.33789 227.63867 C 337.9681 227.63715 337.59384 227.66071 337.21289 227.70898 C 335.87955 227.87795 334.71699 228.30587 333.72852 228.99023 C 332.74004 229.6746 331.99036 230.45783 331.47852 231.33984 L 331.15234 228.76758 L 327.5332 229.22656 L 330.80469 255.03516 L 334.42383 254.57812 L 333.04688 243.7207 C 333.80487 244.4418 334.73893 245.01084 335.8457 245.42969 C 336.94979 245.82738 338.16862 245.9424 339.50195 245.77344 C 341.02577 245.58034 342.36349 245.02366 343.51562 244.10352 C 344.68624 243.15953 345.54264 241.95318 346.08789 240.48633 C 346.63046 238.99831 346.79096 237.37576 346.56836 235.61914 C 346.34576 233.86252 345.78966 232.35316 344.89844 231.08984 C 344.00722 229.82653 342.87934 228.906 341.51562 228.32617 C 340.5067 227.87342 339.44727 227.64324 338.33789 227.63867 z M 315.89453 230.41016 C 314.68818 230.56303 313.67218 230.94973 312.84766 231.57031 C 312.04161 232.16705 311.43013 232.94445 311.01367 233.90039 L 310.69141 231.36133 L 307.07227 231.81836 L 309.28906 249.31055 L 312.9082 248.85352 L 311.74219 239.64648 C 311.51691 237.8687 311.71731 236.57444 312.3457 235.76367 C 312.99526 234.95023 314.02927 234.45313 315.44727 234.27344 L 316.36914 234.15625 L 315.89453 230.41016 z M 337.50781 230.91016 C 338.19348 230.91197 338.86038 231.04949 339.50781 231.32227 C 340.38953 231.66212 341.13105 232.24506 341.73047 233.07227 C 342.34837 233.87563 342.73385 234.87958 342.88672 236.08594 C 343.03959 237.29229 342.91996 238.383 342.52734 239.35742 C 342.15589 240.32916 341.58793 241.11176 340.82422 241.70312 C 340.07899 242.27065 339.23981 242.61246 338.30859 242.73047 C 337.39854 242.84579 336.50159 242.72234 335.61719 242.36133 C 334.75395 241.99763 334.01316 241.4046 333.39258 240.58008 C 332.79048 239.73171 332.41264 238.7044 332.25977 237.49805 C 332.1069 236.29169 332.21766 235.21229 332.5918 234.26172 C 332.98709 233.30846 333.5575 232.54799 334.30273 231.98047 C 335.06913 231.41026 335.90635 231.06845 336.81641 230.95312 C 337.04921 230.92362 337.27926 230.90955 337.50781 230.91016 z M 302.32031 232.42188 L 298.70117 232.87891 L 300.91797 250.37109 L 304.53711 249.91406 L 302.32031 232.42188 z M 287.36914 234.0957 C 286.96512 234.09986 286.55471 234.12867 286.13672 234.18164 C 284.46476 234.39351 282.99892 234.95675 281.73828 235.86914 C 280.47765 236.78153 279.54234 237.97432 278.93359 239.44922 C 278.32485 240.92412 278.13409 242.55034 278.35938 244.32812 C 278.58734 246.12707 279.16924 247.6662 280.10547 248.94531 C 281.03902 250.20326 282.2205 251.12776 283.65039 251.7207 C 285.0776 252.29248 286.61678 252.47482 288.26758 252.26562 C 289.93954 252.05375 291.41547 251.48929 292.69727 250.57422 C 293.99755 249.6353 294.96384 248.42875 295.59375 246.95117 C 296.22366 245.47359 296.4245 243.84419 296.19922 242.06641 C 295.97394 240.28862 295.38318 238.76276 294.42578 237.48633 C 293.46838 236.20989 292.26477 235.2859 290.81641 234.7168 C 289.73013 234.28997 288.58119 234.08323 287.36914 234.0957 z M 275.69141 235.79492 L 271.84961 236.2832 L 268.70312 251.16406 L 261.94531 237.53711 L 258.07227 238.0293 L 266.92383 254.67969 L 271.24023 254.13281 L 275.69141 235.79492 z M 287.16406 237.28711 C 287.84923 237.28496 288.51279 237.41302 289.1582 237.66992 C 290.01876 238.01245 290.75019 238.59662 291.34961 239.42383 C 291.94634 240.22987 292.32541 241.26726 292.48633 242.53711 C 292.64724 243.80695 292.53006 244.91979 292.13477 245.87305 C 291.73947 246.8263 291.1558 247.57791 290.38672 248.12695 C 289.6388 248.67331 288.80036 249.00504 287.86914 249.12305 C 286.40882 249.3081 285.12767 248.95305 284.02539 248.06055 C 282.94159 247.14419 282.27971 245.74493 282.04102 243.86133 C 281.8801 242.59148 281.97833 241.49314 282.33398 240.56641 C 282.68695 239.61851 283.22637 238.87376 283.95312 238.33008 C 284.70104 237.78372 285.53948 237.45004 286.4707 237.33203 C 286.70351 237.30253 286.93567 237.28783 287.16406 237.28711 z M 255.38281 238.36914 L 251.73047 238.83203 L 252.05273 241.37109 C 251.33706 240.64463 250.42831 240.08323 249.32422 239.68555 C 248.23861 239.26401 247.00652 239.14013 245.63086 239.31445 C 244.10705 239.50755 242.75923 240.06546 241.58594 240.98828 C 240.43112 241.88726 239.5691 243.0614 239 244.50977 C 238.45206 245.95545 238.28912 247.55588 238.51172 249.3125 C 238.73432 251.06912 239.29482 252.60061 240.19141 253.90625 C 241.10647 255.18805 242.23803 256.14079 243.58594 256.76562 C 244.93117 257.3693 246.35477 257.57714 247.85742 257.38672 C 249.21192 257.21508 250.38262 256.78592 251.37109 256.10156 C 252.35957 255.4172 253.10802 254.62388 253.61719 253.7207 L 253.94727 256.32422 L 257.59766 255.86133 L 255.38281 238.36914 z M 229.15039 241.5 C 228.69393 241.49333 228.21806 241.52096 227.7207 241.58398 C 226.38737 241.75295 225.23072 242.12531 224.25 242.70117 C 223.29044 243.27435 222.58385 243.98704 222.13281 244.83984 C 221.6791 245.67148 221.5109 246.55316 221.62891 247.48438 C 221.77373 248.62724 222.18804 249.51144 222.86914 250.13477 C 223.5714 250.7554 224.3563 251.18199 225.22461 251.41602 C 226.09292 251.65005 227.20669 251.86313 228.56445 252.05664 C 229.96723 252.26595 230.99445 252.49078 231.64844 252.73047 C 232.32359 252.96747 232.70202 253.41423 232.78516 254.07031 C 232.86293 254.68407 232.64157 255.2286 232.12109 255.70312 C 231.6191 256.15381 230.86158 256.44353 229.8457 256.57227 C 228.87216 256.69563 228.02636 256.55598 227.30859 256.15234 C 226.60931 255.72486 226.1808 255.14481 226.02344 254.41211 L 222.27734 254.88672 C 222.45377 255.93956 222.91527 256.85921 223.66016 257.64648 C 224.40236 258.41259 225.34455 258.9804 226.48828 259.35156 C 227.6505 259.69888 228.91926 259.78565 230.29492 259.61133 C 231.64942 259.43968 232.79598 259.06854 233.73438 258.49805 C 234.69393 257.92487 235.39857 257.21218 235.84961 256.35938 C 236.30064 255.50657 236.46394 254.5826 236.33789 253.58789 C 236.17458 252.46888 235.75263 251.60802 235.07422 251.00586 C 234.3958 250.4037 233.62417 249.98598 232.75586 249.75195 C 231.90603 249.49408 230.82447 249.27732 229.51172 249.09961 C 228.52447 248.94516 227.77581 248.81271 227.26758 248.70508 C 226.75667 248.57629 226.31245 248.37611 225.93359 248.10156 C 225.55474 247.82701 225.33635 247.45584 225.27734 246.99023 C 225.20225 246.39764 225.39508 245.889 225.85742 245.46484 C 226.31977 245.04069 227.02613 244.76912 227.97852 244.64844 C 228.95206 244.52507 229.75433 244.65954 230.38477 245.05273 C 231.0152 245.44593 231.4115 246.02966 231.57422 246.80469 L 235.19336 246.3457 C 234.88879 244.62098 234.0606 243.33916 232.70703 242.5 C 231.70572 241.85275 230.51977 241.52001 229.15039 241.5 z M 187.85156 242.25 L 175.66016 243.79492 L 178.46094 265.89062 L 190.65039 264.3457 L 190.27734 261.39258 L 181.70508 262.47852 L 180.84766 255.7168 L 188.4668 254.75195 L 188.09375 251.79883 L 180.47461 252.76367 L 179.6543 246.28906 L 188.22461 245.20312 L 187.85156 242.25 z M 247.48438 242.31836 C 248.17004 242.32017 248.83499 242.4577 249.48242 242.73047 C 250.34566 243.09417 251.07832 243.68842 251.67773 244.51562 C 252.29831 245.34015 252.68502 246.35615 252.83789 247.5625 C 252.99076 248.76885 252.87113 249.85956 252.47852 250.83398 C 252.10438 251.78456 251.54406 252.54381 250.79883 253.11133 C 250.0536 253.67885 249.21442 254.02067 248.2832 254.13867 C 247.37315 254.25399 246.4762 254.13055 245.5918 253.76953 C 244.72588 253.38467 243.98264 252.76952 243.35938 251.92383 C 242.75728 251.07546 242.37943 250.04815 242.22656 248.8418 C 242.07369 247.63544 242.18569 246.56808 242.5625 245.63867 C 242.9578 244.68541 243.52943 243.93503 244.27734 243.38867 C 245.02258 242.82115 245.8598 242.47933 246.79102 242.36133 C 247.02382 242.33183 247.25582 242.31775 247.48438 242.31836 z M 202.66016 244.81445 C 202.33023 244.81997 201.99431 244.84509 201.65039 244.88867 C 200.61335 245.02009 199.6537 245.34511 198.77344 245.86523 C 197.91434 246.38267 197.23578 247.03931 196.73438 247.83398 L 196.48047 245.83398 L 192.86133 246.29297 L 195.07812 263.78516 L 198.69727 263.32617 L 197.45703 253.54688 C 197.25857 251.98073 197.49926 250.73713 198.17773 249.8125 C 198.87469 248.86402 199.8994 248.3025 201.25391 248.13086 C 202.60841 247.95922 203.7327 248.24681 204.62305 248.99414 C 205.51071 249.72031 206.05349 250.86745 206.25195 252.43359 L 207.49023 262.21094 L 211.07812 261.75586 L 209.76953 251.43945 C 209.56839 249.85215 209.08988 248.53611 208.33398 247.49219 C 207.57808 246.44827 206.61435 245.71127 205.44141 245.2793 C 204.57757 244.95331 203.64993 244.79789 202.66016 244.81445 z " />
  <g
     id="g1036"
     transform="matrix(0.0070012,0.0612656,-0.0612656,0.0070012,299.14142,258.19131)"
     style="fill:#00374b;fill-opacity:1">
    <g
       id="g1034"
       style="fill:#00374b;fill-opacity:1">
      <path
         d="M 367.954,213.588 160.67,5.872 c -7.804,-7.819 -20.467,-7.831 -28.284,-0.029 -7.819,7.802 -7.832,20.465 -0.03,28.284 l 207.299,207.731 c 7.798,7.798 7.798,20.486 -0.015,28.299 L 132.356,477.873 c -7.802,7.819 -7.789,20.482 0.03,28.284 3.903,3.896 9.016,5.843 14.127,5.843 5.125,0 10.25,-1.958 14.157,-5.873 L 367.939,298.426 c 23.394,-23.394 23.394,-61.459 0.015,-84.838 z"
         id="path1032"
         style="fill:#00374b;fill-opacity:1" />
    </g>
  </g>
</svg>
