<?xml version="1.0" encoding="UTF-8" standalone="no"?>
<svg
   xmlns:dc="http://purl.org/dc/elements/1.1/"
   xmlns:cc="http://creativecommons.org/ns#"
   xmlns:rdf="http://www.w3.org/1999/02/22-rdf-syntax-ns#"
   xmlns:svg="http://www.w3.org/2000/svg"
   xmlns="http://www.w3.org/2000/svg"
   width="435.668"
   height="435.667"
   viewBox="0 0 435.668 435.667"
   version="1.1"
   id="svg1515">
  <metadata
     id="metadata1519">
    <rdf:RDF>
      <cc:Work
         rdf:about="">
        <dc:format>image/svg+xml</dc:format>
        <dc:type
           rdf:resource="http://purl.org/dc/dcmitype/StillImage" />
        <dc:title></dc:title>
      </cc:Work>
    </rdf:RDF>
  </metadata>
  <defs
     id="defs1386">
    <filter
       id="Tracé_2281"
       x="0"
       y="0"
       width="435.668"
       height="435.667"
       filterUnits="userSpaceOnUse">
      <feOffset
         dx="12.84"
         dy="14.35"
         input="SourceAlpha"
         id="feOffset1375" />
      <feGaussianBlur
         stdDeviation="5.67"
         result="blur"
         id="feGaussianBlur1377" />
      <feFlood
         flood-opacity="0.161"
         id="feFlood1379" />
      <feComposite
         operator="in"
         in2="blur"
         id="feComposite1381"
         result="result1" />
      <feComposite
         in="SourceGraphic"
         in2="result1"
         id="feComposite1383" />
    </filter>
  </defs>
  <g
     id="Groupe_1979"
     data-name="Groupe 1979"
     transform="matrix(0.998, 0.07, -0.07, 0.998, -1028.593, -3988.07)">
    <g
       id="Groupe_1978"
       data-name="Groupe 1978"
       transform="translate(1334.813 3907.135)">
      <g
         id="Groupe_1934"
         data-name="Groupe 1934">
        <g
           transform="matrix(1, -0.07, 0.07, 1, -30.53, -0.53)"
           filter="url(#Tracé_2281)"
           id="g1389">
          <path
             id="Tracé_2281-2"
             data-name="Tracé 2281"
             d="M188.157,0C292.073,0,376.314,84.241,376.314,188.157S292.073,376.314,188.157,376.314,0,292.073,0,188.157,84.241,0,188.157,0Z"
             transform="matrix(1, 0.07, -0.07, 1, 30.42, 2.66)"
             fill="#fff" />
        </g>
      </g>
      <path
         id="Tracé_2246"
         data-name="Tracé 2246"
         d="M4601.6,3068.508a4.385,4.385,0,0,0-1.632,8.618l6.387,1.209q.485-4.367,1.244-8.692Z"
         transform="translate(-4554.268 -2906.577)"
         fill="#fff" />
      <g
         id="g2164"
         transform="matrix(1.0476664,0,0,1.0476664,-6.9321453,-9.190943)">
        <g
           id="Groupe_1939"
           data-name="Groupe 1939"
           transform="matrix(1.0998834,0,0,1.0998834,84.131004,286.54624)">
          <path
             id="Tracé_2225"
             data-name="Tracé 2225"
             d="M 4670.118,3229.88"
             transform="translate(-4670.118,-3229.88)"
             fill="#161615" />
        </g>
        <g
           id="Groupe_1940"
           data-name="Groupe 1940"
           transform="matrix(1.0998834,0,0,1.0998834,68.361975,70.690816)">
          <path
             id="Tracé_2226"
             data-name="Tracé 2226"
             d="m 4762.906,3163.079 a 114.379,114.379 0 1 1 114.38,-114.379 114.508,114.508 0 0 1 -114.38,114.379 z m 0,-224.623 A 110.244,110.244 0 1 0 4873.15,3048.7 110.369,110.369 0 0 0 4762.906,2938.457 Z"
             transform="translate(-4648.527,-2934.321)" />
        </g>
        <path
           id="Tracé_2227"
           data-name="Tracé 2227"
           d="M 288.54983,87.528931 A 144.06713,144.06713 0 0 0 72.483238,119.14508 l 6.599301,4.92858 a 4.8235547,4.8235547 0 1 1 -5.768889,7.73218 l -5.772188,-4.30715 c -0.05829,0.10999 -0.117688,0.20898 -0.175981,0.31567 a 143.77676,143.77676 0 0 0 -15.28838,43.95024 l 6.553106,1.23957 a 4.8240887,4.8240887 0 1 1 -1.79501,9.4788 l -6.096654,-1.15378 A 144.14852,144.14852 0 0 0 153.27957,334.81132 l 1.34186,-5.18595 a 4.8242793,4.8242793 0 0 1 9.34021,2.41974 l -1.34516,5.19475 a 143.88675,143.88675 0 0 0 26.96254,3.40304 l 0.35637,-6.84787 a 4.8240887,4.8240887 0 1 1 9.63497,0.50155 l -0.32996,6.32653 A 144.50158,144.50158 0 0 0 332.31969,237.8775 l -7.13824,-2.13488 a 4.8240887,4.8240887 0 1 1 2.76511,-9.23902 l 6.83907,2.04688 a 144.18592,144.18592 0 0 0 3.59442,-32.0473 145.78405,145.78405 0 0 0 -1.10758,-17.86981 l -6.40462,1.19448 a 4.8240887,4.8240887 0 1 1 -1.76752,-9.4843 l 6.662,-1.24177 a 144.45209,144.45209 0 0 0 -47.2125,-81.572849 z"
           fill="none"
           style="stroke-width:1.09988" />
        <path
           id="Tracé_2228"
           data-name="Tracé 2228"
           d="m 162.62858,337.23546 -2.41974,9.34901 a 153.52723,153.52723 0 0 0 28.87964,3.69121 l 0.50154,-9.63498 a 143.87575,143.87575 0 0 1 -26.96144,-3.40524 z"
           fill="#bababa"
           style="stroke-width:1.09988" />
        <path
           id="Tracé_2229"
           data-name="Tracé 2229"
           d="m 199.2525,340.61981 -0.50375,9.67897 C 266.2519,348.31899 322.97398,302.64303 341.57521,240.6404 l -9.23902,-2.764 A 144.50158,144.50158 0 0 1 199.2525,340.61981 Z"
           fill="#002b3b"
           style="stroke-width:1.09988" />
        <path
           id="Tracé_2230"
           data-name="Tracé 2230"
           d="m 67.37318,127.81106 c 0.05719,-0.10999 0.117687,-0.20898 0.174881,-0.31567 l -7.802573,-5.82168 c -0.28377,0.50815 -0.568639,1.01519 -0.84801,1.52664 a 153.43374,153.43374 0 0 0 -16.288173,46.76704 l 9.479895,1.79391 a 143.74156,143.74156 0 0 1 15.28398,-43.95024 z"
           fill="#d43a29"
           style="stroke-width:1.09988" />
        <path
           id="Tracé_2231"
           data-name="Tracé 2231"
           d="m 49.943327,196.49438 a 143.71297,143.71297 0 0 1 0.806215,-15.16629 l -9.509592,-1.79941 a 153.34465,153.34465 0 0 0 -0.9448,16.9668 c 0,69.8184 46.745045,128.91514 110.57678,147.66155 l 2.41974,-9.34901 A 144.47739,144.47739 0 0 1 49.943327,196.49438 Z"
           fill="#002b3b"
           style="stroke-width:1.09988" />
        <path
           id="Tracé_2232"
           data-name="Tracé 2232"
           d="M 194.16664,52.268868 A 144.46859,144.46859 0 0 1 335.77443,169.09189 l 9.48429,-1.76752 A 153.84289,153.84289 0 0 0 64.73456,113.35749 l 7.748678,5.78319 A 144.26291,144.26291 0 0 1 194.16664,52.268868 Z"
           fill="#61b8c6"
           style="stroke-width:1.09988" />
        <path
           id="Tracé_2233"
           data-name="Tracé 2233"
           d="m 338.39105,196.49328 a 144.18482,144.18482 0 0 1 -3.59442,32.0473 l 9.26872,2.77171 a 153.8165,153.8165 0 0 0 3.97388,-34.81791 155.44102,155.44102 0 0 0 -1.25387,-19.63952 l -9.50299,1.76972 a 145.67956,145.67956 0 0 1 1.10868,17.8687 z"
           fill="#d43a29"
           style="stroke-width:1.09988" />
        <path
           id="Tracé_2234"
           data-name="Tracé 2234"
           d="m 357.38164,169.97289 a 4.8240887,4.8240887 0 0 0 -5.62591,-3.85839 l -6.49811,1.20987 c 0.37946,1.96769 0.72703,3.94309 1.03059,5.92947 0.18148,1.19558 0.34427,2.39665 0.49825,3.59992 l 6.73679,-1.25606 a 4.8240887,4.8240887 0 0 0 3.85839,-5.62481 z"
           fill="#ffffff"
           style="stroke-width:1.09988" />
        <path
           id="Tracé_2235"
           data-name="Tracé 2235"
           d="m 325.25294,175.95846 a 4.8174894,4.8174894 0 0 0 5.62591,3.85949 l 6.40572,-1.19337 c -0.16169,-1.30997 -0.33657,-2.61773 -0.53455,-3.91889 -0.28597,-1.8808 -0.61483,-3.7506 -0.97559,-5.6094 l -6.662,1.24176 a 4.8229888,4.8229888 0 0 0 -3.85949,5.62041 z"
           fill="#ffffff"
           style="stroke-width:1.09988" />
        <path
           id="Tracé_2236"
           data-name="Tracé 2236"
           d="m 345.25542,167.32437 -9.48319,1.76642 c 0.36076,1.8621 0.68962,3.733 0.97559,5.6094 0.19798,1.30116 0.37286,2.60892 0.53455,3.91889 l 9.50189,-1.77082 c -0.15398,-1.20327 -0.31677,-2.40434 -0.49825,-3.59881 -0.30026,-1.98199 -0.64893,-3.95739 -1.03059,-5.92508 z"
           fill="#ffffff"
           style="stroke-width:1.09988" />
        <path
           id="Tracé_2237"
           data-name="Tracé 2237"
           d="m 321.95439,229.73396 a 4.8229888,4.8229888 0 0 0 3.24026,6.00426 l 7.13824,2.13488 q 1.38366,-4.60522 2.46484,-9.33252 l -6.83907,-2.04688 a 4.8273883,4.8273883 0 0 0 -6.00427,3.24026 z"
           fill="#ffffff"
           style="stroke-width:1.09988" />
        <path
           id="Tracé_2238"
           data-name="Tracé 2238"
           d="m 347.26051,242.33752 a 4.8240887,4.8240887 0 1 0 2.76401,-9.23902 l -5.96027,-1.78181 c -0.73032,3.14787 -1.56843,6.25504 -2.49014,9.32591 z"
           fill="#ffffff"
           style="stroke-width:1.09988" />
        <path
           id="Tracé_2239"
           data-name="Tracé 2239"
           d="m 332.33179,237.8742 9.23902,2.764 c 0.92061,-3.07087 1.75982,-6.17804 2.48904,-9.32591 l -9.26762,-2.77171 q -1.07238,4.7295 -2.46044,9.33362 z"
           fill="#ffffff"
           style="stroke-width:1.09988" />
        <path
           id="Tracé_2240"
           data-name="Tracé 2240"
           d="m 195.01465,329.22391 a 4.8339876,4.8339876 0 0 0 -5.06827,4.56672 l -0.35526,6.84787 c 1.52004,0.0473 3.04448,0.0803 4.57552,0.0803 1.70372,0 3.39754,-0.0407 5.08586,-0.099 l 0.32996,-6.32653 a 4.8251886,4.8251886 0 0 0 -4.56781,-5.06937 z"
           fill="#ffffff"
           style="stroke-width:1.09988" />
        <path
           id="Tracé_2241"
           data-name="Tracé 2241"
           d="m 189.08848,350.27458 -0.33987,6.51901 a 4.8240887,4.8240887 0 0 0 4.56562,5.06826 c 0.0858,0 0.17048,0.007 0.25517,0.007 a 4.8240887,4.8240887 0 0 0 4.81309,-4.57331 l 0.36516,-7.00076 c -1.52334,0.0451 -3.04888,0.0737 -4.58321,0.0737 -1.69822,-10e-4 -3.38984,-0.0385 -5.07596,-0.0935 z"
           fill="#ffffff"
           style="stroke-width:1.09988" />
        <path
           id="Tracé_2242"
           data-name="Tracé 2242"
           d="m 194.16664,340.71879 c -1.53214,0 -3.05548,-0.0319 -4.57662,-0.0803 l -0.50154,9.63498 c 1.68612,0.055 3.37774,0.0924 5.07816,0.0924 1.53433,0 3.05877,-0.0297 4.58211,-0.0737 l 0.50375,-9.67897 c -1.68942,0.066 -3.37884,0.10558 -5.08586,0.10558 z"
           fill="#ffffff"
           style="stroke-width:1.09988" />
        <path
           id="Tracé_2243"
           data-name="Tracé 2243"
           d="m 148.86244,351.92331 a 4.8242793,4.8242793 0 1 0 9.34021,2.41974 l 2.00619,-7.75638 q -4.7295,-1.06798 -9.33801,-2.42744 z"
           fill="#ffffff"
           style="stroke-width:1.09988" />
        <path
           id="Tracé_2244"
           data-name="Tracé 2244"
           d="m 160.5124,326.16184 a 4.8196892,4.8196892 0 0 0 -5.87887,3.46133 l -1.34296,5.18595 q 4.60961,1.36386 9.33801,2.42524 l 1.34516,-5.19475 a 4.8251886,4.8251886 0 0 0 -3.46134,-5.87777 z"
           fill="#ffffff"
           style="stroke-width:1.09988" />
        <path
           id="Tracé_2245"
           data-name="Tracé 2245"
           d="m 153.28727,334.81022 -2.41974,9.34901 q 4.61071,1.35396 9.33691,2.42744 l 2.41974,-9.34901 q -4.7262,-1.05918 -9.33691,-2.42744 z"
           fill="#ffffff"
           style="stroke-width:1.09988" />
        <path
           id="Tracé_2247"
           data-name="Tracé 2247"
           d="m 57.7481,182.56656 a 4.8240887,4.8240887 0 0 0 0.892005,-9.56899 L 52.087,171.758 q -0.829312,4.7548 -1.338558,9.56899 l 6.096654,1.15378 a 4.8075904,4.8075904 0 0 0 0.903004,0.0858 z"
           fill="#ffffff"
           style="stroke-width:1.09988" />
        <path
           id="Tracé_2248"
           data-name="Tracé 2248"
           d="m 52.0881,171.7613 -9.478795,-1.79391 q -0.834812,4.7537 -1.369355,9.55909 l 9.509592,1.79941 q 0.509246,-4.80429 1.338558,-9.56459 z"
           fill="#ffffff"
           style="stroke-width:1.09988" />
        <path
           id="Tracé_2249"
           data-name="Tracé 2249"
           d="m 60.629795,110.29762 a 4.8240887,4.8240887 0 1 0 -5.769989,7.73218 l 4.884582,3.64501 q 2.374649,-4.25105 4.990172,-8.31402 z"
           fill="#ffffff"
           style="stroke-width:1.09988" />
        <path
           id="Tracé_2250"
           data-name="Tracé 2250"
           d="m 76.201944,132.76164 a 4.8240887,4.8240887 0 0 0 2.887194,-8.68908 l -6.6048,-4.92858 q -2.595725,4.06957 -4.936277,8.35361 l 5.772189,4.30715 a 4.8009911,4.8009911 0 0 0 2.881694,0.9569 z"
           fill="#ffffff"
           style="stroke-width:1.09988" />
        <path
           id="Tracé_2251"
           data-name="Tracé 2251"
           d="m 72.484338,119.13958 -7.749778,-5.78209 q -2.613323,4.06077 -4.989072,8.31402 l 7.802573,5.82169 q 2.338352,-4.27415 4.936277,-8.35362 z"
           fill="#ffffff"
           style="stroke-width:1.09988" />
        <g
           id="Groupe_1941"
           data-name="Groupe 1941"
           transform="matrix(1.0998834,0,0,1.0998834,193.09315,66.938013)">
          <path
             id="Tracé_2252"
             data-name="Tracé 2252"
             d="m 4820.29,2940.487 a 0.975,0.975 0 0 1 -0.975,-0.975 v -9.355 a 0.975,0.975 0 1 1 1.949,0 v 9.355 a 0.974,0.974 0 0 1 -0.974,0.975 z"
             transform="translate(-4819.315,-2929.182)" />
        </g>
        <g
           id="Groupe_1942"
           data-name="Groupe 1942"
           transform="matrix(1.0998834,0,0,1.0998834,64.73456,195.422)">
          <path
             id="Tracé_2253"
             data-name="Tracé 2253"
             d="m 4654.864,3106.084 a 0.975,0.975 0 0 1 -0.974,0.975 h -9.354 a 0.975,0.975 0 1 1 0,-1.95 h 9.354 a 0.975,0.975 0 0 1 0.974,0.975 z"
             transform="translate(-4643.56,-3105.109)" />
        </g>
        <g
           id="Groupe_1943"
           data-name="Groupe 1943"
           transform="matrix(1.0998834,0,0,1.0998834,311.87946,195.12283)">
          <path
             id="Tracé_2254"
             data-name="Tracé 2254"
             d="m 4993.267,3105.674 a 0.975,0.975 0 0 1 -0.975,0.975 h -9.354 a 0.975,0.975 0 1 1 0,-1.949 h 9.354 a 0.974,0.974 0 0 1 0.975,0.974 z"
             transform="translate(-4981.962,-3104.699)" />
        </g>
        <g
           id="Groupe_1944"
           data-name="Groupe 1944"
           transform="matrix(1.0998834,0,0,1.0998834,193.09315,313.57367)">
          <path
             id="Tracé_2255"
             data-name="Tracé 2255"
             d="m 4820.29,3278.191 a 0.975,0.975 0 0 1 -0.975,-0.975 v -9.355 a 0.975,0.975 0 0 1 1.949,0 v 9.355 a 0.974,0.974 0 0 1 -0.974,0.975 z"
             transform="translate(-4819.315,-3266.887)" />
        </g>
        <path
           id="text1552"
           style="font-size:24.1865px;line-height:1.25;font-family:Poppins;-inkscape-font-specification:Poppins;letter-spacing:0px;word-spacing:0px;stroke-width:1.15231;fill:#00374b;fill-opacity:1"
           d="M 127.99414 146.21289 L 126.65625 163.85742 L 130.19531 164.125 L 131.06445 152.64844 L 134.94727 164.48438 L 137.62695 164.6875 L 143.22461 153.57031 L 142.35547 165.04688 L 145.89453 165.31445 L 147.23047 147.66992 L 143.23633 147.36719 L 136.63086 160.06055 L 132.01367 146.51758 L 127.99414 146.21289 z M 155.77344 151.80664 C 154.80108 151.84737 153.88727 152.06427 153.03125 152.45703 C 151.89116 152.96387 150.95971 153.74023 150.23633 154.78711 C 149.5298 155.83526 149.1222 157.07537 149.01367 158.50781 C 148.90514 159.94025 149.11303 161.22778 149.63672 162.36914 C 150.17726 163.51178 150.96352 164.42684 151.99609 165.11523 C 153.02995 165.78678 154.22018 166.17324 155.56836 166.27539 C 156.93339 166.37881 158.18609 166.17676 159.32617 165.66992 C 160.48439 165.14751 161.42506 164.36328 162.14844 163.31641 C 162.88867 162.27081 163.31334 161.03205 163.42188 159.59961 C 163.5304 158.16717 163.30544 156.87828 162.74805 155.73438 C 162.20751 154.59174 161.41204 153.68454 160.36133 153.01172 C 159.3119 152.32204 158.11382 151.92637 156.76562 151.82422 C 156.42858 151.79868 156.09756 151.79306 155.77344 151.80664 z M 166.57422 152.79688 L 165.51172 166.80078 L 169.05078 167.06836 L 169.63672 159.33398 C 169.72099 158.22174 170.0652 157.39144 170.66602 156.84375 C 171.28496 156.28048 172.08312 156.03532 173.06055 156.10938 C 174.02113 156.18214 174.75547 156.54259 175.26562 157.19141 C 175.77707 157.82337 175.99052 158.69634 175.90625 159.80859 L 175.32031 167.54297 L 178.85938 167.8125 L 179.48242 159.5957 C 179.62543 157.70825 179.22226 156.2028 178.27344 155.08008 C 177.32589 153.9405 176.01798 153.30805 174.34961 153.18164 C 173.47329 153.11525 172.65113 153.23158 171.88281 153.5293 C 171.13263 153.81144 170.4983 154.23766 169.98047 154.80859 L 170.11328 153.06445 L 166.57422 152.79688 z M 251.30859 153.36914 C 250.68506 153.3219 250.14726 153.48489 249.69531 153.85742 C 249.26149 154.21438 249.0232 154.68751 248.97852 155.27734 C 248.93383 155.86717 249.09885 156.37936 249.47266 156.81445 C 249.8646 157.23398 250.37061 157.46839 250.99414 157.51562 C 251.61767 157.56287 252.14626 157.40774 252.58008 157.05078 C 253.03203 156.67825 253.28148 156.19725 253.32617 155.60742 C 253.37086 155.01759 253.19663 154.51132 252.80469 154.0918 C 252.43088 153.6567 251.93213 153.41638 251.30859 153.36914 z M 194.0293 154.73047 C 193.16121 154.7791 192.33683 155.00188 191.55664 155.40039 C 190.51639 155.93174 189.65915 156.72273 188.98633 157.77344 C 188.33163 158.80857 187.95168 160.02704 187.8457 161.42578 C 187.73973 162.82452 187.93188 164.09166 188.42188 165.23047 C 188.91186 166.36928 189.62255 167.28874 190.55273 167.98633 C 191.50105 168.66834 192.56448 169.0532 193.74414 169.14258 C 194.73842 169.21791 195.64605 169.08468 196.46875 168.74023 C 197.29145 168.39579 197.96264 167.93812 198.48047 167.36719 L 197.83008 175.96094 L 201.39258 176.23047 L 202.96094 155.55273 L 199.39648 155.2832 L 199.25781 157.10352 C 198.83064 156.47794 198.24321 155.95097 197.49609 155.52148 C 196.76711 155.07643 195.90639 154.81557 194.91211 154.74023 C 194.61298 154.71757 194.31866 154.71426 194.0293 154.73047 z M 240.06641 154.88086 L 239.80469 158.3457 L 238.13672 158.21875 L 237.91602 161.125 L 239.58398 161.25195 L 239.07422 168.00195 C 238.8546 170.90054 240.2359 172.4615 243.21875 172.6875 L 245.44336 172.85742 L 245.66797 169.87305 L 244.02539 169.75 C 243.48612 169.70914 243.10538 169.57752 242.88477 169.35742 C 242.68229 169.12174 242.59901 168.76874 242.63477 168.29688 L 243.14844 161.52148 L 246.2832 161.75977 L 246.50391 158.85156 L 243.36914 158.61523 L 243.63086 155.15234 L 240.06641 154.88086 z M 156.48242 154.9043 C 157.49356 154.98091 158.31709 155.40855 158.95312 156.18555 C 159.6073 156.94697 159.88212 157.99289 159.78125 159.32422 C 159.71358 160.21739 159.4878 160.96255 159.10352 161.56055 C 158.71923 162.15854 158.23005 162.59627 157.63281 162.87305 C 157.05371 163.13425 156.44312 163.23993 155.80273 163.19141 C 154.7916 163.1148 153.97593 162.69832 153.35547 161.93945 C 152.75313 161.16501 152.50265 160.11063 152.60352 158.7793 C 152.70439 157.44797 153.11799 156.45555 153.8457 155.79883 C 154.59155 155.12653 155.47129 154.82769 156.48242 154.9043 z M 275.45117 155.19727 C 274.82764 155.15002 274.28984 155.31301 273.83789 155.68555 C 273.40407 156.0425 273.16578 156.51564 273.12109 157.10547 C 273.0764 157.6953 273.24142 158.20943 273.61523 158.64453 C 274.00717 159.06405 274.51514 159.29651 275.13867 159.34375 C 275.76221 159.39099 276.29079 159.23586 276.72461 158.87891 C 277.17656 158.50637 277.42406 158.02538 277.46875 157.43555 C 277.51344 156.84572 277.3392 156.34139 276.94727 155.92188 C 276.57346 155.48678 276.07471 155.24451 275.45117 155.19727 z M 266.52734 155.64062 L 266.02344 162.28906 C 265.58452 161.5948 264.96632 161.02243 264.16992 160.57227 C 263.37481 160.10525 262.5233 159.83653 261.61328 159.76758 C 260.41677 159.67692 259.30728 159.89048 258.28516 160.40625 C 257.26304 160.92202 256.42355 161.70583 255.76758 162.75781 C 255.12846 163.81107 254.75569 165.04535 254.64844 166.46094 C 254.53991 167.89338 254.72151 169.18741 255.19336 170.3418 C 255.68334 171.48061 256.39275 172.38958 257.32422 173.07031 C 258.25568 173.75105 259.31253 174.13523 260.49219 174.22461 C 261.53703 174.30377 262.47095 174.16403 263.29492 173.80273 C 264.1189 173.44144 264.77707 172.93118 265.26758 172.27344 L 265.10938 174.3457 L 268.69922 174.61914 L 270.11719 155.91211 L 266.52734 155.64062 z M 206.29102 155.80469 L 205.66797 164.02148 C 205.57348 165.26855 205.72795 166.36477 206.13086 167.31055 C 206.5519 168.24074 207.16579 168.97406 207.97266 169.50977 C 208.78079 170.02862 209.73273 170.32912 210.82812 170.41211 C 211.6876 170.47723 212.492 170.36808 213.24219 170.08594 C 214.0105 169.78822 214.64551 169.35346 215.14648 168.78125 L 215.01172 170.55078 L 218.57617 170.82031 L 219.63672 156.81641 L 216.07227 156.54688 L 215.48828 164.25586 C 215.40401 165.36811 215.06107 166.20694 214.45898 166.77148 C 213.85817 167.31918 213.06923 167.55648 212.0918 167.48242 C 211.13122 167.40964 210.39425 167.05775 209.88281 166.42578 C 209.37265 165.77696 209.15987 164.89545 209.24414 163.7832 L 209.83008 156.07422 L 206.29102 155.80469 z M 228.44922 157.3125 C 227.47686 157.35323 226.56305 157.57013 225.70703 157.96289 C 224.56695 158.46973 223.63549 159.24609 222.91211 160.29297 C 222.20558 161.34112 221.79798 162.58123 221.68945 164.01367 C 221.58092 165.44611 221.78881 166.73364 222.3125 167.875 C 222.85304 169.01764 223.63929 169.9327 224.67188 170.62109 C 225.70573 171.29264 226.89596 171.68106 228.24414 171.7832 C 229.60917 171.88663 230.86187 171.68457 232.00195 171.17773 C 233.16017 170.65532 234.10084 169.8711 234.82422 168.82422 C 235.56445 167.77862 235.98913 166.53791 236.09766 165.10547 C 236.20619 163.67303 235.98122 162.3861 235.42383 161.24219 C 234.88329 160.09955 234.08782 159.1904 233.03711 158.51758 C 231.98768 157.8279 230.78959 157.43222 229.44141 157.33008 C 229.10436 157.30454 228.77334 157.29892 228.44922 157.3125 z M 194.99609 157.87891 C 195.15033 157.87047 195.30505 157.871 195.46094 157.88281 C 196.10132 157.93133 196.68884 158.13767 197.2207 158.5 C 197.76942 158.86361 198.19725 159.37114 198.50391 160.02148 C 198.81056 160.67183 198.93035 161.42569 198.86523 162.28516 C 198.80012 163.14462 198.56716 163.87203 198.16602 164.46875 C 197.76488 165.06547 197.26521 165.50252 196.66797 165.7793 C 196.08758 166.05735 195.47828 166.17352 194.83789 166.125 C 194.21436 166.07776 193.62685 165.87142 193.07812 165.50781 C 192.54626 165.14548 192.12697 164.63863 191.82031 163.98828 C 191.51493 163.32108 191.39582 162.55868 191.46094 161.69922 C 191.52606 160.83975 191.75834 160.11893 192.1582 159.53906 C 192.55934 158.94234 193.05048 158.50657 193.63086 158.22852 C 194.07879 158.02093 194.53337 157.90423 194.99609 157.87891 z M 249.07422 159.04688 L 248.01367 173.05078 L 251.55078 173.32031 L 252.61328 159.31445 L 249.07422 159.04688 z M 229.15625 160.41016 C 230.16739 160.48677 230.99091 160.91441 231.62695 161.69141 C 232.28112 162.45283 232.5579 163.49875 232.45703 164.83008 C 232.38936 165.72325 232.16358 166.46841 231.7793 167.06641 C 231.39501 167.6644 230.90388 168.10213 230.30664 168.37891 C 229.72753 168.64011 229.1189 168.74774 228.47852 168.69922 C 227.46738 168.62261 226.65171 168.20418 226.03125 167.44531 C 225.42892 166.67087 225.17843 165.61844 225.2793 164.28711 C 225.38017 162.95578 225.79377 161.96141 226.52148 161.30469 C 227.26733 160.63239 228.14511 160.33355 229.15625 160.41016 z M 273.2168 160.87695 L 272.15625 174.88086 L 275.69531 175.14844 L 276.75586 161.14453 L 273.2168 160.87695 z M 285.35156 161.62305 C 284.36681 161.65966 283.45869 161.86796 282.62891 162.25 C 281.52253 162.75939 280.63376 163.53914 279.96094 164.58984 C 279.28811 165.64055 278.89692 166.89055 278.78711 168.33984 C 278.67858 169.77229 278.87793 171.05913 279.38477 172.19922 C 279.90845 173.34058 280.67763 174.25428 281.69336 174.94141 C 282.72721 175.61295 283.91744 176.00137 285.26562 176.10352 C 286.93401 176.22992 288.37487 175.90545 289.58594 175.13281 C 290.79829 174.34332 291.65746 173.29019 292.16406 171.97266 L 288.34766 171.68359 C 287.70598 172.77056 286.72659 173.26366 285.41211 173.16406 C 284.50209 173.09511 283.75786 172.75108 283.17773 172.13086 C 282.59761 171.51064 282.30453 170.69135 282.29688 169.67383 L 292.5332 170.44922 C 292.63126 170.04987 292.69998 169.59736 292.73828 169.0918 C 292.8417 167.72676 292.63762 166.49969 292.12695 165.41016 C 291.63442 164.30505 290.87961 163.42685 289.86133 162.77344 C 288.8599 162.1213 287.69266 161.74345 286.36133 161.64258 C 286.01586 161.6164 285.67981 161.61084 285.35156 161.62305 z M 295.82812 162.58984 L 294.76758 176.59375 L 298.30664 176.86133 L 298.89258 169.12695 C 298.97685 168.0147 299.31911 167.18441 299.91992 166.63672 C 300.53886 166.07345 301.33702 165.82829 302.31445 165.90234 C 303.27503 165.97512 304.01133 166.33751 304.52148 166.98633 C 305.03292 167.61829 305.24638 168.48931 305.16211 169.60156 L 304.57617 177.33594 L 308.11523 177.60547 L 308.73828 169.38867 C 308.88129 167.50122 308.47812 165.99773 307.5293 164.875 C 306.58175 163.73542 305.27384 163.10102 303.60547 162.97461 C 302.72915 162.90821 301.90698 163.02455 301.13867 163.32227 C 300.38849 163.60441 299.75416 164.03063 299.23633 164.60156 L 299.36719 162.85742 L 295.82812 162.58984 z M 261.77539 162.9375 C 261.9349 162.92946 262.09741 162.93286 262.26172 162.94531 C 262.91896 162.99511 263.52092 163.20939 264.06836 163.58984 C 264.61708 163.95345 265.03637 164.4603 265.32617 165.10938 C 265.61725 165.74158 265.73113 166.48624 265.66602 167.3457 C 265.6009 168.20517 265.37648 168.93521 264.99219 169.5332 C 264.60918 170.11435 264.11804 170.55207 263.51953 170.8457 C 262.92229 171.12248 262.29396 171.23534 261.63672 171.18555 C 260.99633 171.13703 260.40291 170.92147 259.85547 170.54102 C 259.32488 170.16184 258.90626 169.64839 258.59961 168.99805 C 258.31108 168.33212 258.19788 167.57699 258.26172 166.73438 C 258.32556 165.89175 258.55058 165.18075 258.93359 164.59961 C 259.33473 164.00289 259.82391 163.56517 260.4043 163.28711 C 260.83959 163.07857 261.29687 162.96163 261.77539 162.9375 z M 286.04102 164.54297 C 286.96789 164.61319 287.72987 164.95004 288.32812 165.55469 C 288.92766 166.14248 289.20249 166.89339 289.15039 167.80469 L 282.50195 167.30078 C 282.70827 166.36727 283.12645 165.66132 283.75586 165.18359 C 284.4034 164.69029 285.1647 164.47657 286.04102 164.54297 z M 158.60352 177.76953 L 158.52734 183.15234 L 160.92773 183.33398 L 161.63867 177.99805 L 158.60352 177.76953 z M 152.25586 178.76172 L 151.75195 185.41016 C 151.31303 184.71589 150.69678 184.14353 149.90039 183.69336 C 149.10527 183.22634 148.25182 182.95957 147.3418 182.89062 C 146.14529 182.79998 145.03579 183.01157 144.01367 183.52734 C 142.99155 184.04312 142.15206 184.82692 141.49609 185.87891 C 140.85698 186.93217 140.48421 188.16644 140.37695 189.58203 C 140.26842 191.01447 140.45001 192.30851 140.92188 193.46289 C 141.41186 194.6017 142.12322 195.51067 143.05469 196.19141 C 143.98615 196.87214 145.04105 197.25828 146.2207 197.34766 C 147.26554 197.42682 148.19946 197.28512 149.02344 196.92383 C 149.84741 196.56253 150.50558 196.05228 150.99609 195.39453 L 150.83984 197.46875 L 154.42773 197.74023 L 155.8457 179.0332 L 152.25586 178.76172 z M 219.5625 181.98047 L 213.52148 184.54883 L 213.33008 187.07617 L 219.3457 184.86133 L 219.5625 181.98047 z M 169.00781 184.58594 C 168.02306 184.62255 167.11494 184.8328 166.28516 185.21484 C 165.17878 185.72423 164.29001 186.50398 163.61719 187.55469 C 162.94436 188.60539 162.55317 189.85539 162.44336 191.30469 C 162.33483 192.73713 162.53418 194.02398 163.04102 195.16406 C 163.5647 196.30543 164.33388 197.21913 165.34961 197.90625 C 166.38346 198.5778 167.57368 198.96426 168.92188 199.06641 C 170.59025 199.19281 172.03112 198.8703 173.24219 198.09766 C 174.45454 197.30816 175.31371 196.25504 175.82031 194.9375 L 172.00195 194.64844 C 171.36028 195.7354 170.38284 196.2285 169.06836 196.12891 C 168.15834 196.05996 167.41411 195.71592 166.83398 195.0957 C 166.25386 194.47548 165.95882 193.65619 165.95117 192.63867 L 176.18945 193.41406 C 176.28751 193.01472 176.35623 192.56221 176.39453 192.05664 C 176.49795 190.69161 176.29387 189.46453 175.7832 188.375 C 175.29067 187.2699 174.53586 186.3917 173.51758 185.73828 C 172.51615 185.08614 171.34891 184.70829 170.01758 184.60742 C 169.67211 184.58125 169.33606 184.57373 169.00781 184.58594 z M 245.21289 184.68555 C 244.58936 184.6383 244.05156 184.80129 243.59961 185.17383 C 243.16579 185.53079 242.92555 186.00392 242.88086 186.59375 C 242.83617 187.18358 243.00119 187.69771 243.375 188.13281 C 243.76694 188.55234 244.2749 188.78479 244.89844 188.83203 C 245.52197 188.87927 246.05055 188.72415 246.48438 188.36719 C 246.93632 187.99465 247.18383 187.51366 247.22852 186.92383 C 247.2732 186.334 247.10092 185.82968 246.70898 185.41016 C 246.33517 184.97506 245.83642 184.73279 245.21289 184.68555 z M 236.28711 185.12891 L 235.7832 191.77734 C 235.34428 191.08308 234.72608 190.51071 233.92969 190.06055 C 233.13457 189.59353 232.28307 189.32481 231.37305 189.25586 C 230.17654 189.1652 229.06704 189.37876 228.04492 189.89453 C 227.0228 190.4103 226.18331 191.19411 225.52734 192.24609 C 224.88823 193.29935 224.51546 194.53363 224.4082 195.94922 C 224.29967 197.38166 224.48127 198.67569 224.95312 199.83008 C 225.44312 200.96889 226.15447 201.87786 227.08594 202.55859 C 228.0174 203.23933 229.0723 203.62351 230.25195 203.71289 C 231.29679 203.79205 232.23071 203.65231 233.05469 203.29102 C 233.87866 202.92972 234.53683 202.41946 235.02734 201.76172 L 234.86914 203.83398 L 238.45898 204.10742 L 239.87695 185.40039 L 236.28711 185.12891 z M 177.94336 185.4375 L 182.03906 192.76367 L 176.93164 199.44531 L 180.72461 199.73242 L 183.60742 195.57812 L 186.1582 200.14453 L 190.15234 200.44727 L 186.0332 193.06641 L 191.16406 186.43945 L 187.37109 186.15234 L 184.46484 190.2793 L 181.9375 185.74023 L 177.94336 185.4375 z M 262.04883 185.96289 C 261.42529 185.91565 260.8875 186.07669 260.43555 186.44922 C 260.00173 186.80618 259.76149 187.28126 259.7168 187.87109 C 259.67211 188.46092 259.83713 188.97311 260.21094 189.4082 C 260.60288 189.82773 261.11083 190.06018 261.73438 190.10742 C 262.35791 190.15466 262.88649 189.99954 263.32031 189.64258 C 263.77226 189.27004 264.01976 188.78905 264.06445 188.19922 C 264.10914 187.60939 263.93491 187.10507 263.54297 186.68555 C 263.16916 186.25045 262.67236 186.01013 262.04883 185.96289 z M 147.50586 186.05859 C 147.66537 186.05055 147.82592 186.05396 147.99023 186.06641 C 148.64747 186.1162 149.25139 186.33048 149.79883 186.71094 C 150.34754 187.07454 150.76684 187.5814 151.05664 188.23047 C 151.34772 188.86269 151.45965 189.60928 151.39453 190.46875 C 151.32941 191.32822 151.10499 192.0563 150.7207 192.6543 C 150.33769 193.23544 149.84656 193.67316 149.24805 193.9668 C 148.65081 194.24358 148.02443 194.35644 147.36719 194.30664 C 146.7268 194.25812 146.13142 194.04452 145.58398 193.66406 C 145.0534 193.28488 144.63479 192.76949 144.32812 192.11914 C 144.0396 191.45322 143.92835 190.69808 143.99219 189.85547 C 144.05603 189.01286 144.2791 188.30185 144.66211 187.7207 C 145.06325 187.12398 145.55438 186.68626 146.13477 186.4082 C 146.57005 186.19966 147.02734 186.08272 147.50586 186.05859 z M 193.11133 186.58594 L 191.54492 207.26367 L 195.08398 207.53125 L 195.74023 198.86133 C 196.18043 199.53874 196.77234 200.11762 197.51562 200.59766 C 198.27577 201.07897 199.16928 201.35961 200.19727 201.4375 C 201.39378 201.52816 202.49541 201.30539 203.50195 200.77148 C 204.52535 200.23886 205.35698 199.44584 205.99609 198.39258 C 206.65334 197.32374 207.036 196.07308 207.14453 194.64062 C 207.25306 193.20818 207.06157 191.93055 206.57031 190.80859 C 206.09718 189.67106 205.39563 188.77131 204.46289 188.10742 C 203.547 187.44481 202.48948 187.06722 201.29297 186.97656 C 200.26498 186.89868 199.33039 187.04891 198.48828 187.42578 C 197.6643 187.78708 196.99962 188.27104 196.49609 188.87695 L 196.65039 186.85352 L 193.11133 186.58594 z M 250.80664 187.47461 L 250.54297 190.9375 L 248.875 190.81055 L 248.6543 193.71875 L 250.32422 193.8457 L 249.8125 200.59375 C 249.59288 203.49234 250.97418 205.05525 253.95703 205.28125 L 256.18164 205.44922 L 256.4082 202.4668 L 254.76367 202.3418 C 254.2244 202.30094 253.84561 202.17127 253.625 201.95117 C 253.42252 201.71549 253.33925 201.36054 253.375 200.88867 L 253.88867 194.11523 L 257.02148 194.35156 L 257.24219 191.44531 L 254.10742 191.20703 L 254.37109 187.74414 L 250.80664 187.47461 z M 169.69727 187.50781 C 170.62414 187.57804 171.38611 187.91489 171.98438 188.51953 C 172.5839 189.10732 172.85678 189.85628 172.80469 190.76758 L 166.15625 190.26367 C 166.36257 189.33016 166.78075 188.62617 167.41016 188.14844 C 168.0577 187.65513 168.82095 187.44142 169.69727 187.50781 z M 215.36719 188.09961 C 214.38243 188.13623 213.47627 188.34452 212.64648 188.72656 C 211.5401 189.23595 210.64939 190.01765 209.97656 191.06836 C 209.30374 192.11907 208.91254 193.36907 208.80273 194.81836 C 208.6942 196.2508 208.89356 197.5357 209.40039 198.67578 C 209.92408 199.81714 210.69326 200.7328 211.70898 201.41992 C 212.74284 202.09147 213.93502 202.47793 215.2832 202.58008 C 216.95158 202.70648 218.39049 202.38202 219.60156 201.60938 C 220.81391 200.81987 221.67309 199.76676 222.17969 198.44922 L 218.36328 198.16016 C 217.72161 199.24712 216.74416 199.74022 215.42969 199.64062 C 214.51967 199.57169 213.77348 199.22764 213.19336 198.60742 C 212.61324 197.9872 212.32015 197.16791 212.3125 196.15039 L 222.54883 196.92773 C 222.64688 196.52839 222.7156 196.07588 222.75391 195.57031 C 222.85733 194.20528 222.65324 192.97625 222.14258 191.88672 C 221.65004 190.78161 220.89523 189.90342 219.87695 189.25 C 218.87553 188.59786 217.70828 188.22196 216.37695 188.12109 C 216.03148 188.09492 215.69544 188.0874 215.36719 188.09961 z M 199.64648 190.01172 C 199.80396 190.00246 199.96295 190.00351 200.12305 190.01562 C 200.78028 190.06542 201.37439 190.27244 201.90625 190.63477 C 202.45497 190.99837 202.87426 191.50327 203.16406 192.15234 C 203.47199 192.78584 203.59314 193.52457 203.5293 194.36719 C 203.46418 195.22665 203.23122 195.95406 202.83008 196.55078 C 202.44579 197.14878 201.95594 197.59504 201.35742 197.88867 C 200.77576 198.18358 200.15528 198.30566 199.49805 198.25586 C 198.85766 198.20734 198.26356 198.00228 197.71484 197.63867 C 197.18426 197.25949 196.76564 196.7441 196.45898 196.09375 C 196.16918 195.44468 196.0553 194.70003 196.11914 193.85742 C 196.18298 193.01481 196.40673 192.29331 196.79102 191.69531 C 197.19216 191.09859 197.68329 190.66087 198.26367 190.38281 C 198.71256 190.16259 199.17405 190.03948 199.64648 190.01172 z M 242.97656 190.36523 L 241.91602 204.36914 L 245.45508 204.63672 L 246.51562 190.63281 L 242.97656 190.36523 z M 216.05664 191.01953 C 216.98351 191.08976 217.7455 191.42661 218.34375 192.03125 C 218.94328 192.61904 219.21811 193.36995 219.16602 194.28125 L 212.51758 193.77734 C 212.7239 192.84383 213.14207 192.13789 213.77148 191.66016 C 214.41902 191.16685 215.18032 190.95314 216.05664 191.01953 z M 259.8125 191.64062 L 258.75195 205.64453 L 262.29102 205.91211 L 263.35156 191.9082 L 259.8125 191.64062 z M 272.16797 192.4043 C 271.19561 192.44503 270.2818 192.66192 269.42578 193.05469 C 268.2857 193.56152 267.35424 194.33789 266.63086 195.38477 C 265.92433 196.43292 265.51673 197.67303 265.4082 199.10547 C 265.29967 200.53791 265.50756 201.82543 266.03125 202.9668 C 266.57179 204.10944 267.35805 205.02449 268.39062 205.71289 C 269.42449 206.38444 270.61471 206.77285 271.96289 206.875 C 273.32792 206.97842 274.58062 206.77637 275.7207 206.26953 C 276.87892 205.74712 277.81959 204.96289 278.54297 203.91602 C 279.2832 202.87042 279.70788 201.62971 279.81641 200.19727 C 279.92494 198.76482 279.70192 197.4779 279.14453 196.33398 C 278.60399 195.19134 277.80657 194.28219 276.75586 193.60938 C 275.70643 192.9197 274.50834 192.52401 273.16016 192.42188 C 272.82311 192.39634 272.49209 192.39072 272.16797 192.4043 z M 231.53711 192.42578 C 231.69662 192.41774 231.85717 192.42114 232.02148 192.43359 C 232.67872 192.48339 233.28068 192.69768 233.82812 193.07812 C 234.37685 193.44173 234.79614 193.94859 235.08594 194.59766 C 235.37702 195.22987 235.4909 195.97452 235.42578 196.83398 C 235.36066 197.69345 235.13624 198.42349 234.75195 199.02148 C 234.36894 199.60263 233.87781 200.04035 233.2793 200.33398 C 232.68206 200.61076 232.05568 200.72362 231.39844 200.67383 C 230.75805 200.62531 230.16267 200.40975 229.61523 200.0293 C 229.08465 199.65012 228.66603 199.13668 228.35938 198.48633 C 228.07084 197.82041 227.9596 197.06527 228.02344 196.22266 C 228.08728 195.38004 228.31035 194.66904 228.69336 194.08789 C 229.0945 193.49117 229.58563 193.05345 230.16602 192.77539 C 230.6013 192.56685 231.05859 192.44991 231.53711 192.42578 z M 282.96875 193.39453 L 281.90625 207.39844 L 285.44531 207.66602 L 286.03125 199.93164 C 286.11552 198.81939 286.45973 197.9891 287.06055 197.44141 C 287.67949 196.87814 288.47765 196.63297 289.45508 196.70703 C 290.41566 196.77981 291.15 197.1422 291.66016 197.79102 C 292.17159 198.42298 292.38505 199.294 292.30078 200.40625 L 291.71484 208.14258 L 295.25391 208.41016 L 295.87695 200.19531 C 296.01996 198.30786 295.61679 196.80241 294.66797 195.67969 C 293.72042 194.54011 292.41251 193.9057 290.74414 193.7793 C 289.86782 193.7129 289.04566 193.82924 288.27734 194.12695 C 287.52716 194.40909 286.89283 194.83532 286.375 195.40625 L 286.50781 193.66211 L 282.96875 193.39453 z M 272.87695 195.50195 C 273.88809 195.57856 274.71162 196.00621 275.34766 196.7832 C 276.00182 197.54462 276.2786 198.59054 276.17773 199.92188 C 276.11006 200.81504 275.88233 201.56021 275.49805 202.1582 C 275.11376 202.7562 274.62458 203.19392 274.02734 203.4707 C 273.44824 203.73191 272.83765 203.83954 272.19727 203.79102 C 271.18613 203.71441 270.37046 203.29598 269.75 202.53711 C 269.14767 201.76267 268.89718 200.71023 268.99805 199.37891 C 269.09892 198.04758 269.51252 197.05321 270.24023 196.39648 C 270.98608 195.72419 271.86582 195.42534 272.87695 195.50195 z "
           transform="matrix(0.95173294,-0.06675482,0.06675482,0.95173294,-22.296628,6.3174388)" />
        <path
           id="text2170"
           style="font-size:17.1733px;line-height:1.25;font-family:Poppins;-inkscape-font-specification:Poppins;letter-spacing:0px;word-spacing:0px;stroke-width:1.15231;fill:#00374b;fill-opacity:1"
           d="M 147.03906 276.51172 L 146.36328 289.07422 L 153.64258 289.4668 L 153.75195 287.41797 L 148.99023 287.16211 L 149.16797 283.83594 L 153.39258 284.0625 L 153.5 282.06836 L 149.27539 281.8418 L 149.44531 278.69531 L 154.20703 278.95117 L 154.31836 276.90234 L 147.03906 276.51172 z M 218.32812 278.81055 C 217.88476 278.78672 217.50448 278.91016 217.18945 279.18164 C 216.88706 279.44179 216.72567 279.78178 216.70312 280.20117 C 216.68059 280.62057 216.80404 280.98211 217.07617 281.28516 C 217.36093 281.57686 217.72461 281.73398 218.16797 281.75781 C 218.61133 281.78164 218.98471 281.66444 219.28711 281.4043 C 219.60213 281.13281 219.77043 280.78658 219.79297 280.36719 C 219.81551 279.94779 219.68515 279.59248 219.40039 279.30078 C 219.12826 278.99774 218.7715 278.83438 218.32812 278.81055 z M 156.44727 279.63086 L 155.91211 289.58789 L 158.42773 289.72266 L 158.72461 284.22266 C 158.76712 283.4318 158.99609 282.8376 159.41406 282.43945 C 159.84466 282.02997 160.40852 281.84351 161.10352 281.88086 C 161.78653 281.91757 162.3133 282.1626 162.68555 282.61523 C 163.05844 283.05588 163.22415 283.67203 163.18164 284.46289 L 162.88672 289.96289 L 165.40234 290.09766 L 165.7168 284.25586 C 165.78893 282.91379 165.47813 281.85253 164.78711 281.07031 C 164.09674 280.27612 163.15895 279.84696 161.97266 279.7832 C 161.34955 279.74971 160.76733 279.84506 160.22656 280.06836 C 159.69843 280.28032 159.25519 280.59251 158.89648 281.00586 L 158.96289 279.76562 L 156.44727 279.63086 z M 175.65039 280.52539 C 175.0838 280.54451 174.57131 280.64089 174.11133 280.81445 C 173.51001 281.04652 173.03551 281.38236 172.6875 281.82031 C 172.35148 282.25891 172.1683 282.75348 172.13867 283.30469 C 172.10261 283.97572 172.24238 284.51818 172.55664 284.93164 C 172.88289 285.34575 173.27345 285.66011 173.73047 285.87695 C 174.19947 286.09444 174.79993 286.31353 175.5332 286.5332 C 176.24186 286.76357 176.75384 286.9711 177.06836 287.15625 C 177.3955 287.33006 177.55059 287.57881 177.5332 287.90234 C 177.5171 288.20191 177.36599 288.44028 177.08008 288.61719 C 176.80615 288.79474 176.43048 288.86951 175.95117 288.84375 C 175.45988 288.81734 175.05246 288.67006 174.73047 288.40039 C 174.42046 288.13136 174.25193 287.80399 174.22461 287.41797 L 171.68945 287.28125 C 171.69256 287.8943 171.86652 288.46309 172.21094 288.98633 C 172.56734 289.51021 173.06239 289.93909 173.69336 290.27344 C 174.32497 290.5958 175.04846 290.77847 175.86328 290.82227 C 176.65414 290.86477 177.34854 290.77672 177.94922 290.55664 C 178.56252 290.32522 179.03702 289.98938 179.37305 289.55078 C 179.72105 289.11283 179.91049 288.60642 179.94141 288.03125 C 179.96484 287.37156 179.81453 286.83597 179.48828 286.42188 C 179.17466 285.99643 178.78905 285.67387 178.33203 285.45703 C 177.87501 285.24019 177.29133 285.02307 176.58203 284.80469 C 175.88471 284.58695 175.37337 284.38501 175.04688 284.19922 C 174.72101 284.00145 174.56595 283.73591 174.58398 283.40039 C 174.60009 283.10082 174.73375 282.87363 174.98242 282.71875 C 175.24308 282.56452 175.6013 282.49896 176.05664 282.52344 C 176.54793 282.54984 176.93037 282.6902 177.20508 282.94531 C 177.49241 283.18908 177.64351 283.50889 177.6582 283.90625 L 180.06641 284.03711 C 180.04861 283.0267 179.70277 282.20914 179.02734 281.58398 C 178.35256 280.94685 177.42066 280.59501 176.23438 280.53125 C 176.03365 280.52046 175.83926 280.51902 175.65039 280.52539 z M 186.29883 281.07227 C 185.44806 281.02654 184.6648 281.19608 183.94727 281.57812 C 183.24171 281.96082 182.66412 282.53013 182.21484 283.28711 C 181.77755 284.04473 181.53066 284.92705 181.47656 285.93359 C 181.42182 286.95212 181.5709 287.86758 181.92383 288.67969 C 182.28938 289.48046 182.80306 290.11394 183.46289 290.58203 C 184.1347 291.05076 184.88973 291.30843 185.72852 291.35352 C 186.47144 291.39345 187.1336 291.27906 187.71289 291.00977 C 188.30481 290.72913 188.7744 290.364 189.12305 289.91406 L 189.04492 291.36914 L 191.57812 291.50586 L 192.11328 281.54688 L 189.58008 281.41211 L 189.50391 282.83203 C 189.19286 282.35866 188.76388 281.95679 188.2168 281.62695 C 187.68169 281.29776 187.04176 281.1122 186.29883 281.07227 z M 245.72461 281.07617 L 245.00977 294.37695 L 247.52734 294.51172 L 248.24219 281.21094 L 245.72461 281.07617 z M 193.51172 281.62305 L 196.64258 291.77734 L 199.69922 291.94141 L 203.91797 282.18164 L 201.24023 282.03711 L 198.3125 289.54102 L 196.20703 281.76758 L 193.51172 281.62305 z M 209.85156 282.33789 C 208.89295 282.28637 208.013 282.45619 207.21094 282.8457 C 206.40952 283.22324 205.75892 283.78857 205.26172 284.54297 C 204.7765 285.29802 204.50787 286.18459 204.45312 287.20312 C 204.39839 288.22167 204.56556 289.13349 204.95508 289.93555 C 205.35658 290.73825 205.92816 291.37506 206.67188 291.84766 C 207.41623 292.30827 208.26795 292.56371 209.22656 292.61523 C 210.19716 292.6674 211.08335 292.50644 211.88477 292.12891 C 212.69881 291.74003 213.35436 291.16651 213.85156 290.41211 C 214.36075 289.65835 214.64252 288.77244 214.69727 287.75391 C 214.75201 286.73538 214.57364 285.82483 214.16016 285.02148 C 213.75866 284.21878 213.18016 283.58626 212.42383 283.125 C 211.66814 282.65176 210.81018 282.38941 209.85156 282.33789 z M 216.82812 282.875 L 216.29297 292.83398 L 218.81055 292.96875 L 219.3457 283.01172 L 216.82812 282.875 z M 221.81445 283.14453 L 221.2793 293.10156 L 223.79492 293.23633 L 224.0625 288.27539 C 224.11209 287.35272 224.34437 286.7174 224.75977 286.36719 C 225.18714 286.01762 225.79508 285.86374 226.58594 285.90625 L 227.25195 285.94141 L 227.39258 283.29883 C 226.72155 283.26276 226.11561 283.38111 225.57227 283.65234 C 225.04091 283.92422 224.59992 284.31437 224.24805 284.82422 L 224.33008 283.2793 L 221.81445 283.14453 z M 186.82812 283.31836 C 187.29546 283.34348 187.72656 283.4865 188.12109 283.74805 C 188.51627 283.99762 188.82128 284.3504 189.03711 284.80664 C 189.25358 285.2509 189.34535 285.77951 189.3125 286.39062 C 189.27965 287.00175 189.13067 287.52264 188.86719 287.95312 C 188.60435 288.37163 188.26404 288.68849 187.84375 288.90625 C 187.4241 289.11202 186.97904 289.20285 186.51172 289.17773 C 186.05638 289.15326 185.63281 289.0096 185.23828 288.74805 C 184.85573 288.48714 184.55007 288.12875 184.32227 287.67188 C 184.10708 287.20365 184.01467 286.66945 184.04688 286.07031 C 184.07907 285.47118 184.2274 284.96342 184.49023 284.54492 C 184.7657 284.11509 185.10797 283.79626 185.51562 283.58984 C 185.92329 283.38342 186.3608 283.29324 186.82812 283.31836 z M 233.36328 283.76367 L 232.57422 298.4668 L 235.08984 298.60352 L 235.42188 292.4375 C 235.7449 292.91152 236.17388 293.31338 236.70898 293.64258 C 237.25607 293.97242 237.89405 294.15603 238.625 294.19531 C 239.47577 294.24104 240.25474 294.06654 240.96094 293.67188 C 241.67912 293.27784 242.25607 292.70294 242.69336 291.94531 C 243.14328 291.17635 243.39643 290.2822 243.45117 289.26367 C 243.50591 288.24514 243.35057 287.34153 242.98438 286.55273 C 242.6308 285.7526 242.11777 285.12472 241.44531 284.66797 C 240.78484 284.21186 240.02851 283.95979 239.17773 283.91406 C 238.44679 283.87478 237.78527 283.99671 237.19336 284.27734 C 236.61407 284.54664 236.15074 284.89994 235.80273 285.33789 L 235.88086 283.90039 L 233.36328 283.76367 z M 209.69727 284.5293 C 210.41623 284.56794 211.0071 284.85873 211.4707 285.40039 C 211.94693 285.93071 212.16024 286.6686 212.10938 287.61523 C 212.07524 288.25032 211.92755 288.78241 211.66406 289.21289 C 211.40058 289.64337 211.05832 289.96219 210.63867 290.16797 C 210.23165 290.3624 209.80105 290.4483 209.3457 290.42383 C 208.62674 290.38519 208.04015 290.1013 207.58789 289.57227 C 207.14826 289.03189 206.95498 288.28843 207.00586 287.3418 C 207.05674 286.39516 207.33349 285.68259 207.83984 285.20508 C 208.35883 284.71623 208.9783 284.49066 209.69727 284.5293 z M 250.43945 284.68164 L 250.12695 290.52344 C 250.0793 291.41016 250.20512 292.18646 250.50586 292.85156 C 250.81922 293.50532 251.26655 294.01705 251.84766 294.38477 C 252.4294 294.7405 253.1098 294.93861 253.88867 294.98047 C 254.49979 295.01331 255.06952 294.9229 255.59766 294.71094 C 256.13842 294.48764 256.58297 294.16985 256.92969 293.75586 L 256.86133 295.01367 L 259.39453 295.15039 L 259.93164 285.19336 L 257.39648 285.05664 L 257.10156 290.53906 C 257.05906 291.32992 256.82877 291.92972 256.41016 292.33984 C 255.99219 292.73799 255.43523 292.91821 254.74023 292.88086 C 254.05722 292.84415 253.52914 292.60471 253.15625 292.16406 C 252.78401 291.71143 252.6196 291.08969 252.66211 290.29883 L 252.95703 284.81836 L 250.43945 284.68164 z M 265.45117 285.35156 C 264.88458 285.37068 264.37209 285.46706 263.91211 285.64062 C 263.31079 285.8727 262.83433 286.20853 262.48633 286.64648 C 262.1503 287.08508 261.96908 287.57965 261.93945 288.13086 C 261.90339 288.80189 262.04121 289.34435 262.35547 289.75781 C 262.68171 290.17192 263.07423 290.48629 263.53125 290.70312 C 264.00025 290.92061 264.60072 291.1397 265.33398 291.35938 C 266.04264 291.58973 266.55462 291.79728 266.86914 291.98242 C 267.19628 292.15623 267.35137 292.40498 267.33398 292.72852 C 267.31788 293.02808 267.16677 293.26645 266.88086 293.44336 C 266.60694 293.62091 266.22931 293.69763 265.75 293.67188 C 265.25871 293.64547 264.85324 293.49623 264.53125 293.22656 C 264.22124 292.95754 264.05271 292.63016 264.02539 292.24414 L 261.49023 292.10742 C 261.49334 292.72047 261.6673 293.28926 262.01172 293.8125 C 262.36812 294.33638 262.86122 294.76526 263.49219 295.09961 C 264.1238 295.42197 264.84728 295.60464 265.66211 295.64844 C 266.45297 295.69094 267.14932 295.60289 267.75 295.38281 C 268.3633 295.15139 268.8378 294.81555 269.17383 294.37695 C 269.52183 293.939 269.71127 293.43259 269.74219 292.85742 C 269.76563 292.19773 269.61336 291.66215 269.28711 291.24805 C 268.97349 290.8226 268.58983 290.50004 268.13281 290.2832 C 267.67579 290.06636 267.09212 289.84924 266.38281 289.63086 C 265.68549 289.41312 265.17416 289.21118 264.84766 289.02539 C 264.5218 288.82762 264.36673 288.56208 264.38477 288.22656 C 264.40087 287.92699 264.53453 287.6998 264.7832 287.54492 C 265.04386 287.39069 265.40013 287.32514 265.85547 287.34961 C 266.34676 287.37601 266.73115 287.51637 267.00586 287.77148 C 267.29319 288.01526 267.44429 288.337 267.45898 288.73438 L 269.86719 288.86328 C 269.84939 287.85287 269.5016 287.03531 268.82617 286.41016 C 268.15139 285.77302 267.22145 285.42118 266.03516 285.35742 C 265.83445 285.34663 265.64004 285.34519 265.45117 285.35156 z M 238.39453 286.08984 C 238.86186 286.11496 239.28673 286.25303 239.66992 286.50195 C 240.0651 286.75152 240.37011 287.10431 240.58594 287.56055 C 240.81439 288.00545 240.91306 288.52586 240.88086 289.125 C 240.84801 289.73612 240.69343 290.25766 240.41797 290.6875 C 240.15449 291.11798 239.81287 291.4424 239.39258 291.66016 C 238.98427 291.87856 238.5474 291.97434 238.08008 291.94922 C 237.62473 291.92475 237.19791 291.78863 236.80273 291.53906 C 236.42019 291.27816 236.11648 290.91782 235.88867 290.46094 C 235.67285 290.0047 235.58108 289.47804 235.61328 288.87891 C 235.64548 288.27977 235.79316 287.76446 236.05664 287.33398 C 236.33211 286.90415 236.67241 286.58533 237.08008 286.37891 C 237.50037 286.16115 237.93919 286.06537 238.39453 286.08984 z "
           transform="matrix(0.95173294,-0.06675482,0.06675482,0.95173294,-22.296628,6.3174388)" />
        <g
           id="g2257"
           transform="matrix(0.00125105,0.06389027,-0.06389027,0.00125105,208.95393,276.2139)"
           style="fill:#00374b;fill-opacity:1">
          <g
             id="g2255"
             style="fill:#00374b;fill-opacity:1">
            <path
               d="M 367.954,213.588 160.67,5.872 c -7.804,-7.819 -20.467,-7.831 -28.284,-0.029 -7.819,7.802 -7.832,20.465 -0.03,28.284 l 207.299,207.731 c 7.798,7.798 7.798,20.486 -0.015,28.299 L 132.356,477.873 c -7.802,7.819 -7.789,20.482 0.03,28.284 3.903,3.896 9.016,5.843 14.127,5.843 5.125,0 10.25,-1.958 14.157,-5.873 L 367.939,298.426 c 23.394,-23.394 23.394,-61.459 0.015,-84.838 z"
               id="path2253"
               style="fill:#00374b;fill-opacity:1" />
          </g>
        </g>
      </g>
    </g>
    <g
       id="Groupe_1883"
       data-name="Groupe 1883"
       transform="matrix(0.77707361,-0.39594996,0.39594996,0.77707361,1424.4306,3924.784)">
      <path
         id="Tracé_1882"
         data-name="Tracé 1882"
         d="m 10.215,0 a 10.225,10.225 0 0 1 10.213,10.214 v 1.315 h -2.29 v -1.315 a 7.923,7.923 0 1 0 -15.846,0 v 32.92 a 4.141,4.141 0 0 0 4.136,4.137 h 1.013 a 4.141,4.141 0 0 0 4.136,-4.137 V 14.815 a 1.145,1.145 0 0 1 2.29,0 v 28.32 A 6.435,6.435 0 0 1 7.44,49.563 H 6.428 A 6.436,6.436 0 0 1 0,43.135 V 10.214 A 10.226,10.226 0 0 1 10.215,0 Z"
         transform="matrix(0.999,0.035,-0.035,0.999,1.73,0)"
         fill="#00374b" />
    </g>
  </g>
</svg>
