<?xml version="1.0" encoding="UTF-8" standalone="no"?>
<svg
   xmlns:dc="http://purl.org/dc/elements/1.1/"
   xmlns:cc="http://creativecommons.org/ns#"
   xmlns:rdf="http://www.w3.org/1999/02/22-rdf-syntax-ns#"
   xmlns:svg="http://www.w3.org/2000/svg"
   xmlns="http://www.w3.org/2000/svg"
   width="435.668"
   height="435.667"
   viewBox="0 0 435.668 435.667"
   version="1.1"
   id="svg1515">
  <metadata
     id="metadata1519">
    <rdf:RDF>
      <cc:Work
         rdf:about="">
        <dc:format>image/svg+xml</dc:format>
        <dc:type
           rdf:resource="http://purl.org/dc/dcmitype/StillImage" />
        <dc:title></dc:title>
      </cc:Work>
    </rdf:RDF>
  </metadata>
  <defs
     id="defs1386">
    <filter
       id="Tracé_2281"
       x="0"
       y="0"
       width="435.668"
       height="435.667"
       filterUnits="userSpaceOnUse">
      <feOffset
         dx="12.84"
         dy="14.35"
         input="SourceAlpha"
         id="feOffset1375" />
      <feGaussianBlur
         stdDeviation="5.67"
         result="blur"
         id="feGaussianBlur1377" />
      <feFlood
         flood-opacity="0.161"
         id="feFlood1379" />
      <feComposite
         operator="in"
         in2="blur"
         id="feComposite1381"
         result="result1" />
      <feComposite
         in="SourceGraphic"
         in2="result1"
         id="feComposite1383" />
    </filter>
  </defs>
  <g
     id="Groupe_1979"
     data-name="Groupe 1979"
     transform="matrix(0.998, 0.07, -0.07, 0.998, -1028.593, -3988.07)">
    <g
       id="Groupe_1978"
       data-name="Groupe 1978"
       transform="translate(1334.813 3907.135)">
      <g
         id="Groupe_1934"
         data-name="Groupe 1934">
        <g
           transform="matrix(1, -0.07, 0.07, 1, -30.53, -0.53)"
           filter="url(#Tracé_2281)"
           id="g1389">
          <path
             id="Tracé_2281-2"
             data-name="Tracé 2281"
             d="M188.157,0C292.073,0,376.314,84.241,376.314,188.157S292.073,376.314,188.157,376.314,0,292.073,0,188.157,84.241,0,188.157,0Z"
             transform="matrix(1, 0.07, -0.07, 1, 30.42, 2.66)"
             fill="#fff" />
        </g>
      </g>
      <path
         id="Tracé_2246"
         data-name="Tracé 2246"
         d="M4601.6,3068.508a4.385,4.385,0,0,0-1.632,8.618l6.387,1.209q.485-4.367,1.244-8.692Z"
         transform="translate(-4554.268 -2906.577)"
         fill="#fff" />
      <g
         id="g2164"
         transform="matrix(1.0476664,0,0,1.0476664,-6.9321453,-9.190943)">
        <g
           id="Groupe_1939"
           data-name="Groupe 1939"
           transform="matrix(1.0998834,0,0,1.0998834,84.131004,286.54624)">
          <path
             id="Tracé_2225"
             data-name="Tracé 2225"
             d="M 4670.118,3229.88"
             transform="translate(-4670.118,-3229.88)"
             fill="#161615" />
        </g>
        <g
           id="Groupe_1940"
           data-name="Groupe 1940"
           transform="matrix(1.0998834,0,0,1.0998834,68.361975,70.690816)">
          <path
             id="Tracé_2226"
             data-name="Tracé 2226"
             d="m 4762.906,3163.079 a 114.379,114.379 0 1 1 114.38,-114.379 114.508,114.508 0 0 1 -114.38,114.379 z m 0,-224.623 A 110.244,110.244 0 1 0 4873.15,3048.7 110.369,110.369 0 0 0 4762.906,2938.457 Z"
             transform="translate(-4648.527,-2934.321)" />
        </g>
        <path
           id="Tracé_2227"
           data-name="Tracé 2227"
           d="M 288.54983,87.528931 A 144.06713,144.06713 0 0 0 72.483238,119.14508 l 6.599301,4.92858 a 4.8235547,4.8235547 0 1 1 -5.768889,7.73218 l -5.772188,-4.30715 c -0.05829,0.10999 -0.117688,0.20898 -0.175981,0.31567 a 143.77676,143.77676 0 0 0 -15.28838,43.95024 l 6.553106,1.23957 a 4.8240887,4.8240887 0 1 1 -1.79501,9.4788 l -6.096654,-1.15378 A 144.14852,144.14852 0 0 0 153.27957,334.81132 l 1.34186,-5.18595 a 4.8242793,4.8242793 0 0 1 9.34021,2.41974 l -1.34516,5.19475 a 143.88675,143.88675 0 0 0 26.96254,3.40304 l 0.35637,-6.84787 a 4.8240887,4.8240887 0 1 1 9.63497,0.50155 l -0.32996,6.32653 A 144.50158,144.50158 0 0 0 332.31969,237.8775 l -7.13824,-2.13488 a 4.8240887,4.8240887 0 1 1 2.76511,-9.23902 l 6.83907,2.04688 a 144.18592,144.18592 0 0 0 3.59442,-32.0473 145.78405,145.78405 0 0 0 -1.10758,-17.86981 l -6.40462,1.19448 a 4.8240887,4.8240887 0 1 1 -1.76752,-9.4843 l 6.662,-1.24177 a 144.45209,144.45209 0 0 0 -47.2125,-81.572849 z"
           fill="none"
           style="stroke-width:1.09988" />
        <path
           id="Tracé_2228"
           data-name="Tracé 2228"
           d="m 162.62858,337.23546 -2.41974,9.34901 a 153.52723,153.52723 0 0 0 28.87964,3.69121 l 0.50154,-9.63498 a 143.87575,143.87575 0 0 1 -26.96144,-3.40524 z"
           fill="#bababa"
           style="stroke-width:1.09988" />
        <path
           id="Tracé_2229"
           data-name="Tracé 2229"
           d="m 199.2525,340.61981 -0.50375,9.67897 C 266.2519,348.31899 322.97398,302.64303 341.57521,240.6404 l -9.23902,-2.764 A 144.50158,144.50158 0 0 1 199.2525,340.61981 Z"
           fill="#002b3b"
           style="stroke-width:1.09988" />
        <path
           id="Tracé_2230"
           data-name="Tracé 2230"
           d="m 67.37318,127.81106 c 0.05719,-0.10999 0.117687,-0.20898 0.174881,-0.31567 l -7.802573,-5.82168 c -0.28377,0.50815 -0.568639,1.01519 -0.84801,1.52664 a 153.43374,153.43374 0 0 0 -16.288173,46.76704 l 9.479895,1.79391 a 143.74156,143.74156 0 0 1 15.28398,-43.95024 z"
           fill="#d43a29"
           style="stroke-width:1.09988" />
        <path
           id="Tracé_2231"
           data-name="Tracé 2231"
           d="m 49.943327,196.49438 a 143.71297,143.71297 0 0 1 0.806215,-15.16629 l -9.509592,-1.79941 a 153.34465,153.34465 0 0 0 -0.9448,16.9668 c 0,69.8184 46.745045,128.91514 110.57678,147.66155 l 2.41974,-9.34901 A 144.47739,144.47739 0 0 1 49.943327,196.49438 Z"
           fill="#002b3b"
           style="stroke-width:1.09988" />
        <path
           id="Tracé_2232"
           data-name="Tracé 2232"
           d="M 194.16664,52.268868 A 144.46859,144.46859 0 0 1 335.77443,169.09189 l 9.48429,-1.76752 A 153.84289,153.84289 0 0 0 64.73456,113.35749 l 7.748678,5.78319 A 144.26291,144.26291 0 0 1 194.16664,52.268868 Z"
           fill="#61b8c6"
           style="stroke-width:1.09988" />
        <path
           id="Tracé_2233"
           data-name="Tracé 2233"
           d="m 338.39105,196.49328 a 144.18482,144.18482 0 0 1 -3.59442,32.0473 l 9.26872,2.77171 a 153.8165,153.8165 0 0 0 3.97388,-34.81791 155.44102,155.44102 0 0 0 -1.25387,-19.63952 l -9.50299,1.76972 a 145.67956,145.67956 0 0 1 1.10868,17.8687 z"
           fill="#d43a29"
           style="stroke-width:1.09988" />
        <path
           id="Tracé_2234"
           data-name="Tracé 2234"
           d="m 357.38164,169.97289 a 4.8240887,4.8240887 0 0 0 -5.62591,-3.85839 l -6.49811,1.20987 c 0.37946,1.96769 0.72703,3.94309 1.03059,5.92947 0.18148,1.19558 0.34427,2.39665 0.49825,3.59992 l 6.73679,-1.25606 a 4.8240887,4.8240887 0 0 0 3.85839,-5.62481 z"
           fill="#ffffff"
           style="stroke-width:1.09988" />
        <path
           id="Tracé_2235"
           data-name="Tracé 2235"
           d="m 325.25294,175.95846 a 4.8174894,4.8174894 0 0 0 5.62591,3.85949 l 6.40572,-1.19337 c -0.16169,-1.30997 -0.33657,-2.61773 -0.53455,-3.91889 -0.28597,-1.8808 -0.61483,-3.7506 -0.97559,-5.6094 l -6.662,1.24176 a 4.8229888,4.8229888 0 0 0 -3.85949,5.62041 z"
           fill="#ffffff"
           style="stroke-width:1.09988" />
        <path
           id="Tracé_2236"
           data-name="Tracé 2236"
           d="m 345.25542,167.32437 -9.48319,1.76642 c 0.36076,1.8621 0.68962,3.733 0.97559,5.6094 0.19798,1.30116 0.37286,2.60892 0.53455,3.91889 l 9.50189,-1.77082 c -0.15398,-1.20327 -0.31677,-2.40434 -0.49825,-3.59881 -0.30026,-1.98199 -0.64893,-3.95739 -1.03059,-5.92508 z"
           fill="#ffffff"
           style="stroke-width:1.09988" />
        <path
           id="Tracé_2237"
           data-name="Tracé 2237"
           d="m 321.95439,229.73396 a 4.8229888,4.8229888 0 0 0 3.24026,6.00426 l 7.13824,2.13488 q 1.38366,-4.60522 2.46484,-9.33252 l -6.83907,-2.04688 a 4.8273883,4.8273883 0 0 0 -6.00427,3.24026 z"
           fill="#ffffff"
           style="stroke-width:1.09988" />
        <path
           id="Tracé_2238"
           data-name="Tracé 2238"
           d="m 347.26051,242.33752 a 4.8240887,4.8240887 0 1 0 2.76401,-9.23902 l -5.96027,-1.78181 c -0.73032,3.14787 -1.56843,6.25504 -2.49014,9.32591 z"
           fill="#ffffff"
           style="stroke-width:1.09988" />
        <path
           id="Tracé_2239"
           data-name="Tracé 2239"
           d="m 332.33179,237.8742 9.23902,2.764 c 0.92061,-3.07087 1.75982,-6.17804 2.48904,-9.32591 l -9.26762,-2.77171 q -1.07238,4.7295 -2.46044,9.33362 z"
           fill="#ffffff"
           style="stroke-width:1.09988" />
        <path
           id="Tracé_2240"
           data-name="Tracé 2240"
           d="m 195.01465,329.22391 a 4.8339876,4.8339876 0 0 0 -5.06827,4.56672 l -0.35526,6.84787 c 1.52004,0.0473 3.04448,0.0803 4.57552,0.0803 1.70372,0 3.39754,-0.0407 5.08586,-0.099 l 0.32996,-6.32653 a 4.8251886,4.8251886 0 0 0 -4.56781,-5.06937 z"
           fill="#ffffff"
           style="stroke-width:1.09988" />
        <path
           id="Tracé_2241"
           data-name="Tracé 2241"
           d="m 189.08848,350.27458 -0.33987,6.51901 a 4.8240887,4.8240887 0 0 0 4.56562,5.06826 c 0.0858,0 0.17048,0.007 0.25517,0.007 a 4.8240887,4.8240887 0 0 0 4.81309,-4.57331 l 0.36516,-7.00076 c -1.52334,0.0451 -3.04888,0.0737 -4.58321,0.0737 -1.69822,-10e-4 -3.38984,-0.0385 -5.07596,-0.0935 z"
           fill="#ffffff"
           style="stroke-width:1.09988" />
        <path
           id="Tracé_2242"
           data-name="Tracé 2242"
           d="m 194.16664,340.71879 c -1.53214,0 -3.05548,-0.0319 -4.57662,-0.0803 l -0.50154,9.63498 c 1.68612,0.055 3.37774,0.0924 5.07816,0.0924 1.53433,0 3.05877,-0.0297 4.58211,-0.0737 l 0.50375,-9.67897 c -1.68942,0.066 -3.37884,0.10558 -5.08586,0.10558 z"
           fill="#ffffff"
           style="stroke-width:1.09988" />
        <path
           id="Tracé_2243"
           data-name="Tracé 2243"
           d="m 148.86244,351.92331 a 4.8242793,4.8242793 0 1 0 9.34021,2.41974 l 2.00619,-7.75638 q -4.7295,-1.06798 -9.33801,-2.42744 z"
           fill="#ffffff"
           style="stroke-width:1.09988" />
        <path
           id="Tracé_2244"
           data-name="Tracé 2244"
           d="m 160.5124,326.16184 a 4.8196892,4.8196892 0 0 0 -5.87887,3.46133 l -1.34296,5.18595 q 4.60961,1.36386 9.33801,2.42524 l 1.34516,-5.19475 a 4.8251886,4.8251886 0 0 0 -3.46134,-5.87777 z"
           fill="#ffffff"
           style="stroke-width:1.09988" />
        <path
           id="Tracé_2245"
           data-name="Tracé 2245"
           d="m 153.28727,334.81022 -2.41974,9.34901 q 4.61071,1.35396 9.33691,2.42744 l 2.41974,-9.34901 q -4.7262,-1.05918 -9.33691,-2.42744 z"
           fill="#ffffff"
           style="stroke-width:1.09988" />
        <path
           id="Tracé_2247"
           data-name="Tracé 2247"
           d="m 57.7481,182.56656 a 4.8240887,4.8240887 0 0 0 0.892005,-9.56899 L 52.087,171.758 q -0.829312,4.7548 -1.338558,9.56899 l 6.096654,1.15378 a 4.8075904,4.8075904 0 0 0 0.903004,0.0858 z"
           fill="#ffffff"
           style="stroke-width:1.09988" />
        <path
           id="Tracé_2248"
           data-name="Tracé 2248"
           d="m 52.0881,171.7613 -9.478795,-1.79391 q -0.834812,4.7537 -1.369355,9.55909 l 9.509592,1.79941 q 0.509246,-4.80429 1.338558,-9.56459 z"
           fill="#ffffff"
           style="stroke-width:1.09988" />
        <path
           id="Tracé_2249"
           data-name="Tracé 2249"
           d="m 60.629795,110.29762 a 4.8240887,4.8240887 0 1 0 -5.769989,7.73218 l 4.884582,3.64501 q 2.374649,-4.25105 4.990172,-8.31402 z"
           fill="#ffffff"
           style="stroke-width:1.09988" />
        <path
           id="Tracé_2250"
           data-name="Tracé 2250"
           d="m 76.201944,132.76164 a 4.8240887,4.8240887 0 0 0 2.887194,-8.68908 l -6.6048,-4.92858 q -2.595725,4.06957 -4.936277,8.35361 l 5.772189,4.30715 a 4.8009911,4.8009911 0 0 0 2.881694,0.9569 z"
           fill="#ffffff"
           style="stroke-width:1.09988" />
        <path
           id="Tracé_2251"
           data-name="Tracé 2251"
           d="m 72.484338,119.13958 -7.749778,-5.78209 q -2.613323,4.06077 -4.989072,8.31402 l 7.802573,5.82169 q 2.338352,-4.27415 4.936277,-8.35362 z"
           fill="#ffffff"
           style="stroke-width:1.09988" />
        <g
           id="Groupe_1941"
           data-name="Groupe 1941"
           transform="matrix(1.0998834,0,0,1.0998834,193.09315,66.938013)">
          <path
             id="Tracé_2252"
             data-name="Tracé 2252"
             d="m 4820.29,2940.487 a 0.975,0.975 0 0 1 -0.975,-0.975 v -9.355 a 0.975,0.975 0 1 1 1.949,0 v 9.355 a 0.974,0.974 0 0 1 -0.974,0.975 z"
             transform="translate(-4819.315,-2929.182)" />
        </g>
        <g
           id="Groupe_1942"
           data-name="Groupe 1942"
           transform="matrix(1.0998834,0,0,1.0998834,64.73456,195.422)">
          <path
             id="Tracé_2253"
             data-name="Tracé 2253"
             d="m 4654.864,3106.084 a 0.975,0.975 0 0 1 -0.974,0.975 h -9.354 a 0.975,0.975 0 1 1 0,-1.95 h 9.354 a 0.975,0.975 0 0 1 0.974,0.975 z"
             transform="translate(-4643.56,-3105.109)" />
        </g>
        <g
           id="Groupe_1943"
           data-name="Groupe 1943"
           transform="matrix(1.0998834,0,0,1.0998834,311.87946,195.12283)">
          <path
             id="Tracé_2254"
             data-name="Tracé 2254"
             d="m 4993.267,3105.674 a 0.975,0.975 0 0 1 -0.975,0.975 h -9.354 a 0.975,0.975 0 1 1 0,-1.949 h 9.354 a 0.974,0.974 0 0 1 0.975,0.974 z"
             transform="translate(-4981.962,-3104.699)" />
        </g>
        <g
           id="Groupe_1944"
           data-name="Groupe 1944"
           transform="matrix(1.0998834,0,0,1.0998834,193.09315,313.57367)">
          <path
             id="Tracé_2255"
             data-name="Tracé 2255"
             d="m 4820.29,3278.191 a 0.975,0.975 0 0 1 -0.975,-0.975 v -9.355 a 0.975,0.975 0 0 1 1.949,0 v 9.355 a 0.974,0.974 0 0 1 -0.974,0.975 z"
             transform="translate(-4819.315,-3266.887)" />
        </g>
        <text
           xml:space="preserve"
           style="font-size:24.1865px;line-height:1.25;font-family:Poppins;-inkscape-font-specification:Poppins;letter-spacing:0px;word-spacing:0px;stroke-width:1.09939"
           x="199.66504"
           y="153.19678"
           id="text1552"
           transform="rotate(0.32063922)"><tspan
             id="tspan1550"
             x="199.66504"
             y="153.19678"
             style="font-style:normal;font-variant:normal;font-weight:600;font-stretch:normal;font-size:24.1865px;font-family:Poppins;-inkscape-font-specification:'Poppins Semi-Bold';text-align:center;text-anchor:middle;fill:#00374b;fill-opacity:1;stroke-width:1.09939">Mon quotidien </tspan><tspan
             x="199.66504"
             y="183.4299"
             style="font-style:normal;font-variant:normal;font-weight:600;font-stretch:normal;font-size:24.1865px;font-family:Poppins;-inkscape-font-specification:'Poppins Semi-Bold';text-align:center;text-anchor:middle;fill:#00374b;fill-opacity:1;stroke-width:1.09939"
             id="tspan1554">d'expédition</tspan></text>
        <text
           xml:space="preserve"
           style="font-size:17.1733px;line-height:1.25;font-family:Poppins;-inkscape-font-specification:Poppins;letter-spacing:0px;word-spacing:0px;stroke-width:1.09939"
           x="190.51466"
           y="273.85883"
           id="text2170"
           transform="rotate(-0.93570051)"><tspan
             x="190.51466"
             y="273.85883"
             style="font-style:normal;font-variant:normal;font-weight:600;font-stretch:normal;font-size:17.1733px;font-family:Poppins;-inkscape-font-specification:'Poppins Semi-Bold';text-align:center;text-anchor:middle;fill:#00374b;fill-opacity:1;stroke-width:1.09939"
             id="tspan2168">En savoir plus</tspan></text>
        <g
           id="g2257"
           transform="matrix(0.00125105,0.06389027,-0.06389027,0.00125105,208.95393,276.2139)"
           style="fill:#00374b;fill-opacity:1">
          <g
             id="g2255"
             style="fill:#00374b;fill-opacity:1">
            <path
               d="M 367.954,213.588 160.67,5.872 c -7.804,-7.819 -20.467,-7.831 -28.284,-0.029 -7.819,7.802 -7.832,20.465 -0.03,28.284 l 207.299,207.731 c 7.798,7.798 7.798,20.486 -0.015,28.299 L 132.356,477.873 c -7.802,7.819 -7.789,20.482 0.03,28.284 3.903,3.896 9.016,5.843 14.127,5.843 5.125,0 10.25,-1.958 14.157,-5.873 L 367.939,298.426 c 23.394,-23.394 23.394,-61.459 0.015,-84.838 z"
               id="path2253"
               style="fill:#00374b;fill-opacity:1" />
          </g>
        </g>
      </g>
    </g>
    <g
       id="Groupe_1883"
       data-name="Groupe 1883"
       transform="matrix(0.77707361,-0.39594996,0.39594996,0.77707361,1424.4306,3924.784)">
      <path
         id="Tracé_1882"
         data-name="Tracé 1882"
         d="m 10.215,0 a 10.225,10.225 0 0 1 10.213,10.214 v 1.315 h -2.29 v -1.315 a 7.923,7.923 0 1 0 -15.846,0 v 32.92 a 4.141,4.141 0 0 0 4.136,4.137 h 1.013 a 4.141,4.141 0 0 0 4.136,-4.137 V 14.815 a 1.145,1.145 0 0 1 2.29,0 v 28.32 A 6.435,6.435 0 0 1 7.44,49.563 H 6.428 A 6.436,6.436 0 0 1 0,43.135 V 10.214 A 10.226,10.226 0 0 1 10.215,0 Z"
         transform="matrix(0.999,0.035,-0.035,0.999,1.73,0)"
         fill="#00374b" />
    </g>
  </g>
</svg>
