<?xml version="1.0" encoding="UTF-8" standalone="no"?>
<svg
   xmlns:dc="http://purl.org/dc/elements/1.1/"
   xmlns:cc="http://creativecommons.org/ns#"
   xmlns:rdf="http://www.w3.org/1999/02/22-rdf-syntax-ns#"
   xmlns:svg="http://www.w3.org/2000/svg"
   xmlns="http://www.w3.org/2000/svg"
   width="550.446"
   height="354.87"
   viewBox="0 0 550.446 354.87"
   version="1.1"
   id="svg116">
  <metadata
     id="metadata120">
    <rdf:RDF>
      <cc:Work
         rdf:about="">
        <dc:format>image/svg+xml</dc:format>
        <dc:type
           rdf:resource="http://purl.org/dc/dcmitype/StillImage" />
        <dc:title></dc:title>
      </cc:Work>
    </rdf:RDF>
  </metadata>
  <defs
     id="defs106">
    <filter
       id="Rectangle_139"
       x="0"
       y="31.478"
       width="550.446"
       height="323.391"
       filterUnits="userSpaceOnUse">
      <feOffset
         dx="12.84"
         dy="14.35"
         input="SourceAlpha"
         id="feOffset84" />
      <feGaussianBlur
         stdDeviation="5.67"
         result="blur"
         id="feGaussianBlur86" />
      <feFlood
         flood-opacity="0.102"
         id="feFlood88" />
      <feComposite
         operator="in"
         in2="blur"
         id="feComposite90"
         result="result1" />
      <feComposite
         in="SourceGraphic"
         in2="result1"
         id="feComposite92" />
    </filter>
    <filter
       id="Rectangle_123"
       x="212.705"
       y="0"
       width="71.051"
       height="122.092"
       filterUnits="userSpaceOnUse">
      <feOffset
         dy="3"
         input="SourceAlpha"
         id="feOffset95" />
      <feGaussianBlur
         stdDeviation="3"
         result="blur-2"
         id="feGaussianBlur97" />
      <feFlood
         flood-opacity="0.161"
         id="feFlood99" />
      <feComposite
         operator="in"
         in2="blur-2"
         id="feComposite101"
         result="result1" />
      <feComposite
         in="SourceGraphic"
         in2="result1"
         id="feComposite103" />
    </filter>
  </defs>
  <g
     id="Groupe_1663"
     data-name="Groupe 1663"
     transform="translate(-100.247 -3462.081)">
    <g
       id="Groupe_1662"
       data-name="Groupe 1662"
       transform="matrix(0.995, -0.105, 0.105, 0.995, 104.417, 3547.872)">
      <g
         transform="matrix(0.99, 0.1, -0.1, 0.99, 4.82, -85.76)"
         filter="url(#Rectangle_139)"
         id="g109">
        <rect
           id="Rectangle_139-2"
           data-name="Rectangle 139"
           width="494.148"
           height="239.028"
           transform="matrix(0.99, -0.1, 0.1, 0.99, 4.17, 85.79)"
           fill="#ededed" />
      </g>
    </g>
    <g
       transform="matrix(1, 0, 0, 1, 100.25, 3462.08)"
       filter="url(#Rectangle_123)"
       id="g113">
      <rect
         id="Rectangle_123-2"
         data-name="Rectangle 123"
         width="37.973"
         height="99.375"
         transform="translate(221.71 11.94) rotate(-9)"
         fill="#fff" />
    </g>
  </g>
  <path
     id="text124"
     style="font-size:56px;line-height:1.25;font-family:Poppins;-inkscape-font-specification:Poppins;letter-spacing:0px;word-spacing:0px;fill:#00374b;fill-opacity:1;"
     d="M 355.29883 121.02344 C 354.60598 121.03074 353.89808 121.08091 353.17578 121.17188 C 350.17548 121.54974 347.59022 122.53273 345.41992 124.12305 C 343.28667 125.7087 341.72367 127.7865 340.73047 130.35742 C 339.76964 132.88664 339.48825 135.72654 339.88477 138.875 C 340.28129 142.02346 341.27926 144.72047 342.87891 146.96484 C 344.51093 149.16751 346.55897 150.78974 349.02344 151.83398 C 351.52028 152.83652 354.23199 153.15369 357.1582 152.78516 C 360.75115 152.33266 363.63853 151.06555 365.82227 148.98438 C 368.03837 146.86149 369.43242 144.33406 370.00391 141.40234 L 363.16992 142.26367 C 362.12157 145.29308 359.89408 147.022 356.48633 147.45117 C 354.11572 147.74973 352.02147 147.26075 350.20508 145.98438 C 348.38869 144.708 347.23332 142.85886 346.74023 140.4375 L 370.13281 137.49219 C 370.16435 136.54751 370.1075 135.50178 369.96289 134.35352 C 369.5897 131.39026 368.62988 128.85674 367.08594 126.75586 C 365.53733 124.61794 363.55481 123.06271 361.13672 122.08789 C 359.32315 121.35677 357.37738 121.00154 355.29883 121.02344 z M 331.75195 124.37695 L 325.36133 125.18164 L 325.92188 129.62695 C 324.70747 128.35002 323.11514 127.36465 321.14648 126.67188 C 319.2102 125.9374 317.05811 125.71902 314.6875 126.01758 C 312.02057 126.35345 309.65997 127.32804 307.60547 128.94141 C 305.58334 130.51306 304.07209 132.56768 303.07422 135.10156 C 302.11339 137.63078 301.82765 140.43148 302.21484 143.50586 C 302.60203 146.58024 303.57921 149.26079 305.14648 151.54688 C 306.74613 153.79125 308.72403 155.46136 311.08203 156.55664 C 313.47241 157.61021 316.00104 157.96869 318.66797 157.63281 C 321.00154 157.33892 323.01528 156.59594 324.70898 155.4043 C 326.43507 154.17095 327.74447 152.76542 328.63672 151.18555 L 329.28125 156.29688 C 329.65445 159.26013 329.14096 161.6187 327.74414 163.375 C 326.38436 165.12664 324.4269 166.16445 321.87109 166.48633 C 319.68569 166.76156 317.73433 166.49873 316.01562 165.69922 C 314.33863 164.93209 313.15868 163.78211 312.47656 162.25 L 306.19922 163.04102 C 306.98947 166.32803 308.87578 168.76284 311.85938 170.34375 C 314.84763 171.9617 318.41589 172.5088 322.56445 171.98633 C 325.67587 171.59447 328.26429 170.62913 330.32812 169.08984 C 332.429 167.5459 333.93053 165.58852 334.83594 163.2168 C 335.74601 160.88212 336.02446 158.30728 335.66992 155.49219 L 331.75195 124.37695 z M 355.31836 126.45312 C 357.01149 126.50799 358.53728 126.98695 359.89258 127.88867 C 361.69964 129.09096 362.76868 130.85665 363.09961 133.18555 L 346.15234 135.32031 C 346.15011 132.91239 346.8415 130.92386 348.22461 129.35742 C 349.60305 127.75395 351.38491 126.81429 353.57031 126.53906 C 354.17222 126.46326 354.75398 126.43484 355.31836 126.45312 z M 294.0957 129.11914 L 287.70703 129.92383 L 288.26562 134.36914 C 287.01418 133.09688 285.42381 132.1115 283.49219 131.41406 C 281.59294 130.67492 279.4389 130.4585 277.03125 130.76172 C 274.36432 131.09759 272.00372 132.07218 269.94922 133.68555 C 267.92709 135.2572 266.41779 137.30987 265.41992 139.84375 C 264.45909 142.37297 264.1714 145.17367 264.55859 148.24805 C 264.94578 151.32243 265.92296 154.00298 267.49023 156.28906 C 269.08988 158.53344 271.06778 160.20355 273.42578 161.29883 C 275.77912 162.35706 278.27245 162.71988 280.90234 162.38867 C 283.27295 162.09012 285.32199 161.34279 287.05273 160.14648 C 288.78348 158.95018 290.09603 157.56229 290.98828 155.98242 L 291.5625 160.53906 L 297.95117 159.73438 L 294.0957 129.11914 z M 317.92383 131.27539 C 319.12374 131.27949 320.2912 131.52178 321.42383 132 C 322.934 132.63763 324.2119 133.68049 325.25977 135.12891 C 326.34467 136.57266 327.02121 138.34962 327.28711 140.46094 C 327.55301 142.57226 327.34073 144.48084 326.65234 146.18555 C 325.99633 147.84855 325.01586 149.1758 323.71094 150.16797 C 322.40602 151.16013 320.93839 151.75959 319.30859 151.96484 C 317.71584 152.16544 316.14683 151.94937 314.59961 151.31641 C 313.08477 150.64174 311.78293 149.56282 310.69336 148.08203 C 309.64083 146.59657 308.98075 144.79882 308.71484 142.6875 C 308.44894 140.57618 308.64597 138.708 309.30664 137.08203 C 309.99969 135.41436 311.00096 134.10161 312.31055 133.14648 C 313.61547 132.15432 315.0831 131.55682 316.71289 131.35156 C 317.12034 131.30025 317.52386 131.27402 317.92383 131.27539 z M 259.98047 133.41602 L 253.42383 134.24219 L 247.41602 158.70508 L 235.86523 136.45312 L 228.81055 137.3418 L 244.6582 165.9375 L 240.3125 181.61133 L 246.86719 180.78516 L 259.98047 133.41602 z M 190.68555 134.01562 L 184.01758 134.85547 L 176.5625 168.41797 L 161.07227 137.74609 L 154.29297 138.59961 L 173.71289 175.38086 L 181.04688 174.45703 L 190.68555 134.01562 z M 280.26758 136.01953 C 281.46749 136.02363 282.63495 136.26397 283.76758 136.74219 C 285.27775 137.37982 286.55565 138.42268 287.60352 139.87109 C 288.68842 141.31485 289.36496 143.0918 289.63086 145.20312 C 289.89676 147.31445 289.68448 149.22302 288.99609 150.92773 C 288.34008 152.59074 287.35961 153.91799 286.05469 154.91016 C 284.74977 155.90232 283.28409 156.50177 281.6543 156.70703 C 280.06155 156.90762 278.49058 156.69156 276.94336 156.05859 C 275.42852 155.38392 274.12668 154.30501 273.03711 152.82422 C 271.98458 151.33876 271.3245 149.54101 271.05859 147.42969 C 270.79269 145.31837 270.98972 143.45018 271.65039 141.82422 C 272.34344 140.15655 273.34667 138.8438 274.65625 137.88867 C 275.96117 136.89651 277.42685 136.29901 279.05664 136.09375 C 279.46409 136.04244 279.86761 136.01817 280.26758 136.01953 z M 212.58789 139 C 211.88086 139.00673 211.16124 139.0563 210.42969 139.14844 C 207.50347 139.51697 204.9378 140.49877 202.73047 142.09375 C 200.52313 143.68873 198.88565 145.77717 197.81836 148.35742 C 196.75107 150.93767 196.41283 153.78311 196.80469 156.89453 C 197.20121 160.04299 198.21683 162.73685 199.85352 164.97656 C 201.48554 167.17923 203.55318 168.80027 206.05469 169.83984 C 208.55153 170.84238 211.24364 171.16269 214.13281 170.79883 C 217.05903 170.4303 219.6443 169.44535 221.88867 167.8457 C 224.16542 166.20435 225.85661 164.09077 226.96094 161.50586 C 228.06526 158.92094 228.42115 156.07236 228.0293 152.96094 C 227.63744 149.84952 226.60537 147.17645 224.93164 144.94141 C 223.25791 142.70636 221.15302 141.08967 218.61914 140.0918 C 216.71873 139.34339 214.70899 138.9798 212.58789 139 z M 212.22266 144.58398 C 213.4217 144.58114 214.58571 144.80542 215.71484 145.25586 C 217.22036 145.85645 218.49706 146.88166 219.54492 148.33008 C 220.58812 149.74145 221.2494 151.55881 221.5293 153.78125 C 221.80919 156.00369 221.60321 157.94756 220.91016 159.61523 C 220.21711 161.2829 219.19623 162.59685 217.84961 163.55664 C 216.54003 164.51176 215.0712 165.09162 213.44141 165.29688 C 210.8856 165.61876 208.64263 164.99891 206.71484 163.43555 C 204.81943 161.83047 203.66518 159.37866 203.25 156.08203 C 202.9701 153.85959 203.14199 151.93771 203.76562 150.31641 C 204.38459 148.65807 205.32902 147.35476 206.60156 146.4043 C 207.91115 145.44917 209.38193 144.86932 211.01172 144.66406 C 211.41917 144.61275 211.82298 144.58493 212.22266 144.58398 z M 351.9082 220.04102 L 348.28906 220.5 L 351.26562 243.99219 L 354.88477 243.5332 L 351.9082 220.04102 z M 385.46289 221.69141 C 385.00643 221.68474 384.53056 221.71432 384.0332 221.77734 C 382.69987 221.94631 381.54322 222.31867 380.5625 222.89453 C 379.60294 223.46771 378.89635 224.1804 378.44531 225.0332 C 377.9916 225.86484 377.8234 226.74651 377.94141 227.67773 C 378.08623 228.82059 378.50054 229.70285 379.18164 230.32617 C 379.8839 230.94681 380.6688 231.37339 381.53711 231.60742 C 382.40542 231.84145 383.51919 232.05649 384.87695 232.25 C 386.27973 232.45931 387.30695 232.68414 387.96094 232.92383 C 388.63609 233.16083 389.01452 233.60563 389.09766 234.26172 C 389.17543 234.87548 388.95407 235.42 388.43359 235.89453 C 387.9316 236.34521 387.17408 236.63494 386.1582 236.76367 C 385.18466 236.88704 384.33886 236.74738 383.62109 236.34375 C 382.92181 235.91627 382.4933 235.33621 382.33594 234.60352 L 378.58984 235.07812 C 378.76627 236.13097 379.22777 237.05062 379.97266 237.83789 C 380.71486 238.604 381.65705 239.17376 382.80078 239.54492 C 383.963 239.89224 385.23176 239.97901 386.60742 239.80469 C 387.96192 239.63304 389.10848 239.2619 390.04688 238.69141 C 391.00643 238.11823 391.71107 237.40358 392.16211 236.55078 C 392.61314 235.69798 392.77644 234.77401 392.65039 233.7793 C 392.48708 232.66028 392.06513 231.80138 391.38672 231.19922 C 390.7083 230.59706 389.93667 230.17739 389.06836 229.94336 C 388.21853 229.68548 387.13697 229.46873 385.82422 229.29102 C 384.83697 229.13657 384.08831 229.00607 383.58008 228.89844 C 383.06917 228.76965 382.62495 228.56752 382.24609 228.29297 C 381.86724 228.01842 381.64885 227.64725 381.58984 227.18164 C 381.51475 226.58905 381.70758 226.08236 382.16992 225.6582 C 382.63227 225.23405 383.33863 224.96053 384.29102 224.83984 C 385.26456 224.71648 386.06683 224.85094 386.69727 225.24414 C 387.3277 225.63734 387.724 226.22302 387.88672 226.99805 L 391.50586 226.53906 C 391.20129 224.81434 390.3731 223.53252 389.01953 222.69336 C 388.01822 222.0461 386.83227 221.71141 385.46289 221.69141 z M 373.26172 223.43164 L 369.64258 223.89062 L 370.87695 233.63672 C 371.07542 235.20286 370.82586 236.45973 370.12891 237.4082 C 369.45043 238.33283 368.43458 238.88109 367.08008 239.05273 C 365.72558 239.22438 364.60446 238.94687 363.7168 238.2207 C 362.82645 237.47337 362.28245 236.31614 362.08398 234.75 L 360.84766 225.00391 L 357.26172 225.45898 L 358.56445 235.74414 C 358.7656 237.33145 359.2441 238.64749 360 239.69141 C 360.77706 240.73264 361.7408 241.4716 362.89258 241.90625 C 364.06552 242.33822 365.34113 242.46729 366.7168 242.29297 C 367.75384 242.16155 368.70145 241.8358 369.56055 241.31836 C 370.43813 240.77707 371.11741 240.11035 371.59766 239.31836 L 371.85938 241.38281 L 375.47852 240.92383 L 373.26172 223.43164 z M 300.125 225.67773 C 299.97465 225.66856 299.82084 225.67324 299.66211 225.69336 C 299.00602 225.7765 298.48383 226.06955 298.0957 226.57031 C 297.70758 227.07108 297.55553 227.6486 297.63867 228.30469 C 297.72181 228.96077 298.01291 229.48297 298.51367 229.87109 C 299.01444 230.25922 299.59391 230.41126 300.25 230.32812 C 300.88492 230.24767 301.39703 229.9578 301.78516 229.45703 C 302.17328 228.95627 302.32533 228.37874 302.24219 227.72266 C 302.15905 227.06657 301.866 226.54438 301.36523 226.15625 C 300.98966 225.86516 300.57604 225.70525 300.125 225.67773 z M 338.33789 227.63867 C 337.9681 227.63715 337.59384 227.66071 337.21289 227.70898 C 335.87955 227.87795 334.71699 228.30587 333.72852 228.99023 C 332.74004 229.6746 331.99036 230.45783 331.47852 231.33984 L 331.15234 228.76758 L 327.5332 229.22656 L 330.80469 255.03516 L 334.42383 254.57812 L 333.04688 243.7207 C 333.80487 244.4418 334.73893 245.01084 335.8457 245.42969 C 336.94979 245.82738 338.16862 245.9424 339.50195 245.77344 C 341.02577 245.58034 342.36349 245.02366 343.51562 244.10352 C 344.68624 243.15953 345.54264 241.95318 346.08789 240.48633 C 346.63046 238.99831 346.79096 237.37576 346.56836 235.61914 C 346.34576 233.86252 345.78966 232.35316 344.89844 231.08984 C 344.00722 229.82653 342.87934 228.906 341.51562 228.32617 C 340.5067 227.87342 339.44727 227.64324 338.33789 227.63867 z M 315.89453 230.41016 C 314.68818 230.56303 313.67218 230.94973 312.84766 231.57031 C 312.04161 232.16705 311.43013 232.94445 311.01367 233.90039 L 310.69141 231.36133 L 307.07227 231.81836 L 309.28906 249.31055 L 312.9082 248.85352 L 311.74219 239.64648 C 311.51691 237.8687 311.71731 236.57444 312.3457 235.76367 C 312.99526 234.95023 314.02927 234.45313 315.44727 234.27344 L 316.36914 234.15625 L 315.89453 230.41016 z M 337.50781 230.91016 C 338.19348 230.91197 338.86038 231.04949 339.50781 231.32227 C 340.38953 231.66212 341.13105 232.24506 341.73047 233.07227 C 342.34837 233.87563 342.73385 234.87958 342.88672 236.08594 C 343.03959 237.29229 342.91996 238.383 342.52734 239.35742 C 342.15589 240.32916 341.58793 241.11176 340.82422 241.70312 C 340.07899 242.27065 339.23981 242.61246 338.30859 242.73047 C 337.39854 242.84579 336.50159 242.72234 335.61719 242.36133 C 334.75395 241.99763 334.01316 241.4046 333.39258 240.58008 C 332.79048 239.73171 332.41264 238.7044 332.25977 237.49805 C 332.1069 236.29169 332.21766 235.21229 332.5918 234.26172 C 332.98709 233.30846 333.5575 232.54799 334.30273 231.98047 C 335.06913 231.41026 335.90635 231.06845 336.81641 230.95312 C 337.04921 230.92362 337.27926 230.90955 337.50781 230.91016 z M 302.32031 232.42188 L 298.70117 232.87891 L 300.91797 250.37109 L 304.53711 249.91406 L 302.32031 232.42188 z M 287.36914 234.0957 C 286.96512 234.09986 286.55471 234.12867 286.13672 234.18164 C 284.46476 234.39351 282.99892 234.95675 281.73828 235.86914 C 280.47765 236.78153 279.54234 237.97432 278.93359 239.44922 C 278.32485 240.92412 278.13409 242.55034 278.35938 244.32812 C 278.58734 246.12707 279.16924 247.6662 280.10547 248.94531 C 281.03902 250.20326 282.2205 251.12776 283.65039 251.7207 C 285.0776 252.29248 286.61678 252.47482 288.26758 252.26562 C 289.93954 252.05375 291.41547 251.48929 292.69727 250.57422 C 293.99755 249.6353 294.96384 248.42875 295.59375 246.95117 C 296.22366 245.47359 296.4245 243.84419 296.19922 242.06641 C 295.97394 240.28862 295.38318 238.76276 294.42578 237.48633 C 293.46838 236.20989 292.26477 235.2859 290.81641 234.7168 C 289.73013 234.28997 288.58119 234.08323 287.36914 234.0957 z M 275.69141 235.79492 L 271.84961 236.2832 L 268.70312 251.16406 L 261.94531 237.53711 L 258.07227 238.0293 L 266.92383 254.67969 L 271.24023 254.13281 L 275.69141 235.79492 z M 287.16406 237.28711 C 287.84923 237.28496 288.51279 237.41302 289.1582 237.66992 C 290.01876 238.01245 290.75019 238.59662 291.34961 239.42383 C 291.94634 240.22987 292.32541 241.26726 292.48633 242.53711 C 292.64724 243.80695 292.53006 244.91979 292.13477 245.87305 C 291.73947 246.8263 291.1558 247.57791 290.38672 248.12695 C 289.6388 248.67331 288.80036 249.00504 287.86914 249.12305 C 286.40882 249.3081 285.12767 248.95305 284.02539 248.06055 C 282.94159 247.14419 282.27971 245.74493 282.04102 243.86133 C 281.8801 242.59148 281.97833 241.49314 282.33398 240.56641 C 282.68695 239.61851 283.22637 238.87376 283.95312 238.33008 C 284.70104 237.78372 285.53948 237.45004 286.4707 237.33203 C 286.70351 237.30253 286.93567 237.28783 287.16406 237.28711 z M 255.38281 238.36914 L 251.73047 238.83203 L 252.05273 241.37109 C 251.33706 240.64463 250.42831 240.08323 249.32422 239.68555 C 248.23861 239.26401 247.00652 239.14013 245.63086 239.31445 C 244.10705 239.50755 242.75923 240.06546 241.58594 240.98828 C 240.43112 241.88726 239.5691 243.0614 239 244.50977 C 238.45206 245.95545 238.28912 247.55588 238.51172 249.3125 C 238.73432 251.06912 239.29482 252.60061 240.19141 253.90625 C 241.10647 255.18805 242.23803 256.14079 243.58594 256.76562 C 244.93117 257.3693 246.35477 257.57714 247.85742 257.38672 C 249.21192 257.21508 250.38262 256.78592 251.37109 256.10156 C 252.35957 255.4172 253.10802 254.62388 253.61719 253.7207 L 253.94727 256.32422 L 257.59766 255.86133 L 255.38281 238.36914 z M 229.15039 241.5 C 228.69393 241.49333 228.21806 241.52096 227.7207 241.58398 C 226.38737 241.75295 225.23072 242.12531 224.25 242.70117 C 223.29044 243.27435 222.58385 243.98704 222.13281 244.83984 C 221.6791 245.67148 221.5109 246.55316 221.62891 247.48438 C 221.77373 248.62724 222.18804 249.51144 222.86914 250.13477 C 223.5714 250.7554 224.3563 251.18199 225.22461 251.41602 C 226.09292 251.65005 227.20669 251.86313 228.56445 252.05664 C 229.96723 252.26595 230.99445 252.49078 231.64844 252.73047 C 232.32359 252.96747 232.70202 253.41423 232.78516 254.07031 C 232.86293 254.68407 232.64157 255.2286 232.12109 255.70312 C 231.6191 256.15381 230.86158 256.44353 229.8457 256.57227 C 228.87216 256.69563 228.02636 256.55598 227.30859 256.15234 C 226.60931 255.72486 226.1808 255.14481 226.02344 254.41211 L 222.27734 254.88672 C 222.45377 255.93956 222.91527 256.85921 223.66016 257.64648 C 224.40236 258.41259 225.34455 258.9804 226.48828 259.35156 C 227.6505 259.69888 228.91926 259.78565 230.29492 259.61133 C 231.64942 259.43968 232.79598 259.06854 233.73438 258.49805 C 234.69393 257.92487 235.39857 257.21218 235.84961 256.35938 C 236.30064 255.50657 236.46394 254.5826 236.33789 253.58789 C 236.17458 252.46888 235.75263 251.60802 235.07422 251.00586 C 234.3958 250.4037 233.62417 249.98598 232.75586 249.75195 C 231.90603 249.49408 230.82447 249.27732 229.51172 249.09961 C 228.52447 248.94516 227.77581 248.81271 227.26758 248.70508 C 226.75667 248.57629 226.31245 248.37611 225.93359 248.10156 C 225.55474 247.82701 225.33635 247.45584 225.27734 246.99023 C 225.20225 246.39764 225.39508 245.889 225.85742 245.46484 C 226.31977 245.04069 227.02613 244.76912 227.97852 244.64844 C 228.95206 244.52507 229.75433 244.65954 230.38477 245.05273 C 231.0152 245.44593 231.4115 246.02966 231.57422 246.80469 L 235.19336 246.3457 C 234.88879 244.62098 234.0606 243.33916 232.70703 242.5 C 231.70572 241.85275 230.51977 241.52001 229.15039 241.5 z M 187.85156 242.25 L 175.66016 243.79492 L 178.46094 265.89062 L 190.65039 264.3457 L 190.27734 261.39258 L 181.70508 262.47852 L 180.84766 255.7168 L 188.4668 254.75195 L 188.09375 251.79883 L 180.47461 252.76367 L 179.6543 246.28906 L 188.22461 245.20312 L 187.85156 242.25 z M 247.48438 242.31836 C 248.17004 242.32017 248.83499 242.4577 249.48242 242.73047 C 250.34566 243.09417 251.07832 243.68842 251.67773 244.51562 C 252.29831 245.34015 252.68502 246.35615 252.83789 247.5625 C 252.99076 248.76885 252.87113 249.85956 252.47852 250.83398 C 252.10438 251.78456 251.54406 252.54381 250.79883 253.11133 C 250.0536 253.67885 249.21442 254.02067 248.2832 254.13867 C 247.37315 254.25399 246.4762 254.13055 245.5918 253.76953 C 244.72588 253.38467 243.98264 252.76952 243.35938 251.92383 C 242.75728 251.07546 242.37943 250.04815 242.22656 248.8418 C 242.07369 247.63544 242.18569 246.56808 242.5625 245.63867 C 242.9578 244.68541 243.52943 243.93503 244.27734 243.38867 C 245.02258 242.82115 245.8598 242.47933 246.79102 242.36133 C 247.02382 242.33183 247.25582 242.31775 247.48438 242.31836 z M 202.66016 244.81445 C 202.33023 244.81997 201.99431 244.84509 201.65039 244.88867 C 200.61335 245.02009 199.6537 245.34511 198.77344 245.86523 C 197.91434 246.38267 197.23578 247.03931 196.73438 247.83398 L 196.48047 245.83398 L 192.86133 246.29297 L 195.07812 263.78516 L 198.69727 263.32617 L 197.45703 253.54688 C 197.25857 251.98073 197.49926 250.73713 198.17773 249.8125 C 198.87469 248.86402 199.8994 248.3025 201.25391 248.13086 C 202.60841 247.95922 203.7327 248.24681 204.62305 248.99414 C 205.51071 249.72031 206.05349 250.86745 206.25195 252.43359 L 207.49023 262.21094 L 211.07812 261.75586 L 209.76953 251.43945 C 209.56839 249.85215 209.08988 248.53611 208.33398 247.49219 C 207.57808 246.44827 206.61435 245.71127 205.44141 245.2793 C 204.57757 244.95331 203.64993 244.79789 202.66016 244.81445 z " />
  <g
     id="g1036"
     transform="matrix(0.0070012,0.0612656,-0.0612656,0.0070012,299.14142,258.19131)"
     style="fill:#00374b;fill-opacity:1">
    <g
       id="g1034"
       style="fill:#00374b;fill-opacity:1">
      <path
         d="M 367.954,213.588 160.67,5.872 c -7.804,-7.819 -20.467,-7.831 -28.284,-0.029 -7.819,7.802 -7.832,20.465 -0.03,28.284 l 207.299,207.731 c 7.798,7.798 7.798,20.486 -0.015,28.299 L 132.356,477.873 c -7.802,7.819 -7.789,20.482 0.03,28.284 3.903,3.896 9.016,5.843 14.127,5.843 5.125,0 10.25,-1.958 14.157,-5.873 L 367.939,298.426 c 23.394,-23.394 23.394,-61.459 0.015,-84.838 z"
         id="path1032"
         style="fill:#00374b;fill-opacity:1" />
    </g>
  </g>
</svg>
