<svg width="414" height="181" viewBox="0 0 414 181" fill="none" xmlns="http://www.w3.org/2000/svg">
<path d="M11.86 172.52C20.36 171.78 28.5 168.03 36.25 164.71C46.3 160.41 56.14 155.61 65.9 150.69C89.37 138.87 112.56 126.56 136.9 116.56C168.53 103.55 200.99 95.4 235.03 91.96C251.86 90.26 268.73 89.76 285.6 88.71C300.58 87.78 316.24 86.29 330.4 81C355.78 71.52 377.57 54.57 401.64 42.48C408.54 39.01 402.47 28.66 395.58 32.12C374.34 42.79 354.93 56.84 333.33 66.84C305.72 79.61 273.05 76.67 243.44 79.18C210.31 81.99 177.86 88.06 146.7 99.85C119.93 109.98 94.31 122.62 68.9 135.71C58.68 140.97 48.4 146.13 37.95 150.91C33 153.17 28.02 155.35 22.92 157.26C20.74 158.07 18.54 158.85 16.3 159.5C15.32 159.78 14.33 160.05 13.33 160.27C12.12 160.54 12.4 160.48 11.87 160.53C4.24 161.19 4.17 173.2 11.87 172.53L11.86 172.52Z" fill="white"/>
<path d="M216.14 89.76C216.23 89.38 215.87 89.14 215.58 88.94C214.86 88.45 214.05 88.13 213.26 87.78C211.28 87.63 210.01 86.07 209.98 83.72C209.96 82.38 209.88 81.05 209.78 79.72C209.76 79.45 209.7 78.94 209.69 78.45C209.69 77.6 209.65 76.75 209.6 75.91C209.58 75.63 209.66 75.34 209.6 75.07C209.39 73.97 209.3 72.82 209.47 71.9C209.61 71.13 211.21 68.91 211.47 68.19C212.42 65.58 213.67 64.32 214.7 62.9C215.17 62.25 216.5 60.07 212.85 60.68C211.72 60.87 210.55 60.88 209.45 60.57C208.08 60.19 207.79 59.05 206.8 57.2C206.27 56.21 206.88 55.51 206.65 53.81C206.62 53.56 206.65 53.21 206.51 52.95C206.15 52.32 205.11 52.32 205.11 52.09C205.11 51.77 204.86 50.97 205.43 50.99L205.52 50.97C205.89 50.83 206.32 50.17 206.7 49.32L206.84 48.63C207.5 46.72 207.08 45.59 205.97 43.9C204.94 42.31 203.45 41.63 201.84 42.26C199.41 43.2 199.04 43.77 198.49 45.07C198.37 45.35 198.2 45.82 198.14 46.16C198 46.98 197.89 47.7 197.99 48.51C198.09 49.31 198.05 50.23 198.46 50.92C198.49 50.97 198.51 51.02 198.54 51.09C198.59 51.22 198.62 51.46 198.56 51.6C198.34 52.09 197.38 52.37 196.94 52.45C196.22 52.58 194.86 53.74 194.87 54.81C194.9 56.89 191.83 62.47 195.04 63.99C196.78 64.81 197.8 63.77 197.83 64.31C197.88 65.2 197.33 66.09 196.35 67.03C194.77 68.53 181.02 88.38 180.48 88.09C180.48 88.09 180.08 86.23 178.94 85.78C177.78 85.33 177.02 86.17 174.4 85.78C171.78 85.39 169.87 85.42 167.04 86.98C165.31 87.93 163.22 89.05 161.85 89.78C160.77 90.35 160.12 91.49 160.18 92.71C160.22 93.49 160.33 94.53 160.57 95.94C161.37 100.64 162.45 99.98 164.01 99.81C164.01 99.81 180.35 95.66 181.08 95.37C181.81 95.08 182.18 94.84 182.55 94.33C182.92 93.82 186.64 88.35 187.36 87.73L198.47 74.33L198.81 74.5C198.81 74.5 197.24 79.28 196.59 81.64C195.93 84 194.17 90.69 194.28 92.26C194.28 92.26 193.56 95.03 196.39 94.18C198.33 93.59 206.69 92.43 215.4 90.59C215.65 90.4 216.08 90.09 216.15 89.78L216.14 89.76ZM207.62 66.62C207.62 66.62 207.03 64.87 208.56 64.16C208.56 64.16 209.92 63.69 210.59 64.12C211.26 64.55 211.5 64.68 211.5 64.68C211.5 64.68 210.94 65.99 210.85 66.27C210.76 66.55 210 67.98 209.91 68.1C209.51 68.62 208.82 70.31 208.24 69.28C208.24 69.28 207.76 66.83 207.61 66.62H207.62ZM190.37 82.32C189.98 82.55 184.57 89.15 184.56 89.16C184.01 90.35 182.81 91.36 181.89 90.8C180.97 90.23 181.83 88.94 181.83 88.94C182.19 88.26 185.65 83.44 185.65 83.44C187.06 80.63 190.76 82.1 190.36 82.32H190.37ZM197.34 73.93C196.03 75.48 194.78 77.07 193.58 78.71L193.15 79.3C193.15 79.3 192.02 80.83 189.36 80.86L187.45 80.79L197.77 67.45C197.77 67.45 198.06 66.74 199.19 66.76C199.19 66.76 199.13 67.06 199.08 69.91C199.05 71.55 198.12 73 197.34 73.93ZM203.01 83.42C203.01 83.42 203.96 89.92 203.71 90.39C203.7 90.39 203.69 90.4 203.68 90.41L195.19 92.42C195.19 92.42 195.13 92.4 195.14 92.36L200.65 74.7L201.35 74.64C201.35 74.64 202.7 78.52 203.01 83.43V83.42Z" fill="#DD5239"/>
<path d="M205.57 78.49C205.57 78.49 206.14 80.83 206.31 83.34C206.5 86.18 206.31 89.23 206.64 89.29C207.28 89.41 206.79 89.91 206.89 86.72C206.99 83.53 206.86 78.91 205.57 78.49Z" fill="#DD5239"/>
<path d="M203.92 78.35C203.92 78.35 201.66 85.66 200.71 87.42C200.01 88.72 198.63 93.19 197.55 93.42C196.89 93.56 197.73 94.05 199.32 92.54C200.35 91.56 201.56 88.56 201.9 88.05C203.14 86.19 203.32 83.89 204.13 81.05C204.2 80.79 204.86 80.78 205.33 80.5C205.8 80.22 206 79.72 206.21 79.08C206.59 77.93 207.4 77.19 207.59 76.62C208.04 75.31 206.07 75.3 206.27 75.31C207.08 75.34 203.94 78.34 203.94 78.34L203.92 78.35Z" fill="#DD5239"/>
<path d="M199.35 51.62L201.8 51.51C201.8 51.51 198.5 44.77 200.25 42.19C200.92 41.19 204.88 40.94 206.16 43.19C207.44 45.44 208.7 48.43 207.45 50.17C207.45 50.17 206.57 54.39 205 54.03" fill="#DD5239"/>
<path d="M181.68 93.39C181.68 93.39 187.43 91.79 188.84 91.7C190.25 91.61 194.93 92.22 191.09 93.14C187.25 94.06 169.34 99.68 167.32 99.57C165.3 99.46 162.5 99.36 163.72 98.12C164.94 96.88 181.69 93.39 181.69 93.39H181.68Z" fill="#DD5239"/>
<path d="M15.34 180.42C23.6298 180.42 30.35 173.7 30.35 165.41C30.35 157.12 23.6298 150.4 15.34 150.4C7.05022 150.4 0.330017 157.12 0.330017 165.41C0.330017 173.7 7.05022 180.42 15.34 180.42Z" fill="#DD5239"/>
<path d="M108.53 138.12C116.82 138.12 123.54 131.4 123.54 123.11C123.54 114.82 116.82 108.1 108.53 108.1C100.24 108.1 93.52 114.82 93.52 123.11C93.52 131.4 100.24 138.12 108.53 138.12Z" fill="#DD5239"/>
<path d="M235.57 98.94C243.86 98.94 250.58 92.2198 250.58 83.93C250.58 75.6402 243.86 68.92 235.57 68.92C227.28 68.92 220.56 75.6402 220.56 83.93C220.56 92.2198 227.28 98.94 235.57 98.94Z" fill="#DD5239"/>
<path d="M328.74 86.9C337.03 86.9 343.75 80.1798 343.75 71.89C343.75 63.6002 337.03 56.88 328.74 56.88C320.45 56.88 313.73 63.6002 313.73 71.89C313.73 80.1798 320.45 86.9 328.74 86.9Z" fill="#DD5239"/>
<path d="M398 53.42C406.29 53.42 413.01 46.6998 413.01 38.41C413.01 30.1202 406.29 23.4 398 23.4C389.71 23.4 382.99 30.1202 382.99 38.41C382.99 46.6998 389.71 53.42 398 53.42Z" fill="#DD5239"/>
</svg>
