<svg width="19" height="40" viewBox="0 0 19 40" fill="none" xmlns="http://www.w3.org/2000/svg">
<path d="M8.46008 38.29L3.34009 37.64C2.79009 37.57 2.40009 37.07 2.47009 36.52L4.78009 18.4C4.75009 18.12 4.77009 18 4.78009 17.95C4.78009 17.9 4.80008 17.78 4.90008 17.51L4.94009 17.18C2.69009 16.71 1.82009 16.29 1.72009 16.24C1.34009 16.05 1.12008 15.64 1.18008 15.22L1.36008 13.84C1.49008 12.82 2.6101 12.82 3.3501 12.82C3.3901 12.82 3.42008 12.82 3.46008 12.82C1.83008 10.42 1.64008 7.82 2.90008 5.28C4.24008 2.57 6.55008 1.14 9.58008 1.13C11.8301 1.13 13.9101 2.11001 15.3201 3.82001C16.7401 5.55001 17.3101 7.81999 16.8701 10.04C16.5501 11.64 15.7001 13.07 14.4901 14.13C16.7401 14.61 17.0801 15.02 16.9801 15.82L16.8001 17.2C16.7401 17.66 16.3701 18.02 15.9101 18.07C15.8801 18.07 15.1801 18.14 13.9501 18.14C13.3401 18.14 12.7001 18.12 12.0501 18.09L12.0201 18.32C12.0901 18.65 12.0701 18.81 12.0601 18.89C12.0601 18.96 12.0301 19.11 11.8801 19.4L9.58008 37.4C9.55008 37.66 9.4101 37.9 9.2001 38.06C9.0201 38.2 8.81009 38.27 8.59009 38.27C8.55009 38.27 8.51008 38.27 8.46008 38.27V38.29Z" fill="white"/>
<path d="M9.60006 2.14999C13.6801 2.14999 16.6801 5.87 15.8901 9.87C15.4501 12.12 13.77 13.93 11.65 14.66C14.21 15.06 16.01 15.49 15.99 15.71L15.8101 17.09C15.8101 17.09 15.1401 17.16 13.9401 17.16C13.2001 17.16 12.2701 17.14 11.1701 17.05L11.0001 18.4C11.0001 18.4 11.0801 18.68 11.0601 18.77C11.0501 18.86 10.9101 19.1 10.9101 19.1L10.1901 24.74L9.75006 28.15L9.27004 31.91L8.83004 35.32L8.58004 37.29L3.46005 36.64L4.98007 24.71L5.41006 21.37L5.52004 20.5L5.79006 18.4C5.79006 18.4 5.76004 18.16 5.77004 18.08C5.78004 18 5.87005 17.77 5.87005 17.77L6.05004 16.39C3.16004 15.86 2.16006 15.36 2.16006 15.36L2.34005 13.98C2.35005 13.88 2.72005 13.83 3.34005 13.83C3.96005 13.83 4.93005 13.88 6.03005 13.98C5.41005 13.58 4.86006 13.09 4.41006 12.47C2.89006 10.36 2.62005 8.07001 3.78005 5.74001C4.95005 3.39001 6.93006 2.15999 9.57006 2.14999H9.59005M9.59005 0.149994H9.57006C6.18006 0.149994 3.49005 1.83001 1.99005 4.85001C0.800046 7.25001 0.750042 9.7 1.83004 12.01C1.14004 12.23 0.480062 12.7 0.350062 13.72L0.170069 15.1C0.0600689 15.94 0.500056 16.76 1.25006 17.14C1.41006 17.22 2.12007 17.55 3.76007 17.95C3.76007 18.05 3.76007 18.19 3.76007 18.38L3.52004 20.24L3.41006 21.11L2.98007 24.45L1.46005 36.38C1.32005 37.48 2.09006 38.48 3.19006 38.62L8.31005 39.27C8.39005 39.28 8.48005 39.29 8.56005 39.29C9.00005 39.29 9.43005 39.14 9.78005 38.87C10.2001 38.55 10.4701 38.07 10.5401 37.54L10.7901 35.57L11.2301 32.16L11.71 28.4L12.15 24.99L12.83 19.7C12.93 19.47 12.9801 19.29 13.0101 19.14C13.3201 19.14 13.6201 19.15 13.9201 19.15C15.1801 19.15 15.91 19.08 15.99 19.07C16.92 18.98 17.6601 18.26 17.7801 17.33L17.96 15.95C18.12 14.73 17.52 14.06 16.33 13.6C17.07 12.62 17.6001 11.47 17.8401 10.24C18.3401 7.72001 17.69 5.15 16.08 3.19C14.48 1.25 12.1101 0.130005 9.59005 0.130005V0.149994Z" fill="white"/>
<path d="M8.60999 37.3L3.48999 36.65L5.82001 18.41C5.82001 18.41 5.78999 18.17 5.79999 18.09C5.80999 18.01 5.91 17.78 5.91 17.78L6.42001 13.78L11.54 14.43L11.03 18.41C11.03 18.41 11.11 18.69 11.09 18.78C11.07 18.87 10.94 19.11 10.94 19.11L8.62 37.3H8.60999Z" fill="#00374B"/>
<path d="M16.0001 15.72C16.0001 15.72 10.78 15.59 9.11005 15.37C7.44005 15.15 2.36005 13.98 2.36005 13.98L2.18005 15.36C2.18005 15.36 3.79007 16.18 8.92007 16.83C13.1201 17.37 15.8201 17.1 15.8201 17.1L16.0001 15.72Z" fill="#1D1D1B"/>
<path d="M16.0247 15.7333C16.0618 15.4429 13.0364 14.8172 9.26734 14.3358C5.49825 13.8543 2.41272 13.6993 2.37563 13.9897C2.33854 14.28 5.36393 14.9057 9.13301 15.3872C12.9021 15.8687 15.9876 16.0236 16.0247 15.7333Z" fill="#C6C6C6"/>
<path d="M7.69003 14.77C6.38003 14.32 5.26003 13.6 4.44003 12.47C2.92003 10.36 2.65002 8.07001 3.81002 5.74001C4.98002 3.39001 6.96003 2.15999 9.60003 2.14999C13.69 2.14999 16.7 5.85999 15.91 9.87C15.36 12.65 12.92 14.81 10.09 15.01C10.01 15.01 9.93003 15.03 9.85003 15.04C9.12003 15.04 8.39003 14.95 7.69003 14.76V14.77Z" fill="#DD5239"/>
<path d="M10.6604 21.1657L5.54199 20.5118L5.43048 21.3847L10.5489 22.0386L10.6604 21.1657Z" fill="#1D1D1B"/>
<path d="M10.21 24.75C10.27 24.26 8.94001 23.43 7.51001 22.96C6.08001 22.49 5.91 21.43 5.91 21.43L5.42999 21.37L5 24.71C5 24.71 5.40999 25.55 6.70999 26.05C7.54999 26.38 9.85001 27.48 9.76001 28.15L10.2 24.74L10.21 24.75Z" fill="#F7F7F7"/>
<path d="M9.76999 28.16L9.64001 28.14C9.71001 27.56 7.73999 26.52 6.70999 26.11C5.42999 25.61 5.03001 24.78 5.01001 24.74V24.72L5.44 21.3L6.01999 21.37V21.42C6.01999 21.42 6.20001 22.45 7.54001 22.89C8.88001 23.34 10.28 24.19 10.21 24.74L9.76999 28.15V28.16ZM5.14001 24.71C5.20001 24.83 5.62999 25.55 6.76999 26C7.33999 26.23 9.25 27.11 9.69 27.84L10.09 24.74C10.14 24.31 8.91001 23.49 7.51001 23.03C6.25001 22.61 5.97999 21.72 5.92999 21.51L5.57001 21.46L5.14999 24.72L5.14001 24.71Z" fill="#1D1D1B"/>
<path d="M9.2901 31.92C9.3501 31.43 8.02009 30.6 6.59009 30.13C5.16009 29.66 4.5101 28.54 4.5101 28.54L4.08008 31.88C4.08008 31.88 4.4901 32.72 5.7901 33.22C6.6301 33.55 8.93009 34.65 8.84009 35.32L9.28009 31.91L9.2901 31.92Z" fill="#F7F7F7"/>
<path d="M8.86008 35.33L8.7301 35.31C8.8001 34.73 6.83008 33.69 5.80008 33.28C4.52008 32.78 4.1201 31.95 4.1001 31.91V31.89L4.55008 28.34L4.64011 28.51C4.64011 28.51 5.27009 29.61 6.62009 30.06C7.96009 30.51 9.3601 31.36 9.2901 31.91L8.8501 35.32L8.86008 35.33ZM4.2301 31.88C4.2901 32 4.72008 32.72 5.86008 33.17C6.43008 33.4 8.34009 34.28 8.78009 35.01L9.18008 31.91C9.23008 31.48 8.0001 30.66 6.6001 30.2C5.4901 29.83 4.87011 29.07 4.64011 28.74L4.24008 31.89L4.2301 31.88Z" fill="#1D1D1B"/>
</svg>
