<svg xmlns="http://www.w3.org/2000/svg" width="1355.594" height="630.105" viewBox="0 0 1355.594 630.105">
  <g id="trace_itineraire" transform="translate(-268.031 -4535.457)">
    <path id="Tracé_2306" data-name="Tracé 2306" d="M183.24,539.661a9.89,9.89,0,0,1-3.311-.575,9.765,9.765,0,0,1-5.926-12.5c4.249-11.8,37.137-31.889,90.237-55.114,39.375-17.223,56.221-31.866,71.084-44.782,16.782-14.589,31.278-27.186,69.87-35.033.112-.021.224-.042.337-.061,4.487-.751,11.849-1.148,22.039-1.7,48.592-2.621,162.271-8.754,177.267-71.082,3.467-21.884.974-31.222-20.823-46.526-13.056-9.168-18.89-21.685-16.007-34.338,3.149-13.827,16.121-24.95,32.277-27.677,4.472-.758,10.028-1.3,17.063-1.981,28.19-2.741,75.374-7.329,128-33.625,42.661-21.32,66.544-28.021,106.109-39.128,22.751-6.387,51.068-14.335,91.7-27.475a9.777,9.777,0,1,1,6.061,18.591c-41,13.258-69.524,21.265-92.442,27.7-39.749,11.155-61.644,17.3-102.63,37.784-55.892,27.926-107.287,32.924-134.9,35.608-6.386.621-11.9,1.157-15.689,1.8-8.015,1.356-15.073,6.827-16.418,12.733s3.7,10.9,8.177,14.039c26.812,18.826,33.82,34.848,28.84,65.931-.038.229-.082.456-.135.68-18.018,76.923-142.319,83.626-195.4,86.487-8.7.47-16.222.875-19.7,1.431-33.373,6.813-44.845,16.782-60.706,30.567-15.134,13.157-33.972,29.528-76.1,47.955-67.147,29.37-78.941,43.329-80.142,44.943a9.828,9.828,0,0,1-8.751,5.35m8.651-5.209Zm.567-1.217v0m.013-.027-.006.019Zm.008-.025-.008.023.008-.023" transform="translate(531.221 4560.598)" fill="#fff"/>
    <path id="Tracé_2237" data-name="Tracé 2237" d="M-18868.2-16891.236l-434.334-202.742" transform="translate(19580.533 21975.979)" fill="none" stroke="#fff" stroke-linecap="round" stroke-width="15"/>
    <path id="Tracé_2238" data-name="Tracé 2238" d="M-19346.684-17160.883l308.334,245.41" transform="translate(20066.684 21870.883)" fill="none" stroke="#fff" stroke-linecap="round" stroke-width="15"/>
    <path id="Tracé_2239" data-name="Tracé 2239" d="M-19262.652-16543.748l135.334-406" transform="translate(20403.652 21699.824)" fill="none" stroke="#fff" stroke-linecap="round" stroke-width="15"/>
    <path id="Tracé_2241" data-name="Tracé 2241" d="M-18990.863-16578.342l-135-367.924" transform="translate(20604.863 21620.342)" fill="none" stroke="#fff" stroke-linecap="round" stroke-width="15"/>
    <path id="Tracé_2240" data-name="Tracé 2240" d="M-19463.752-17106.328l-206-165.41" transform="translate(20829.752 21817.738)" fill="none" stroke="#fff" stroke-linecap="round" stroke-width="15"/>
    <circle id="Ellipse_125" data-name="Ellipse 125" cx="19.6" cy="19.6" r="19.6" transform="translate(692 5064.662)" fill="#dd5239"/>
    <circle id="Ellipse_127" data-name="Ellipse 127" cx="19.6" cy="19.6" r="19.6" transform="translate(1464.801 4656.793)" fill="#dd5239"/>
    <g id="Ellipse_128" data-name="Ellipse 128" transform="translate(1257.666 4729.592)" fill="#dd5239" stroke="#dd5239" stroke-width="10">
      <circle cx="20.067" cy="20.067" r="20.067" stroke="none"/>
      <circle cx="20.067" cy="20.067" r="15.067" fill="none"/>
    </g>
    <g id="Ellipse_130" data-name="Ellipse 130" transform="translate(1007.467 4933.992)" fill="#dd5239" stroke="#dd5239" stroke-width="10">
      <circle cx="20.067" cy="20.067" r="20.067" stroke="none"/>
      <circle cx="20.067" cy="20.067" r="15.067" fill="none"/>
    </g>
    <g id="Ellipse_129" data-name="Ellipse 129" transform="translate(1347.199 4689.459)" fill="#dd5239" stroke="#dd5239" stroke-width="10">
      <circle cx="20.067" cy="20.067" r="20.067" stroke="none"/>
      <circle cx="20.067" cy="20.067" r="15.067" fill="none"/>
    </g>
  </g>
</svg>
