<svg xmlns="http://www.w3.org/2000/svg" width="302" height="154.886" viewBox="0 0 302 154.886">
  <defs>
    <style>
      .cls-1, .cls-2 {
        fill: #fff;
      }

      .cls-2 {
        stroke: #dd5239;
        stroke-width: 5px;
      }

      .cls-3 {
        fill: #dd5239;
      }

      .cls-4 {
        stroke: none;
        fill: #dd5239;
      }

      .cls-5 {
        fill: none;
      }
    </style>
  </defs>
  <g id="trace_trajet" transform="translate(-36 -3090.082)">
    <path id="Tracé_2307" data-name="Tracé 2307" class="cls-1" d="M177.076,247.322a4.182,4.182,0,0,1-1.232-.186,3.068,3.068,0,0,1-2.2-4.043c1.581-3.816,13.817-10.313,33.572-17.824,14.649-5.57,20.917-10.306,26.446-14.483,6.244-4.718,11.637-8.792,25.995-11.33l.125-.02c1.669-.243,4.408-.371,8.2-.549,18.078-.848,60.372-2.831,65.951-22.988,1.29-7.077.362-10.1-7.747-15.047-4.858-2.965-7.028-7.013-5.955-11.105,1.171-4.472,6-8.069,12.009-8.951,1.664-.245,3.731-.419,6.348-.641,10.488-.886,28.043-2.37,47.623-10.874,15.872-6.895,24.757-9.062,39.477-12.654,8.465-2.065,19-4.636,34.118-8.886a3.8,3.8,0,0,1,4.6,2.03,3.093,3.093,0,0,1-2.345,3.982c-15.255,4.288-25.866,6.877-34.393,8.958-14.788,3.608-22.934,5.6-38.183,12.22-20.795,9.032-39.916,10.648-50.188,11.516-2.376.2-4.427.374-5.837.581-2.982.438-5.608,2.208-6.108,4.118s1.378,3.524,3.042,4.54c9.975,6.089,12.583,11.27,10.73,21.323-.014.074-.031.147-.05.22-6.7,24.877-52.949,27.045-72.7,27.971-3.235.152-6.035.283-7.327.463-12.416,2.2-16.684,5.427-22.585,9.886-5.631,4.255-12.639,9.55-28.312,15.509-24.982,9.5-29.37,14.013-29.816,14.535a3.755,3.755,0,0,1-3.256,1.73m3.219-1.685Zm.211-.394v0m0-.009,0,.006Zm0-.008,0,.007,0-.007" transform="translate(-126.582 2988.184)"/>
    <g id="Ellipse_152" data-name="Ellipse 152" class="cls-2" transform="translate(238.317 3114.766)">
      <circle class="cls-4" cx="10.841" cy="10.841" r="10.841"/>
      <circle class="cls-5" cx="10.841" cy="10.841" r="8.341"/>
    </g>
    <g id="Ellipse_153" data-name="Ellipse 153" class="cls-2" transform="translate(149.076 3177.984)">
      <circle class="cls-4" cx="10.841" cy="10.841" r="10.841"/>
      <circle class="cls-5" cx="10.841" cy="10.841" r="8.341"/>
    </g>
    <g id="Ellipse_154" data-name="Ellipse 154" class="cls-2" transform="translate(270.001 3103.924)">
      <circle class="cls-4" cx="10.841" cy="10.841" r="10.841"/>
      <circle class="cls-5" cx="10.841" cy="10.841" r="8.341"/>
    </g>
    <g id="Ellipse_172" data-name="Ellipse 172" class="cls-2" transform="translate(316.317 3090.082)">
      <circle class="cls-4" cx="10.841" cy="10.841" r="10.841"/>
      <circle class="cls-5" cx="10.841" cy="10.841" r="8.341"/>
    </g>
    <circle id="Ellipse_150" data-name="Ellipse 150" class="cls-3" cx="10.841" cy="10.841" r="10.841" transform="translate(36 3223.285)"/>
  </g>
</svg>
