<svg xmlns="http://www.w3.org/2000/svg" xmlns:xlink="http://www.w3.org/1999/xlink" width="529.285" height="382.196" viewBox="0 0 529.285 382.196">
  <defs>
    <filter id="Rectangle_136" x="0" y="13.786" width="529.285" height="368.411" filterUnits="userSpaceOnUse">
      <feOffset dx="12.84" dy="14.35" input="SourceAlpha"/>
      <feGaussianBlur stdDeviation="5.67" result="blur"/>
      <feFlood flood-opacity="0.102"/>
      <feComposite operator="in" in2="blur"/>
      <feComposite in="SourceGraphic"/>
    </filter>
    <filter id="Rectangle_137" x="381.887" y="0" width="95.233" height="148.973" filterUnits="userSpaceOnUse">
      <feOffset dy="3" input="SourceAlpha"/>
      <feGaussianBlur stdDeviation="3" result="blur-2"/>
      <feFlood flood-opacity="0.161"/>
      <feComposite operator="in" in2="blur-2"/>
      <feComposite in="SourceGraphic"/>
    </filter>
  </defs>
  <g id="Groupe_1885" data-name="Groupe 1885" transform="translate(-1333.439 -3255.102)">
    <g id="Groupe_1745" data-name="Groupe 1745" transform="matrix(1, -0.017, 0.017, 1, -54.236, -155.926)">
      <g transform="matrix(1, 0.02, -0.02, 1, 1327.93, 3434.73)" filter="url(#Rectangle_136)">
        <rect id="Rectangle_136-2" data-name="Rectangle 136" width="464.623" height="279.853" transform="matrix(0.99, 0.12, -0.12, 0.99, 38.28, 16.45)" fill="#ededed"/>
      </g>
      <g transform="matrix(1, 0.02, -0.02, 1, 1327.93, 3434.73)" filter="url(#Rectangle_137)">
        <rect id="Rectangle_137-2" data-name="Rectangle 137" width="47" height="123" transform="translate(422.72 6) rotate(15)" fill="#fff"/>
      </g>
      <g id="Groupe_1736" data-name="Groupe 1736">
        <text id="Voyage" transform="translate(1388.758 3464.703) rotate(8)" fill="#00374b" font-size="34" font-family="Poppins-SemiBold, Poppins" font-weight="600"><tspan x="0" y="36">Voyage</tspan></text>
        <g id="Groupe_1734" data-name="Groupe 1734" transform="translate(-5.244 23.162)">
          <text id="_15_500_km_de_la_France" data-name="15 500 km de la France" transform="translate(1442.037 3517.353) rotate(8)" fill="#00374b" font-size="25" font-family="Poppins-Light, Poppins" font-weight="300"><tspan x="0" y="26">15 500 km de la France</tspan></text>
          <path id="Icon_ionic-ios-airplane" data-name="Icon ionic-ios-airplane" d="M36.035,18.731c-.306,0-1.331.009-1.619.027l-5.836.153a.167.167,0,0,1-.153-.081l-8.75-13.1a1.445,1.445,0,0,0-1.214-.665H16.333c-.5,0-.674.5-.495.971l4.505,12.841a.176.176,0,0,1-.162.243L9.175,19.28A.724.724,0,0,1,8.581,19L5.254,14.954a1.427,1.427,0,0,0-1.133-.549H2.61a.358.358,0,0,0-.342.477l1.79,6.178a1.466,1.466,0,0,1,0,1.07l-1.79,6.178a.358.358,0,0,0,.342.477h1.5a1.454,1.454,0,0,0,1.133-.549l3.39-4.11a.736.736,0,0,1,.594-.279l10.944.243a.178.178,0,0,1,.162.243l-4.505,12.85c-.18.468-.009.971.495.971h2.131a1.434,1.434,0,0,0,1.214-.665L28.428,24.4a.177.177,0,0,1,.153-.081l5.836.153c.3.018,1.313.027,1.619.027,3.984,0,6.5-1.286,6.5-2.878S40.028,18.731,36.035,18.731Z" transform="translate(1381.653 3517.192) rotate(-30)" fill="#00374b"/>
        </g>
        <g id="Groupe_1735" data-name="Groupe 1735" transform="translate(-3.244 22.963)">
          <text id="_4_ans_de_préparation" data-name="4 ans de préparation" transform="translate(1430.023 3569.659) rotate(8)" fill="#00374b" font-size="25" font-family="Poppins-Light, Poppins" font-weight="300"><tspan x="0" y="26">4 ans de préparation</tspan></text>
          <path id="Icon_material-today" data-name="Icon material-today" d="M30.242,4.718H28.633V1.5H25.415V4.718H12.544V1.5H9.327V4.718H7.718a3.2,3.2,0,0,0-3.2,3.218L4.5,30.459a3.217,3.217,0,0,0,3.218,3.218H30.242a3.227,3.227,0,0,0,3.218-3.218V7.935A3.227,3.227,0,0,0,30.242,4.718Zm0,25.742H7.718v-17.7H30.242ZM10.935,15.98H18.98v8.044H10.935Z" transform="translate(1378.215 3563.068) rotate(8)" fill="#00374b"/>
        </g>
        <g id="Groupe_1746" data-name="Groupe 1746" transform="translate(-2.244 13.963)">
          <text id="_96h_de_voyage_jusqu_au_départ" data-name="96h de voyage jusqu’au départ" transform="translate(1422.186 3630.386) rotate(8)" fill="#00374b" font-size="25" font-family="Poppins-Light, Poppins" font-weight="300"><tspan x="0" y="26">96h de voyage jusqu’au </tspan><tspan x="0" y="64">départ</tspan></text>
          <g id="Icon_feather-clock" data-name="Icon feather-clock" transform="translate(1371.059 3630.827) rotate(8)">
            <path id="Tracé_1930" data-name="Tracé 1930" d="M27.409,15.2A12.2,12.2,0,1,1,15.2,3a12.2,12.2,0,0,1,12.2,12.2Z" transform="translate(0)" fill="none" stroke="#00374b" stroke-linecap="round" stroke-linejoin="round" stroke-width="3"/>
            <path id="Tracé_1931" data-name="Tracé 1931" d="M18,9v7.323l4.882,2.441" transform="translate(-2.795 -1.118)" fill="none" stroke="#00374b" stroke-linecap="round" stroke-linejoin="round" stroke-width="3"/>
          </g>
        </g>
      </g>
    </g>
    <path id="Icon_awesome-suitcase-rolling" data-name="Icon awesome-suitcase-rolling" d="M23.625,11.25H3.375A3.375,3.375,0,0,0,0,14.625v15.75A3.375,3.375,0,0,0,3.375,33.75H4.5v1.125A1.125,1.125,0,0,0,5.625,36h2.25A1.125,1.125,0,0,0,9,34.875V33.75h9v1.125A1.125,1.125,0,0,0,19.125,36h2.25A1.125,1.125,0,0,0,22.5,34.875V33.75h1.125A3.375,3.375,0,0,0,27,30.375V14.625A3.375,3.375,0,0,0,23.625,11.25ZM22.5,26.438a.562.562,0,0,1-.562.563H5.063a.562.562,0,0,1-.562-.562V25.313a.562.562,0,0,1,.563-.562H21.938a.562.562,0,0,1,.563.563Zm0-6.75a.562.562,0,0,1-.562.563H5.063a.562.562,0,0,1-.562-.562V18.563A.562.562,0,0,1,5.063,18H21.938a.562.562,0,0,1,.563.563ZM10.125,3.375h6.75V9H20.25V3.375A3.375,3.375,0,0,0,16.875,0h-6.75A3.375,3.375,0,0,0,6.75,3.375V9h3.375Z" transform="translate(1548.295 3306.489) rotate(7)" fill="#dd5239"/>
  </g>
</svg>
