<svg xmlns="http://www.w3.org/2000/svg" width="71.791" height="77.247" viewBox="0 0 71.791 77.247">
  <g id="Groupe_1767" data-name="Groupe 1767" transform="translate(-329.749 -189.39)">
    <path id="Tracé_1900" data-name="Tracé 1900" d="M388.6,289.781h0Z" transform="translate(-32.91 -56.143)" fill="#fff"/>
    <path id="Tracé_1901" data-name="Tracé 1901" d="M355.222,197.505a13.187,13.187,0,0,0-5.26-6.7,9.56,9.56,0,0,0-8.583-.731,16.515,16.515,0,0,0-8.446,7.2,23.836,23.836,0,0,0-3.119,10.519,25.449,25.449,0,0,0,.311,6.211l.163-.029,1.436,5.237h0l-.156.056c.684,1.908,1.5,3.813,2.444,6.019l.041.1c.746,1.746,1.517,3.551,2.334,5.613a2.109,2.109,0,0,0,1.97,1.341,2.148,2.148,0,0,0,.568-.078c1.107-.306,10.895-3.013,13.634-3.684a2.129,2.129,0,0,0,1.615-2.134c-.053-1.514-.084-2.577-.082-2.772a55.9,55.9,0,0,1,1.172-9.365C356.286,208.821,357.342,203.15,355.222,197.505ZM332.39,207.969c.518-7.578,4.214-13.363,9.889-15.474,5.033-1.872,8.912,1.623,10.526,5.918,1.89,5.032.887,10.361-.082,15.515-.268,1.426-.546,2.9-.751,4.328a41.266,41.266,0,0,0-.46,5.381c0,.237.02,1.085.071,2.523-2.585.651-9.132,2.449-12.945,3.5-.786-1.967-1.555-3.765-2.249-5.39-.921-2.15-1.715-4.007-2.372-5.831l-.156.056-1.343-4.853.163-.029A22.855,22.855,0,0,1,332.39,207.969Z" transform="translate(0 0)" fill="#fff"/>
    <path id="Tracé_1902" data-name="Tracé 1902" d="M367.9,295.671l-1.228-8.205-.007-.042a2.124,2.124,0,0,0-2.593-1.679l-13.353,3.268a2.124,2.124,0,0,0-1.5,2.75l2.5,8.251.024.07a8.32,8.32,0,0,0,7.859,5.5,8.545,8.545,0,0,0,2.194-.289,8.409,8.409,0,0,0,6.11-9.619Zm-6.775,7.124a5.8,5.8,0,0,1-6.952-3.568L351.8,291.4l12.392-3.032,1.152,7.693.008.047A5.858,5.858,0,0,1,361.124,302.795Z" transform="translate(-10.822 -53.852)" fill="#fff"/>
    <g id="Groupe_1765" data-name="Groupe 1765" transform="translate(363.318 204.689)">
      <path id="Tracé_1903" data-name="Tracé 1903" d="M430.038,233.442a16.2,16.2,0,0,0-7.677-7.649h0a9.875,9.875,0,0,0-4.123-.941,9.113,9.113,0,0,0-4.2,1.042,12.85,12.85,0,0,0-5.583,6.145c-2.485,5.393-1.848,11.08-1.231,16.579a55.285,55.285,0,0,1,.492,9.481c-.011.2-.112,1.184-.284,2.775a1.8,1.8,0,0,0,1.23,1.9c2.363.763,10.117,3.517,13.341,4.664a1.788,1.788,0,0,0,2.213-.909c.989-2.049,1.9-3.819,2.788-5.531,3.128-6.055,5.388-10.43,5.417-16.993A23.694,23.694,0,0,0,430.038,233.442ZM425.3,260.11h0c-.769,1.488-1.726,3.338-2.7,5.339l-.064.134-.14-.05c-3.015-1.073-10.309-3.663-12.917-4.519l-.127-.042.014-.133c.157-1.455.252-2.388.266-2.628a57.725,57.725,0,0,0-.5-9.809c-.614-5.479-1.194-10.654,1.067-15.56,1.988-4.316,6.273-7.629,11.364-5.3a14.313,14.313,0,0,1,6.759,6.766,21.729,21.729,0,0,1,2.176,9.686C430.471,250.092,428.412,254.077,425.3,260.11Z" transform="translate(-406.332 -224.521)" fill="#fff"/>
      <path id="Tracé_1904" data-name="Tracé 1904" d="M430.815,237.031a14.147,14.147,0,0,0-6.68-6.69c-4.986-2.279-9.19.98-11.144,5.222-2.241,4.863-1.664,10.017-1.053,15.473a57.961,57.961,0,0,1,.5,9.837c-.014.235-.1,1.122-.267,2.636,2.654.872,10.225,3.561,12.921,4.521.955-1.97,1.878-3.758,2.7-5.343,3.106-6.013,5.158-9.984,5.185-16.044A21.561,21.561,0,0,0,430.815,237.031Zm-3.172,25.578v0c-.753,1.456-1.686,3.26-2.634,5.214-3.046-1.084-9.986-3.547-12.658-4.431.151-1.4.238-2.269.253-2.511a58.057,58.057,0,0,0-.5-9.865c-.609-5.432-1.184-10.563,1.038-15.386,1.92-4.167,6.045-7.372,10.926-5.14a13.984,13.984,0,0,1,6.6,6.613,21.4,21.4,0,0,1,2.141,9.537C432.782,252.661,430.738,256.619,427.643,262.609Z" transform="translate(-408.973 -227.172)" fill="#fff"/>
      <path id="Tracé_1905" data-name="Tracé 1905" d="M429.913,232.873a16.531,16.531,0,0,0-7.835-7.8,9.558,9.558,0,0,0-8.614.108,13.186,13.186,0,0,0-5.732,6.3c-2.523,5.477-1.881,11.21-1.259,16.754a55.038,55.038,0,0,1,.49,9.425c-.011.191-.114,1.2-.283,2.759a2.128,2.128,0,0,0,1.457,2.245c2.359.762,10.109,3.514,13.331,4.662a2.12,2.12,0,0,0,2.622-1.077c.986-2.046,1.9-3.813,2.784-5.523,3.149-6.1,5.425-10.5,5.454-17.143A24.033,24.033,0,0,0,429.913,232.873Zm-3.184,27.776c-.886,1.716-1.8,3.489-2.785,5.527a1.951,1.951,0,0,1-2.418.993c-2.507-.893-10.873-3.867-13.336-4.663a1.962,1.962,0,0,1-1.343-2.07c.165-1.533.272-2.567.283-2.767a55.551,55.551,0,0,0-.491-9.453c-.619-5.522-1.258-11.233,1.246-16.667a13.02,13.02,0,0,1,5.657-6.223,9.4,9.4,0,0,1,8.469-.1,16.368,16.368,0,0,1,7.756,7.725,23.859,23.859,0,0,1,2.4,10.634C432.135,250.183,429.867,254.573,426.728,260.649Z" transform="translate(-405.912 -224.101)" fill="#fff"/>
      <path id="Tracé_1906" data-name="Tracé 1906" d="M430.752,236.744a14.313,14.313,0,0,0-6.759-6.766c-5.091-2.325-9.376.988-11.364,5.3-2.261,4.906-1.681,10.082-1.067,15.56a57.725,57.725,0,0,1,.5,9.808c-.014.24-.109,1.173-.266,2.628l-.014.133.127.042c2.608.856,9.9,3.446,12.917,4.519l.14.05.064-.134c.969-2,1.926-3.852,2.7-5.339h0c3.117-6.033,5.176-10.019,5.2-16.118A21.729,21.729,0,0,0,430.752,236.744Zm-3.173,25.73c-.819,1.585-1.742,3.373-2.7,5.343-2.7-.96-10.267-3.649-12.921-4.521.164-1.514.253-2.4.267-2.636a57.955,57.955,0,0,0-.5-9.837c-.612-5.457-1.189-10.611,1.052-15.473,1.954-4.241,6.158-7.5,11.144-5.222a14.147,14.147,0,0,1,6.68,6.69,21.561,21.561,0,0,1,2.159,9.611C432.736,252.489,430.685,256.461,427.578,262.474Z" transform="translate(-408.763 -226.959)" fill="#fff"/>
      <path id="Tracé_1907" data-name="Tracé 1907" d="M429.975,233.158a16.368,16.368,0,0,0-7.756-7.725,9.4,9.4,0,0,0-8.469.1,13.019,13.019,0,0,0-5.657,6.223c-2.5,5.433-1.864,11.144-1.246,16.667a55.548,55.548,0,0,1,.491,9.453c-.012.2-.118,1.234-.283,2.767a1.962,1.962,0,0,0,1.343,2.07c2.463.8,10.829,3.771,13.336,4.663a1.951,1.951,0,0,0,2.418-.993c.982-2.037,1.9-3.811,2.785-5.527,3.139-6.076,5.407-10.467,5.436-17.068A23.859,23.859,0,0,0,429.975,233.158Zm-3.183,27.626c-.885,1.712-1.8,3.482-2.788,5.531a1.788,1.788,0,0,1-2.213.909c-3.224-1.148-10.977-3.9-13.341-4.664a1.8,1.8,0,0,1-1.23-1.9c.171-1.59.272-2.575.284-2.775a55.288,55.288,0,0,0-.492-9.481c-.617-5.5-1.254-11.186,1.231-16.579a12.85,12.85,0,0,1,5.583-6.145,9.113,9.113,0,0,1,4.2-1.042,9.875,9.875,0,0,1,4.123.941h0a16.2,16.2,0,0,1,7.677,7.649,23.693,23.693,0,0,1,2.381,10.559C432.18,250.354,429.92,254.729,426.792,260.784Z" transform="translate(-406.122 -224.311)" fill="#fff"/>
    </g>
    <g id="Groupe_1766" data-name="Groupe 1766" transform="translate(378.928 190.993)">
      <path id="Tracé_1908" data-name="Tracé 1908" d="M449.428,195.178l-5.1-1.342a1.792,1.792,0,0,0-2.243,1.852l.527,7.861a1.79,1.79,0,0,0,3.252.908l4.575-6.519a1.791,1.791,0,0,0-1.011-2.76Zm-4.924,7.874-.491-7.311,4.745,1.247Z" transform="translate(-441.75 -193.447)" fill="#fff"/>
      <path id="Tracé_1909" data-name="Tracé 1909" d="M447.318,205.342l3.85-5.486-4.293-1.129Zm.134-.478-.4-5.918,3.841,1.01Z" transform="translate(-444.431 -196.215)" fill="#fff"/>
      <path id="Tracé_1910" data-name="Tracé 1910" d="M450.545,195.761a2.123,2.123,0,0,0-1.453-1.322l-5.1-1.342a2.123,2.123,0,0,0-2.656,2.194l.527,7.861h0a2.1,2.1,0,0,0,1.546,1.9,2.173,2.173,0,0,0,.582.081,2.083,2.083,0,0,0,1.724-.905l4.575-6.519A2.124,2.124,0,0,0,450.545,195.761Zm-.391,1.853-4.575,6.519a1.93,1.93,0,0,1-1.589.835,2,2,0,0,1-.539-.074,1.934,1.934,0,0,1-1.425-1.752l-.528-7.861a1.958,1.958,0,0,1,2.45-2.023l5.1,1.342a1.956,1.956,0,0,1,1.1,3.015Z" transform="translate(-441.33 -193.028)" fill="#fff"/>
      <path id="Tracé_1911" data-name="Tracé 1911" d="M449.26,194.809l-5.1-1.342a1.958,1.958,0,0,0-2.45,2.023l.528,7.861a1.934,1.934,0,0,0,1.425,1.752,2,2,0,0,0,.539.074,1.929,1.929,0,0,0,1.589-.835l4.575-6.519a1.956,1.956,0,0,0-1.1-3.015Zm.969,2.92-4.575,6.519a1.79,1.79,0,0,1-3.252-.908l-.527-7.861a1.792,1.792,0,0,1,2.243-1.852l5.1,1.342a1.791,1.791,0,0,1,1.011,2.76Z" transform="translate(-441.54 -193.238)" fill="#fff"/>
      <path id="Tracé_1912" data-name="Tracé 1912" d="M446.957,205.544l4.254-6.063-4.745-1.247Zm.133-.478-.443-6.614,4.293,1.129Z" transform="translate(-444.202 -195.939)" fill="#fff"/>
    </g>
    <path id="Tracé_1913" data-name="Tracé 1913" d="M472.321,207.744l-3.2-6.937a2.123,2.123,0,0,0-3.489-.545l-8.4,9.153a2.123,2.123,0,0,0,1.547,3.558,2.167,2.167,0,0,0,.413-.04l11.6-2.216a2.123,2.123,0,0,0,1.529-2.973Zm-2.592.547-9.655,1.844,6.988-7.617Z" transform="translate(-70.978 -5.696)" fill="#fff"/>
    <path id="Tracé_1914" data-name="Tracé 1914" d="M417.134,324.24a2.119,2.119,0,0,0-1.289-1.162l-5.838-1.886-5-1.617-2.24-.723a2.122,2.122,0,0,0-2.708,1.487l-1.829,8.132a8.409,8.409,0,0,0,15.8,5.576c.011-.024.022-.049.031-.072l3.085-8.039A2.128,2.128,0,0,0,417.134,324.24Zm-12.821-2.173,4.9,1.583,5.374,1.737-2.924,7.62a5.827,5.827,0,0,1-10.932-3.9l1.718-7.638,1.76.569.051-.157h0l-.051.157Z" transform="translate(-38.148 -72.344)" fill="#fff"/>
    <path id="Tracé_1915" data-name="Tracé 1915" d="M330.6,245.163l1.444,5.264.311-.111-1.43-5.21Z" transform="translate(-0.476 -31.159)" fill="#fff"/>
    <path id="Tracé_1916" data-name="Tracé 1916" d="M335.982,244.352l1.336,4.827-.311.112-1.351-4.88Z" transform="translate(-3.304 -30.737)" fill="#fff"/>
  </g>
</svg>
