<svg xmlns="http://www.w3.org/2000/svg" xmlns:xlink="http://www.w3.org/1999/xlink" width="71.764" height="90.036" viewBox="0 0 71.764 90.036">
  <defs>
    <style>
      .cls-1 {
        fill: #fff;
      }

      .cls-2 {
        clip-path: url(#clip-path);
      }
    </style>
    <clipPath id="clip-path">
      <rect id="Rectangle_391" data-name="Rectangle 391" class="cls-1" width="71.764" height="90.036"/>
    </clipPath>
  </defs>
  <g id="Groupe_2194" data-name="Groupe 2194" class="cls-2">
    <path id="Tracé_2336" data-name="Tracé 2336" class="cls-1" d="M69.621,75.106l-21.9-26.092V12.936A6.47,6.47,0,0,0,47.519,0H24.246a6.47,6.47,0,0,0-.206,12.936V49.014L2.144,75.105A9.089,9.089,0,0,0,9.106,90.036H62.659a9.088,9.088,0,0,0,6.961-14.931M22.205,6.47a2.043,2.043,0,0,1,2.041-2.041H47.519a2.041,2.041,0,0,1,0,4.083H24.247A2.044,2.044,0,0,1,22.205,6.47m5.747,44.773a2.216,2.216,0,0,0,.518-1.424V43.949h5.11a2.215,2.215,0,0,0,0-4.429H28.47V35.961h5.11a2.215,2.215,0,0,0,0-4.429H28.47V27.973h5.11a2.215,2.215,0,0,0,0-4.429H28.47v-10.6H43.294V49.82a2.214,2.214,0,0,0,.518,1.424l7.757,9.242H20.2ZM62.659,85.607H9.106a4.654,4.654,0,0,1-3.569-7.654L16.479,64.916H55.287L66.228,77.953a4.654,4.654,0,0,1-3.569,7.654" transform="translate(0 0)"/>
    <path id="Tracé_2337" data-name="Tracé 2337" class="cls-1" d="M233.949,389.978a6.683,6.683,0,1,0,6.683,6.683,6.69,6.69,0,0,0-6.683-6.683m0,8.936a2.253,2.253,0,1,1,2.253-2.253,2.256,2.256,0,0,1-2.253,2.253" transform="translate(-187.301 -321.4)"/>
  </g>
</svg>
