<svg id="Groupe_2193" data-name="Groupe 2193" xmlns="http://www.w3.org/2000/svg" xmlns:xlink="http://www.w3.org/1999/xlink" width="96" height="80.223" viewBox="0 0 96 80.223">
  <defs>
    <style>
      .cls-1 {
        fill: #fff;
      }

      .cls-2 {
        clip-path: url(#clip-path);
      }
    </style>
    <clipPath id="clip-path">
      <rect id="Rectangle_390" data-name="Rectangle 390" class="cls-1" width="96" height="80.223"/>
    </clipPath>
  </defs>
  <g id="Groupe_2192" data-name="Groupe 2192" class="cls-2">
    <path id="Tracé_2335" data-name="Tracé 2335" class="cls-1" d="M96,59.906A27.637,27.637,0,0,0,91.135,44.22a28.051,28.051,0,0,0-8.654-8.176A20.876,20.876,0,1,0,51.023,8.921a20.747,20.747,0,0,0-6.046,0A20.877,20.877,0,1,0,13.519,36.043a28.044,28.044,0,0,0-8.654,8.176A27.639,27.639,0,0,0,0,59.906V71.523H20.134v8.7H75.866v-8.7H96V59.906ZM68.134,5.155a15.731,15.731,0,0,1,0,31.463q-.233,0-.466-.007c.012-.033.022-.067.033-.1a20.679,20.679,0,0,0,.672-2.342c.013-.057.027-.113.039-.17.047-.215.088-.433.128-.651.019-.1.038-.206.055-.309q.049-.292.089-.586c.019-.136.036-.273.052-.409.02-.173.04-.347.056-.521s.029-.356.041-.535c.009-.141.021-.281.027-.422q.021-.455.023-.911c0-.022,0-.044,0-.067s0-.024,0-.036c0-.311-.01-.619-.023-.927,0-.089-.01-.179-.015-.268q-.023-.392-.06-.781c-.006-.059-.01-.118-.016-.176a20.783,20.783,0,0,0-12.4-16.952A15.778,15.778,0,0,1,68.134,5.155M42.557,14.825l.151-.054q.235-.084.473-.16.18-.058.363-.111l.266-.076c.159-.044.318-.086.479-.125a15.639,15.639,0,0,1,7.423,0c.16.039.319.081.477.124.09.025.18.05.27.077q.18.053.359.11c.161.052.32.105.478.162l.146.052a15.781,15.781,0,0,1,10.1,12.31c.007.045.014.091.02.137.029.193.053.387.074.581.008.072.016.143.023.215.017.178.03.356.041.536,0,.077.011.153.015.23q.016.344.018.691c0,.02,0,.04,0,.06s0,.019,0,.028c0,.224-.007.447-.017.669,0,.07-.006.14-.01.209q-.018.322-.049.64c-.008.082-.019.164-.028.245q-.024.206-.052.41c-.015.106-.03.212-.047.318q-.039.241-.086.479c-.028.141-.058.282-.089.423q-.028.127-.059.254-.075.314-.164.624c-.023.082-.045.165-.07.246-.036.119-.074.236-.113.354q-.046.141-.1.281c-.037.106-.074.212-.113.317q-.1.268-.21.531c-.032.078-.067.156-.1.234q-.1.219-.2.435l-.024.051-.074.153q-.114.233-.237.462c-.032.059-.062.119-.095.178l-.006.011c-.089.162-.182.322-.277.481-.038.063-.075.126-.113.188q-.155.251-.318.5c-.068.1-.139.2-.209.3-.06.085-.119.169-.18.253q-.119.162-.242.32-.084.108-.169.214c-.087.108-.174.216-.263.322-.055.066-.112.13-.169.195-.093.106-.185.213-.281.317-.057.062-.115.121-.173.182q-.233.245-.476.481c-.1.093-.192.186-.29.277-.068.063-.138.123-.207.185-.113.1-.227.2-.342.3l-.178.146q-.21.171-.426.335l-.117.089a15.7,15.7,0,0,1-18.733,0l-.115-.088q-.217-.164-.428-.336l-.176-.145c-.116-.1-.23-.2-.344-.3-.069-.061-.138-.122-.206-.184-.1-.091-.195-.184-.291-.277q-.244-.236-.477-.482c-.057-.06-.115-.119-.171-.179-.1-.1-.188-.211-.281-.318-.056-.065-.113-.129-.169-.195-.089-.106-.177-.214-.263-.322q-.085-.107-.169-.215-.123-.159-.241-.32c-.061-.084-.121-.169-.18-.253s-.141-.2-.208-.3q-.164-.245-.319-.5c-.038-.062-.074-.124-.112-.186-.1-.161-.19-.323-.281-.488-.033-.061-.065-.122-.1-.183-.081-.153-.161-.307-.238-.463-.027-.055-.054-.111-.08-.167l-.012-.026c-.071-.151-.14-.3-.206-.456-.032-.073-.064-.146-.094-.219q-.112-.269-.214-.543c-.037-.1-.071-.2-.106-.3s-.07-.2-.1-.307-.073-.223-.107-.335q-.076-.251-.144-.5c-.032-.119-.06-.239-.089-.358q-.034-.141-.065-.283c-.026-.116-.052-.232-.075-.348q-.054-.272-.1-.547c-.016-.1-.03-.2-.044-.3q-.031-.22-.056-.442c-.008-.073-.018-.146-.025-.219-.021-.217-.038-.436-.05-.656,0-.063-.006-.126-.009-.189-.011-.235-.018-.47-.018-.707,0-.254.007-.506.019-.758,0-.068.009-.136.013-.2.011-.189.025-.377.043-.564.006-.065.014-.13.021-.2.022-.2.047-.4.077-.6.006-.039.011-.078.018-.117a15.78,15.78,0,0,1,10.1-12.318M12.135,20.886a15.725,15.725,0,0,1,27.49-10.44A20.783,20.783,0,0,0,27.228,27.4c-.005.051-.009.1-.014.154q-.039.4-.062.808c0,.082-.01.165-.014.247-.015.322-.025.646-.025.972s.01.657.025.985c.006.132.017.263.026.394.013.189.026.377.043.565.015.167.035.334.054.5.017.145.035.289.055.434q.039.284.086.566c.019.112.039.223.06.334.039.21.078.42.123.628.015.069.032.137.047.2a20.64,20.64,0,0,0,.651,2.271c.016.048.031.1.048.143q-.233.007-.466.007A15.749,15.749,0,0,1,12.135,20.886M24.455,53.747c-.057.089-.111.18-.167.27-.118.19-.235.381-.347.573-.063.107-.124.216-.185.324-.1.179-.2.358-.3.538q-.092.17-.181.342-.141.269-.275.541c-.056.114-.113.228-.167.342-.091.191-.179.384-.266.576-.047.1-.1.209-.141.314-.1.231-.2.464-.29.7-.028.068-.057.136-.084.2q-.179.455-.342.916c-.025.07-.047.141-.071.212-.081.237-.161.474-.236.712-.034.11-.066.22-.1.329-.061.2-.12.4-.176.608-.033.121-.065.243-.1.364q-.077.293-.146.588-.044.187-.086.374c-.044.2-.086.4-.126.6-.024.12-.049.241-.071.362-.04.218-.077.437-.112.656-.016.1-.035.206-.05.309-.048.322-.091.645-.128.97,0,0,0,.008,0,.012q-.05.443-.086.887H5.155V59.906A22.664,22.664,0,0,1,18.182,39.383,20.794,20.794,0,0,0,30.9,41.549c.157.223.316.445.481.662.056.073.113.144.17.216.163.208.328.414.5.616.07.083.141.164.213.245q.24.275.488.542c.087.094.176.186.264.278q.228.235.462.462c.059.057.114.117.173.174q-.336.2-.666.415l-.106.07q-.33.214-.653.437L32,45.823q-.288.2-.57.413c-.06.044-.12.088-.179.132q-.36.272-.71.554l-.152.126q-.279.228-.552.464l-.211.184q-.273.241-.54.489c-.046.043-.094.085-.14.129q-.328.308-.646.628c-.055.055-.109.112-.164.168q-.244.249-.481.5l-.188.2q-.268.292-.527.593l-.082.094q-.3.345-.58.7c-.053.066-.1.133-.157.2q-.215.273-.423.551c-.054.072-.107.143-.16.215-.181.247-.361.5-.535.751q-.28.409-.544.827m.833,21.321V68.606q0-.429.016-.855c0-.094.011-.186.015-.28.009-.19.018-.38.032-.569.009-.115.021-.228.032-.343.015-.166.028-.333.047-.5.014-.121.031-.242.047-.362.02-.157.039-.315.062-.472.019-.125.041-.248.062-.373.025-.151.049-.3.077-.453.024-.127.052-.253.078-.379.03-.146.059-.292.091-.437.029-.128.062-.254.093-.382s.068-.284.105-.425.072-.255.108-.382.077-.277.119-.414.082-.255.123-.382.086-.27.132-.4.091-.252.137-.378.1-.265.147-.4.1-.248.15-.373.1-.26.16-.389.11-.247.165-.369.113-.254.173-.379.119-.243.179-.365.122-.248.185-.37.128-.24.193-.359.13-.242.2-.361.137-.235.205-.353.139-.236.211-.353.145-.231.219-.346.147-.23.223-.344.154-.226.231-.339.155-.224.234-.335.162-.221.244-.331.163-.218.246-.326.17-.215.256-.323.171-.212.258-.317.178-.209.267-.313.179-.207.271-.309.185-.2.278-.3.187-.2.282-.3.193-.2.29-.294.195-.194.294-.289.2-.189.3-.282.2-.187.305-.28.206-.182.311-.272.21-.18.316-.269.213-.175.321-.261.218-.173.328-.259.219-.167.33-.249.226-.167.34-.248.225-.159.338-.237.234-.159.352-.237.23-.151.347-.225.241-.152.363-.226.236-.143.355-.212.248-.144.374-.214.241-.134.363-.2.256-.136.386-.2.246-.125.37-.186c.1-.048.2-.094.3-.141a20.818,20.818,0,0,0,19.367,0c.1.046.2.093.293.14.126.062.25.125.374.188s.255.132.381.2.246.134.367.2.247.14.369.212.241.143.36.215.24.148.358.223.235.151.351.228.232.155.347.235.229.159.342.24.225.163.336.246.223.167.333.252.218.17.325.256.216.174.323.263.211.178.315.268.209.181.312.274.2.184.3.277.2.189.3.285.195.19.291.287.2.2.292.3.187.2.28.3.188.2.281.306.18.2.268.306.181.209.269.315.172.209.256.315.173.215.258.324.164.215.245.324.165.221.245.333.156.222.233.334.156.226.232.34.148.228.221.342.148.231.22.348.14.233.209.35.14.236.207.355.132.24.2.36.13.239.193.36.124.246.185.37.121.243.179.365.115.252.172.378.112.246.165.371.106.257.159.386.1.25.152.376.1.263.146.395.093.252.137.379.089.27.133.405.083.253.122.38.08.276.119.415.074.254.108.382.071.283.105.425.064.254.093.382c.033.145.061.291.091.437.026.127.054.253.078.38.028.149.051.3.077.449.021.126.044.25.063.377.023.155.042.312.062.468.016.122.034.243.047.365.019.165.032.332.047.5.01.114.023.228.032.343.014.189.023.379.032.569,0,.093.012.186.015.279q.016.426.016.855v6.463Zm50.488-8.7q-.076-.942-.215-1.872c-.015-.1-.032-.2-.048-.294-.036-.224-.073-.448-.115-.672-.022-.118-.046-.235-.069-.352q-.061-.306-.128-.61-.041-.183-.085-.366-.071-.3-.148-.595c-.031-.12-.062-.239-.1-.359-.056-.206-.117-.41-.178-.615-.032-.108-.063-.216-.1-.323-.076-.242-.156-.483-.239-.723-.023-.067-.044-.135-.068-.2q-.163-.462-.343-.919c-.026-.065-.054-.13-.08-.195-.1-.236-.193-.472-.294-.706-.045-.1-.093-.206-.139-.31-.088-.195-.176-.389-.269-.582-.054-.113-.11-.225-.165-.337q-.136-.274-.278-.546c-.059-.113-.119-.226-.18-.339q-.147-.272-.3-.54c-.061-.108-.122-.215-.185-.322-.113-.194-.231-.385-.349-.576-.055-.089-.109-.179-.165-.268q-.265-.417-.545-.827c-.174-.254-.353-.5-.535-.751-.053-.072-.106-.143-.159-.214q-.209-.28-.424-.553c-.052-.066-.1-.132-.156-.2q-.286-.356-.582-.7l-.078-.089q-.261-.3-.531-.6l-.186-.2q-.239-.256-.484-.506c-.054-.055-.107-.11-.161-.165q-.319-.32-.648-.63l-.137-.126q-.269-.249-.543-.491l-.21-.183q-.274-.236-.553-.465l-.152-.125q-.35-.283-.71-.554l-.181-.134q-.281-.209-.568-.411l-.225-.157q-.32-.221-.646-.433l-.114-.075q-.329-.211-.664-.414c.058-.055.112-.113.169-.169q.24-.232.471-.472c.086-.089.172-.179.257-.269.169-.18.333-.364.5-.551.069-.079.138-.158.206-.238.173-.2.341-.414.506-.625.054-.069.11-.137.163-.207.166-.218.326-.44.483-.664a20.8,20.8,0,0,0,12.713-2.167A22.663,22.663,0,0,1,90.844,59.906v6.462Z" transform="translate(0 0)"/>
  </g>
</svg>
